<?xml version="1.0" encoding="UTF-8" standalone="no"?>
<!DOCTYPE svg PUBLIC "-//W3C//DTD SVG 1.1//EN"
 "http://www.w3.org/Graphics/SVG/1.1/DTD/svg11.dtd">
<!-- Generated by graphviz version 14.0.1 (20251006.0113)
 -->
<!-- Title: src/NetSphere/CorporateNetwork.h Pages: 1 -->
<svg width="668pt" height="96pt"
 viewBox="0.00 0.00 668.00 96.00" xmlns="http://www.w3.org/2000/svg" xmlns:xlink="http://www.w3.org/1999/xlink">
<g id="graph0" class="graph" transform="scale(1 1) rotate(0) translate(4 92)">
<title>src/NetSphere/CorporateNetwork.h</title>
<!-- Node1 -->
<g id="Node000001" class="node">
<title>Node1</title>
<g id="a_Node000001"><a xlink:title="Заголовочный файл класса CorporateNetwork &#45; корпоративной сети.">
<polygon fill="#999999" stroke="#666666" points="424,-88 254.25,-88 254.25,-68 424,-68 424,-88"/>
<text xml:space="preserve" text-anchor="middle" x="339.12" y="-74.5" font-family="Helvetica,sans-Serif" font-size="10.00">src/NetSphere/CorporateNetwork.h</text>
</a>
</g>
</g>
<!-- Node2 -->
<g id="Node000002" class="node">
<title>Node2</title>
<g id="a_Node000002"><a xlink:href="_corporate_network_8cpp.html" target="_top" xlink:title="Реализация класса CorporateNetwork &#45; корпоративной сети.">
<polygon fill="white" stroke="#666666" points="180.25,-26 0,-26 0,-6 180.25,-6 180.25,-26"/>
<text xml:space="preserve" text-anchor="middle" x="90.12" y="-12.5" font-family="Helvetica,sans-Serif" font-size="10.00">src/NetSphere/CorporateNetwork.cpp</text>
</a>
</g>
</g>
<!-- Node1&#45;&gt;Node2 -->
<g id="edge1_Node000001_Node000002" class="edge">
<title>Node1&#45;&gt;Node2</title>
<g id="a_edge1_Node000001_Node000002"><a xlink:title=" ">
<path fill="none" stroke="#63b8ff" d="M288.8,-64.87C241.79,-53.55 172.58,-36.87 129.49,-26.48"/>
<polygon fill="#63b8ff" stroke="#63b8ff" points="287.93,-68.26 298.47,-67.2 289.57,-61.46 287.93,-68.26"/>
</a>
</g>
</g>
<!-- Node3 -->
<g id="Node000003" class="node">
<title>Node3</title>
<g id="a_Node000003"><a xlink:href="main_8cpp.html" target="_top" xlink:title="Главная функция приложения NetSphere.">
<polygon fill="white" stroke="#666666" points="320,-26 198.25,-26 198.25,-6 320,-6 320,-26"/>
<text xml:space="preserve" text-anchor="middle" x="259.12" y="-12.5" font-family="Helvetica,sans-Serif" font-size="10.00">src/NetSphere/main.cpp</text>
</a>
</g>
</g>
<!-- Node1&#45;&gt;Node3 -->
<g id="edge2_Node000001_Node000003" class="edge">
<title>Node1&#45;&gt;Node3</title>
<g id="a_edge2_Node000001_Node000003"><a xlink:title=" ">
<path fill="none" stroke="#63b8ff" d="M317.67,-60.91C302.91,-49.84 283.83,-35.53 271.54,-26.31"/>
<polygon fill="#63b8ff" stroke="#63b8ff" points="315.31,-63.52 325.41,-66.72 319.51,-57.92 315.31,-63.52"/>
</a>
</g>
</g>
<!-- Node4 -->
<g id="Node000004" class="node">
<title>Node4</title>
<g id="a_Node000004"><a xlink:href="_corporate_network_error_tests_8cpp.html" target="_top" xlink:title="Тесты для обработки ошибок в классе CorporateNetwork.">
<polygon fill="white" stroke="#666666" points="500.25,-32 338,-32 338,0 500.25,0 500.25,-32"/>
<text xml:space="preserve" text-anchor="start" x="346" y="-18.5" font-family="Helvetica,sans-Serif" font-size="10.00">tests/NetSphereTests</text>
<text xml:space="preserve" text-anchor="middle" x="419.12" y="-6.5" font-family="Helvetica,sans-Serif" font-size="10.00">/CorporateNetworkErrorTests.cpp</text>
</a>
</g>
</g>
<!-- Node1&#45;&gt;Node4 -->
<g id="edge3_Node000001_Node000004" class="edge">
<title>Node1&#45;&gt;Node4</title>
<g id="a_edge3_Node000001_Node000004"><a xlink:title=" ">
<path fill="none" stroke="#63b8ff" d="M360.76,-60.78C372.54,-51.94 387.03,-41.07 398.63,-32.37"/>
<polygon fill="#63b8ff" stroke="#63b8ff" points="358.74,-57.92 352.84,-66.72 362.94,-63.52 358.74,-57.92"/>
</a>
</g>
</g>
<!-- Node5 -->
<g id="Node000005" class="node">
<title>Node5</title>
<g id="a_Node000005"><a xlink:href="_corporate_network_tests_8cpp.html" target="_top" xlink:title="Тесты для класса CorporateNetwork проекта NetSphere.">
<polygon fill="white" stroke="#666666" points="659.75,-32 518.5,-32 518.5,0 659.75,0 659.75,-32"/>
<text xml:space="preserve" text-anchor="start" x="526.5" y="-18.5" font-family="Helvetica,sans-Serif" font-size="10.00">tests/NetSphereTests</text>
<text xml:space="preserve" text-anchor="middle" x="589.12" y="-6.5" font-family="Helvetica,sans-Serif" font-size="10.00">/CorporateNetworkTests.cpp</text>
</a>
</g>
</g>
<!-- Node1&#45;&gt;Node5 -->
<g id="edge4_Node000001_Node000005" class="edge">
<title>Node1&#45;&gt;Node5</title>
<g id="a_edge4_Node000001_Node000005"><a xlink:title=" ">
<path fill="none" stroke="#63b8ff" d="M389.52,-64.9C428.47,-55.56 482.64,-42.56 524.73,-32.46"/>
<polygon fill="#63b8ff" stroke="#63b8ff" points="388.84,-61.47 379.93,-67.21 390.47,-68.28 388.84,-61.47"/>
</a>
</g>
</g>
</g>
</svg>
