<?xml version="1.0" encoding="UTF-8" standalone="no"?>
<!DOCTYPE svg PUBLIC "-//W3C//DTD SVG 1.1//EN"
 "http://www.w3.org/Graphics/SVG/1.1/DTD/svg11.dtd">
<!-- Generated by graphviz version 14.0.1 (20251006.0113)
 -->
<!-- Title: src/NetSphere/CorporateNetwork.h Pages: 1 -->
<svg width="411pt" height="196pt"
 viewBox="0.00 0.00 411.00 196.00" xmlns="http://www.w3.org/2000/svg" xmlns:xlink="http://www.w3.org/1999/xlink">

<svg id="main" version="1.1" xmlns="http://www.w3.org/2000/svg" xmlns:xlink="http://www.w3.org/1999/xlink" xml:space="preserve">

<style type="text/css"><![CDATA[
.node, .edge {opacity: 0.7;}
.node.selected, .edge.selected {opacity: 1;}
.edge:hover path { stroke: red; }
.edge:hover polygon { stroke: red; fill: red; }
]]></style>
<script type="application/ecmascript" xlink:href="svg.min.js"/>
<svg id="graph" class="graph">
<g id="graph0" class="graph" transform="scale(1 1) rotate(0) translate(4 192)">
<title>src/NetSphere/CorporateNetwork.h</title>
<!-- Node1 -->
<g id="Node000001" class="node">
<title>Node1</title>
<g id="a_Node000001"><a xlink:title="Заголовочный файл класса CorporateNetwork &#45; корпоративной сети.">
<polygon fill="#999999" stroke="#666666" points="314.75,-188 145,-188 145,-168 314.75,-168 314.75,-188"/>
<text xml:space="preserve" text-anchor="middle" x="229.88" y="-174.5" font-family="Helvetica,sans-Serif" font-size="10.00">src/NetSphere/CorporateNetwork.h</text>
</a>
</g>
</g>
<!-- Node2 -->
<g id="Node000002" class="node">
<title>Node2</title>
<g id="a_Node000002"><a xlink:href="_domain_8h.html" target="_top" xlink:title="Заголовочный файл класса Domain &#45; домена корпоративной сети.">
<polygon fill="white" stroke="#666666" points="258.88,-132 200.88,-132 200.88,-112 258.88,-112 258.88,-132"/>
<text xml:space="preserve" text-anchor="middle" x="229.88" y="-118.5" font-family="Helvetica,sans-Serif" font-size="10.00">Domain.h</text>
</a>
</g>
</g>
<!-- Node1&#45;&gt;Node2 -->
<g id="edge1_Node000001_Node000002" class="edge">
<title>Node1&#45;&gt;Node2</title>
<g id="a_edge1_Node000001_Node000002"><a xlink:title=" ">
<path fill="none" stroke="#63b8ff" d="M229.88,-167.59C229.88,-161.01 229.88,-151.96 229.88,-143.73"/>
<polygon fill="#63b8ff" stroke="#63b8ff" points="233.38,-143.81 229.88,-133.81 226.38,-143.81 233.38,-143.81"/>
</a>
</g>
</g>
<!-- Node5 -->
<g id="Node000005" class="node">
<title>Node5</title>
<g id="a_Node000005"><a xlink:title=" ">
<polygon fill="#e0e0e0" stroke="#999999" points="157.88,-20 117.88,-20 117.88,0 157.88,0 157.88,-20"/>
<text xml:space="preserve" text-anchor="middle" x="137.88" y="-6.5" font-family="Helvetica,sans-Serif" font-size="10.00">string</text>
</a>
</g>
</g>
<!-- Node1&#45;&gt;Node5 -->
<g id="edge14_Node000001_Node000005" class="edge">
<title>Node1&#45;&gt;Node5</title>
<g id="a_edge14_Node000001_Node000005"><a xlink:title=" ">
<path fill="none" stroke="#63b8ff" d="M220.93,-167.53C205.42,-150.58 173.6,-113.31 156.88,-76 150.39,-61.53 145.46,-44.26 142.25,-31.16"/>
<polygon fill="#63b8ff" stroke="#63b8ff" points="145.7,-30.54 140.05,-21.58 138.88,-32.11 145.7,-30.54"/>
</a>
</g>
</g>
<!-- Node6 -->
<g id="Node000006" class="node">
<title>Node6</title>
<g id="a_Node000006"><a xlink:title=" ">
<polygon fill="#e0e0e0" stroke="#999999" points="305.5,-20 254.25,-20 254.25,0 305.5,0 305.5,-20"/>
<text xml:space="preserve" text-anchor="middle" x="279.88" y="-6.5" font-family="Helvetica,sans-Serif" font-size="10.00">memory</text>
</a>
</g>
</g>
<!-- Node1&#45;&gt;Node6 -->
<g id="edge13_Node000001_Node000006" class="edge">
<title>Node1&#45;&gt;Node6</title>
<g id="a_edge13_Node000001_Node000006"><a xlink:title=" ">
<path fill="none" stroke="#63b8ff" d="M264.57,-167.57C305.08,-154.5 370.2,-126.54 398.88,-76 418.73,-41 359.02,-23.76 317.14,-16.17"/>
<polygon fill="#63b8ff" stroke="#63b8ff" points="317.82,-12.73 307.38,-14.53 316.66,-19.64 317.82,-12.73"/>
</a>
</g>
</g>
<!-- Node7 -->
<g id="Node000007" class="node">
<title>Node7</title>
<g id="a_Node000007"><a xlink:href="_network_exceptions_8h.html" target="_top" xlink:title="Заголовочный файл с классами исключений для корпоративной сети.">
<polygon fill="white" stroke="#666666" points="109.75,-76 0,-76 0,-56 109.75,-56 109.75,-76"/>
<text xml:space="preserve" text-anchor="middle" x="54.88" y="-62.5" font-family="Helvetica,sans-Serif" font-size="10.00">NetworkExceptions.h</text>
</a>
</g>
</g>
<!-- Node1&#45;&gt;Node7 -->
<g id="edge11_Node000001_Node000007" class="edge">
<title>Node1&#45;&gt;Node7</title>
<g id="a_edge11_Node000001_Node000007"><a xlink:title=" ">
<path fill="none" stroke="#63b8ff" d="M200.14,-167.57C178.08,-159.84 147.81,-147.63 123.88,-132 103.3,-118.57 83.26,-98.69 70.12,-84.46"/>
<polygon fill="#63b8ff" stroke="#63b8ff" points="72.85,-82.27 63.56,-77.17 67.65,-86.95 72.85,-82.27"/>
</a>
</g>
</g>
<!-- Node9 -->
<g id="Node000009" class="node">
<title>Node9</title>
<g id="a_Node000009"><a xlink:title=" ">
<polygon fill="#e0e0e0" stroke="#999999" points="390.25,-76 307.5,-76 307.5,-56 390.25,-56 390.25,-76"/>
<text xml:space="preserve" text-anchor="middle" x="348.88" y="-62.5" font-family="Helvetica,sans-Serif" font-size="10.00">unordered_map</text>
</a>
</g>
</g>
<!-- Node1&#45;&gt;Node9 -->
<g id="edge12_Node000001_Node000009" class="edge">
<title>Node1&#45;&gt;Node9</title>
<g id="a_edge12_Node000001_Node000009"><a xlink:title=" ">
<path fill="none" stroke="#63b8ff" d="M240.02,-167.62C260.04,-149.11 304.9,-107.65 330.34,-84.13"/>
<polygon fill="#63b8ff" stroke="#63b8ff" points="332.68,-86.74 337.64,-77.38 327.92,-81.6 332.68,-86.74"/>
</a>
</g>
</g>
<!-- Node3 -->
<g id="Node000003" class="node">
<title>Node3</title>
<g id="a_Node000003"><a xlink:href="_network_entity_8h.html" target="_top" xlink:title="Заголовочный файл базового класса NetworkEntity для всех сущностей сети.">
<polygon fill="white" stroke="#666666" points="251.75,-76 166,-76 166,-56 251.75,-56 251.75,-76"/>
<text xml:space="preserve" text-anchor="middle" x="208.88" y="-62.5" font-family="Helvetica,sans-Serif" font-size="10.00">NetworkEntity.h</text>
</a>
</g>
</g>
<!-- Node2&#45;&gt;Node3 -->
<g id="edge2_Node000002_Node000003" class="edge">
<title>Node2&#45;&gt;Node3</title>
<g id="a_edge2_Node000002_Node000003"><a xlink:title=" ">
<path fill="none" stroke="#63b8ff" d="M226.22,-111.59C223.57,-104.78 219.89,-95.32 216.6,-86.86"/>
<polygon fill="#63b8ff" stroke="#63b8ff" points="219.93,-85.76 213.04,-77.71 213.4,-88.3 219.93,-85.76"/>
</a>
</g>
</g>
<!-- Node2&#45;&gt;Node6 -->
<g id="edge10_Node000002_Node000006" class="edge">
<title>Node2&#45;&gt;Node6</title>
<g id="a_edge10_Node000002_Node000006"><a xlink:title=" ">
<path fill="none" stroke="#63b8ff" d="M237.73,-111.55C244.66,-102.8 254.6,-89.19 260.88,-76 267.68,-61.68 272.59,-44.4 275.71,-31.26"/>
<polygon fill="#63b8ff" stroke="#63b8ff" points="279.1,-32.16 277.83,-21.64 272.26,-30.65 279.1,-32.16"/>
</a>
</g>
</g>
<!-- Node2&#45;&gt;Node7 -->
<g id="edge6_Node000002_Node000007" class="edge">
<title>Node2&#45;&gt;Node7</title>
<g id="a_edge6_Node000002_Node000007"><a xlink:title=" ">
<path fill="none" stroke="#63b8ff" d="M200.58,-111.96C172.04,-103.15 128.36,-89.67 96.26,-79.77"/>
<polygon fill="#63b8ff" stroke="#63b8ff" points="97.47,-76.48 86.89,-76.88 95.41,-83.17 97.47,-76.48"/>
</a>
</g>
</g>
<!-- Node2&#45;&gt;Node9 -->
<g id="edge9_Node000002_Node000009" class="edge">
<title>Node2&#45;&gt;Node9</title>
<g id="a_edge9_Node000002_Node000009"><a xlink:title=" ">
<path fill="none" stroke="#63b8ff" d="M250.6,-111.59C269.09,-103.21 296.42,-90.8 317.57,-81.21"/>
<polygon fill="#63b8ff" stroke="#63b8ff" points="318.95,-84.42 326.61,-77.1 316.05,-78.05 318.95,-84.42"/>
</a>
</g>
</g>
<!-- Node4 -->
<g id="Node000004" class="node">
<title>Node4</title>
<g id="a_Node000004"><a xlink:title=" ">
<polygon fill="#e0e0e0" stroke="#999999" points="235.62,-20 182.12,-20 182.12,0 235.62,0 235.62,-20"/>
<text xml:space="preserve" text-anchor="middle" x="208.88" y="-6.5" font-family="Helvetica,sans-Serif" font-size="10.00">iostream</text>
</a>
</g>
</g>
<!-- Node3&#45;&gt;Node4 -->
<g id="edge3_Node000003_Node000004" class="edge">
<title>Node3&#45;&gt;Node4</title>
<g id="a_edge3_Node000003_Node000004"><a xlink:title=" ">
<path fill="none" stroke="#63b8ff" d="M208.88,-55.59C208.88,-49.01 208.88,-39.96 208.88,-31.73"/>
<polygon fill="#63b8ff" stroke="#63b8ff" points="212.38,-31.81 208.88,-21.81 205.38,-31.81 212.38,-31.81"/>
</a>
</g>
</g>
<!-- Node3&#45;&gt;Node5 -->
<g id="edge4_Node000003_Node000005" class="edge">
<title>Node3&#45;&gt;Node5</title>
<g id="a_edge4_Node000003_Node000005"><a xlink:title=" ">
<path fill="none" stroke="#63b8ff" d="M196.51,-55.59C186.23,-47.77 171.36,-36.46 159.16,-27.19"/>
<polygon fill="#63b8ff" stroke="#63b8ff" points="161.38,-24.48 151.31,-21.21 157.15,-30.05 161.38,-24.48"/>
</a>
</g>
</g>
<!-- Node3&#45;&gt;Node6 -->
<g id="edge5_Node000003_Node000006" class="edge">
<title>Node3&#45;&gt;Node6</title>
<g id="a_edge5_Node000003_Node000006"><a xlink:title=" ">
<path fill="none" stroke="#63b8ff" d="M221.24,-55.59C231.52,-47.77 246.39,-36.46 258.59,-27.19"/>
<polygon fill="#63b8ff" stroke="#63b8ff" points="260.6,-30.05 266.44,-21.21 256.37,-24.48 260.6,-30.05"/>
</a>
</g>
</g>
<!-- Node7&#45;&gt;Node5 -->
<g id="edge8_Node000007_Node000005" class="edge">
<title>Node7&#45;&gt;Node5</title>
<g id="a_edge8_Node000007_Node000005"><a xlink:title=" ">
<path fill="none" stroke="#63b8ff" d="M69.33,-55.59C81.63,-47.59 99.55,-35.93 113.98,-26.54"/>
<polygon fill="#63b8ff" stroke="#63b8ff" points="115.56,-29.69 122.04,-21.3 111.75,-23.82 115.56,-29.69"/>
</a>
</g>
</g>
<!-- Node8 -->
<g id="Node000008" class="node">
<title>Node8</title>
<g id="a_Node000008"><a xlink:title=" ">
<polygon fill="#e0e0e0" stroke="#999999" points="84.25,-20 25.5,-20 25.5,0 84.25,0 84.25,-20"/>
<text xml:space="preserve" text-anchor="middle" x="54.88" y="-6.5" font-family="Helvetica,sans-Serif" font-size="10.00">stdexcept</text>
</a>
</g>
</g>
<!-- Node7&#45;&gt;Node8 -->
<g id="edge7_Node000007_Node000008" class="edge">
<title>Node7&#45;&gt;Node8</title>
<g id="a_edge7_Node000007_Node000008"><a xlink:title=" ">
<path fill="none" stroke="#63b8ff" d="M54.88,-55.59C54.88,-49.01 54.88,-39.96 54.88,-31.73"/>
<polygon fill="#63b8ff" stroke="#63b8ff" points="58.38,-31.81 54.88,-21.81 51.38,-31.81 58.38,-31.81"/>
</a>
</g>
</g>
</g>
</svg>
</svg>

<style type='text/css'>
<![CDATA[
[data-mouse-over-selected='false'] { opacity: 0.7; }
[data-mouse-over-selected='true']  { opacity: 1.0; }
]]>
</style>
<script type="application/ecmascript"><![CDATA[
document.addEventListener('DOMContentLoaded', (event) => {
  highlightEdges();
  highlightAdjacentNodes();
});
]]></script>
</svg>
