<?xml version="1.0" encoding="UTF-8" standalone="no"?>
<!DOCTYPE svg PUBLIC "-//W3C//DTD SVG 1.1//EN"
 "http://www.w3.org/Graphics/SVG/1.1/DTD/svg11.dtd">
<!-- Generated by graphviz version 14.0.1 (20251006.0113)
 -->
<!-- Title: src/NetSphere/CorporateNetwork.cpp Pages: 1 -->
<svg width="447pt" height="252pt"
 viewBox="0.00 0.00 447.00 252.00" xmlns="http://www.w3.org/2000/svg" xmlns:xlink="http://www.w3.org/1999/xlink">
<g id="graph0" class="graph" transform="scale(1 1) rotate(0) translate(4 248)">
<title>src/NetSphere/CorporateNetwork.cpp</title>
<!-- Node1 -->
<g id="Node000001" class="node">
<title>Node1</title>
<g id="a_Node000001"><a xlink:title="Реализация класса CorporateNetwork &#45; корпоративной сети.">
<polygon fill="#999999" stroke="#666666" points="180.25,-244 0,-244 0,-224 180.25,-224 180.25,-244"/>
<text xml:space="preserve" text-anchor="middle" x="90.12" y="-230.5" font-family="Helvetica,sans-Serif" font-size="10.00">src/NetSphere/CorporateNetwork.cpp</text>
</a>
</g>
</g>
<!-- Node2 -->
<g id="Node000002" class="node">
<title>Node2</title>
<g id="a_Node000002"><a xlink:href="_corporate_network_8h.html" target="_top" xlink:title="Заголовочный файл класса CorporateNetwork &#45; корпоративной сети.">
<polygon fill="white" stroke="#666666" points="260,-188 156.25,-188 156.25,-168 260,-168 260,-188"/>
<text xml:space="preserve" text-anchor="middle" x="208.12" y="-174.5" font-family="Helvetica,sans-Serif" font-size="10.00">CorporateNetwork.h</text>
</a>
</g>
</g>
<!-- Node1&#45;&gt;Node2 -->
<g id="edge1_Node000001_Node000002" class="edge">
<title>Node1&#45;&gt;Node2</title>
<g id="a_edge1_Node000001_Node000002"><a xlink:title=" ">
<path fill="none" stroke="#63b8ff" d="M110.68,-223.59C129.01,-215.21 156.11,-202.8 177.08,-193.21"/>
<polygon fill="#63b8ff" stroke="#63b8ff" points="178.4,-196.45 186.03,-189.11 175.48,-190.09 178.4,-196.45"/>
</a>
</g>
</g>
<!-- Node5 -->
<g id="Node000005" class="node">
<title>Node5</title>
<g id="a_Node000005"><a xlink:title=" ">
<polygon fill="#e0e0e0" stroke="#999999" points="162.88,-20 109.38,-20 109.38,0 162.88,0 162.88,-20"/>
<text xml:space="preserve" text-anchor="middle" x="136.12" y="-6.5" font-family="Helvetica,sans-Serif" font-size="10.00">iostream</text>
</a>
</g>
</g>
<!-- Node1&#45;&gt;Node5 -->
<g id="edge16_Node000001_Node000005" class="edge">
<title>Node1&#45;&gt;Node5</title>
<g id="a_edge16_Node000001_Node000005"><a xlink:title=" ">
<path fill="none" stroke="#63b8ff" d="M81.33,-223.82C56.09,-196.37 -12.31,-113.24 26.12,-56 34.6,-43.37 69.8,-30.36 98.13,-21.6"/>
<polygon fill="#63b8ff" stroke="#63b8ff" points="98.94,-25.01 107.52,-18.78 96.93,-18.31 98.94,-25.01"/>
</a>
</g>
</g>
<!-- Node3 -->
<g id="Node000003" class="node">
<title>Node3</title>
<g id="a_Node000003"><a xlink:href="_domain_8h.html" target="_top" xlink:title="Заголовочный файл класса Domain &#45; домена корпоративной сети.">
<polygon fill="white" stroke="#666666" points="273.12,-132 215.12,-132 215.12,-112 273.12,-112 273.12,-132"/>
<text xml:space="preserve" text-anchor="middle" x="244.12" y="-118.5" font-family="Helvetica,sans-Serif" font-size="10.00">Domain.h</text>
</a>
</g>
</g>
<!-- Node2&#45;&gt;Node3 -->
<g id="edge2_Node000002_Node000003" class="edge">
<title>Node2&#45;&gt;Node3</title>
<g id="a_edge2_Node000002_Node000003"><a xlink:title=" ">
<path fill="none" stroke="#63b8ff" d="M214.4,-167.59C219.14,-160.47 225.82,-150.45 231.65,-141.72"/>
<polygon fill="#63b8ff" stroke="#63b8ff" points="234.45,-143.82 237.09,-133.56 228.63,-139.94 234.45,-143.82"/>
</a>
</g>
</g>
<!-- Node6 -->
<g id="Node000006" class="node">
<title>Node6</title>
<g id="a_Node000006"><a xlink:title=" ">
<polygon fill="#e0e0e0" stroke="#999999" points="221.12,-20 181.12,-20 181.12,0 221.12,0 221.12,-20"/>
<text xml:space="preserve" text-anchor="middle" x="201.12" y="-6.5" font-family="Helvetica,sans-Serif" font-size="10.00">string</text>
</a>
</g>
</g>
<!-- Node2&#45;&gt;Node6 -->
<g id="edge15_Node000002_Node000006" class="edge">
<title>Node2&#45;&gt;Node6</title>
<g id="a_edge15_Node000002_Node000006"><a xlink:title=" ">
<path fill="none" stroke="#63b8ff" d="M205.4,-167.61C199.82,-147.3 187.99,-97.75 192.12,-56 192.93,-47.88 194.53,-39.05 196.16,-31.38"/>
<polygon fill="#63b8ff" stroke="#63b8ff" points="199.56,-32.23 198.38,-21.7 192.74,-30.67 199.56,-32.23"/>
</a>
</g>
</g>
<!-- Node7 -->
<g id="Node000007" class="node">
<title>Node7</title>
<g id="a_Node000007"><a xlink:title=" ">
<polygon fill="#e0e0e0" stroke="#999999" points="340.75,-20 289.5,-20 289.5,0 340.75,0 340.75,-20"/>
<text xml:space="preserve" text-anchor="middle" x="315.12" y="-6.5" font-family="Helvetica,sans-Serif" font-size="10.00">memory</text>
</a>
</g>
</g>
<!-- Node2&#45;&gt;Node7 -->
<g id="edge14_Node000002_Node000007" class="edge">
<title>Node2&#45;&gt;Node7</title>
<g id="a_edge14_Node000002_Node000007"><a xlink:title=" ">
<path fill="none" stroke="#63b8ff" d="M260.43,-170.11C314.46,-159.9 396.1,-135.09 434.12,-76 456.06,-41.91 394.63,-24.27 352.07,-16.38"/>
<polygon fill="#63b8ff" stroke="#63b8ff" points="352.86,-12.96 342.41,-14.7 351.67,-19.86 352.86,-12.96"/>
</a>
</g>
</g>
<!-- Node8 -->
<g id="Node000008" class="node">
<title>Node8</title>
<g id="a_Node000008"><a xlink:href="_network_exceptions_8h.html" target="_top" xlink:title="Заголовочный файл с классами исключений для корпоративной сети.">
<polygon fill="white" stroke="#666666" points="145,-76 35.25,-76 35.25,-56 145,-56 145,-76"/>
<text xml:space="preserve" text-anchor="middle" x="90.12" y="-62.5" font-family="Helvetica,sans-Serif" font-size="10.00">NetworkExceptions.h</text>
</a>
</g>
</g>
<!-- Node2&#45;&gt;Node8 -->
<g id="edge12_Node000002_Node000008" class="edge">
<title>Node2&#45;&gt;Node8</title>
<g id="a_edge12_Node000002_Node000008"><a xlink:title=" ">
<path fill="none" stroke="#63b8ff" d="M197.96,-167.73C188.02,-158.66 172.49,-144.43 159.12,-132 141.73,-115.82 122.01,-97.21 108.12,-84.07"/>
<polygon fill="#63b8ff" stroke="#63b8ff" points="110.68,-81.67 101.01,-77.34 105.87,-86.76 110.68,-81.67"/>
</a>
</g>
</g>
<!-- Node10 -->
<g id="Node000010" class="node">
<title>Node10</title>
<g id="a_Node000010"><a xlink:title=" ">
<polygon fill="#e0e0e0" stroke="#999999" points="425.5,-76 342.75,-76 342.75,-56 425.5,-56 425.5,-76"/>
<text xml:space="preserve" text-anchor="middle" x="384.12" y="-62.5" font-family="Helvetica,sans-Serif" font-size="10.00">unordered_map</text>
</a>
</g>
</g>
<!-- Node2&#45;&gt;Node10 -->
<g id="edge13_Node000002_Node000010" class="edge">
<title>Node2&#45;&gt;Node10</title>
<g id="a_edge13_Node000002_Node000010"><a xlink:title=" ">
<path fill="none" stroke="#63b8ff" d="M223.77,-167.61C238.79,-158.58 262.08,-144.48 282.12,-132 308.96,-115.29 339.52,-95.75 360.13,-82.49"/>
<polygon fill="#63b8ff" stroke="#63b8ff" points="361.88,-85.53 368.39,-77.17 358.08,-79.65 361.88,-85.53"/>
</a>
</g>
</g>
<!-- Node4 -->
<g id="Node000004" class="node">
<title>Node4</title>
<g id="a_Node000004"><a xlink:href="_network_entity_8h.html" target="_top" xlink:title="Заголовочный файл базового класса NetworkEntity для всех сущностей сети.">
<polygon fill="white" stroke="#666666" points="287,-76 201.25,-76 201.25,-56 287,-56 287,-76"/>
<text xml:space="preserve" text-anchor="middle" x="244.12" y="-62.5" font-family="Helvetica,sans-Serif" font-size="10.00">NetworkEntity.h</text>
</a>
</g>
</g>
<!-- Node3&#45;&gt;Node4 -->
<g id="edge3_Node000003_Node000004" class="edge">
<title>Node3&#45;&gt;Node4</title>
<g id="a_edge3_Node000003_Node000004"><a xlink:title=" ">
<path fill="none" stroke="#63b8ff" d="M244.12,-111.59C244.12,-105.01 244.12,-95.96 244.12,-87.73"/>
<polygon fill="#63b8ff" stroke="#63b8ff" points="247.63,-87.81 244.13,-77.81 240.63,-87.81 247.63,-87.81"/>
</a>
</g>
</g>
<!-- Node3&#45;&gt;Node7 -->
<g id="edge11_Node000003_Node000007" class="edge">
<title>Node3&#45;&gt;Node7</title>
<g id="a_edge11_Node000003_Node000007"><a xlink:title=" ">
<path fill="none" stroke="#63b8ff" d="M258.98,-111.67C270.69,-103.58 286.58,-90.87 296.12,-76 304.88,-62.37 309.72,-44.58 312.31,-31.05"/>
<polygon fill="#63b8ff" stroke="#63b8ff" points="315.7,-32.01 313.87,-21.57 308.8,-30.87 315.7,-32.01"/>
</a>
</g>
</g>
<!-- Node3&#45;&gt;Node8 -->
<g id="edge7_Node000003_Node000008" class="edge">
<title>Node3&#45;&gt;Node8</title>
<g id="a_edge7_Node000003_Node000008"><a xlink:title=" ">
<path fill="none" stroke="#63b8ff" d="M217.3,-111.59C192.5,-102.9 155.4,-89.89 127.66,-80.16"/>
<polygon fill="#63b8ff" stroke="#63b8ff" points="129.18,-76.99 118.59,-76.98 126.87,-83.59 129.18,-76.99"/>
</a>
</g>
</g>
<!-- Node3&#45;&gt;Node10 -->
<g id="edge10_Node000003_Node000010" class="edge">
<title>Node3&#45;&gt;Node10</title>
<g id="a_edge10_Node000003_Node000010"><a xlink:title=" ">
<path fill="none" stroke="#63b8ff" d="M268.51,-111.59C290.76,-103.01 323.89,-90.23 348.99,-80.55"/>
<polygon fill="#63b8ff" stroke="#63b8ff" points="350.07,-83.89 358.14,-77.02 347.55,-77.36 350.07,-83.89"/>
</a>
</g>
</g>
<!-- Node4&#45;&gt;Node5 -->
<g id="edge4_Node000004_Node000005" class="edge">
<title>Node4&#45;&gt;Node5</title>
<g id="a_edge4_Node000004_Node000005"><a xlink:title=" ">
<path fill="none" stroke="#63b8ff" d="M225.31,-55.59C208.77,-47.32 184.41,-35.14 165.33,-25.6"/>
<polygon fill="#63b8ff" stroke="#63b8ff" points="166.95,-22.5 156.44,-21.16 163.82,-28.76 166.95,-22.5"/>
</a>
</g>
</g>
<!-- Node4&#45;&gt;Node6 -->
<g id="edge5_Node000004_Node000006" class="edge">
<title>Node4&#45;&gt;Node6</title>
<g id="a_edge5_Node000004_Node000006"><a xlink:title=" ">
<path fill="none" stroke="#63b8ff" d="M236.63,-55.59C230.84,-48.32 222.64,-38.02 215.58,-29.15"/>
<polygon fill="#63b8ff" stroke="#63b8ff" points="218.44,-27.12 209.47,-21.48 212.96,-31.49 218.44,-27.12"/>
</a>
</g>
</g>
<!-- Node4&#45;&gt;Node7 -->
<g id="edge6_Node000004_Node000007" class="edge">
<title>Node4&#45;&gt;Node7</title>
<g id="a_edge6_Node000004_Node000007"><a xlink:title=" ">
<path fill="none" stroke="#63b8ff" d="M256.49,-55.59C266.77,-47.77 281.64,-36.46 293.84,-27.19"/>
<polygon fill="#63b8ff" stroke="#63b8ff" points="295.85,-30.05 301.69,-21.21 291.62,-24.48 295.85,-30.05"/>
</a>
</g>
</g>
<!-- Node8&#45;&gt;Node6 -->
<g id="edge9_Node000008_Node000006" class="edge">
<title>Node8&#45;&gt;Node6</title>
<g id="a_edge9_Node000008_Node000006"><a xlink:title=" ">
<path fill="none" stroke="#63b8ff" d="M109.46,-55.59C126.54,-47.28 151.73,-35.03 171.38,-25.47"/>
<polygon fill="#63b8ff" stroke="#63b8ff" points="172.82,-28.66 180.28,-21.14 169.75,-22.37 172.82,-28.66"/>
</a>
</g>
</g>
<!-- Node9 -->
<g id="Node000009" class="node">
<title>Node9</title>
<g id="a_Node000009"><a xlink:title=" ">
<polygon fill="#e0e0e0" stroke="#999999" points="91.5,-20 32.75,-20 32.75,0 91.5,0 91.5,-20"/>
<text xml:space="preserve" text-anchor="middle" x="62.12" y="-6.5" font-family="Helvetica,sans-Serif" font-size="10.00">stdexcept</text>
</a>
</g>
</g>
<!-- Node8&#45;&gt;Node9 -->
<g id="edge8_Node000008_Node000009" class="edge">
<title>Node8&#45;&gt;Node9</title>
<g id="a_edge8_Node000008_Node000009"><a xlink:title=" ">
<path fill="none" stroke="#63b8ff" d="M85.25,-55.59C81.63,-48.63 76.58,-38.89 72.13,-30.29"/>
<polygon fill="#63b8ff" stroke="#63b8ff" points="75.35,-28.91 67.64,-21.64 69.14,-32.13 75.35,-28.91"/>
</a>
</g>
</g>
</g>
</svg>
