<?xml version="1.0" encoding="UTF-8" standalone="no"?>
<!DOCTYPE svg PUBLIC "-//W3C//DTD SVG 1.1//EN"
 "http://www.w3.org/Graphics/SVG/1.1/DTD/svg11.dtd">
<!-- Generated by graphviz version 14.0.1 (20251006.0113)
 -->
<!-- Title: src/NetSphere/DataStorage.h Pages: 1 -->
<svg width="373pt" height="196pt"
 viewBox="0.00 0.00 373.00 196.00" xmlns="http://www.w3.org/2000/svg" xmlns:xlink="http://www.w3.org/1999/xlink">

<svg id="main" version="1.1" xmlns="http://www.w3.org/2000/svg" xmlns:xlink="http://www.w3.org/1999/xlink" xml:space="preserve">

<style type="text/css"><![CDATA[
.node, .edge {opacity: 0.7;}
.node.selected, .edge.selected {opacity: 1;}
.edge:hover path { stroke: red; }
.edge:hover polygon { stroke: red; fill: red; }
]]></style>
<script type="application/ecmascript" xlink:href="svg.min.js"/>
<svg id="graph" class="graph">
<g id="graph0" class="graph" transform="scale(1 1) rotate(0) translate(4 192)">
<title>src/NetSphere/DataStorage.h</title>
<!-- Node1 -->
<g id="Node000001" class="node">
<title>Node1</title>
<g id="a_Node000001"><a xlink:title="Заголовочный файл класса DataStorage &#45; хранилища данных в корпоративной сети.">
<polygon fill="#999999" stroke="#666666" points="344.25,-188 199.25,-188 199.25,-168 344.25,-168 344.25,-188"/>
<text xml:space="preserve" text-anchor="middle" x="271.75" y="-174.5" font-family="Helvetica,sans-Serif" font-size="10.00">src/NetSphere/DataStorage.h</text>
</a>
</g>
</g>
<!-- Node2 -->
<g id="Node000002" class="node">
<title>Node2</title>
<g id="a_Node000002"><a xlink:href="_device_8h.html" target="_top" xlink:title="Заголовочный файл базового класса Device для всех устройств сети.">
<polygon fill="white" stroke="#666666" points="232.25,-132 177.25,-132 177.25,-112 232.25,-112 232.25,-132"/>
<text xml:space="preserve" text-anchor="middle" x="204.75" y="-118.5" font-family="Helvetica,sans-Serif" font-size="10.00">Device.h</text>
</a>
</g>
</g>
<!-- Node1&#45;&gt;Node2 -->
<g id="edge1_Node000001_Node000002" class="edge">
<title>Node1&#45;&gt;Node2</title>
<g id="a_edge1_Node000001_Node000002"><a xlink:title=" ">
<path fill="none" stroke="#63b8ff" d="M260.08,-167.59C250.47,-159.85 236.62,-148.69 225.18,-139.47"/>
<polygon fill="#63b8ff" stroke="#63b8ff" points="227.45,-136.8 217.47,-133.25 223.05,-142.25 227.45,-136.8"/>
</a>
</g>
</g>
<!-- Node10 -->
<g id="Node000010" class="node">
<title>Node10</title>
<g id="a_Node000010"><a xlink:title=" ">
<polygon fill="#e0e0e0" stroke="#999999" points="293.25,-132 250.25,-132 250.25,-112 293.25,-112 293.25,-132"/>
<text xml:space="preserve" text-anchor="middle" x="271.75" y="-118.5" font-family="Helvetica,sans-Serif" font-size="10.00">vector</text>
</a>
</g>
</g>
<!-- Node1&#45;&gt;Node10 -->
<g id="edge11_Node000001_Node000010" class="edge">
<title>Node1&#45;&gt;Node10</title>
<g id="a_edge11_Node000001_Node000010"><a xlink:title=" ">
<path fill="none" stroke="#63b8ff" d="M271.75,-167.59C271.75,-161.01 271.75,-151.96 271.75,-143.73"/>
<polygon fill="#63b8ff" stroke="#63b8ff" points="275.25,-143.81 271.75,-133.81 268.25,-143.81 275.25,-143.81"/>
</a>
</g>
</g>
<!-- Node11 -->
<g id="Node000011" class="node">
<title>Node11</title>
<g id="a_Node000011"><a xlink:title=" ">
<polygon fill="#e0e0e0" stroke="#999999" points="364.5,-132 311,-132 311,-112 364.5,-112 364.5,-132"/>
<text xml:space="preserve" text-anchor="middle" x="337.75" y="-118.5" font-family="Helvetica,sans-Serif" font-size="10.00">compare</text>
</a>
</g>
</g>
<!-- Node1&#45;&gt;Node11 -->
<g id="edge12_Node000001_Node000011" class="edge">
<title>Node1&#45;&gt;Node11</title>
<g id="a_edge12_Node000001_Node000011"><a xlink:title=" ">
<path fill="none" stroke="#63b8ff" d="M283.25,-167.59C292.71,-159.85 306.35,-148.69 317.62,-139.47"/>
<polygon fill="#63b8ff" stroke="#63b8ff" points="319.69,-142.3 325.21,-133.26 315.26,-136.88 319.69,-142.3"/>
</a>
</g>
</g>
<!-- Node3 -->
<g id="Node000003" class="node">
<title>Node3</title>
<g id="a_Node000003"><a xlink:href="_network_entity_8h.html" target="_top" xlink:title="Заголовочный файл базового класса NetworkEntity для всех сущностей сети.">
<polygon fill="white" stroke="#666666" points="135.62,-76 49.88,-76 49.88,-56 135.62,-56 135.62,-76"/>
<text xml:space="preserve" text-anchor="middle" x="92.75" y="-62.5" font-family="Helvetica,sans-Serif" font-size="10.00">NetworkEntity.h</text>
</a>
</g>
</g>
<!-- Node2&#45;&gt;Node3 -->
<g id="edge2_Node000002_Node000003" class="edge">
<title>Node2&#45;&gt;Node3</title>
<g id="a_edge2_Node000002_Node000003"><a xlink:title=" ">
<path fill="none" stroke="#63b8ff" d="M185.24,-111.59C168,-103.28 142.59,-91.03 122.76,-81.47"/>
<polygon fill="#63b8ff" stroke="#63b8ff" points="124.3,-78.33 113.77,-77.14 121.26,-84.63 124.3,-78.33"/>
</a>
</g>
</g>
<!-- Node5 -->
<g id="Node000005" class="node">
<title>Node5</title>
<g id="a_Node000005"><a xlink:title=" ">
<polygon fill="#e0e0e0" stroke="#999999" points="183.75,-20 143.75,-20 143.75,0 183.75,0 183.75,-20"/>
<text xml:space="preserve" text-anchor="middle" x="163.75" y="-6.5" font-family="Helvetica,sans-Serif" font-size="10.00">string</text>
</a>
</g>
</g>
<!-- Node2&#45;&gt;Node5 -->
<g id="edge9_Node000002_Node000005" class="edge">
<title>Node2&#45;&gt;Node5</title>
<g id="a_edge9_Node000002_Node000005"><a xlink:title=" ">
<path fill="none" stroke="#63b8ff" d="M199.54,-111.56C194.75,-102.59 187.65,-88.65 182.75,-76 177.09,-61.38 172.17,-44.35 168.75,-31.39"/>
<polygon fill="#63b8ff" stroke="#63b8ff" points="172.19,-30.72 166.34,-21.89 165.41,-32.44 172.19,-30.72"/>
</a>
</g>
</g>
<!-- Node7 -->
<g id="Node000007" class="node">
<title>Node7</title>
<g id="a_Node000007"><a xlink:href="_network_exceptions_8h.html" target="_top" xlink:title="Заголовочный файл с классами исключений для корпоративной сети.">
<polygon fill="white" stroke="#666666" points="301.62,-76 191.88,-76 191.88,-56 301.62,-56 301.62,-76"/>
<text xml:space="preserve" text-anchor="middle" x="246.75" y="-62.5" font-family="Helvetica,sans-Serif" font-size="10.00">NetworkExceptions.h</text>
</a>
</g>
</g>
<!-- Node2&#45;&gt;Node7 -->
<g id="edge6_Node000002_Node000007" class="edge">
<title>Node2&#45;&gt;Node7</title>
<g id="a_edge6_Node000002_Node000007"><a xlink:title=" ">
<path fill="none" stroke="#63b8ff" d="M212.07,-111.59C217.73,-104.32 225.74,-94.02 232.64,-85.15"/>
<polygon fill="#63b8ff" stroke="#63b8ff" points="235.21,-87.54 238.59,-77.49 229.69,-83.24 235.21,-87.54"/>
</a>
</g>
</g>
<!-- Node9 -->
<g id="Node000009" class="node">
<title>Node9</title>
<g id="a_Node000009"><a xlink:title=" ">
<polygon fill="#e0e0e0" stroke="#999999" points="359.75,-76 319.75,-76 319.75,-56 359.75,-56 359.75,-76"/>
<text xml:space="preserve" text-anchor="middle" x="339.75" y="-62.5" font-family="Helvetica,sans-Serif" font-size="10.00">regex</text>
</a>
</g>
</g>
<!-- Node2&#45;&gt;Node9 -->
<g id="edge10_Node000002_Node000009" class="edge">
<title>Node2&#45;&gt;Node9</title>
<g id="a_edge10_Node000002_Node000009"><a xlink:title=" ">
<path fill="none" stroke="#63b8ff" d="M228.27,-111.59C250.67,-102.63 284.53,-89.09 309.05,-79.28"/>
<polygon fill="#63b8ff" stroke="#63b8ff" points="310.19,-82.59 318.18,-75.63 307.59,-76.09 310.19,-82.59"/>
</a>
</g>
</g>
<!-- Node4 -->
<g id="Node000004" class="node">
<title>Node4</title>
<g id="a_Node000004"><a xlink:title=" ">
<polygon fill="#e0e0e0" stroke="#999999" points="53.5,-20 0,-20 0,0 53.5,0 53.5,-20"/>
<text xml:space="preserve" text-anchor="middle" x="26.75" y="-6.5" font-family="Helvetica,sans-Serif" font-size="10.00">iostream</text>
</a>
</g>
</g>
<!-- Node3&#45;&gt;Node4 -->
<g id="edge3_Node000003_Node000004" class="edge">
<title>Node3&#45;&gt;Node4</title>
<g id="a_edge3_Node000003_Node000004"><a xlink:title=" ">
<path fill="none" stroke="#63b8ff" d="M81.25,-55.59C71.79,-47.85 58.15,-36.69 46.88,-27.47"/>
<polygon fill="#63b8ff" stroke="#63b8ff" points="49.24,-24.88 39.29,-21.26 44.81,-30.3 49.24,-24.88"/>
</a>
</g>
</g>
<!-- Node3&#45;&gt;Node5 -->
<g id="edge4_Node000003_Node000005" class="edge">
<title>Node3&#45;&gt;Node5</title>
<g id="a_edge4_Node000003_Node000005"><a xlink:title=" ">
<path fill="none" stroke="#63b8ff" d="M105.12,-55.59C115.4,-47.77 130.27,-36.46 142.46,-27.19"/>
<polygon fill="#63b8ff" stroke="#63b8ff" points="144.48,-30.05 150.32,-21.21 140.24,-24.48 144.48,-30.05"/>
</a>
</g>
</g>
<!-- Node6 -->
<g id="Node000006" class="node">
<title>Node6</title>
<g id="a_Node000006"><a xlink:title=" ">
<polygon fill="#e0e0e0" stroke="#999999" points="122.38,-20 71.12,-20 71.12,0 122.38,0 122.38,-20"/>
<text xml:space="preserve" text-anchor="middle" x="96.75" y="-6.5" font-family="Helvetica,sans-Serif" font-size="10.00">memory</text>
</a>
</g>
</g>
<!-- Node3&#45;&gt;Node6 -->
<g id="edge5_Node000003_Node000006" class="edge">
<title>Node3&#45;&gt;Node6</title>
<g id="a_edge5_Node000003_Node000006"><a xlink:title=" ">
<path fill="none" stroke="#63b8ff" d="M93.45,-55.59C93.93,-49.01 94.6,-39.96 95.21,-31.73"/>
<polygon fill="#63b8ff" stroke="#63b8ff" points="98.7,-32.04 95.95,-21.81 91.72,-31.52 98.7,-32.04"/>
</a>
</g>
</g>
<!-- Node7&#45;&gt;Node5 -->
<g id="edge8_Node000007_Node000005" class="edge">
<title>Node7&#45;&gt;Node5</title>
<g id="a_edge8_Node000007_Node000005"><a xlink:title=" ">
<path fill="none" stroke="#63b8ff" d="M232.29,-55.59C219.99,-47.59 202.07,-35.93 187.64,-26.54"/>
<polygon fill="#63b8ff" stroke="#63b8ff" points="189.88,-23.82 179.59,-21.3 186.06,-29.69 189.88,-23.82"/>
</a>
</g>
</g>
<!-- Node8 -->
<g id="Node000008" class="node">
<title>Node8</title>
<g id="a_Node000008"><a xlink:title=" ">
<polygon fill="#e0e0e0" stroke="#999999" points="276.12,-20 217.38,-20 217.38,0 276.12,0 276.12,-20"/>
<text xml:space="preserve" text-anchor="middle" x="246.75" y="-6.5" font-family="Helvetica,sans-Serif" font-size="10.00">stdexcept</text>
</a>
</g>
</g>
<!-- Node7&#45;&gt;Node8 -->
<g id="edge7_Node000007_Node000008" class="edge">
<title>Node7&#45;&gt;Node8</title>
<g id="a_edge7_Node000007_Node000008"><a xlink:title=" ">
<path fill="none" stroke="#63b8ff" d="M246.75,-55.59C246.75,-49.01 246.75,-39.96 246.75,-31.73"/>
<polygon fill="#63b8ff" stroke="#63b8ff" points="250.25,-31.81 246.75,-21.81 243.25,-31.81 250.25,-31.81"/>
</a>
</g>
</g>
</g>
</svg>
</svg>

<style type='text/css'>
<![CDATA[
[data-mouse-over-selected='false'] { opacity: 0.7; }
[data-mouse-over-selected='true']  { opacity: 1.0; }
]]>
</style>
<script type="application/ecmascript"><![CDATA[
document.addEventListener('DOMContentLoaded', (event) => {
  highlightEdges();
  highlightAdjacentNodes();
});
]]></script>
</svg>
