<?xml version="1.0" encoding="UTF-8" standalone="no"?>
<!DOCTYPE svg PUBLIC "-//W3C//DTD SVG 1.1//EN"
 "http://www.w3.org/Graphics/SVG/1.1/DTD/svg11.dtd">
<!-- Generated by graphviz version 14.0.1 (20251006.0113)
 -->
<!-- Title: src/NetSphere/DataStorage.h Pages: 1 -->
<svg width="1326pt" height="96pt"
 viewBox="0.00 0.00 1326.00 96.00" xmlns="http://www.w3.org/2000/svg" xmlns:xlink="http://www.w3.org/1999/xlink">
<g id="graph0" class="graph" transform="scale(1 1) rotate(0) translate(4 92)">
<title>src/NetSphere/DataStorage.h</title>
<!-- Node1 -->
<g id="Node000001" class="node">
<title>Node1</title>
<g id="a_Node000001"><a xlink:title="Заголовочный файл класса DataStorage &#45; хранилища данных в корпоративной сети.">
<polygon fill="#999999" stroke="#666666" points="794.25,-88 649.25,-88 649.25,-68 794.25,-68 794.25,-88"/>
<text xml:space="preserve" text-anchor="middle" x="721.75" y="-74.5" font-family="Helvetica,sans-Serif" font-size="10.00">src/NetSphere/DataStorage.h</text>
</a>
</g>
</g>
<!-- Node2 -->
<g id="Node000002" class="node">
<title>Node2</title>
<g id="a_Node000002"><a xlink:href="_data_storage_8cpp.html" target="_top" xlink:title="Реализация класса DataStorage &#45; хранилища данных в корпоративной сети.">
<polygon fill="white" stroke="#666666" points="155.5,-26 0,-26 0,-6 155.5,-6 155.5,-26"/>
<text xml:space="preserve" text-anchor="middle" x="77.75" y="-12.5" font-family="Helvetica,sans-Serif" font-size="10.00">src/NetSphere/DataStorage.cpp</text>
</a>
</g>
</g>
<!-- Node1&#45;&gt;Node2 -->
<g id="edge1_Node000001_Node000002" class="edge">
<title>Node1&#45;&gt;Node2</title>
<g id="a_edge1_Node000001_Node000002"><a xlink:title=" ">
<path fill="none" stroke="#63b8ff" d="M637.72,-72.58C528.47,-66.28 331.85,-53.11 164.75,-32 152.89,-30.5 140.18,-28.52 128.24,-26.5"/>
<polygon fill="#63b8ff" stroke="#63b8ff" points="637.3,-76.06 647.48,-73.13 637.69,-69.07 637.3,-76.06"/>
</a>
</g>
</g>
<!-- Node3 -->
<g id="Node000003" class="node">
<title>Node3</title>
<g id="a_Node000003"><a xlink:href="main_8cpp.html" target="_top" xlink:title="Главная функция приложения NetSphere.">
<polygon fill="white" stroke="#666666" points="295.62,-26 173.88,-26 173.88,-6 295.62,-6 295.62,-26"/>
<text xml:space="preserve" text-anchor="middle" x="234.75" y="-12.5" font-family="Helvetica,sans-Serif" font-size="10.00">src/NetSphere/main.cpp</text>
</a>
</g>
</g>
<!-- Node1&#45;&gt;Node3 -->
<g id="edge2_Node000001_Node000003" class="edge">
<title>Node1&#45;&gt;Node3</title>
<g id="a_edge2_Node000001_Node000003"><a xlink:title=" ">
<path fill="none" stroke="#63b8ff" d="M637.42,-70.48C552.95,-63.34 419.37,-50.41 304.75,-32 295.18,-30.46 284.94,-28.47 275.33,-26.44"/>
<polygon fill="#63b8ff" stroke="#63b8ff" points="636.99,-73.96 647.24,-71.3 637.57,-66.98 636.99,-73.96"/>
</a>
</g>
</g>
<!-- Node4 -->
<g id="Node000004" class="node">
<title>Node4</title>
<g id="a_Node000004"><a xlink:href="_corporate_network_error_tests_8cpp.html" target="_top" xlink:title="Тесты для обработки ошибок в классе CorporateNetwork.">
<polygon fill="white" stroke="#666666" points="475.88,-32 313.62,-32 313.62,0 475.88,0 475.88,-32"/>
<text xml:space="preserve" text-anchor="start" x="321.62" y="-18.5" font-family="Helvetica,sans-Serif" font-size="10.00">tests/NetSphereTests</text>
<text xml:space="preserve" text-anchor="middle" x="394.75" y="-6.5" font-family="Helvetica,sans-Serif" font-size="10.00">/CorporateNetworkErrorTests.cpp</text>
</a>
</g>
</g>
<!-- Node1&#45;&gt;Node4 -->
<g id="edge3_Node000001_Node000004" class="edge">
<title>Node1&#45;&gt;Node4</title>
<g id="a_edge3_Node000001_Node000004"><a xlink:title=" ">
<path fill="none" stroke="#63b8ff" d="M659.22,-65.53C607.21,-55.98 532.79,-42.33 476.13,-31.93"/>
<polygon fill="#63b8ff" stroke="#63b8ff" points="658.34,-68.92 668.81,-67.29 659.6,-62.04 658.34,-68.92"/>
</a>
</g>
</g>
<!-- Node5 -->
<g id="Node000005" class="node">
<title>Node5</title>
<g id="a_Node000005"><a xlink:href="_corporate_network_tests_8cpp.html" target="_top" xlink:title="Тесты для класса CorporateNetwork проекта NetSphere.">
<polygon fill="white" stroke="#666666" points="635.38,-32 494.12,-32 494.12,0 635.38,0 635.38,-32"/>
<text xml:space="preserve" text-anchor="start" x="502.12" y="-18.5" font-family="Helvetica,sans-Serif" font-size="10.00">tests/NetSphereTests</text>
<text xml:space="preserve" text-anchor="middle" x="564.75" y="-6.5" font-family="Helvetica,sans-Serif" font-size="10.00">/CorporateNetworkTests.cpp</text>
</a>
</g>
</g>
<!-- Node1&#45;&gt;Node5 -->
<g id="edge4_Node000001_Node000005" class="edge">
<title>Node1&#45;&gt;Node5</title>
<g id="a_edge4_Node000001_Node000005"><a xlink:title=" ">
<path fill="none" stroke="#63b8ff" d="M686.76,-63.63C662.64,-54.41 630.51,-42.13 605.28,-32.49"/>
<polygon fill="#63b8ff" stroke="#63b8ff" points="685.21,-66.78 695.8,-67.08 687.71,-60.25 685.21,-66.78"/>
</a>
</g>
</g>
<!-- Node6 -->
<g id="Node000006" class="node">
<title>Node6</title>
<g id="a_Node000006"><a xlink:href="_data_storage_error_tests_8cpp.html" target="_top" xlink:title="Тесты для обработки ошибок в классе DataStorage.">
<polygon fill="white" stroke="#666666" points="790.5,-32 653,-32 653,0 790.5,0 790.5,-32"/>
<text xml:space="preserve" text-anchor="start" x="661" y="-18.5" font-family="Helvetica,sans-Serif" font-size="10.00">tests/NetSphereTests</text>
<text xml:space="preserve" text-anchor="middle" x="721.75" y="-6.5" font-family="Helvetica,sans-Serif" font-size="10.00">/DataStorageErrorTests.cpp</text>
</a>
</g>
</g>
<!-- Node1&#45;&gt;Node6 -->
<g id="edge5_Node000001_Node000006" class="edge">
<title>Node1&#45;&gt;Node6</title>
<g id="a_edge5_Node000001_Node000006"><a xlink:title=" ">
<path fill="none" stroke="#63b8ff" d="M721.75,-56.31C721.75,-48.37 721.75,-39.46 721.75,-32.14"/>
<polygon fill="#63b8ff" stroke="#63b8ff" points="718.25,-56.11 721.75,-66.11 725.25,-56.11 718.25,-56.11"/>
</a>
</g>
</g>
<!-- Node7 -->
<g id="Node000007" class="node">
<title>Node7</title>
<g id="a_Node000007"><a xlink:href="_data_storage_tests_8cpp.html" target="_top" xlink:title="Тесты для класса DataStorage проекта NetSphere.">
<polygon fill="white" stroke="#666666" points="925,-32 808.5,-32 808.5,0 925,0 925,-32"/>
<text xml:space="preserve" text-anchor="start" x="816.5" y="-18.5" font-family="Helvetica,sans-Serif" font-size="10.00">tests/NetSphereTests</text>
<text xml:space="preserve" text-anchor="middle" x="866.75" y="-6.5" font-family="Helvetica,sans-Serif" font-size="10.00">/DataStorageTests.cpp</text>
</a>
</g>
</g>
<!-- Node1&#45;&gt;Node7 -->
<g id="edge6_Node000001_Node000007" class="edge">
<title>Node1&#45;&gt;Node7</title>
<g id="a_edge6_Node000001_Node000007"><a xlink:title=" ">
<path fill="none" stroke="#63b8ff" d="M754.98,-63.25C777.14,-54.08 806.33,-42 829.31,-32.49"/>
<polygon fill="#63b8ff" stroke="#63b8ff" points="753.71,-59.99 745.8,-67.05 756.38,-66.46 753.71,-59.99"/>
</a>
</g>
</g>
<!-- Node8 -->
<g id="Node000008" class="node">
<title>Node8</title>
<g id="a_Node000008"><a xlink:href="_device_tests_8cpp.html" target="_top" xlink:title="Тесты для базового класса Device и его наследников.">
<polygon fill="white" stroke="#666666" points="1054.38,-32 943.12,-32 943.12,0 1054.38,0 1054.38,-32"/>
<text xml:space="preserve" text-anchor="start" x="951.12" y="-18.5" font-family="Helvetica,sans-Serif" font-size="10.00">tests/NetSphereTests</text>
<text xml:space="preserve" text-anchor="middle" x="998.75" y="-6.5" font-family="Helvetica,sans-Serif" font-size="10.00">/DeviceTests.cpp</text>
</a>
</g>
</g>
<!-- Node1&#45;&gt;Node8 -->
<g id="edge7_Node000001_Node000008" class="edge">
<title>Node1&#45;&gt;Node8</title>
<g id="a_edge7_Node000001_Node000008"><a xlink:title=" ">
<path fill="none" stroke="#63b8ff" d="M778.31,-65.28C821.05,-56.35 881.14,-43.65 933.75,-32 936.69,-31.35 939.7,-30.68 942.74,-29.99"/>
<polygon fill="#63b8ff" stroke="#63b8ff" points="777.85,-61.8 768.77,-67.27 779.28,-68.65 777.85,-61.8"/>
</a>
</g>
</g>
<!-- Node9 -->
<g id="Node000009" class="node">
<title>Node9</title>
<g id="a_Node000009"><a xlink:href="_domain_error_tests_8cpp.html" target="_top" xlink:title="Тесты для обработки ошибок в классе Domain.">
<polygon fill="white" stroke="#666666" points="1189,-32 1072.5,-32 1072.5,0 1189,0 1189,-32"/>
<text xml:space="preserve" text-anchor="start" x="1080.5" y="-18.5" font-family="Helvetica,sans-Serif" font-size="10.00">tests/NetSphereTests</text>
<text xml:space="preserve" text-anchor="middle" x="1130.75" y="-6.5" font-family="Helvetica,sans-Serif" font-size="10.00">/DomainErrorTests.cpp</text>
</a>
</g>
</g>
<!-- Node1&#45;&gt;Node9 -->
<g id="edge8_Node000001_Node000009" class="edge">
<title>Node1&#45;&gt;Node9</title>
<g id="a_edge8_Node000001_Node000009"><a xlink:title=" ">
<path fill="none" stroke="#63b8ff" d="M805.72,-68.07C875.15,-60.18 976.19,-47.53 1063.75,-32 1066.57,-31.5 1069.44,-30.96 1072.35,-30.4"/>
<polygon fill="#63b8ff" stroke="#63b8ff" points="805.48,-64.58 795.93,-69.18 806.26,-71.53 805.48,-64.58"/>
</a>
</g>
</g>
<!-- Node10 -->
<g id="Node000010" class="node">
<title>Node10</title>
<g id="a_Node000010"><a xlink:href="_domain_tests_8cpp.html" target="_top" xlink:title="Тесты для класса Domain проекта NetSphere.">
<polygon fill="white" stroke="#666666" points="1318.38,-32 1207.12,-32 1207.12,0 1318.38,0 1318.38,-32"/>
<text xml:space="preserve" text-anchor="start" x="1215.12" y="-18.5" font-family="Helvetica,sans-Serif" font-size="10.00">tests/NetSphereTests</text>
<text xml:space="preserve" text-anchor="middle" x="1262.75" y="-6.5" font-family="Helvetica,sans-Serif" font-size="10.00">/DomainTests.cpp</text>
</a>
</g>
</g>
<!-- Node1&#45;&gt;Node10 -->
<g id="edge9_Node000001_Node000010" class="edge">
<title>Node1&#45;&gt;Node10</title>
<g id="a_edge9_Node000001_Node000010"><a xlink:title=" ">
<path fill="none" stroke="#63b8ff" d="M806.03,-72.42C901.5,-66.44 1061.53,-54.06 1197.75,-32 1200.72,-31.52 1203.76,-30.98 1206.82,-30.4"/>
<polygon fill="#63b8ff" stroke="#63b8ff" points="805.99,-68.91 796.22,-73.02 806.42,-75.9 805.99,-68.91"/>
</a>
</g>
</g>
</g>
</svg>
