<?xml version="1.0" encoding="UTF-8" standalone="no"?>
<!DOCTYPE svg PUBLIC "-//W3C//DTD SVG 1.1//EN"
 "http://www.w3.org/Graphics/SVG/1.1/DTD/svg11.dtd">
<!-- Generated by graphviz version 14.0.1 (20251006.0113)
 -->
<!-- Title: src/NetSphere/DataStorage.cpp Pages: 1 -->
<svg width="430pt" height="252pt"
 viewBox="0.00 0.00 430.00 252.00" xmlns="http://www.w3.org/2000/svg" xmlns:xlink="http://www.w3.org/1999/xlink">
<g id="graph0" class="graph" transform="scale(1 1) rotate(0) translate(4 248)">
<title>src/NetSphere/DataStorage.cpp</title>
<!-- Node1 -->
<g id="Node000001" class="node">
<title>Node1</title>
<g id="a_Node000001"><a xlink:title="Реализация класса DataStorage &#45; хранилища данных в корпоративной сети.">
<polygon fill="#999999" stroke="#666666" points="415.62,-244 260.12,-244 260.12,-224 415.62,-224 415.62,-244"/>
<text xml:space="preserve" text-anchor="middle" x="337.88" y="-230.5" font-family="Helvetica,sans-Serif" font-size="10.00">src/NetSphere/DataStorage.cpp</text>
</a>
</g>
</g>
<!-- Node2 -->
<g id="Node000002" class="node">
<title>Node2</title>
<g id="a_Node000002"><a xlink:href="_data_storage_8h.html" target="_top" xlink:title="Заголовочный файл класса DataStorage &#45; хранилища данных в корпоративной сети.">
<polygon fill="white" stroke="#666666" points="189.38,-188 110.38,-188 110.38,-168 189.38,-168 189.38,-188"/>
<text xml:space="preserve" text-anchor="middle" x="149.88" y="-174.5" font-family="Helvetica,sans-Serif" font-size="10.00">DataStorage.h</text>
</a>
</g>
</g>
<!-- Node1&#45;&gt;Node2 -->
<g id="edge1_Node000001_Node000002" class="edge">
<title>Node1&#45;&gt;Node2</title>
<g id="a_edge1_Node000001_Node000002"><a xlink:title=" ">
<path fill="none" stroke="#63b8ff" d="M305.13,-223.59C274.32,-214.74 227.95,-201.43 193.91,-191.65"/>
<polygon fill="#63b8ff" stroke="#63b8ff" points="194.91,-188.29 184.33,-188.9 192.98,-195.02 194.91,-188.29"/>
</a>
</g>
</g>
<!-- Node5 -->
<g id="Node000005" class="node">
<title>Node5</title>
<g id="a_Node000005"><a xlink:title=" ">
<polygon fill="#e0e0e0" stroke="#999999" points="363.62,-20 310.12,-20 310.12,0 363.62,0 363.62,-20"/>
<text xml:space="preserve" text-anchor="middle" x="336.88" y="-6.5" font-family="Helvetica,sans-Serif" font-size="10.00">iostream</text>
</a>
</g>
</g>
<!-- Node1&#45;&gt;Node5 -->
<g id="edge15_Node000001_Node000005" class="edge">
<title>Node1&#45;&gt;Node5</title>
<g id="a_edge15_Node000001_Node000005"><a xlink:title=" ">
<path fill="none" stroke="#63b8ff" d="M337.83,-223.74C337.68,-190.74 337.18,-78.31 336.97,-31.61"/>
<polygon fill="#63b8ff" stroke="#63b8ff" points="340.47,-31.79 336.92,-21.81 333.47,-31.83 340.47,-31.79"/>
</a>
</g>
</g>
<!-- Node13 -->
<g id="Node000013" class="node">
<title>Node13</title>
<g id="a_Node000013"><a xlink:title=" ">
<polygon fill="#e0e0e0" stroke="#999999" points="421.75,-188 366,-188 366,-168 421.75,-168 421.75,-188"/>
<text xml:space="preserve" text-anchor="middle" x="393.88" y="-174.5" font-family="Helvetica,sans-Serif" font-size="10.00">algorithm</text>
</a>
</g>
</g>
<!-- Node1&#45;&gt;Node13 -->
<g id="edge14_Node000001_Node000013" class="edge">
<title>Node1&#45;&gt;Node13</title>
<g id="a_edge14_Node000001_Node000013"><a xlink:title=" ">
<path fill="none" stroke="#63b8ff" d="M347.63,-223.59C355.5,-216.01 366.77,-205.13 376.22,-196.02"/>
<polygon fill="#63b8ff" stroke="#63b8ff" points="378.37,-198.81 383.14,-189.35 373.51,-193.77 378.37,-198.81"/>
</a>
</g>
</g>
<!-- Node3 -->
<g id="Node000003" class="node">
<title>Node3</title>
<g id="a_Node000003"><a xlink:href="_device_8h.html" target="_top" xlink:title="Заголовочный файл базового класса Device для всех устройств сети.">
<polygon fill="white" stroke="#666666" points="213.38,-132 158.38,-132 158.38,-112 213.38,-112 213.38,-132"/>
<text xml:space="preserve" text-anchor="middle" x="185.88" y="-118.5" font-family="Helvetica,sans-Serif" font-size="10.00">Device.h</text>
</a>
</g>
</g>
<!-- Node2&#45;&gt;Node3 -->
<g id="edge2_Node000002_Node000003" class="edge">
<title>Node2&#45;&gt;Node3</title>
<g id="a_edge2_Node000002_Node000003"><a xlink:title=" ">
<path fill="none" stroke="#63b8ff" d="M156.15,-167.59C160.89,-160.47 167.57,-150.45 173.4,-141.72"/>
<polygon fill="#63b8ff" stroke="#63b8ff" points="176.2,-143.82 178.84,-133.56 170.38,-139.94 176.2,-143.82"/>
</a>
</g>
</g>
<!-- Node11 -->
<g id="Node000011" class="node">
<title>Node11</title>
<g id="a_Node000011"><a xlink:title=" ">
<polygon fill="#e0e0e0" stroke="#999999" points="69.38,-132 26.38,-132 26.38,-112 69.38,-112 69.38,-132"/>
<text xml:space="preserve" text-anchor="middle" x="47.88" y="-118.5" font-family="Helvetica,sans-Serif" font-size="10.00">vector</text>
</a>
</g>
</g>
<!-- Node2&#45;&gt;Node11 -->
<g id="edge12_Node000002_Node000011" class="edge">
<title>Node2&#45;&gt;Node11</title>
<g id="a_edge12_Node000002_Node000011"><a xlink:title=" ">
<path fill="none" stroke="#63b8ff" d="M132.11,-167.59C116.55,-159.36 93.69,-147.26 75.71,-137.74"/>
<polygon fill="#63b8ff" stroke="#63b8ff" points="77.59,-134.77 67.12,-133.19 74.32,-140.96 77.59,-134.77"/>
</a>
</g>
</g>
<!-- Node12 -->
<g id="Node000012" class="node">
<title>Node12</title>
<g id="a_Node000012"><a xlink:title=" ">
<polygon fill="#e0e0e0" stroke="#999999" points="140.62,-132 87.12,-132 87.12,-112 140.62,-112 140.62,-132"/>
<text xml:space="preserve" text-anchor="middle" x="113.88" y="-118.5" font-family="Helvetica,sans-Serif" font-size="10.00">compare</text>
</a>
</g>
</g>
<!-- Node2&#45;&gt;Node12 -->
<g id="edge13_Node000002_Node000012" class="edge">
<title>Node2&#45;&gt;Node12</title>
<g id="a_edge13_Node000002_Node000012"><a xlink:title=" ">
<path fill="none" stroke="#63b8ff" d="M143.6,-167.59C138.86,-160.47 132.18,-150.45 126.35,-141.72"/>
<polygon fill="#63b8ff" stroke="#63b8ff" points="129.37,-139.94 120.91,-133.56 123.55,-143.82 129.37,-139.94"/>
</a>
</g>
</g>
<!-- Node4 -->
<g id="Node000004" class="node">
<title>Node4</title>
<g id="a_Node000004"><a xlink:href="_network_entity_8h.html" target="_top" xlink:title="Заголовочный файл базового класса NetworkEntity для всех сущностей сети.">
<polygon fill="white" stroke="#666666" points="309.75,-76 224,-76 224,-56 309.75,-56 309.75,-76"/>
<text xml:space="preserve" text-anchor="middle" x="266.88" y="-62.5" font-family="Helvetica,sans-Serif" font-size="10.00">NetworkEntity.h</text>
</a>
</g>
</g>
<!-- Node3&#45;&gt;Node4 -->
<g id="edge3_Node000003_Node000004" class="edge">
<title>Node3&#45;&gt;Node4</title>
<g id="a_edge3_Node000003_Node000004"><a xlink:title=" ">
<path fill="none" stroke="#63b8ff" d="M199.98,-111.59C211.87,-103.67 229.14,-92.16 243.15,-82.82"/>
<polygon fill="#63b8ff" stroke="#63b8ff" points="245.02,-85.78 251.4,-77.32 241.13,-79.95 245.02,-85.78"/>
</a>
</g>
</g>
<!-- Node6 -->
<g id="Node000006" class="node">
<title>Node6</title>
<g id="a_Node000006"><a xlink:title=" ">
<polygon fill="#e0e0e0" stroke="#999999" points="157.88,-20 117.88,-20 117.88,0 157.88,0 157.88,-20"/>
<text xml:space="preserve" text-anchor="middle" x="137.88" y="-6.5" font-family="Helvetica,sans-Serif" font-size="10.00">string</text>
</a>
</g>
</g>
<!-- Node3&#45;&gt;Node6 -->
<g id="edge10_Node000003_Node000006" class="edge">
<title>Node3&#45;&gt;Node6</title>
<g id="a_edge10_Node000003_Node000006"><a xlink:title=" ">
<path fill="none" stroke="#63b8ff" d="M178.81,-111.8C172.35,-103.01 162.9,-89.19 156.88,-76 150.29,-61.57 145.37,-44.3 142.19,-31.19"/>
<polygon fill="#63b8ff" stroke="#63b8ff" points="145.63,-30.58 140.01,-21.6 138.81,-32.13 145.63,-30.58"/>
</a>
</g>
</g>
<!-- Node8 -->
<g id="Node000008" class="node">
<title>Node8</title>
<g id="a_Node000008"><a xlink:href="_network_exceptions_8h.html" target="_top" xlink:title="Заголовочный файл с классами исключений для корпоративной сети.">
<polygon fill="white" stroke="#666666" points="109.75,-76 0,-76 0,-56 109.75,-56 109.75,-76"/>
<text xml:space="preserve" text-anchor="middle" x="54.88" y="-62.5" font-family="Helvetica,sans-Serif" font-size="10.00">NetworkExceptions.h</text>
</a>
</g>
</g>
<!-- Node3&#45;&gt;Node8 -->
<g id="edge7_Node000003_Node000008" class="edge">
<title>Node3&#45;&gt;Node8</title>
<g id="a_edge7_Node000003_Node000008"><a xlink:title=" ">
<path fill="none" stroke="#63b8ff" d="M163.06,-111.59C142.43,-103.09 111.79,-90.46 88.38,-80.81"/>
<polygon fill="#63b8ff" stroke="#63b8ff" points="89.85,-77.63 79.27,-77.06 87.18,-84.1 89.85,-77.63"/>
</a>
</g>
</g>
<!-- Node10 -->
<g id="Node000010" class="node">
<title>Node10</title>
<g id="a_Node000010"><a xlink:title=" ">
<polygon fill="#e0e0e0" stroke="#999999" points="205.88,-76 165.88,-76 165.88,-56 205.88,-56 205.88,-76"/>
<text xml:space="preserve" text-anchor="middle" x="185.88" y="-62.5" font-family="Helvetica,sans-Serif" font-size="10.00">regex</text>
</a>
</g>
</g>
<!-- Node3&#45;&gt;Node10 -->
<g id="edge11_Node000003_Node000010" class="edge">
<title>Node3&#45;&gt;Node10</title>
<g id="a_edge11_Node000003_Node000010"><a xlink:title=" ">
<path fill="none" stroke="#63b8ff" d="M185.88,-111.59C185.88,-105.01 185.88,-95.96 185.88,-87.73"/>
<polygon fill="#63b8ff" stroke="#63b8ff" points="189.38,-87.81 185.88,-77.81 182.38,-87.81 189.38,-87.81"/>
</a>
</g>
</g>
<!-- Node4&#45;&gt;Node5 -->
<g id="edge4_Node000004_Node000005" class="edge">
<title>Node4&#45;&gt;Node5</title>
<g id="a_edge4_Node000004_Node000005"><a xlink:title=" ">
<path fill="none" stroke="#63b8ff" d="M279.07,-55.59C289.21,-47.77 303.87,-36.46 315.89,-27.19"/>
<polygon fill="#63b8ff" stroke="#63b8ff" points="317.84,-30.1 323.62,-21.22 313.57,-24.56 317.84,-30.1"/>
</a>
</g>
</g>
<!-- Node4&#45;&gt;Node6 -->
<g id="edge5_Node000004_Node000006" class="edge">
<title>Node4&#45;&gt;Node6</title>
<g id="a_edge5_Node000004_Node000006"><a xlink:title=" ">
<path fill="none" stroke="#63b8ff" d="M244.4,-55.59C223.34,-46.78 191.69,-33.53 168.35,-23.76"/>
<polygon fill="#63b8ff" stroke="#63b8ff" points="169.94,-20.63 159.37,-20 167.24,-27.09 169.94,-20.63"/>
</a>
</g>
</g>
<!-- Node7 -->
<g id="Node000007" class="node">
<title>Node7</title>
<g id="a_Node000007"><a xlink:title=" ">
<polygon fill="#e0e0e0" stroke="#999999" points="292.5,-20 241.25,-20 241.25,0 292.5,0 292.5,-20"/>
<text xml:space="preserve" text-anchor="middle" x="266.88" y="-6.5" font-family="Helvetica,sans-Serif" font-size="10.00">memory</text>
</a>
</g>
</g>
<!-- Node4&#45;&gt;Node7 -->
<g id="edge6_Node000004_Node000007" class="edge">
<title>Node4&#45;&gt;Node7</title>
<g id="a_edge6_Node000004_Node000007"><a xlink:title=" ">
<path fill="none" stroke="#63b8ff" d="M266.88,-55.59C266.88,-49.01 266.88,-39.96 266.88,-31.73"/>
<polygon fill="#63b8ff" stroke="#63b8ff" points="270.38,-31.81 266.88,-21.81 263.38,-31.81 270.38,-31.81"/>
</a>
</g>
</g>
<!-- Node8&#45;&gt;Node6 -->
<g id="edge9_Node000008_Node000006" class="edge">
<title>Node8&#45;&gt;Node6</title>
<g id="a_edge9_Node000008_Node000006"><a xlink:title=" ">
<path fill="none" stroke="#63b8ff" d="M69.33,-55.59C81.63,-47.59 99.55,-35.93 113.98,-26.54"/>
<polygon fill="#63b8ff" stroke="#63b8ff" points="115.56,-29.69 122.04,-21.3 111.75,-23.82 115.56,-29.69"/>
</a>
</g>
</g>
<!-- Node9 -->
<g id="Node000009" class="node">
<title>Node9</title>
<g id="a_Node000009"><a xlink:title=" ">
<polygon fill="#e0e0e0" stroke="#999999" points="84.25,-20 25.5,-20 25.5,0 84.25,0 84.25,-20"/>
<text xml:space="preserve" text-anchor="middle" x="54.88" y="-6.5" font-family="Helvetica,sans-Serif" font-size="10.00">stdexcept</text>
</a>
</g>
</g>
<!-- Node8&#45;&gt;Node9 -->
<g id="edge8_Node000008_Node000009" class="edge">
<title>Node8&#45;&gt;Node9</title>
<g id="a_edge8_Node000008_Node000009"><a xlink:title=" ">
<path fill="none" stroke="#63b8ff" d="M54.88,-55.59C54.88,-49.01 54.88,-39.96 54.88,-31.73"/>
<polygon fill="#63b8ff" stroke="#63b8ff" points="58.38,-31.81 54.88,-21.81 51.38,-31.81 58.38,-31.81"/>
</a>
</g>
</g>
</g>
</svg>
