<?xml version="1.0" encoding="UTF-8" standalone="no"?>
<!DOCTYPE svg PUBLIC "-//W3C//DTD SVG 1.1//EN"
 "http://www.w3.org/Graphics/SVG/1.1/DTD/svg11.dtd">
<!-- Generated by graphviz version 14.0.1 (20251006.0113)
 -->
<!-- Title: src/NetSphere/Device.h Pages: 1 -->
<svg width="1804pt" height="152pt"
 viewBox="0.00 0.00 1804.00 152.00" xmlns="http://www.w3.org/2000/svg" xmlns:xlink="http://www.w3.org/1999/xlink">
<g id="graph0" class="graph" transform="scale(1 1) rotate(0) translate(4 148)">
<title>src/NetSphere/Device.h</title>
<!-- Node1 -->
<g id="Node000001" class="node">
<title>Node1</title>
<g id="a_Node000001"><a xlink:title="Заголовочный файл базового класса Device для всех устройств сети.">
<polygon fill="#999999" stroke="#666666" points="1064.25,-144 943.25,-144 943.25,-124 1064.25,-124 1064.25,-144"/>
<text xml:space="preserve" text-anchor="middle" x="1003.75" y="-130.5" font-family="Helvetica,sans-Serif" font-size="10.00">src/NetSphere/Device.h</text>
</a>
</g>
</g>
<!-- Node2 -->
<g id="Node000002" class="node">
<title>Node2</title>
<g id="a_Node000002"><a xlink:href="_data_storage_8h.html" target="_top" xlink:title="Заголовочный файл класса DataStorage &#45; хранилища данных в корпоративной сети.">
<polygon fill="white" stroke="#666666" points="865.25,-88 720.25,-88 720.25,-68 865.25,-68 865.25,-88"/>
<text xml:space="preserve" text-anchor="middle" x="792.75" y="-74.5" font-family="Helvetica,sans-Serif" font-size="10.00">src/NetSphere/DataStorage.h</text>
</a>
</g>
</g>
<!-- Node1&#45;&gt;Node2 -->
<g id="edge1_Node000001_Node000002" class="edge">
<title>Node1&#45;&gt;Node2</title>
<g id="a_edge1_Node000001_Node000002"><a xlink:title=" ">
<path fill="none" stroke="#63b8ff" d="M956.13,-120.81C917.88,-111.02 864.92,-97.47 829.79,-88.48"/>
<polygon fill="#63b8ff" stroke="#63b8ff" points="954.97,-124.13 965.53,-123.22 956.71,-117.35 954.97,-124.13"/>
</a>
</g>
</g>
<!-- Node12 -->
<g id="Node000012" class="node">
<title>Node12</title>
<g id="a_Node000012"><a xlink:href="_printer_8h.html" target="_top" xlink:title="Заголовочный файл класса Printer &#45; сетевого принтера.">
<polygon fill="white" stroke="#666666" points="1327.12,-88 1208.38,-88 1208.38,-68 1327.12,-68 1327.12,-88"/>
<text xml:space="preserve" text-anchor="middle" x="1267.75" y="-74.5" font-family="Helvetica,sans-Serif" font-size="10.00">src/NetSphere/Printer.h</text>
</a>
</g>
</g>
<!-- Node1&#45;&gt;Node12 -->
<g id="edge11_Node000001_Node000012" class="edge">
<title>Node1&#45;&gt;Node12</title>
<g id="a_edge11_Node000001_Node000012"><a xlink:title=" ">
<path fill="none" stroke="#63b8ff" d="M1061.19,-121.25C1109.24,-111.42 1176.9,-97.58 1221.52,-88.46"/>
<polygon fill="#63b8ff" stroke="#63b8ff" points="1060.62,-117.8 1051.52,-123.23 1062.02,-124.65 1060.62,-117.8"/>
</a>
</g>
</g>
<!-- Node15 -->
<g id="Node000015" class="node">
<title>Node15</title>
<g id="a_Node000015"><a xlink:href="_workstation_8h.html" target="_top" xlink:title="Заголовочный файл класса Workstation &#45; рабочей станции пользователя.">
<polygon fill="white" stroke="#666666" points="1074.75,-88 932.75,-88 932.75,-68 1074.75,-68 1074.75,-88"/>
<text xml:space="preserve" text-anchor="middle" x="1003.75" y="-74.5" font-family="Helvetica,sans-Serif" font-size="10.00">src/NetSphere/Workstation.h</text>
</a>
</g>
</g>
<!-- Node1&#45;&gt;Node15 -->
<g id="edge18_Node000001_Node000015" class="edge">
<title>Node1&#45;&gt;Node15</title>
<g id="a_edge18_Node000001_Node000015"><a xlink:title=" ">
<path fill="none" stroke="#63b8ff" d="M1003.75,-112.13C1003.75,-103.9 1003.75,-94.85 1003.75,-88.3"/>
<polygon fill="#63b8ff" stroke="#63b8ff" points="1000.25,-112.08 1003.75,-122.08 1007.25,-112.08 1000.25,-112.08"/>
</a>
</g>
</g>
<!-- Node3 -->
<g id="Node000003" class="node">
<title>Node3</title>
<g id="a_Node000003"><a xlink:href="_data_storage_8cpp.html" target="_top" xlink:title="Реализация класса DataStorage &#45; хранилища данных в корпоративной сети.">
<polygon fill="white" stroke="#666666" points="155.5,-26 0,-26 0,-6 155.5,-6 155.5,-26"/>
<text xml:space="preserve" text-anchor="middle" x="77.75" y="-12.5" font-family="Helvetica,sans-Serif" font-size="10.00">src/NetSphere/DataStorage.cpp</text>
</a>
</g>
</g>
<!-- Node2&#45;&gt;Node3 -->
<g id="edge2_Node000002_Node000003" class="edge">
<title>Node2&#45;&gt;Node3</title>
<g id="a_edge2_Node000002_Node000003"><a xlink:title=" ">
<path fill="none" stroke="#63b8ff" d="M708.66,-73.63C587.94,-68.19 358.69,-55.61 164.75,-32 152.73,-30.54 139.84,-28.55 127.77,-26.5"/>
<polygon fill="#63b8ff" stroke="#63b8ff" points="708.34,-77.12 718.49,-74.07 708.65,-70.12 708.34,-77.12"/>
</a>
</g>
</g>
<!-- Node4 -->
<g id="Node000004" class="node">
<title>Node4</title>
<g id="a_Node000004"><a xlink:href="main_8cpp.html" target="_top" xlink:title="Главная функция приложения NetSphere.">
<polygon fill="white" stroke="#666666" points="1328.62,-26 1206.88,-26 1206.88,-6 1328.62,-6 1328.62,-26"/>
<text xml:space="preserve" text-anchor="middle" x="1267.75" y="-12.5" font-family="Helvetica,sans-Serif" font-size="10.00">src/NetSphere/main.cpp</text>
</a>
</g>
</g>
<!-- Node2&#45;&gt;Node4 -->
<g id="edge3_Node000002_Node000004" class="edge">
<title>Node2&#45;&gt;Node4</title>
<g id="a_edge3_Node000002_Node000004"><a xlink:title=" ">
<path fill="none" stroke="#63b8ff" d="M876.75,-70.15C958.9,-62.86 1087.37,-49.91 1197.75,-32 1207.2,-30.47 1217.29,-28.5 1226.79,-26.5"/>
<polygon fill="#63b8ff" stroke="#63b8ff" points="876.64,-66.64 866.98,-71 877.25,-73.62 876.64,-66.64"/>
</a>
</g>
</g>
<!-- Node5 -->
<g id="Node000005" class="node">
<title>Node5</title>
<g id="a_Node000005"><a xlink:href="_corporate_network_error_tests_8cpp.html" target="_top" xlink:title="Тесты для обработки ошибок в классе CorporateNetwork.">
<polygon fill="white" stroke="#666666" points="625.88,-32 463.62,-32 463.62,0 625.88,0 625.88,-32"/>
<text xml:space="preserve" text-anchor="start" x="471.62" y="-18.5" font-family="Helvetica,sans-Serif" font-size="10.00">tests/NetSphereTests</text>
<text xml:space="preserve" text-anchor="middle" x="544.75" y="-6.5" font-family="Helvetica,sans-Serif" font-size="10.00">/CorporateNetworkErrorTests.cpp</text>
</a>
</g>
</g>
<!-- Node2&#45;&gt;Node5 -->
<g id="edge4_Node000002_Node000005" class="edge">
<title>Node2&#45;&gt;Node5</title>
<g id="a_edge4_Node000002_Node000005"><a xlink:title=" ">
<path fill="none" stroke="#63b8ff" d="M742.76,-64.9C704.12,-55.56 650.38,-42.56 608.63,-32.46"/>
<polygon fill="#63b8ff" stroke="#63b8ff" points="741.71,-68.25 752.26,-67.2 743.36,-61.45 741.71,-68.25"/>
</a>
</g>
</g>
<!-- Node6 -->
<g id="Node000006" class="node">
<title>Node6</title>
<g id="a_Node000006"><a xlink:href="_corporate_network_tests_8cpp.html" target="_top" xlink:title="Тесты для класса CorporateNetwork проекта NetSphere.">
<polygon fill="white" stroke="#666666" points="1488.38,-32 1347.12,-32 1347.12,0 1488.38,0 1488.38,-32"/>
<text xml:space="preserve" text-anchor="start" x="1355.12" y="-18.5" font-family="Helvetica,sans-Serif" font-size="10.00">tests/NetSphereTests</text>
<text xml:space="preserve" text-anchor="middle" x="1417.75" y="-6.5" font-family="Helvetica,sans-Serif" font-size="10.00">/CorporateNetworkTests.cpp</text>
</a>
</g>
</g>
<!-- Node2&#45;&gt;Node6 -->
<g id="edge5_Node000002_Node000006" class="edge">
<title>Node2&#45;&gt;Node6</title>
<g id="a_edge5_Node000002_Node000006"><a xlink:title=" ">
<path fill="none" stroke="#63b8ff" d="M877.14,-71.1C1007.33,-61.82 1251.15,-43.66 1337.75,-32 1340.69,-31.6 1343.69,-31.17 1346.71,-30.71"/>
<polygon fill="#63b8ff" stroke="#63b8ff" points="876.91,-67.61 867.18,-71.81 877.41,-74.59 876.91,-67.61"/>
</a>
</g>
</g>
<!-- Node7 -->
<g id="Node000007" class="node">
<title>Node7</title>
<g id="a_Node000007"><a xlink:href="_data_storage_error_tests_8cpp.html" target="_top" xlink:title="Тесты для обработки ошибок в классе DataStorage.">
<polygon fill="white" stroke="#666666" points="311.5,-32 174,-32 174,0 311.5,0 311.5,-32"/>
<text xml:space="preserve" text-anchor="start" x="182" y="-18.5" font-family="Helvetica,sans-Serif" font-size="10.00">tests/NetSphereTests</text>
<text xml:space="preserve" text-anchor="middle" x="242.75" y="-6.5" font-family="Helvetica,sans-Serif" font-size="10.00">/DataStorageErrorTests.cpp</text>
</a>
</g>
</g>
<!-- Node2&#45;&gt;Node7 -->
<g id="edge6_Node000002_Node000007" class="edge">
<title>Node2&#45;&gt;Node7</title>
<g id="a_edge6_Node000002_Node000007"><a xlink:title=" ">
<path fill="none" stroke="#63b8ff" d="M708.91,-71.42C614.32,-64.57 456.01,-51.41 320.75,-32 317.75,-31.57 314.68,-31.1 311.59,-30.61"/>
<polygon fill="#63b8ff" stroke="#63b8ff" points="708.39,-74.89 718.62,-72.12 708.89,-67.91 708.39,-74.89"/>
</a>
</g>
</g>
<!-- Node8 -->
<g id="Node000008" class="node">
<title>Node8</title>
<g id="a_Node000008"><a xlink:href="_data_storage_tests_8cpp.html" target="_top" xlink:title="Тесты для класса DataStorage проекта NetSphere.">
<polygon fill="white" stroke="#666666" points="446,-32 329.5,-32 329.5,0 446,0 446,-32"/>
<text xml:space="preserve" text-anchor="start" x="337.5" y="-18.5" font-family="Helvetica,sans-Serif" font-size="10.00">tests/NetSphereTests</text>
<text xml:space="preserve" text-anchor="middle" x="387.75" y="-6.5" font-family="Helvetica,sans-Serif" font-size="10.00">/DataStorageTests.cpp</text>
</a>
</g>
</g>
<!-- Node2&#45;&gt;Node8 -->
<g id="edge7_Node000002_Node000008" class="edge">
<title>Node2&#45;&gt;Node8</title>
<g id="a_edge7_Node000002_Node000008"><a xlink:title=" ">
<path fill="none" stroke="#63b8ff" d="M708.78,-67.9C640.19,-59.97 540.87,-47.34 454.75,-32 451.93,-31.5 449.06,-30.96 446.15,-30.39"/>
<polygon fill="#63b8ff" stroke="#63b8ff" points="708.1,-71.34 718.43,-69.01 708.9,-64.39 708.1,-71.34"/>
</a>
</g>
</g>
<!-- Node9 -->
<g id="Node000009" class="node">
<title>Node9</title>
<g id="a_Node000009"><a xlink:href="_device_tests_8cpp.html" target="_top" xlink:title="Тесты для базового класса Device и его наследников.">
<polygon fill="white" stroke="#666666" points="889.38,-32 778.12,-32 778.12,0 889.38,0 889.38,-32"/>
<text xml:space="preserve" text-anchor="start" x="786.12" y="-18.5" font-family="Helvetica,sans-Serif" font-size="10.00">tests/NetSphereTests</text>
<text xml:space="preserve" text-anchor="middle" x="833.75" y="-6.5" font-family="Helvetica,sans-Serif" font-size="10.00">/DeviceTests.cpp</text>
</a>
</g>
</g>
<!-- Node2&#45;&gt;Node9 -->
<g id="edge8_Node000002_Node000009" class="edge">
<title>Node2&#45;&gt;Node9</title>
<g id="a_edge8_Node000002_Node000009"><a xlink:title=" ">
<path fill="none" stroke="#63b8ff" d="M805.55,-58.27C811.29,-49.87 817.98,-40.08 823.4,-32.14"/>
<polygon fill="#63b8ff" stroke="#63b8ff" points="802.76,-56.14 800.01,-66.38 808.54,-60.09 802.76,-56.14"/>
</a>
</g>
</g>
<!-- Node10 -->
<g id="Node000010" class="node">
<title>Node10</title>
<g id="a_Node000010"><a xlink:href="_domain_error_tests_8cpp.html" target="_top" xlink:title="Тесты для обработки ошибок в классе Domain.">
<polygon fill="white" stroke="#666666" points="760,-32 643.5,-32 643.5,0 760,0 760,-32"/>
<text xml:space="preserve" text-anchor="start" x="651.5" y="-18.5" font-family="Helvetica,sans-Serif" font-size="10.00">tests/NetSphereTests</text>
<text xml:space="preserve" text-anchor="middle" x="701.75" y="-6.5" font-family="Helvetica,sans-Serif" font-size="10.00">/DomainErrorTests.cpp</text>
</a>
</g>
</g>
<!-- Node2&#45;&gt;Node10 -->
<g id="edge9_Node000002_Node000010" class="edge">
<title>Node2&#45;&gt;Node10</title>
<g id="a_edge9_Node000002_Node000010"><a xlink:title=" ">
<path fill="none" stroke="#63b8ff" d="M768.94,-61.3C755.41,-52.38 738.52,-41.25 725.07,-32.37"/>
<polygon fill="#63b8ff" stroke="#63b8ff" points="766.99,-64.21 777.27,-66.79 770.85,-58.37 766.99,-64.21"/>
</a>
</g>
</g>
<!-- Node11 -->
<g id="Node000011" class="node">
<title>Node11</title>
<g id="a_Node000011"><a xlink:href="_domain_tests_8cpp.html" target="_top" xlink:title="Тесты для класса Domain проекта NetSphere.">
<polygon fill="white" stroke="#666666" points="1018.38,-32 907.12,-32 907.12,0 1018.38,0 1018.38,-32"/>
<text xml:space="preserve" text-anchor="start" x="915.12" y="-18.5" font-family="Helvetica,sans-Serif" font-size="10.00">tests/NetSphereTests</text>
<text xml:space="preserve" text-anchor="middle" x="962.75" y="-6.5" font-family="Helvetica,sans-Serif" font-size="10.00">/DomainTests.cpp</text>
</a>
</g>
</g>
<!-- Node2&#45;&gt;Node11 -->
<g id="edge10_Node000002_Node000011" class="edge">
<title>Node2&#45;&gt;Node11</title>
<g id="a_edge10_Node000002_Node000011"><a xlink:title=" ">
<path fill="none" stroke="#63b8ff" d="M829.94,-63.87C856.13,-54.63 891.29,-42.22 918.86,-32.49"/>
<polygon fill="#63b8ff" stroke="#63b8ff" points="829,-60.49 820.74,-67.12 831.33,-67.09 829,-60.49"/>
</a>
</g>
</g>
<!-- Node12&#45;&gt;Node4 -->
<g id="edge13_Node000012_Node000004" class="edge">
<title>Node12&#45;&gt;Node4</title>
<g id="a_edge13_Node000012_Node000004"><a xlink:title=" ">
<path fill="none" stroke="#63b8ff" d="M1267.75,-56.25C1267.75,-45.97 1267.75,-34.09 1267.75,-26.11"/>
<polygon fill="#63b8ff" stroke="#63b8ff" points="1264.25,-56.11 1267.75,-66.11 1271.25,-56.11 1264.25,-56.11"/>
</a>
</g>
</g>
<!-- Node12&#45;&gt;Node6 -->
<g id="edge14_Node000012_Node000006" class="edge">
<title>Node12&#45;&gt;Node6</title>
<g id="a_edge14_Node000012_Node000006"><a xlink:title=" ">
<path fill="none" stroke="#63b8ff" d="M1301.81,-63.38C1324.78,-54.19 1355.13,-42.05 1379.02,-32.49"/>
<polygon fill="#63b8ff" stroke="#63b8ff" points="1300.58,-60.1 1292.59,-67.06 1303.18,-66.6 1300.58,-60.1"/>
</a>
</g>
</g>
<!-- Node12&#45;&gt;Node9 -->
<g id="edge15_Node000012_Node000009" class="edge">
<title>Node12&#45;&gt;Node9</title>
<g id="a_edge15_Node000012_Node000009"><a xlink:title=" ">
<path fill="none" stroke="#63b8ff" d="M1197.05,-70.72C1122.33,-63.54 1001.23,-50.36 897.75,-32 895.17,-31.54 892.53,-31.04 889.87,-30.52"/>
<polygon fill="#63b8ff" stroke="#63b8ff" points="1196.38,-74.17 1206.67,-71.63 1197.05,-67.2 1196.38,-74.17"/>
</a>
</g>
</g>
<!-- Node12&#45;&gt;Node11 -->
<g id="edge16_Node000012_Node000011" class="edge">
<title>Node12&#45;&gt;Node11</title>
<g id="a_edge16_Node000012_Node000011"><a xlink:title=" ">
<path fill="none" stroke="#63b8ff" d="M1202.52,-65.52C1154.17,-56.83 1086.72,-44.33 1027.75,-32 1024.8,-31.38 1021.78,-30.74 1018.74,-30.08"/>
<polygon fill="#63b8ff" stroke="#63b8ff" points="1201.82,-68.95 1212.28,-67.27 1203.05,-62.06 1201.82,-68.95"/>
</a>
</g>
</g>
<!-- Node13 -->
<g id="Node000013" class="node">
<title>Node13</title>
<g id="a_Node000013"><a xlink:href="_printer_8cpp.html" target="_top" xlink:title="Реализация класса Printer &#45; сетевого принтера.">
<polygon fill="white" stroke="#666666" points="1796.38,-26 1667.12,-26 1667.12,-6 1796.38,-6 1796.38,-26"/>
<text xml:space="preserve" text-anchor="middle" x="1731.75" y="-12.5" font-family="Helvetica,sans-Serif" font-size="10.00">src/NetSphere/Printer.cpp</text>
</a>
</g>
</g>
<!-- Node12&#45;&gt;Node13 -->
<g id="edge12_Node000012_Node000013" class="edge">
<title>Node12&#45;&gt;Node13</title>
<g id="a_edge12_Node000012_Node000013"><a xlink:title=" ">
<path fill="none" stroke="#63b8ff" d="M1338.61,-70.65C1416.94,-63.21 1546.75,-49.62 1657.75,-32 1667.72,-30.42 1678.39,-28.43 1688.43,-26.42"/>
<polygon fill="#63b8ff" stroke="#63b8ff" points="1338.56,-67.14 1328.94,-71.56 1339.22,-74.11 1338.56,-67.14"/>
</a>
</g>
</g>
<!-- Node14 -->
<g id="Node000014" class="node">
<title>Node14</title>
<g id="a_Node000014"><a xlink:href="_workstation_printer_tests_8cpp.html" target="_top" xlink:title="Тесты для классов Workstation и Printer.">
<polygon fill="white" stroke="#666666" points="1648.75,-32 1506.75,-32 1506.75,0 1648.75,0 1648.75,-32"/>
<text xml:space="preserve" text-anchor="start" x="1514.75" y="-18.5" font-family="Helvetica,sans-Serif" font-size="10.00">tests/NetSphereTests</text>
<text xml:space="preserve" text-anchor="middle" x="1577.75" y="-6.5" font-family="Helvetica,sans-Serif" font-size="10.00">/WorkstationPrinterTests.cpp</text>
</a>
</g>
</g>
<!-- Node12&#45;&gt;Node14 -->
<g id="edge17_Node000012_Node000014" class="edge">
<title>Node12&#45;&gt;Node14</title>
<g id="a_edge17_Node000012_Node000014"><a xlink:title=" ">
<path fill="none" stroke="#63b8ff" d="M1327.72,-65.39C1378.83,-55.5 1452.39,-41.26 1506.5,-30.79"/>
<polygon fill="#63b8ff" stroke="#63b8ff" points="1327.17,-61.93 1318.01,-67.27 1328.5,-68.81 1327.17,-61.93"/>
</a>
</g>
</g>
<!-- Node15&#45;&gt;Node4 -->
<g id="edge20_Node000015_Node000004" class="edge">
<title>Node15&#45;&gt;Node4</title>
<g id="a_edge20_Node000015_Node000004"><a xlink:title=" ">
<path fill="none" stroke="#63b8ff" d="M1056.48,-65.02C1106.33,-53.69 1180.14,-36.91 1226.02,-26.48"/>
<polygon fill="#63b8ff" stroke="#63b8ff" points="1055.74,-61.59 1046.77,-67.22 1057.29,-68.42 1055.74,-61.59"/>
</a>
</g>
</g>
<!-- Node15&#45;&gt;Node5 -->
<g id="edge21_Node000015_Node000005" class="edge">
<title>Node15&#45;&gt;Node5</title>
<g id="a_edge21_Node000015_Node000005"><a xlink:title=" ">
<path fill="none" stroke="#63b8ff" d="M921.32,-67.99C846.45,-59.57 733.02,-46.17 634.75,-32 631.93,-31.59 629.06,-31.17 626.16,-30.73"/>
<polygon fill="#63b8ff" stroke="#63b8ff" points="920.71,-71.45 931.04,-69.08 921.49,-64.49 920.71,-71.45"/>
</a>
</g>
</g>
<!-- Node15&#45;&gt;Node6 -->
<g id="edge22_Node000015_Node000006" class="edge">
<title>Node15&#45;&gt;Node6</title>
<g id="a_edge22_Node000015_Node000006"><a xlink:title=" ">
<path fill="none" stroke="#63b8ff" d="M1085.94,-67.12C1153.65,-58.7 1252.11,-45.79 1337.75,-32 1340.68,-31.53 1343.67,-31.03 1346.68,-30.52"/>
<polygon fill="#63b8ff" stroke="#63b8ff" points="1085.92,-63.6 1076.43,-68.3 1086.78,-70.54 1085.92,-63.6"/>
</a>
</g>
</g>
<!-- Node15&#45;&gt;Node9 -->
<g id="edge23_Node000015_Node000009" class="edge">
<title>Node15&#45;&gt;Node9</title>
<g id="a_edge23_Node000015_Node000009"><a xlink:title=" ">
<path fill="none" stroke="#63b8ff" d="M966.56,-63.87C940.37,-54.63 905.21,-42.22 877.64,-32.49"/>
<polygon fill="#63b8ff" stroke="#63b8ff" points="965.17,-67.09 975.76,-67.12 967.5,-60.49 965.17,-67.09"/>
</a>
</g>
</g>
<!-- Node15&#45;&gt;Node10 -->
<g id="edge24_Node000015_Node000010" class="edge">
<title>Node15&#45;&gt;Node10</title>
<g id="a_edge24_Node000015_Node000010"><a xlink:title=" ">
<path fill="none" stroke="#63b8ff" d="M940.54,-65.45C893.17,-56.65 826.8,-44.05 768.75,-32 765.95,-31.42 763.08,-30.81 760.19,-30.2"/>
<polygon fill="#63b8ff" stroke="#63b8ff" points="939.89,-68.89 950.36,-67.27 941.17,-62 939.89,-68.89"/>
</a>
</g>
</g>
<!-- Node15&#45;&gt;Node11 -->
<g id="edge25_Node000015_Node000011" class="edge">
<title>Node15&#45;&gt;Node11</title>
<g id="a_edge25_Node000015_Node000011"><a xlink:title=" ">
<path fill="none" stroke="#63b8ff" d="M990.95,-58.27C985.21,-49.87 978.52,-40.08 973.1,-32.14"/>
<polygon fill="#63b8ff" stroke="#63b8ff" points="987.96,-60.09 996.49,-66.38 993.74,-56.14 987.96,-60.09"/>
</a>
</g>
</g>
<!-- Node15&#45;&gt;Node14 -->
<g id="edge26_Node000015_Node000014" class="edge">
<title>Node15&#45;&gt;Node14</title>
<g id="a_edge26_Node000015_Node000014"><a xlink:title=" ">
<path fill="none" stroke="#63b8ff" d="M1086.51,-71.86C1184.85,-65.2 1353.75,-52.01 1497.75,-32 1500.55,-31.61 1503.4,-31.19 1506.28,-30.75"/>
<polygon fill="#63b8ff" stroke="#63b8ff" points="1086.42,-68.36 1076.67,-72.52 1086.89,-75.34 1086.42,-68.36"/>
</a>
</g>
</g>
<!-- Node16 -->
<g id="Node000016" class="node">
<title>Node16</title>
<g id="a_Node000016"><a xlink:href="_workstation_8cpp.html" target="_top" xlink:title="Реализация класса Workstation &#45; рабочей станции пользователя.">
<polygon fill="white" stroke="#666666" points="1189,-26 1036.5,-26 1036.5,-6 1189,-6 1189,-26"/>
<text xml:space="preserve" text-anchor="middle" x="1112.75" y="-12.5" font-family="Helvetica,sans-Serif" font-size="10.00">src/NetSphere/Workstation.cpp</text>
</a>
</g>
</g>
<!-- Node15&#45;&gt;Node16 -->
<g id="edge19_Node000015_Node000016" class="edge">
<title>Node15&#45;&gt;Node16</title>
<g id="a_edge19_Node000015_Node000016"><a xlink:title=" ">
<path fill="none" stroke="#63b8ff" d="M1030.71,-62.16C1051.1,-50.94 1078.45,-35.88 1095.84,-26.31"/>
<polygon fill="#63b8ff" stroke="#63b8ff" points="1029.18,-59.01 1022.11,-66.9 1032.56,-65.14 1029.18,-59.01"/>
</a>
</g>
</g>
</g>
</svg>
