<?xml version="1.0" encoding="UTF-8" standalone="no"?>
<!DOCTYPE svg PUBLIC "-//W3C//DTD SVG 1.1//EN"
 "http://www.w3.org/Graphics/SVG/1.1/DTD/svg11.dtd">
<!-- Generated by graphviz version 14.0.1 (20251006.0113)
 -->
<!-- Title: src/NetSphere/Domain.cpp Pages: 1 -->
<svg width="411pt" height="196pt"
 viewBox="0.00 0.00 411.00 196.00" xmlns="http://www.w3.org/2000/svg" xmlns:xlink="http://www.w3.org/1999/xlink">
<g id="graph0" class="graph" transform="scale(1 1) rotate(0) translate(4 192)">
<title>src/NetSphere/Domain.cpp</title>
<!-- Node1 -->
<g id="Node000001" class="node">
<title>Node1</title>
<g id="a_Node000001"><a xlink:title="Реализация класса Domain &#45; домена корпоративной сети.">
<polygon fill="#999999" stroke="#666666" points="376.62,-188 242.12,-188 242.12,-168 376.62,-168 376.62,-188"/>
<text xml:space="preserve" text-anchor="middle" x="309.38" y="-174.5" font-family="Helvetica,sans-Serif" font-size="10.00">src/NetSphere/Domain.cpp</text>
</a>
</g>
</g>
<!-- Node2 -->
<g id="Node000002" class="node">
<title>Node2</title>
<g id="a_Node000002"><a xlink:href="_domain_8h.html" target="_top" xlink:title="Заголовочный файл класса Domain &#45; домена корпоративной сети.">
<polygon fill="white" stroke="#666666" points="267.38,-132 209.38,-132 209.38,-112 267.38,-112 267.38,-132"/>
<text xml:space="preserve" text-anchor="middle" x="238.38" y="-118.5" font-family="Helvetica,sans-Serif" font-size="10.00">Domain.h</text>
</a>
</g>
</g>
<!-- Node1&#45;&gt;Node2 -->
<g id="edge1_Node000001_Node000002" class="edge">
<title>Node1&#45;&gt;Node2</title>
<g id="a_edge1_Node000001_Node000002"><a xlink:title=" ">
<path fill="none" stroke="#63b8ff" d="M297.01,-167.59C286.73,-159.77 271.86,-148.46 259.66,-139.19"/>
<polygon fill="#63b8ff" stroke="#63b8ff" points="261.88,-136.48 251.81,-133.21 257.65,-142.05 261.88,-136.48"/>
</a>
</g>
</g>
<!-- Node4 -->
<g id="Node000004" class="node">
<title>Node4</title>
<g id="a_Node000004"><a xlink:title=" ">
<polygon fill="#e0e0e0" stroke="#999999" points="403.12,-20 349.62,-20 349.62,0 403.12,0 403.12,-20"/>
<text xml:space="preserve" text-anchor="middle" x="376.38" y="-6.5" font-family="Helvetica,sans-Serif" font-size="10.00">iostream</text>
</a>
</g>
</g>
<!-- Node1&#45;&gt;Node4 -->
<g id="edge11_Node000001_Node000004" class="edge">
<title>Node1&#45;&gt;Node4</title>
<g id="a_edge11_Node000001_Node000004"><a xlink:title=" ">
<path fill="none" stroke="#63b8ff" d="M315.22,-167.61C325.85,-150.18 348.42,-111.37 361.38,-76 366.69,-61.5 370.54,-44.46 373,-31.47"/>
<polygon fill="#63b8ff" stroke="#63b8ff" points="376.39,-32.42 374.69,-21.96 369.5,-31.2 376.39,-32.42"/>
</a>
</g>
</g>
<!-- Node3 -->
<g id="Node000003" class="node">
<title>Node3</title>
<g id="a_Node000003"><a xlink:href="_network_entity_8h.html" target="_top" xlink:title="Заголовочный файл базового класса NetworkEntity для всех сущностей сети.">
<polygon fill="white" stroke="#666666" points="352.25,-76 266.5,-76 266.5,-56 352.25,-56 352.25,-76"/>
<text xml:space="preserve" text-anchor="middle" x="309.38" y="-62.5" font-family="Helvetica,sans-Serif" font-size="10.00">NetworkEntity.h</text>
</a>
</g>
</g>
<!-- Node2&#45;&gt;Node3 -->
<g id="edge2_Node000002_Node000003" class="edge">
<title>Node2&#45;&gt;Node3</title>
<g id="a_edge2_Node000002_Node000003"><a xlink:title=" ">
<path fill="none" stroke="#63b8ff" d="M250.74,-111.59C261.02,-103.77 275.89,-92.46 288.09,-83.19"/>
<polygon fill="#63b8ff" stroke="#63b8ff" points="290.1,-86.05 295.94,-77.21 285.87,-80.48 290.1,-86.05"/>
</a>
</g>
</g>
<!-- Node6 -->
<g id="Node000006" class="node">
<title>Node6</title>
<g id="a_Node000006"><a xlink:title=" ">
<polygon fill="#e0e0e0" stroke="#999999" points="329,-20 277.75,-20 277.75,0 329,0 329,-20"/>
<text xml:space="preserve" text-anchor="middle" x="303.38" y="-6.5" font-family="Helvetica,sans-Serif" font-size="10.00">memory</text>
</a>
</g>
</g>
<!-- Node2&#45;&gt;Node6 -->
<g id="edge10_Node000002_Node000006" class="edge">
<title>Node2&#45;&gt;Node6</title>
<g id="a_edge10_Node000002_Node000006"><a xlink:title=" ">
<path fill="none" stroke="#63b8ff" d="M239.59,-111.57C241.63,-98.36 246.61,-73.95 257.38,-56 263.77,-45.33 273.31,-35.44 282.04,-27.65"/>
<polygon fill="#63b8ff" stroke="#63b8ff" points="284.13,-30.46 289.52,-21.34 279.62,-25.11 284.13,-30.46"/>
</a>
</g>
</g>
<!-- Node7 -->
<g id="Node000007" class="node">
<title>Node7</title>
<g id="a_Node000007"><a xlink:href="_network_exceptions_8h.html" target="_top" xlink:title="Заголовочный файл с классами исключений для корпоративной сети.">
<polygon fill="white" stroke="#666666" points="210.25,-76 100.5,-76 100.5,-56 210.25,-56 210.25,-76"/>
<text xml:space="preserve" text-anchor="middle" x="155.38" y="-62.5" font-family="Helvetica,sans-Serif" font-size="10.00">NetworkExceptions.h</text>
</a>
</g>
</g>
<!-- Node2&#45;&gt;Node7 -->
<g id="edge6_Node000002_Node000007" class="edge">
<title>Node2&#45;&gt;Node7</title>
<g id="a_edge6_Node000002_Node000007"><a xlink:title=" ">
<path fill="none" stroke="#63b8ff" d="M223.92,-111.59C211.62,-103.59 193.7,-91.93 179.27,-82.54"/>
<polygon fill="#63b8ff" stroke="#63b8ff" points="181.5,-79.82 171.21,-77.3 177.69,-85.69 181.5,-79.82"/>
</a>
</g>
</g>
<!-- Node9 -->
<g id="Node000009" class="node">
<title>Node9</title>
<g id="a_Node000009"><a xlink:title=" ">
<polygon fill="#e0e0e0" stroke="#999999" points="82.75,-76 0,-76 0,-56 82.75,-56 82.75,-76"/>
<text xml:space="preserve" text-anchor="middle" x="41.38" y="-62.5" font-family="Helvetica,sans-Serif" font-size="10.00">unordered_map</text>
</a>
</g>
</g>
<!-- Node2&#45;&gt;Node9 -->
<g id="edge9_Node000002_Node000009" class="edge">
<title>Node2&#45;&gt;Node9</title>
<g id="a_edge9_Node000002_Node000009"><a xlink:title=" ">
<path fill="none" stroke="#63b8ff" d="M208.88,-112.92C176.45,-104.03 123.95,-89.64 86.37,-79.33"/>
<polygon fill="#63b8ff" stroke="#63b8ff" points="87.74,-76.08 77.17,-76.81 85.89,-82.83 87.74,-76.08"/>
</a>
</g>
</g>
<!-- Node3&#45;&gt;Node4 -->
<g id="edge3_Node000003_Node000004" class="edge">
<title>Node3&#45;&gt;Node4</title>
<g id="a_edge3_Node000003_Node000004"><a xlink:title=" ">
<path fill="none" stroke="#63b8ff" d="M321.05,-55.59C330.65,-47.85 344.5,-36.69 355.94,-27.47"/>
<polygon fill="#63b8ff" stroke="#63b8ff" points="358.07,-30.25 363.66,-21.25 353.68,-24.8 358.07,-30.25"/>
</a>
</g>
</g>
<!-- Node5 -->
<g id="Node000005" class="node">
<title>Node5</title>
<g id="a_Node000005"><a xlink:title=" ">
<polygon fill="#e0e0e0" stroke="#999999" points="253.38,-20 213.38,-20 213.38,0 253.38,0 253.38,-20"/>
<text xml:space="preserve" text-anchor="middle" x="233.38" y="-6.5" font-family="Helvetica,sans-Serif" font-size="10.00">string</text>
</a>
</g>
</g>
<!-- Node3&#45;&gt;Node5 -->
<g id="edge4_Node000003_Node000005" class="edge">
<title>Node3&#45;&gt;Node5</title>
<g id="a_edge4_Node000003_Node000005"><a xlink:title=" ">
<path fill="none" stroke="#63b8ff" d="M296.14,-55.59C285.09,-47.74 269.09,-36.38 256.02,-27.09"/>
<polygon fill="#63b8ff" stroke="#63b8ff" points="258.13,-24.3 247.95,-21.36 254.07,-30 258.13,-24.3"/>
</a>
</g>
</g>
<!-- Node3&#45;&gt;Node6 -->
<g id="edge5_Node000003_Node000006" class="edge">
<title>Node3&#45;&gt;Node6</title>
<g id="a_edge5_Node000003_Node000006"><a xlink:title=" ">
<path fill="none" stroke="#63b8ff" d="M308.33,-55.59C307.6,-49.01 306.59,-39.96 305.68,-31.73"/>
<polygon fill="#63b8ff" stroke="#63b8ff" points="309.16,-31.35 304.58,-21.8 302.2,-32.13 309.16,-31.35"/>
</a>
</g>
</g>
<!-- Node7&#45;&gt;Node5 -->
<g id="edge8_Node000007_Node000005" class="edge">
<title>Node7&#45;&gt;Node5</title>
<g id="a_edge8_Node000007_Node000005"><a xlink:title=" ">
<path fill="none" stroke="#63b8ff" d="M168.96,-55.59C180.41,-47.67 197.04,-36.16 210.53,-26.82"/>
<polygon fill="#63b8ff" stroke="#63b8ff" points="212.21,-29.91 218.44,-21.34 208.22,-24.16 212.21,-29.91"/>
</a>
</g>
</g>
<!-- Node8 -->
<g id="Node000008" class="node">
<title>Node8</title>
<g id="a_Node000008"><a xlink:title=" ">
<polygon fill="#e0e0e0" stroke="#999999" points="184.75,-20 126,-20 126,0 184.75,0 184.75,-20"/>
<text xml:space="preserve" text-anchor="middle" x="155.38" y="-6.5" font-family="Helvetica,sans-Serif" font-size="10.00">stdexcept</text>
</a>
</g>
</g>
<!-- Node7&#45;&gt;Node8 -->
<g id="edge7_Node000007_Node000008" class="edge">
<title>Node7&#45;&gt;Node8</title>
<g id="a_edge7_Node000007_Node000008"><a xlink:title=" ">
<path fill="none" stroke="#63b8ff" d="M155.38,-55.59C155.38,-49.01 155.38,-39.96 155.38,-31.73"/>
<polygon fill="#63b8ff" stroke="#63b8ff" points="158.88,-31.81 155.38,-21.81 151.88,-31.81 158.88,-31.81"/>
</a>
</g>
</g>
</g>
</svg>
