<?xml version="1.0" encoding="UTF-8" standalone="no"?>
<!DOCTYPE svg PUBLIC "-//W3C//DTD SVG 1.1//EN"
 "http://www.w3.org/Graphics/SVG/1.1/DTD/svg11.dtd">
<!-- Generated by graphviz version 14.0.1 (20251006.0113)
 -->
<!-- Title: src/NetSphere/Domain.h Pages: 1 -->
<!--zoomable 164 -->

<svg id="main" version="1.1" xmlns="http://www.w3.org/2000/svg" xmlns:xlink="http://www.w3.org/1999/xlink" xml:space="preserve" onload="init(evt)">

<style type="text/css"><![CDATA[
.node, .edge {opacity: 0.7;}
.node.selected, .edge.selected {opacity: 1;}
.edge:hover path { stroke: red; }
.edge:hover polygon { stroke: red; fill: red; }
]]></style>

<defs>
  <circle id="rim" cx="0" cy="0" r="7"/>
  <circle id="rim2" cx="0" cy="0" r="3.5"/>
  <g id="zoomPlus">
    <use xlink:href="#rim" fill="#404040"><set attributeName="fill" to="#808080" begin="zoomplus.mouseover" end="zoomplus.mouseout"/></use>
    <path d="M-4,0h8M0,-4v8" fill="none" stroke="white" stroke-width="1.5" pointer-events="none"/>
  </g>
  <g id="zoomMin">
    <use xlink:href="#rim" fill="#404040"><set attributeName="fill" to="#808080" begin="zoomminus.mouseover" end="zoomminus.mouseout"/></use>
    <path d="M-4,0h8" fill="none" stroke="white" stroke-width="1.5" pointer-events="none"/>
  </g>
  <g id="arrowUp" transform="translate(30 24)">
    <use xlink:href="#rim"/>
    <path pointer-events="none" fill="none" stroke="white" stroke-width="1.5" d="M0,-3.0v7 M-2.5,-0.5L0,-3.0L2.5,-0.5"/>
  </g>
  <g id="arrowRight" transform="rotate(90) translate(36 -43)">
    <use xlink:href="#rim"/>
    <path pointer-events="none" fill="none" stroke="white" stroke-width="1.5" d="M0,-3.0v7 M-2.5,-0.5L0,-3.0L2.5,-0.5"/>
  </g>
  <g id="arrowDown" transform="rotate(180) translate(-30 -48)">
    <use xlink:href="#rim"/>
    <path pointer-events="none" fill="none" stroke="white" stroke-width="1.5" d="M0,-3.0v7 M-2.5,-0.5L0,-3.0L2.5,-0.5"/>
  </g>
  <g id="arrowLeft" transform="rotate(270) translate(-36 17)">
    <use xlink:href="#rim"/>
    <path pointer-events="none" fill="none" stroke="white" stroke-width="1.5" d="M0,-3.0v7 M-2.5,-0.5L0,-3.0L2.5,-0.5"/>
  </g>
  <g id="resetDef">
    <use xlink:href="#rim2" fill="#404040"><set attributeName="fill" to="#808080" begin="reset.mouseover" end="reset.mouseout"/></use>
  </g>
</defs>
<script type="application/ecmascript">
var viewWidth = 872;
var viewHeight = 164;
var sectionId = 'dynsection-1';
</script>
<script type="application/ecmascript" xlink:href="svg.min.js"/>
<svg id="graph" class="graph">
<g id="viewport">
<title>src/NetSphere/Domain.h</title>
<!-- Node1 -->
<g id="Node000001" class="node">
<title>Node1</title>
<g id="a_Node000001"><a xlink:title="Заголовочный файл класса Domain &#45; домена корпоративной сети.">
<polygon fill="#999999" stroke="#666666" points="545.88,-156 421.88,-156 421.88,-136 545.88,-136 545.88,-156"/>
<text xml:space="preserve" text-anchor="middle" x="483.88" y="-142.5" font-family="Helvetica,sans-Serif" font-size="10.00">src/NetSphere/Domain.h</text>
</a>
</g>
</g>
<!-- Node2 -->
<g id="Node000002" class="node">
<title>Node2</title>
<g id="a_Node000002"><a xlink:href="_corporate_network_8h.html" target="_top" xlink:title="Заголовочный файл класса CorporateNetwork &#45; корпоративной сети.">
<polygon fill="white" stroke="#666666" points="408.75,-94 239,-94 239,-74 408.75,-74 408.75,-94"/>
<text xml:space="preserve" text-anchor="middle" x="323.88" y="-80.5" font-family="Helvetica,sans-Serif" font-size="10.00">src/NetSphere/CorporateNetwork.h</text>
</a>
</g>
</g>
<!-- Node1&#45;&gt;Node2 -->
<g id="edge1_Node000001_Node000002" class="edge">
<title>Node1&#45;&gt;Node2</title>
<g id="a_edge1_Node000001_Node000002"><a xlink:title=" ">
<path fill="none" stroke="#63b8ff" d="M448.38,-131.69C418.22,-120.38 375.69,-104.43 348.96,-94.41"/>
<polygon fill="#63b8ff" stroke="#63b8ff" points="446.87,-134.86 457.46,-135.09 449.32,-128.31 446.87,-134.86"/>
</a>
</g>
</g>
<!-- Node4 -->
<g id="Node000004" class="node">
<title>Node4</title>
<g id="a_Node000004"><a xlink:href="main_8cpp.html" target="_top" xlink:title="Главная функция приложения NetSphere.">
<polygon fill="white" stroke="#666666" points="121.75,-26 0,-26 0,-6 121.75,-6 121.75,-26"/>
<text xml:space="preserve" text-anchor="middle" x="60.88" y="-12.5" font-family="Helvetica,sans-Serif" font-size="10.00">src/NetSphere/main.cpp</text>
</a>
</g>
</g>
<!-- Node1&#45;&gt;Node4 -->
<g id="edge7_Node000001_Node000004" class="edge">
<title>Node1&#45;&gt;Node4</title>
<g id="a_edge7_Node000001_Node000004"><a xlink:title=" ">
<path fill="none" stroke="#63b8ff" d="M410.27,-137.51C358.83,-130.94 289.04,-119.34 229.88,-100 170.22,-80.5 104.99,-43.56 76.1,-26.31"/>
<polygon fill="#63b8ff" stroke="#63b8ff" points="409.76,-140.97 420.11,-138.73 410.62,-134.03 409.76,-140.97"/>
</a>
</g>
</g>
<!-- Node6 -->
<g id="Node000006" class="node">
<title>Node6</title>
<g id="a_Node000006"><a xlink:href="_corporate_network_tests_8cpp.html" target="_top" xlink:title="Тесты для класса CorporateNetwork проекта NetSphere.">
<polygon fill="white" stroke="#666666" points="659.5,-32 518.25,-32 518.25,0 659.5,0 659.5,-32"/>
<text xml:space="preserve" text-anchor="start" x="526.25" y="-18.5" font-family="Helvetica,sans-Serif" font-size="10.00">tests/NetSphereTests</text>
<text xml:space="preserve" text-anchor="middle" x="588.88" y="-6.5" font-family="Helvetica,sans-Serif" font-size="10.00">/CorporateNetworkTests.cpp</text>
</a>
</g>
</g>
<!-- Node1&#45;&gt;Node6 -->
<g id="edge8_Node000001_Node000006" class="edge">
<title>Node1&#45;&gt;Node6</title>
<g id="a_edge8_Node000001_Node000006"><a xlink:title=" ">
<path fill="none" stroke="#63b8ff" d="M468.52,-127.14C456.36,-110.72 443.34,-86.22 455.88,-68 464.91,-54.86 498.61,-42.01 529.83,-32.5"/>
<polygon fill="#63b8ff" stroke="#63b8ff" points="465.47,-128.93 474.44,-134.58 470.95,-124.58 465.47,-128.93"/>
</a>
</g>
</g>
<!-- Node7 -->
<g id="Node000007" class="node">
<title>Node7</title>
<g id="a_Node000007"><a xlink:href="_domain_8cpp.html" target="_top" xlink:title="Реализация класса Domain &#45; домена корпоративной сети.">
<polygon fill="white" stroke="#666666" points="599.12,-94 464.62,-94 464.62,-74 599.12,-74 599.12,-94"/>
<text xml:space="preserve" text-anchor="middle" x="531.88" y="-80.5" font-family="Helvetica,sans-Serif" font-size="10.00">src/NetSphere/Domain.cpp</text>
</a>
</g>
</g>
<!-- Node1&#45;&gt;Node7 -->
<g id="edge6_Node000001_Node000007" class="edge">
<title>Node1&#45;&gt;Node7</title>
<g id="a_edge6_Node000001_Node000007"><a xlink:title=" ">
<path fill="none" stroke="#63b8ff" d="M498.34,-126.92C507,-116.1 517.64,-102.79 524.58,-94.11"/>
<polygon fill="#63b8ff" stroke="#63b8ff" points="495.83,-124.45 492.32,-134.44 501.3,-128.82 495.83,-124.45"/>
</a>
</g>
</g>
<!-- Node8 -->
<g id="Node000008" class="node">
<title>Node8</title>
<g id="a_Node000008"><a xlink:href="_domain_error_tests_8cpp.html" target="_top" xlink:title="Тесты для обработки ошибок в классе Domain.">
<polygon fill="white" stroke="#666666" points="734.12,-100 617.62,-100 617.62,-68 734.12,-68 734.12,-100"/>
<text xml:space="preserve" text-anchor="start" x="625.62" y="-86.5" font-family="Helvetica,sans-Serif" font-size="10.00">tests/NetSphereTests</text>
<text xml:space="preserve" text-anchor="middle" x="675.88" y="-74.5" font-family="Helvetica,sans-Serif" font-size="10.00">/DomainErrorTests.cpp</text>
</a>
</g>
</g>
<!-- Node1&#45;&gt;Node8 -->
<g id="edge9_Node000001_Node000008" class="edge">
<title>Node1&#45;&gt;Node8</title>
<g id="a_edge9_Node000001_Node000008"><a xlink:title=" ">
<path fill="none" stroke="#63b8ff" d="M524.69,-132.24C554.39,-122.96 594.75,-110.35 626.31,-100.49"/>
<polygon fill="#63b8ff" stroke="#63b8ff" points="523.82,-128.85 515.32,-135.17 525.91,-135.53 523.82,-128.85"/>
</a>
</g>
</g>
<!-- Node9 -->
<g id="Node000009" class="node">
<title>Node9</title>
<g id="a_Node000009"><a xlink:href="_domain_tests_8cpp.html" target="_top" xlink:title="Тесты для класса Domain проекта NetSphere.">
<polygon fill="white" stroke="#666666" points="863.5,-100 752.25,-100 752.25,-68 863.5,-68 863.5,-100"/>
<text xml:space="preserve" text-anchor="start" x="760.25" y="-86.5" font-family="Helvetica,sans-Serif" font-size="10.00">tests/NetSphereTests</text>
<text xml:space="preserve" text-anchor="middle" x="807.88" y="-74.5" font-family="Helvetica,sans-Serif" font-size="10.00">/DomainTests.cpp</text>
</a>
</g>
</g>
<!-- Node1&#45;&gt;Node9 -->
<g id="edge10_Node000001_Node000009" class="edge">
<title>Node1&#45;&gt;Node9</title>
<g id="a_edge10_Node000001_Node000009"><a xlink:title=" ">
<path fill="none" stroke="#63b8ff" d="M555.11,-133.7C607.25,-125.17 679.63,-112.78 742.88,-100 745.83,-99.4 748.85,-98.77 751.9,-98.12"/>
<polygon fill="#63b8ff" stroke="#63b8ff" points="554.77,-130.21 545.47,-135.27 555.9,-137.12 554.77,-130.21"/>
</a>
</g>
</g>
<!-- Node3 -->
<g id="Node000003" class="node">
<title>Node3</title>
<g id="a_Node000003"><a xlink:href="_corporate_network_8cpp.html" target="_top" xlink:title="Реализация класса CorporateNetwork &#45; корпоративной сети.">
<polygon fill="white" stroke="#666666" points="320,-26 139.75,-26 139.75,-6 320,-6 320,-26"/>
<text xml:space="preserve" text-anchor="middle" x="229.88" y="-12.5" font-family="Helvetica,sans-Serif" font-size="10.00">src/NetSphere/CorporateNetwork.cpp</text>
</a>
</g>
</g>
<!-- Node2&#45;&gt;Node3 -->
<g id="edge2_Node000002_Node000003" class="edge">
<title>Node2&#45;&gt;Node3</title>
<g id="a_edge2_Node000002_Node000003"><a xlink:title=" ">
<path fill="none" stroke="#63b8ff" d="M301.15,-67.04C283.07,-54.35 258.38,-37.02 243.32,-26.44"/>
<polygon fill="#63b8ff" stroke="#63b8ff" points="298.97,-69.79 309.17,-72.67 303,-64.06 298.97,-69.79"/>
</a>
</g>
</g>
<!-- Node2&#45;&gt;Node4 -->
<g id="edge3_Node000002_Node000004" class="edge">
<title>Node2&#45;&gt;Node4</title>
<g id="a_edge3_Node000002_Node000004"><a xlink:title=" ">
<path fill="none" stroke="#63b8ff" d="M275.11,-70.76C224.04,-57.95 144.93,-38.09 98.49,-26.44"/>
<polygon fill="#63b8ff" stroke="#63b8ff" points="274.17,-74.14 284.73,-73.18 275.88,-67.35 274.17,-74.14"/>
</a>
</g>
</g>
<!-- Node5 -->
<g id="Node000005" class="node">
<title>Node5</title>
<g id="a_Node000005"><a xlink:href="_corporate_network_error_tests_8cpp.html" target="_top" xlink:title="Тесты для обработки ошибок в классе CorporateNetwork.">
<polygon fill="white" stroke="#666666" points="500,-32 337.75,-32 337.75,0 500,0 500,-32"/>
<text xml:space="preserve" text-anchor="start" x="345.75" y="-18.5" font-family="Helvetica,sans-Serif" font-size="10.00">tests/NetSphereTests</text>
<text xml:space="preserve" text-anchor="middle" x="418.88" y="-6.5" font-family="Helvetica,sans-Serif" font-size="10.00">/CorporateNetworkErrorTests.cpp</text>
</a>
</g>
</g>
<!-- Node2&#45;&gt;Node5 -->
<g id="edge4_Node000002_Node000005" class="edge">
<title>Node2&#45;&gt;Node5</title>
<g id="a_edge4_Node000002_Node000005"><a xlink:title=" ">
<path fill="none" stroke="#63b8ff" d="M346.71,-67.14C361.92,-56.57 381.81,-42.75 396.85,-32.3"/>
<polygon fill="#63b8ff" stroke="#63b8ff" points="344.94,-64.1 338.73,-72.68 348.94,-69.85 344.94,-64.1"/>
</a>
</g>
</g>
<!-- Node2&#45;&gt;Node6 -->
<g id="edge5_Node000002_Node000006" class="edge">
<title>Node2&#45;&gt;Node6</title>
<g id="a_edge5_Node000002_Node000006"><a xlink:title=" ">
<path fill="none" stroke="#63b8ff" d="M372.96,-70.78C416.32,-59.98 479.77,-44.17 526.67,-32.49"/>
<polygon fill="#63b8ff" stroke="#63b8ff" points="372.17,-67.36 363.31,-73.18 373.86,-74.16 372.17,-67.36"/>
</a>
</g>
</g>
</g>
</svg>

<g id="navigator" transform="translate(0 0)" fill="#404254">
  <rect fill="#f2f5e9" fill-opacity="0.5" stroke="#606060" stroke-width=".5" x="0" y="0" width="60" height="60"/>
  <use id="zoomplus" xlink:href="#zoomPlus" x="17" y="9" onmousedown="handleZoom(evt,'in')"/>
  <use id="zoomminus" xlink:href="#zoomMin" x="42" y="9" onmousedown="handleZoom(evt,'out')"/>
  <use id="reset" xlink:href="#resetDef" x="30" y="36" onmousedown="handleReset()"/>
   <use id="arrowup" xlink:href="#arrowUp" x="0" y="0" onmousedown="handlePan(0,-1)"/>
  <use id="arrowright" xlink:href="#arrowRight" x="0" y="0" onmousedown="handlePan(1,0)"/>
  <use id="arrowdown" xlink:href="#arrowDown" x="0" y="0" onmousedown="handlePan(0,1)"/>
  <use id="arrowleft" xlink:href="#arrowLeft" x="0" y="0" onmousedown="handlePan(-1,0)"/>
</g>
<svg viewBox="0 0 15 15" width="100%" height="30px" preserveAspectRatio="xMaxYMin meet">
 <g id="arrow_out" transform="scale(0.3 0.3)">
  <a xlink:href="_domain_8h__dep__incl_org.svg" target="_base">
   <rect id="button" ry="5" rx="5" y="6" x="6" height="38" width="38"
        fill="#f2f5e9" fill-opacity="0.5" stroke="#606060" stroke-width="1.0"/>
   <path id="arrow"
     d="M 11.500037,31.436501 C 11.940474,20.09759 22.043105,11.32322 32.158766,21.979434 L 37.068811,17.246167 C 37.068811,17.246167 37.088388,32 37.088388,32 L 22.160133,31.978069 C 22.160133,31.978069 26.997745,27.140456 26.997745,27.140456 C 18.528582,18.264221 13.291696,25.230495 11.500037,31.436501 z"
     style="fill:#404040;"/>
  </a>
 </g>
</svg>

<style type='text/css'>
<![CDATA[
[data-mouse-over-selected='false'] { opacity: 0.7; }
[data-mouse-over-selected='true']  { opacity: 1.0; }
]]>
</style>
<script type="application/ecmascript"><![CDATA[
document.addEventListener('DOMContentLoaded', (event) => {
  highlightEdges();
  highlightAdjacentNodes();
});
]]></script>
</svg>
