<?xml version="1.0" encoding="UTF-8" standalone="no"?>
<!DOCTYPE svg PUBLIC "-//W3C//DTD SVG 1.1//EN"
 "http://www.w3.org/Graphics/SVG/1.1/DTD/svg11.dtd">
<!-- Generated by graphviz version 14.0.1 (20251006.0113)
 -->
<!-- Title: src/NetSphere/Domain.h Pages: 1 -->
<svg width="376pt" height="140pt"
 viewBox="0.00 0.00 376.00 140.00" xmlns="http://www.w3.org/2000/svg" xmlns:xlink="http://www.w3.org/1999/xlink">
<g id="graph0" class="graph" transform="scale(1 1) rotate(0) translate(4 136)">
<title>src/NetSphere/Domain.h</title>
<!-- Node1 -->
<g id="Node000001" class="node">
<title>Node1</title>
<g id="a_Node000001"><a xlink:title="Заголовочный файл класса Domain &#45; домена корпоративной сети.">
<polygon fill="#999999" stroke="#666666" points="216.62,-132 92.62,-132 92.62,-112 216.62,-112 216.62,-132"/>
<text xml:space="preserve" text-anchor="middle" x="154.62" y="-118.5" font-family="Helvetica,sans-Serif" font-size="10.00">src/NetSphere/Domain.h</text>
</a>
</g>
</g>
<!-- Node2 -->
<g id="Node000002" class="node">
<title>Node2</title>
<g id="a_Node000002"><a xlink:href="_network_entity_8h.html" target="_top" xlink:title="Заголовочный файл базового класса NetworkEntity для всех сущностей сети.">
<polygon fill="white" stroke="#666666" points="139.5,-76 53.75,-76 53.75,-56 139.5,-56 139.5,-76"/>
<text xml:space="preserve" text-anchor="middle" x="96.62" y="-62.5" font-family="Helvetica,sans-Serif" font-size="10.00">NetworkEntity.h</text>
</a>
</g>
</g>
<!-- Node1&#45;&gt;Node2 -->
<g id="edge1_Node000001_Node000002" class="edge">
<title>Node1&#45;&gt;Node2</title>
<g id="a_edge1_Node000001_Node000002"><a xlink:title=" ">
<path fill="none" stroke="#63b8ff" d="M144.52,-111.59C136.37,-104.01 124.69,-93.13 114.91,-84.02"/>
<polygon fill="#63b8ff" stroke="#63b8ff" points="117.42,-81.58 107.72,-77.33 112.65,-86.71 117.42,-81.58"/>
</a>
</g>
</g>
<!-- Node5 -->
<g id="Node000005" class="node">
<title>Node5</title>
<g id="a_Node000005"><a xlink:title=" ">
<polygon fill="#e0e0e0" stroke="#999999" points="51.25,-20 0,-20 0,0 51.25,0 51.25,-20"/>
<text xml:space="preserve" text-anchor="middle" x="25.62" y="-6.5" font-family="Helvetica,sans-Serif" font-size="10.00">memory</text>
</a>
</g>
</g>
<!-- Node1&#45;&gt;Node5 -->
<g id="edge9_Node000001_Node000005" class="edge">
<title>Node1&#45;&gt;Node5</title>
<g id="a_edge9_Node000001_Node000005"><a xlink:title=" ">
<path fill="none" stroke="#63b8ff" d="M107.12,-111.55C85.36,-104.97 60.85,-94.01 44.62,-76 33.66,-63.83 29,-45.65 27.03,-31.61"/>
<polygon fill="#63b8ff" stroke="#63b8ff" points="30.52,-31.27 26.03,-21.67 23.55,-31.98 30.52,-31.27"/>
</a>
</g>
</g>
<!-- Node6 -->
<g id="Node000006" class="node">
<title>Node6</title>
<g id="a_Node000006"><a xlink:href="_network_exceptions_8h.html" target="_top" xlink:title="Заголовочный файл с классами исключений для корпоративной сети.">
<polygon fill="white" stroke="#666666" points="267.5,-76 157.75,-76 157.75,-56 267.5,-56 267.5,-76"/>
<text xml:space="preserve" text-anchor="middle" x="212.62" y="-62.5" font-family="Helvetica,sans-Serif" font-size="10.00">NetworkExceptions.h</text>
</a>
</g>
</g>
<!-- Node1&#45;&gt;Node6 -->
<g id="edge5_Node000001_Node000006" class="edge">
<title>Node1&#45;&gt;Node6</title>
<g id="a_edge5_Node000001_Node000006"><a xlink:title=" ">
<path fill="none" stroke="#63b8ff" d="M164.73,-111.59C172.88,-104.01 184.56,-93.13 194.34,-84.02"/>
<polygon fill="#63b8ff" stroke="#63b8ff" points="196.6,-86.71 201.53,-77.33 191.83,-81.58 196.6,-86.71"/>
</a>
</g>
</g>
<!-- Node8 -->
<g id="Node000008" class="node">
<title>Node8</title>
<g id="a_Node000008"><a xlink:title=" ">
<polygon fill="#e0e0e0" stroke="#999999" points="368,-76 285.25,-76 285.25,-56 368,-56 368,-76"/>
<text xml:space="preserve" text-anchor="middle" x="326.62" y="-62.5" font-family="Helvetica,sans-Serif" font-size="10.00">unordered_map</text>
</a>
</g>
</g>
<!-- Node1&#45;&gt;Node8 -->
<g id="edge8_Node000001_Node000008" class="edge">
<title>Node1&#45;&gt;Node8</title>
<g id="a_edge8_Node000001_Node000008"><a xlink:title=" ">
<path fill="none" stroke="#63b8ff" d="M184.59,-111.59C212.53,-102.82 254.46,-89.66 285.52,-79.9"/>
<polygon fill="#63b8ff" stroke="#63b8ff" points="286.49,-83.27 294.99,-76.93 284.4,-76.59 286.49,-83.27"/>
</a>
</g>
</g>
<!-- Node3 -->
<g id="Node000003" class="node">
<title>Node3</title>
<g id="a_Node000003"><a xlink:title=" ">
<polygon fill="#e0e0e0" stroke="#999999" points="122.38,-20 68.88,-20 68.88,0 122.38,0 122.38,-20"/>
<text xml:space="preserve" text-anchor="middle" x="95.62" y="-6.5" font-family="Helvetica,sans-Serif" font-size="10.00">iostream</text>
</a>
</g>
</g>
<!-- Node2&#45;&gt;Node3 -->
<g id="edge2_Node000002_Node000003" class="edge">
<title>Node2&#45;&gt;Node3</title>
<g id="a_edge2_Node000002_Node000003"><a xlink:title=" ">
<path fill="none" stroke="#63b8ff" d="M96.45,-55.59C96.33,-49.01 96.16,-39.96 96.01,-31.73"/>
<polygon fill="#63b8ff" stroke="#63b8ff" points="99.51,-31.75 95.83,-21.81 92.51,-31.87 99.51,-31.75"/>
</a>
</g>
</g>
<!-- Node4 -->
<g id="Node000004" class="node">
<title>Node4</title>
<g id="a_Node000004"><a xlink:title=" ">
<polygon fill="#e0e0e0" stroke="#999999" points="180.62,-20 140.62,-20 140.62,0 180.62,0 180.62,-20"/>
<text xml:space="preserve" text-anchor="middle" x="160.62" y="-6.5" font-family="Helvetica,sans-Serif" font-size="10.00">string</text>
</a>
</g>
</g>
<!-- Node2&#45;&gt;Node4 -->
<g id="edge3_Node000002_Node000004" class="edge">
<title>Node2&#45;&gt;Node4</title>
<g id="a_edge3_Node000002_Node000004"><a xlink:title=" ">
<path fill="none" stroke="#63b8ff" d="M107.77,-55.59C116.95,-47.85 130.18,-36.69 141.11,-27.47"/>
<polygon fill="#63b8ff" stroke="#63b8ff" points="143.06,-30.4 148.45,-21.27 138.55,-25.05 143.06,-30.4"/>
</a>
</g>
</g>
<!-- Node2&#45;&gt;Node5 -->
<g id="edge4_Node000002_Node000005" class="edge">
<title>Node2&#45;&gt;Node5</title>
<g id="a_edge4_Node000002_Node000005"><a xlink:title=" ">
<path fill="none" stroke="#63b8ff" d="M84.26,-55.59C73.98,-47.77 59.11,-36.46 46.91,-27.19"/>
<polygon fill="#63b8ff" stroke="#63b8ff" points="49.13,-24.48 39.06,-21.21 44.9,-30.05 49.13,-24.48"/>
</a>
</g>
</g>
<!-- Node6&#45;&gt;Node4 -->
<g id="edge7_Node000006_Node000004" class="edge">
<title>Node6&#45;&gt;Node4</title>
<g id="a_edge7_Node000006_Node000004"><a xlink:title=" ">
<path fill="none" stroke="#63b8ff" d="M203.57,-55.59C196.41,-48.16 186.22,-37.58 177.56,-28.58"/>
<polygon fill="#63b8ff" stroke="#63b8ff" points="180.09,-26.16 170.63,-21.39 175.04,-31.02 180.09,-26.16"/>
</a>
</g>
</g>
<!-- Node7 -->
<g id="Node000007" class="node">
<title>Node7</title>
<g id="a_Node000007"><a xlink:title=" ">
<polygon fill="#e0e0e0" stroke="#999999" points="257,-20 198.25,-20 198.25,0 257,0 257,-20"/>
<text xml:space="preserve" text-anchor="middle" x="227.62" y="-6.5" font-family="Helvetica,sans-Serif" font-size="10.00">stdexcept</text>
</a>
</g>
</g>
<!-- Node6&#45;&gt;Node7 -->
<g id="edge6_Node000006_Node000007" class="edge">
<title>Node6&#45;&gt;Node7</title>
<g id="a_edge6_Node000006_Node000007"><a xlink:title=" ">
<path fill="none" stroke="#63b8ff" d="M215.24,-55.59C217.11,-48.86 219.7,-39.53 222.03,-31.15"/>
<polygon fill="#63b8ff" stroke="#63b8ff" points="225.33,-32.33 224.64,-21.76 218.59,-30.46 225.33,-32.33"/>
</a>
</g>
</g>
</g>
</svg>
