<?xml version="1.0" encoding="UTF-8" standalone="no"?>
<!DOCTYPE svg PUBLIC "-//W3C//DTD SVG 1.1//EN"
 "http://www.w3.org/Graphics/SVG/1.1/DTD/svg11.dtd">
<!-- Generated by graphviz version 14.0.1 (20251006.0113)
 -->
<!-- Title: src/NetSphere/NetworkExceptions.h Pages: 1 -->
<!--zoomable 220 -->

<svg id="main" version="1.1" xmlns="http://www.w3.org/2000/svg" xmlns:xlink="http://www.w3.org/1999/xlink" xml:space="preserve" onload="init(evt)">

<style type="text/css"><![CDATA[
.node, .edge {opacity: 0.7;}
.node.selected, .edge.selected {opacity: 1;}
.edge:hover path { stroke: red; }
.edge:hover polygon { stroke: red; fill: red; }
]]></style>

<defs>
  <circle id="rim" cx="0" cy="0" r="7"/>
  <circle id="rim2" cx="0" cy="0" r="3.5"/>
  <g id="zoomPlus">
    <use xlink:href="#rim" fill="#404040"><set attributeName="fill" to="#808080" begin="zoomplus.mouseover" end="zoomplus.mouseout"/></use>
    <path d="M-4,0h8M0,-4v8" fill="none" stroke="white" stroke-width="1.5" pointer-events="none"/>
  </g>
  <g id="zoomMin">
    <use xlink:href="#rim" fill="#404040"><set attributeName="fill" to="#808080" begin="zoomminus.mouseover" end="zoomminus.mouseout"/></use>
    <path d="M-4,0h8" fill="none" stroke="white" stroke-width="1.5" pointer-events="none"/>
  </g>
  <g id="arrowUp" transform="translate(30 24)">
    <use xlink:href="#rim"/>
    <path pointer-events="none" fill="none" stroke="white" stroke-width="1.5" d="M0,-3.0v7 M-2.5,-0.5L0,-3.0L2.5,-0.5"/>
  </g>
  <g id="arrowRight" transform="rotate(90) translate(36 -43)">
    <use xlink:href="#rim"/>
    <path pointer-events="none" fill="none" stroke="white" stroke-width="1.5" d="M0,-3.0v7 M-2.5,-0.5L0,-3.0L2.5,-0.5"/>
  </g>
  <g id="arrowDown" transform="rotate(180) translate(-30 -48)">
    <use xlink:href="#rim"/>
    <path pointer-events="none" fill="none" stroke="white" stroke-width="1.5" d="M0,-3.0v7 M-2.5,-0.5L0,-3.0L2.5,-0.5"/>
  </g>
  <g id="arrowLeft" transform="rotate(270) translate(-36 17)">
    <use xlink:href="#rim"/>
    <path pointer-events="none" fill="none" stroke="white" stroke-width="1.5" d="M0,-3.0v7 M-2.5,-0.5L0,-3.0L2.5,-0.5"/>
  </g>
  <g id="resetDef">
    <use xlink:href="#rim2" fill="#404040"><set attributeName="fill" to="#808080" begin="reset.mouseover" end="reset.mouseout"/></use>
  </g>
</defs>
<script type="application/ecmascript">
var viewWidth = 2002;
var viewHeight = 220;
var sectionId = 'dynsection-1';
</script>
<script type="application/ecmascript" xlink:href="svg.min.js"/>
<svg id="graph" class="graph">
<g id="viewport">
<title>src/NetSphere/NetworkExceptions.h</title>
<!-- Node1 -->
<g id="Node000001" class="node">
<title>Node1</title>
<g id="a_Node000001"><a xlink:title="Заголовочный файл с классами исключений для корпоративной сети.">
<polygon fill="#999999" stroke="#666666" points="1325.5,-212 1149.75,-212 1149.75,-192 1325.5,-192 1325.5,-212"/>
<text xml:space="preserve" text-anchor="middle" x="1237.62" y="-198.5" font-family="Helvetica,sans-Serif" font-size="10.00">src/NetSphere/NetworkExceptions.h</text>
</a>
</g>
</g>
<!-- Node2 -->
<g id="Node000002" class="node">
<title>Node2</title>
<g id="a_Node000002"><a xlink:href="_corporate_network_8h.html" target="_top" xlink:title="Заголовочный файл класса CorporateNetwork &#45; корпоративной сети.">
<polygon fill="white" stroke="#666666" points="1529.5,-88 1359.75,-88 1359.75,-68 1529.5,-68 1529.5,-88"/>
<text xml:space="preserve" text-anchor="middle" x="1444.62" y="-74.5" font-family="Helvetica,sans-Serif" font-size="10.00">src/NetSphere/CorporateNetwork.h</text>
</a>
</g>
</g>
<!-- Node1&#45;&gt;Node2 -->
<g id="edge1_Node000001_Node000002" class="edge">
<title>Node1&#45;&gt;Node2</title>
<g id="a_edge1_Node000001_Node000002"><a xlink:title=" ">
<path fill="none" stroke="#63b8ff" d="M1263.31,-185.86C1306.64,-160.32 1393.02,-109.41 1428.67,-88.4"/>
<polygon fill="#63b8ff" stroke="#63b8ff" points="1261.67,-182.77 1254.83,-190.86 1265.22,-188.8 1261.67,-182.77"/>
</a>
</g>
</g>
<!-- Node5 -->
<g id="Node000005" class="node">
<title>Node5</title>
<g id="a_Node000005"><a xlink:href="_corporate_network_error_tests_8cpp.html" target="_top" xlink:title="Тесты для обработки ошибок в классе CorporateNetwork.">
<polygon fill="white" stroke="#666666" points="1795.75,-32 1633.5,-32 1633.5,0 1795.75,0 1795.75,-32"/>
<text xml:space="preserve" text-anchor="start" x="1641.5" y="-18.5" font-family="Helvetica,sans-Serif" font-size="10.00">tests/NetSphereTests</text>
<text xml:space="preserve" text-anchor="middle" x="1714.62" y="-6.5" font-family="Helvetica,sans-Serif" font-size="10.00">/CorporateNetworkErrorTests.cpp</text>
</a>
</g>
</g>
<!-- Node1&#45;&gt;Node5 -->
<g id="edge40_Node000001_Node000005" class="edge">
<title>Node1&#45;&gt;Node5</title>
<g id="a_edge40_Node000001_Node000005"><a xlink:title=" ">
<path fill="none" stroke="#63b8ff" d="M1337.05,-191.11C1382.74,-184.48 1437.01,-173.62 1483.62,-156 1568.13,-124.07 1656.51,-61.28 1694.89,-32.31"/>
<polygon fill="#63b8ff" stroke="#63b8ff" points="1336.85,-187.6 1327.43,-192.45 1337.82,-194.54 1336.85,-187.6"/>
</a>
</g>
</g>
<!-- Node7 -->
<g id="Node000007" class="node">
<title>Node7</title>
<g id="a_Node000007"><a xlink:href="_device_8h.html" target="_top" xlink:title="Заголовочный файл базового класса Device для всех устройств сети.">
<polygon fill="white" stroke="#666666" points="1001.12,-150 880.12,-150 880.12,-130 1001.12,-130 1001.12,-150"/>
<text xml:space="preserve" text-anchor="middle" x="940.62" y="-136.5" font-family="Helvetica,sans-Serif" font-size="10.00">src/NetSphere/Device.h</text>
</a>
</g>
</g>
<!-- Node1&#45;&gt;Node7 -->
<g id="edge6_Node000001_Node000007" class="edge">
<title>Node1&#45;&gt;Node7</title>
<g id="a_edge6_Node000001_Node000007"><a xlink:title=" ">
<path fill="none" stroke="#63b8ff" d="M1179.72,-189.3C1123.62,-177.97 1039.63,-161 987.58,-150.48"/>
<polygon fill="#63b8ff" stroke="#63b8ff" points="1178.91,-192.71 1189.41,-191.26 1180.3,-185.85 1178.91,-192.71"/>
</a>
</g>
</g>
<!-- Node10 -->
<g id="Node000010" class="node">
<title>Node10</title>
<g id="a_Node000010"><a xlink:href="_data_storage_error_tests_8cpp.html" target="_top" xlink:title="Тесты для обработки ошибок в классе DataStorage.">
<polygon fill="white" stroke="#666666" points="445.38,-32 307.88,-32 307.88,0 445.38,0 445.38,-32"/>
<text xml:space="preserve" text-anchor="start" x="315.88" y="-18.5" font-family="Helvetica,sans-Serif" font-size="10.00">tests/NetSphereTests</text>
<text xml:space="preserve" text-anchor="middle" x="376.62" y="-6.5" font-family="Helvetica,sans-Serif" font-size="10.00">/DataStorageErrorTests.cpp</text>
</a>
</g>
</g>
<!-- Node1&#45;&gt;Node10 -->
<g id="edge41_Node000001_Node000010" class="edge">
<title>Node1&#45;&gt;Node10</title>
<g id="a_edge41_Node000001_Node000010"><a xlink:title=" ">
<path fill="none" stroke="#63b8ff" d="M1138.2,-197.05C1002.33,-190.95 766.02,-177.62 682.62,-156 572.77,-127.52 453.21,-62.08 402.1,-32.28"/>
<polygon fill="#63b8ff" stroke="#63b8ff" points="1137.75,-200.53 1147.9,-197.48 1138.06,-193.54 1137.75,-200.53"/>
</a>
</g>
</g>
<!-- Node12 -->
<g id="Node000012" class="node">
<title>Node12</title>
<g id="a_Node000012"><a xlink:href="_device_tests_8cpp.html" target="_top" xlink:title="Тесты для базового класса Device и его наследников.">
<polygon fill="white" stroke="#666666" points="574.25,-32 463,-32 463,0 574.25,0 574.25,-32"/>
<text xml:space="preserve" text-anchor="start" x="471" y="-18.5" font-family="Helvetica,sans-Serif" font-size="10.00">tests/NetSphereTests</text>
<text xml:space="preserve" text-anchor="middle" x="518.62" y="-6.5" font-family="Helvetica,sans-Serif" font-size="10.00">/DeviceTests.cpp</text>
</a>
</g>
</g>
<!-- Node1&#45;&gt;Node12 -->
<g id="edge42_Node000001_Node000012" class="edge">
<title>Node1&#45;&gt;Node12</title>
<g id="a_edge42_Node000001_Node000012"><a xlink:title=" ">
<path fill="none" stroke="#63b8ff" d="M1138.02,-192.84C977.91,-178.27 671.89,-143.92 579.62,-88 556.69,-74.1 537.98,-48.62 527.58,-32.27"/>
<polygon fill="#63b8ff" stroke="#63b8ff" points="1137.51,-196.31 1147.78,-193.72 1138.14,-189.34 1137.51,-196.31"/>
</a>
</g>
</g>
<!-- Node13 -->
<g id="Node000013" class="node">
<title>Node13</title>
<g id="a_Node000013"><a xlink:href="_domain_error_tests_8cpp.html" target="_top" xlink:title="Тесты для обработки ошибок в классе Domain.">
<polygon fill="white" stroke="#666666" points="1615.88,-32 1499.38,-32 1499.38,0 1615.88,0 1615.88,-32"/>
<text xml:space="preserve" text-anchor="start" x="1507.38" y="-18.5" font-family="Helvetica,sans-Serif" font-size="10.00">tests/NetSphereTests</text>
<text xml:space="preserve" text-anchor="middle" x="1557.62" y="-6.5" font-family="Helvetica,sans-Serif" font-size="10.00">/DomainErrorTests.cpp</text>
</a>
</g>
</g>
<!-- Node1&#45;&gt;Node13 -->
<g id="edge43_Node000001_Node000013" class="edge">
<title>Node1&#45;&gt;Node13</title>
<g id="a_edge43_Node000001_Node000013"><a xlink:title=" ">
<path fill="none" stroke="#63b8ff" d="M1328.08,-189.42C1395.29,-176.13 1484.37,-147.83 1538.62,-88 1552.51,-72.69 1556.43,-48.32 1557.44,-32.49"/>
<polygon fill="#63b8ff" stroke="#63b8ff" points="1327.73,-185.93 1318.56,-191.22 1329.03,-192.8 1327.73,-185.93"/>
</a>
</g>
</g>
<!-- Node17 -->
<g id="Node000017" class="node">
<title>Node17</title>
<g id="a_Node000017"><a xlink:href="_workstation_printer_tests_8cpp.html" target="_top" xlink:title="Тесты для классов Workstation и Printer.">
<polygon fill="white" stroke="#666666" points="289.62,-32 147.62,-32 147.62,0 289.62,0 289.62,-32"/>
<text xml:space="preserve" text-anchor="start" x="155.62" y="-18.5" font-family="Helvetica,sans-Serif" font-size="10.00">tests/NetSphereTests</text>
<text xml:space="preserve" text-anchor="middle" x="218.62" y="-6.5" font-family="Helvetica,sans-Serif" font-size="10.00">/WorkstationPrinterTests.cpp</text>
</a>
</g>
</g>
<!-- Node1&#45;&gt;Node17 -->
<g id="edge45_Node000001_Node000017" class="edge">
<title>Node1&#45;&gt;Node17</title>
<g id="a_edge45_Node000001_Node000017"><a xlink:title=" ">
<path fill="none" stroke="#63b8ff" d="M1137.86,-197.71C981.8,-191.95 687.16,-178.49 584.62,-156 455.49,-127.68 311.31,-62.16 249.49,-32.31"/>
<polygon fill="#63b8ff" stroke="#63b8ff" points="1137.68,-201.2 1147.8,-198.07 1137.94,-194.21 1137.68,-201.2"/>
</a>
</g>
</g>
<!-- Node20 -->
<g id="Node000020" class="node">
<title>Node20</title>
<g id="a_Node000020"><a xlink:href="_domain_8h.html" target="_top" xlink:title="Заголовочный файл класса Domain &#45; домена корпоративной сети.">
<polygon fill="white" stroke="#666666" points="1299.62,-150 1175.62,-150 1175.62,-130 1299.62,-130 1299.62,-150"/>
<text xml:space="preserve" text-anchor="middle" x="1237.62" y="-136.5" font-family="Helvetica,sans-Serif" font-size="10.00">src/NetSphere/Domain.h</text>
</a>
</g>
</g>
<!-- Node1&#45;&gt;Node20 -->
<g id="edge33_Node000001_Node000020" class="edge">
<title>Node1&#45;&gt;Node20</title>
<g id="a_edge33_Node000001_Node000020"><a xlink:title=" ">
<path fill="none" stroke="#63b8ff" d="M1237.62,-180.25C1237.62,-169.97 1237.62,-158.09 1237.62,-150.11"/>
<polygon fill="#63b8ff" stroke="#63b8ff" points="1234.13,-180.11 1237.63,-190.11 1241.13,-180.11 1234.13,-180.11"/>
</a>
</g>
</g>
<!-- Node22 -->
<g id="Node000022" class="node">
<title>Node22</title>
<g id="a_Node000022"><a xlink:href="_network_exceptions_tests_8cpp.html" target="_top" xlink:title="Тесты для классов исключений проекта NetSphere.">
<polygon fill="white" stroke="#666666" points="1771.25,-156 1624,-156 1624,-124 1771.25,-124 1771.25,-156"/>
<text xml:space="preserve" text-anchor="start" x="1632" y="-142.5" font-family="Helvetica,sans-Serif" font-size="10.00">tests/NetSphereTests</text>
<text xml:space="preserve" text-anchor="middle" x="1697.62" y="-130.5" font-family="Helvetica,sans-Serif" font-size="10.00">/NetworkExceptionsTests.cpp</text>
</a>
</g>
</g>
<!-- Node1&#45;&gt;Node22 -->
<g id="edge44_Node000001_Node000022" class="edge">
<title>Node1&#45;&gt;Node22</title>
<g id="a_edge44_Node000001_Node000022"><a xlink:title=" ">
<path fill="none" stroke="#63b8ff" d="M1337.03,-190.3C1412.06,-181.9 1517.47,-169.42 1609.62,-156 1614.23,-155.33 1618.96,-154.61 1623.72,-153.86"/>
<polygon fill="#63b8ff" stroke="#63b8ff" points="1336.78,-186.81 1327.23,-191.39 1337.55,-193.76 1336.78,-186.81"/>
</a>
</g>
</g>
<!-- Node3 -->
<g id="Node000003" class="node">
<title>Node3</title>
<g id="a_Node000003"><a xlink:href="_corporate_network_8cpp.html" target="_top" xlink:title="Реализация класса CorporateNetwork &#45; корпоративной сети.">
<polygon fill="white" stroke="#666666" points="1993.75,-26 1813.5,-26 1813.5,-6 1993.75,-6 1993.75,-26"/>
<text xml:space="preserve" text-anchor="middle" x="1903.62" y="-12.5" font-family="Helvetica,sans-Serif" font-size="10.00">src/NetSphere/CorporateNetwork.cpp</text>
</a>
</g>
</g>
<!-- Node2&#45;&gt;Node3 -->
<g id="edge2_Node000002_Node000003" class="edge">
<title>Node2&#45;&gt;Node3</title>
<g id="a_edge2_Node000002_Node000003"><a xlink:title=" ">
<path fill="none" stroke="#63b8ff" d="M1536.89,-66.14C1609.67,-57.41 1713.72,-44.57 1804.62,-32 1816.94,-30.3 1830.09,-28.38 1842.66,-26.49"/>
<polygon fill="#63b8ff" stroke="#63b8ff" points="1536.5,-62.66 1526.99,-67.32 1537.33,-69.61 1536.5,-62.66"/>
</a>
</g>
</g>
<!-- Node4 -->
<g id="Node000004" class="node">
<title>Node4</title>
<g id="a_Node000004"><a xlink:href="main_8cpp.html" target="_top" xlink:title="Главная функция приложения NetSphere.">
<polygon fill="white" stroke="#666666" points="1013.5,-26 891.75,-26 891.75,-6 1013.5,-6 1013.5,-26"/>
<text xml:space="preserve" text-anchor="middle" x="952.62" y="-12.5" font-family="Helvetica,sans-Serif" font-size="10.00">src/NetSphere/main.cpp</text>
</a>
</g>
</g>
<!-- Node2&#45;&gt;Node4 -->
<g id="edge3_Node000002_Node000004" class="edge">
<title>Node2&#45;&gt;Node4</title>
<g id="a_edge3_Node000002_Node000004"><a xlink:title=" ">
<path fill="none" stroke="#63b8ff" d="M1348.12,-69.61C1262.34,-62.35 1133.68,-49.77 1022.62,-32 1013.05,-30.47 1002.81,-28.48 993.21,-26.45"/>
<polygon fill="#63b8ff" stroke="#63b8ff" points="1347.64,-73.08 1357.9,-70.43 1348.23,-66.1 1347.64,-73.08"/>
</a>
</g>
</g>
<!-- Node2&#45;&gt;Node5 -->
<g id="edge4_Node000002_Node000005" class="edge">
<title>Node2&#45;&gt;Node5</title>
<g id="a_edge4_Node000002_Node000005"><a xlink:title=" ">
<path fill="none" stroke="#63b8ff" d="M1498.24,-65.08C1540.36,-55.73 1599.33,-42.62 1645.07,-32.46"/>
<polygon fill="#63b8ff" stroke="#63b8ff" points="1497.59,-61.64 1488.59,-67.23 1499.11,-68.48 1497.59,-61.64"/>
</a>
</g>
</g>
<!-- Node6 -->
<g id="Node000006" class="node">
<title>Node6</title>
<g id="a_Node000006"><a xlink:href="_corporate_network_tests_8cpp.html" target="_top" xlink:title="Тесты для класса CorporateNetwork проекта NetSphere.">
<polygon fill="white" stroke="#666666" points="1481.25,-32 1340,-32 1340,0 1481.25,0 1481.25,-32"/>
<text xml:space="preserve" text-anchor="start" x="1348" y="-18.5" font-family="Helvetica,sans-Serif" font-size="10.00">tests/NetSphereTests</text>
<text xml:space="preserve" text-anchor="middle" x="1410.62" y="-6.5" font-family="Helvetica,sans-Serif" font-size="10.00">/CorporateNetworkTests.cpp</text>
</a>
</g>
</g>
<!-- Node2&#45;&gt;Node6 -->
<g id="edge5_Node000002_Node000006" class="edge">
<title>Node2&#45;&gt;Node6</title>
<g id="a_edge5_Node000002_Node000006"><a xlink:title=" ">
<path fill="none" stroke="#63b8ff" d="M1433.7,-57.72C1429.01,-49.44 1423.6,-39.9 1419.2,-32.14"/>
<polygon fill="#63b8ff" stroke="#63b8ff" points="1430.59,-59.33 1438.57,-66.31 1436.68,-55.88 1430.59,-59.33"/>
</a>
</g>
</g>
<!-- Node8 -->
<g id="Node000008" class="node">
<title>Node8</title>
<g id="a_Node000008"><a xlink:href="_data_storage_8h.html" target="_top" xlink:title="Заголовочный файл класса DataStorage &#45; хранилища данных в корпоративной сети.">
<polygon fill="white" stroke="#666666" points="1113.12,-88 968.12,-88 968.12,-68 1113.12,-68 1113.12,-88"/>
<text xml:space="preserve" text-anchor="middle" x="1040.62" y="-74.5" font-family="Helvetica,sans-Serif" font-size="10.00">src/NetSphere/DataStorage.h</text>
</a>
</g>
</g>
<!-- Node7&#45;&gt;Node8 -->
<g id="edge7_Node000007_Node000008" class="edge">
<title>Node7&#45;&gt;Node8</title>
<g id="a_edge7_Node000007_Node000008"><a xlink:title=" ">
<path fill="none" stroke="#63b8ff" d="M965.88,-123.85C984.52,-112.66 1009.3,-97.8 1025.11,-88.31"/>
<polygon fill="#63b8ff" stroke="#63b8ff" points="964.32,-120.7 957.55,-128.85 967.92,-126.7 964.32,-120.7"/>
</a>
</g>
</g>
<!-- Node15 -->
<g id="Node000015" class="node">
<title>Node15</title>
<g id="a_Node000015"><a xlink:href="_printer_8h.html" target="_top" xlink:title="Заголовочный файл класса Printer &#45; сетевого принтера.">
<polygon fill="white" stroke="#666666" points="707,-88 588.25,-88 588.25,-68 707,-68 707,-88"/>
<text xml:space="preserve" text-anchor="middle" x="647.62" y="-74.5" font-family="Helvetica,sans-Serif" font-size="10.00">src/NetSphere/Printer.h</text>
</a>
</g>
</g>
<!-- Node7&#45;&gt;Node15 -->
<g id="edge17_Node000007_Node000015" class="edge">
<title>Node7&#45;&gt;Node15</title>
<g id="a_edge17_Node000007_Node000015"><a xlink:title=" ">
<path fill="none" stroke="#63b8ff" d="M883.5,-127.3C828.16,-115.97 745.29,-99 693.94,-88.48"/>
<polygon fill="#63b8ff" stroke="#63b8ff" points="882.54,-130.68 893.04,-129.26 883.94,-123.82 882.54,-130.68"/>
</a>
</g>
</g>
<!-- Node18 -->
<g id="Node000018" class="node">
<title>Node18</title>
<g id="a_Node000018"><a xlink:href="_workstation_8h.html" target="_top" xlink:title="Заголовочный файл класса Workstation &#45; рабочей станции пользователя.">
<polygon fill="white" stroke="#666666" points="911.62,-88 769.62,-88 769.62,-68 911.62,-68 911.62,-88"/>
<text xml:space="preserve" text-anchor="middle" x="840.62" y="-74.5" font-family="Helvetica,sans-Serif" font-size="10.00">src/NetSphere/Workstation.h</text>
</a>
</g>
</g>
<!-- Node7&#45;&gt;Node18 -->
<g id="edge24_Node000007_Node000018" class="edge">
<title>Node7&#45;&gt;Node18</title>
<g id="a_edge24_Node000007_Node000018"><a xlink:title=" ">
<path fill="none" stroke="#63b8ff" d="M915.37,-123.85C896.73,-112.66 871.95,-97.8 856.14,-88.31"/>
<polygon fill="#63b8ff" stroke="#63b8ff" points="913.33,-126.7 923.7,-128.85 916.93,-120.7 913.33,-126.7"/>
</a>
</g>
</g>
<!-- Node8&#45;&gt;Node4 -->
<g id="edge9_Node000008_Node000004" class="edge">
<title>Node8&#45;&gt;Node4</title>
<g id="a_edge9_Node000008_Node000004"><a xlink:title=" ">
<path fill="none" stroke="#63b8ff" d="M1017.48,-61.22C1001.19,-50.11 979.93,-35.62 966.28,-26.31"/>
<polygon fill="#63b8ff" stroke="#63b8ff" points="1015.39,-64.03 1025.62,-66.77 1019.33,-58.25 1015.39,-64.03"/>
</a>
</g>
</g>
<!-- Node8&#45;&gt;Node5 -->
<g id="edge10_Node000008_Node000005" class="edge">
<title>Node8&#45;&gt;Node5</title>
<g id="a_edge10_Node000008_Node000005"><a xlink:title=" ">
<path fill="none" stroke="#63b8ff" d="M1124.9,-67.84C1347.34,-48.14 1406.19,-57.98 1624.62,-32 1627.46,-31.66 1630.33,-31.3 1633.24,-30.91"/>
<polygon fill="#63b8ff" stroke="#63b8ff" points="1124.64,-64.34 1115,-68.72 1125.27,-71.32 1124.64,-64.34"/>
</a>
</g>
</g>
<!-- Node8&#45;&gt;Node6 -->
<g id="edge11_Node000008_Node000006" class="edge">
<title>Node8&#45;&gt;Node6</title>
<g id="a_edge11_Node000008_Node000006"><a xlink:title=" ">
<path fill="none" stroke="#63b8ff" d="M1116.88,-65.84C1175.43,-57.1 1258.24,-44.4 1330.62,-32 1333.55,-31.5 1336.53,-30.98 1339.55,-30.45"/>
<polygon fill="#63b8ff" stroke="#63b8ff" points="1116.38,-62.37 1107,-67.3 1117.41,-69.3 1116.38,-62.37"/>
</a>
</g>
</g>
<!-- Node9 -->
<g id="Node000009" class="node">
<title>Node9</title>
<g id="a_Node000009"><a xlink:href="_data_storage_8cpp.html" target="_top" xlink:title="Реализация класса DataStorage &#45; хранилища данных в корпоративной сети.">
<polygon fill="white" stroke="#666666" points="1187.38,-26 1031.88,-26 1031.88,-6 1187.38,-6 1187.38,-26"/>
<text xml:space="preserve" text-anchor="middle" x="1109.62" y="-12.5" font-family="Helvetica,sans-Serif" font-size="10.00">src/NetSphere/DataStorage.cpp</text>
</a>
</g>
</g>
<!-- Node8&#45;&gt;Node9 -->
<g id="edge8_Node000008_Node000009" class="edge">
<title>Node8&#45;&gt;Node9</title>
<g id="a_edge8_Node000008_Node000009"><a xlink:title=" ">
<path fill="none" stroke="#63b8ff" d="M1059.92,-60.22C1072.62,-49.18 1088.76,-35.14 1099.15,-26.11"/>
<polygon fill="#63b8ff" stroke="#63b8ff" points="1057.8,-57.43 1052.55,-66.63 1062.39,-62.71 1057.8,-57.43"/>
</a>
</g>
</g>
<!-- Node8&#45;&gt;Node10 -->
<g id="edge12_Node000008_Node000010" class="edge">
<title>Node8&#45;&gt;Node10</title>
<g id="a_edge12_Node000008_Node000010"><a xlink:title=" ">
<path fill="none" stroke="#63b8ff" d="M956.7,-70.69C797.41,-58.7 465.92,-33.66 453.62,-32 451.06,-31.65 448.45,-31.28 445.82,-30.87"/>
<polygon fill="#63b8ff" stroke="#63b8ff" points="956.12,-74.16 966.35,-71.42 956.65,-67.18 956.12,-74.16"/>
</a>
</g>
</g>
<!-- Node11 -->
<g id="Node000011" class="node">
<title>Node11</title>
<g id="a_Node000011"><a xlink:href="_data_storage_tests_8cpp.html" target="_top" xlink:title="Тесты для класса DataStorage проекта NetSphere.">
<polygon fill="white" stroke="#666666" points="1321.88,-32 1205.38,-32 1205.38,0 1321.88,0 1321.88,-32"/>
<text xml:space="preserve" text-anchor="start" x="1213.38" y="-18.5" font-family="Helvetica,sans-Serif" font-size="10.00">tests/NetSphereTests</text>
<text xml:space="preserve" text-anchor="middle" x="1263.62" y="-6.5" font-family="Helvetica,sans-Serif" font-size="10.00">/DataStorageTests.cpp</text>
</a>
</g>
</g>
<!-- Node8&#45;&gt;Node11 -->
<g id="edge13_Node000008_Node000011" class="edge">
<title>Node8&#45;&gt;Node11</title>
<g id="a_edge13_Node000008_Node000011"><a xlink:title=" ">
<path fill="none" stroke="#63b8ff" d="M1086.22,-64.73C1120.87,-55.41 1168.76,-42.52 1206.05,-32.49"/>
<polygon fill="#63b8ff" stroke="#63b8ff" points="1085.68,-61.25 1076.93,-67.23 1087.5,-68.01 1085.68,-61.25"/>
</a>
</g>
</g>
<!-- Node8&#45;&gt;Node12 -->
<g id="edge14_Node000008_Node000012" class="edge">
<title>Node8&#45;&gt;Node12</title>
<g id="a_edge14_Node000008_Node000012"><a xlink:title=" ">
<path fill="none" stroke="#63b8ff" d="M956.48,-70.08C844.46,-60.63 652.35,-43.54 582.62,-32 580.04,-31.57 577.39,-31.1 574.73,-30.59"/>
<polygon fill="#63b8ff" stroke="#63b8ff" points="955.97,-73.55 966.22,-70.9 956.55,-66.57 955.97,-73.55"/>
</a>
</g>
</g>
<!-- Node8&#45;&gt;Node13 -->
<g id="edge15_Node000008_Node000013" class="edge">
<title>Node8&#45;&gt;Node13</title>
<g id="a_edge15_Node000008_Node000013"><a xlink:title=" ">
<path fill="none" stroke="#63b8ff" d="M1124.93,-67.79C1288.04,-51.33 1332,-57.42 1490.62,-32 1493.33,-31.57 1496.09,-31.09 1498.88,-30.58"/>
<polygon fill="#63b8ff" stroke="#63b8ff" points="1124.59,-64.3 1115,-68.8 1125.31,-71.27 1124.59,-64.3"/>
</a>
</g>
</g>
<!-- Node14 -->
<g id="Node000014" class="node">
<title>Node14</title>
<g id="a_Node000014"><a xlink:href="_domain_tests_8cpp.html" target="_top" xlink:title="Тесты для класса Domain проекта NetSphere.">
<polygon fill="white" stroke="#666666" points="703.25,-32 592,-32 592,0 703.25,0 703.25,-32"/>
<text xml:space="preserve" text-anchor="start" x="600" y="-18.5" font-family="Helvetica,sans-Serif" font-size="10.00">tests/NetSphereTests</text>
<text xml:space="preserve" text-anchor="middle" x="647.62" y="-6.5" font-family="Helvetica,sans-Serif" font-size="10.00">/DomainTests.cpp</text>
</a>
</g>
</g>
<!-- Node8&#45;&gt;Node14 -->
<g id="edge16_Node000008_Node000014" class="edge">
<title>Node8&#45;&gt;Node14</title>
<g id="a_edge16_Node000008_Node000014"><a xlink:title=" ">
<path fill="none" stroke="#63b8ff" d="M956.45,-67.58C890,-59.63 795.06,-47.13 712.62,-32 709.66,-31.46 706.63,-30.87 703.58,-30.25"/>
<polygon fill="#63b8ff" stroke="#63b8ff" points="955.85,-71.03 966.19,-68.73 956.67,-64.08 955.85,-71.03"/>
</a>
</g>
</g>
<!-- Node15&#45;&gt;Node4 -->
<g id="edge19_Node000015_Node000004" class="edge">
<title>Node15&#45;&gt;Node4</title>
<g id="a_edge19_Node000015_Node000004"><a xlink:title=" ">
<path fill="none" stroke="#63b8ff" d="M709.89,-65.46C757.29,-56.58 824.14,-43.86 882.62,-32 891.27,-30.25 900.51,-28.31 909.34,-26.43"/>
<polygon fill="#63b8ff" stroke="#63b8ff" points="709.25,-62.02 700.06,-67.3 710.53,-68.9 709.25,-62.02"/>
</a>
</g>
</g>
<!-- Node15&#45;&gt;Node6 -->
<g id="edge20_Node000015_Node000006" class="edge">
<title>Node15&#45;&gt;Node6</title>
<g id="a_edge20_Node000015_Node000006"><a xlink:title=" ">
<path fill="none" stroke="#63b8ff" d="M718.89,-71.15C732.73,-70.06 747.13,-68.96 760.62,-68 1013.82,-49.92 1078.74,-63.45 1330.62,-32 1333.57,-31.63 1336.57,-31.22 1339.6,-30.78"/>
<polygon fill="#63b8ff" stroke="#63b8ff" points="718.63,-67.65 708.94,-71.93 719.18,-74.63 718.63,-67.65"/>
</a>
</g>
</g>
<!-- Node15&#45;&gt;Node12 -->
<g id="edge21_Node000015_Node000012" class="edge">
<title>Node15&#45;&gt;Node12</title>
<g id="a_edge21_Node000015_Node000012"><a xlink:title=" ">
<path fill="none" stroke="#63b8ff" d="M617.25,-62.87C597.63,-53.75 572.1,-41.87 551.93,-32.49"/>
<polygon fill="#63b8ff" stroke="#63b8ff" points="615.55,-65.94 626.1,-66.99 618.51,-59.6 615.55,-65.94"/>
</a>
</g>
</g>
<!-- Node15&#45;&gt;Node14 -->
<g id="edge22_Node000015_Node000014" class="edge">
<title>Node15&#45;&gt;Node14</title>
<g id="a_edge22_Node000015_Node000014"><a xlink:title=" ">
<path fill="none" stroke="#63b8ff" d="M647.62,-56.31C647.62,-48.37 647.62,-39.46 647.62,-32.14"/>
<polygon fill="#63b8ff" stroke="#63b8ff" points="644.13,-56.11 647.63,-66.11 651.13,-56.11 644.13,-56.11"/>
</a>
</g>
</g>
<!-- Node16 -->
<g id="Node000016" class="node">
<title>Node16</title>
<g id="a_Node000016"><a xlink:href="_printer_8cpp.html" target="_top" xlink:title="Реализация класса Printer &#45; сетевого принтера.">
<polygon fill="white" stroke="#666666" points="129.25,-26 0,-26 0,-6 129.25,-6 129.25,-26"/>
<text xml:space="preserve" text-anchor="middle" x="64.62" y="-12.5" font-family="Helvetica,sans-Serif" font-size="10.00">src/NetSphere/Printer.cpp</text>
</a>
</g>
</g>
<!-- Node15&#45;&gt;Node16 -->
<g id="edge18_Node000015_Node000016" class="edge">
<title>Node15&#45;&gt;Node16</title>
<g id="a_edge18_Node000015_Node000016"><a xlink:title=" ">
<path fill="none" stroke="#63b8ff" d="M576.51,-73.23C477.84,-67.43 294.01,-54.55 138.62,-32 128.38,-30.51 117.41,-28.52 107.14,-26.46"/>
<polygon fill="#63b8ff" stroke="#63b8ff" points="576.12,-76.71 586.31,-73.8 576.53,-69.72 576.12,-76.71"/>
</a>
</g>
</g>
<!-- Node15&#45;&gt;Node17 -->
<g id="edge23_Node000015_Node000017" class="edge">
<title>Node15&#45;&gt;Node17</title>
<g id="a_edge23_Node000015_Node000017"><a xlink:title=" ">
<path fill="none" stroke="#63b8ff" d="M576.47,-69.03C505.83,-60.84 394.51,-47.16 298.62,-32 295.83,-31.56 292.99,-31.09 290.12,-30.61"/>
<polygon fill="#63b8ff" stroke="#63b8ff" points="576.05,-72.51 586.38,-70.18 576.85,-65.55 576.05,-72.51"/>
</a>
</g>
</g>
<!-- Node18&#45;&gt;Node4 -->
<g id="edge26_Node000018_Node000004" class="edge">
<title>Node18&#45;&gt;Node4</title>
<g id="a_edge26_Node000018_Node000004"><a xlink:title=" ">
<path fill="none" stroke="#63b8ff" d="M868.04,-62.31C889.02,-51.08 917.29,-35.93 935.25,-26.31"/>
<polygon fill="#63b8ff" stroke="#63b8ff" points="866.62,-59.1 859.46,-66.91 869.93,-65.27 866.62,-59.1"/>
</a>
</g>
</g>
<!-- Node18&#45;&gt;Node5 -->
<g id="edge27_Node000018_Node000005" class="edge">
<title>Node18&#45;&gt;Node5</title>
<g id="a_edge27_Node000018_Node000005"><a xlink:title=" ">
<path fill="none" stroke="#63b8ff" d="M923.16,-70.53C935.39,-69.64 947.83,-68.77 959.62,-68 1254.99,-48.84 1330.41,-64.38 1624.62,-32 1627.46,-31.69 1630.34,-31.35 1633.25,-30.98"/>
<polygon fill="#63b8ff" stroke="#63b8ff" points="923.25,-67.01 913.54,-71.24 923.77,-73.99 923.25,-67.01"/>
</a>
</g>
</g>
<!-- Node18&#45;&gt;Node6 -->
<g id="edge28_Node000018_Node000006" class="edge">
<title>Node18&#45;&gt;Node6</title>
<g id="a_edge28_Node000018_Node000006"><a xlink:title=" ">
<path fill="none" stroke="#63b8ff" d="M923.08,-70.37C1041.58,-60.68 1254.19,-42.65 1330.62,-32 1333.56,-31.59 1336.56,-31.15 1339.58,-30.68"/>
<polygon fill="#63b8ff" stroke="#63b8ff" points="923.11,-66.86 913.42,-71.16 923.67,-73.83 923.11,-66.86"/>
</a>
</g>
</g>
<!-- Node18&#45;&gt;Node12 -->
<g id="edge29_Node000018_Node000012" class="edge">
<title>Node18&#45;&gt;Node12</title>
<g id="a_edge29_Node000018_Node000012"><a xlink:title=" ">
<path fill="none" stroke="#63b8ff" d="M769.39,-65.71C717.47,-57.2 645.5,-44.84 582.62,-32 579.94,-31.45 577.2,-30.87 574.43,-30.28"/>
<polygon fill="#63b8ff" stroke="#63b8ff" points="768.56,-69.12 779,-67.27 769.69,-62.21 768.56,-69.12"/>
</a>
</g>
</g>
<!-- Node18&#45;&gt;Node13 -->
<g id="edge30_Node000018_Node000013" class="edge">
<title>Node18&#45;&gt;Node13</title>
<g id="a_edge30_Node000018_Node000013"><a xlink:title=" ">
<path fill="none" stroke="#63b8ff" d="M923.17,-70.67C935.4,-69.76 947.84,-68.85 959.62,-68 1195.56,-51.08 1256.53,-65.94 1490.62,-32 1493.34,-31.61 1496.1,-31.16 1498.89,-30.68"/>
<polygon fill="#63b8ff" stroke="#63b8ff" points="923.26,-67.16 913.55,-71.39 923.78,-74.14 923.26,-67.16"/>
</a>
</g>
</g>
<!-- Node18&#45;&gt;Node14 -->
<g id="edge31_Node000018_Node000014" class="edge">
<title>Node18&#45;&gt;Node14</title>
<g id="a_edge31_Node000018_Node000014"><a xlink:title=" ">
<path fill="none" stroke="#63b8ff" d="M799.59,-64.24C769.74,-54.96 729.17,-42.35 697.45,-32.49"/>
<polygon fill="#63b8ff" stroke="#63b8ff" points="798.44,-67.55 809.02,-67.18 800.51,-60.86 798.44,-67.55"/>
</a>
</g>
</g>
<!-- Node18&#45;&gt;Node17 -->
<g id="edge32_Node000018_Node000017" class="edge">
<title>Node18&#45;&gt;Node17</title>
<g id="a_edge32_Node000018_Node000017"><a xlink:title=" ">
<path fill="none" stroke="#63b8ff" d="M758.05,-70.61C617.56,-59.68 342.87,-37.97 298.62,-32 295.82,-31.62 292.97,-31.21 290.1,-30.78"/>
<polygon fill="#63b8ff" stroke="#63b8ff" points="757.41,-74.08 767.66,-71.36 757.96,-67.1 757.41,-74.08"/>
</a>
</g>
</g>
<!-- Node19 -->
<g id="Node000019" class="node">
<title>Node19</title>
<g id="a_Node000019"><a xlink:href="_workstation_8cpp.html" target="_top" xlink:title="Реализация класса Workstation &#45; рабочей станции пользователя.">
<polygon fill="white" stroke="#666666" points="873.88,-26 721.38,-26 721.38,-6 873.88,-6 873.88,-26"/>
<text xml:space="preserve" text-anchor="middle" x="797.62" y="-12.5" font-family="Helvetica,sans-Serif" font-size="10.00">src/NetSphere/Workstation.cpp</text>
</a>
</g>
</g>
<!-- Node18&#45;&gt;Node19 -->
<g id="edge25_Node000018_Node000019" class="edge">
<title>Node18&#45;&gt;Node19</title>
<g id="a_edge25_Node000018_Node000019"><a xlink:title=" ">
<path fill="none" stroke="#63b8ff" d="M827.44,-58.6C819.72,-47.83 810.31,-34.7 804.16,-26.11"/>
<polygon fill="#63b8ff" stroke="#63b8ff" points="824.35,-60.31 833.02,-66.39 830.04,-56.23 824.35,-60.31"/>
</a>
</g>
</g>
<!-- Node20&#45;&gt;Node2 -->
<g id="edge34_Node000020_Node000002" class="edge">
<title>Node20&#45;&gt;Node2</title>
<g id="a_edge34_Node000020_Node000002"><a xlink:title=" ">
<path fill="none" stroke="#63b8ff" d="M1281.01,-126.43C1320.14,-115.08 1376.83,-98.65 1412.17,-88.41"/>
<polygon fill="#63b8ff" stroke="#63b8ff" points="1280.05,-123.06 1271.42,-129.2 1282,-129.78 1280.05,-123.06"/>
</a>
</g>
</g>
<!-- Node20&#45;&gt;Node4 -->
<g id="edge36_Node000020_Node000004" class="edge">
<title>Node20&#45;&gt;Node4</title>
<g id="a_edge36_Node000020_Node000004"><a xlink:title=" ">
<path fill="none" stroke="#63b8ff" d="M1164.02,-135.28C1091.12,-129.95 986.59,-117.31 959.62,-88 944.03,-71.05 947.4,-41.25 950.41,-26.22"/>
<polygon fill="#63b8ff" stroke="#63b8ff" points="1163.7,-138.77 1173.92,-135.97 1164.19,-131.79 1163.7,-138.77"/>
</a>
</g>
</g>
<!-- Node20&#45;&gt;Node6 -->
<g id="edge37_Node000020_Node000006" class="edge">
<title>Node20&#45;&gt;Node6</title>
<g id="a_edge37_Node000020_Node000006"><a xlink:title=" ">
<path fill="none" stroke="#63b8ff" d="M1255.04,-121.46C1270.63,-106.28 1294.53,-84.27 1317.62,-68 1336.89,-54.43 1360.14,-41.68 1378.58,-32.32"/>
<polygon fill="#63b8ff" stroke="#63b8ff" points="1252.62,-118.93 1247.96,-128.45 1257.54,-123.91 1252.62,-118.93"/>
</a>
</g>
</g>
<!-- Node20&#45;&gt;Node13 -->
<g id="edge38_Node000020_Node000013" class="edge">
<title>Node20&#45;&gt;Node13</title>
<g id="a_edge38_Node000020_Node000013"><a xlink:title=" ">
<path fill="none" stroke="#63b8ff" d="M1261.51,-123.72C1293.24,-103.46 1345.89,-70.01 1350.62,-68 1364.34,-62.18 1442.68,-43.51 1498.93,-30.45"/>
<polygon fill="#63b8ff" stroke="#63b8ff" points="1259.85,-120.63 1253.3,-128.96 1263.61,-126.53 1259.85,-120.63"/>
</a>
</g>
</g>
<!-- Node20&#45;&gt;Node14 -->
<g id="edge39_Node000020_Node000014" class="edge">
<title>Node20&#45;&gt;Node14</title>
<g id="a_edge39_Node000020_Node000014"><a xlink:title=" ">
<path fill="none" stroke="#63b8ff" d="M1164.06,-132.97C1039.71,-122.51 797.78,-100.88 760.62,-88 724.29,-75.4 687.56,-49.29 666.23,-32.48"/>
<polygon fill="#63b8ff" stroke="#63b8ff" points="1163.59,-136.45 1173.85,-133.79 1164.17,-129.47 1163.59,-136.45"/>
</a>
</g>
</g>
<!-- Node21 -->
<g id="Node000021" class="node">
<title>Node21</title>
<g id="a_Node000021"><a xlink:href="_domain_8cpp.html" target="_top" xlink:title="Реализация класса Domain &#45; домена корпоративной сети.">
<polygon fill="white" stroke="#666666" points="1265.88,-88 1131.38,-88 1131.38,-68 1265.88,-68 1265.88,-88"/>
<text xml:space="preserve" text-anchor="middle" x="1198.62" y="-74.5" font-family="Helvetica,sans-Serif" font-size="10.00">src/NetSphere/Domain.cpp</text>
</a>
</g>
</g>
<!-- Node20&#45;&gt;Node21 -->
<g id="edge35_Node000020_Node000021" class="edge">
<title>Node20&#45;&gt;Node21</title>
<g id="a_edge35_Node000020_Node000021"><a xlink:title=" ">
<path fill="none" stroke="#63b8ff" d="M1225.45,-120.26C1218.49,-109.56 1210.07,-96.61 1204.55,-88.11"/>
<polygon fill="#63b8ff" stroke="#63b8ff" points="1222.32,-121.88 1230.71,-128.36 1228.19,-118.06 1222.32,-121.88"/>
</a>
</g>
</g>
</g>
</svg>

<g id="navigator" transform="translate(0 0)" fill="#404254">
  <rect fill="#f2f5e9" fill-opacity="0.5" stroke="#606060" stroke-width=".5" x="0" y="0" width="60" height="60"/>
  <use id="zoomplus" xlink:href="#zoomPlus" x="17" y="9" onmousedown="handleZoom(evt,'in')"/>
  <use id="zoomminus" xlink:href="#zoomMin" x="42" y="9" onmousedown="handleZoom(evt,'out')"/>
  <use id="reset" xlink:href="#resetDef" x="30" y="36" onmousedown="handleReset()"/>
   <use id="arrowup" xlink:href="#arrowUp" x="0" y="0" onmousedown="handlePan(0,-1)"/>
  <use id="arrowright" xlink:href="#arrowRight" x="0" y="0" onmousedown="handlePan(1,0)"/>
  <use id="arrowdown" xlink:href="#arrowDown" x="0" y="0" onmousedown="handlePan(0,1)"/>
  <use id="arrowleft" xlink:href="#arrowLeft" x="0" y="0" onmousedown="handlePan(-1,0)"/>
</g>
<svg viewBox="0 0 15 15" width="100%" height="30px" preserveAspectRatio="xMaxYMin meet">
 <g id="arrow_out" transform="scale(0.3 0.3)">
  <a xlink:href="_network_exceptions_8h__dep__incl_org.svg" target="_base">
   <rect id="button" ry="5" rx="5" y="6" x="6" height="38" width="38"
        fill="#f2f5e9" fill-opacity="0.5" stroke="#606060" stroke-width="1.0"/>
   <path id="arrow"
     d="M 11.500037,31.436501 C 11.940474,20.09759 22.043105,11.32322 32.158766,21.979434 L 37.068811,17.246167 C 37.068811,17.246167 37.088388,32 37.088388,32 L 22.160133,31.978069 C 22.160133,31.978069 26.997745,27.140456 26.997745,27.140456 C 18.528582,18.264221 13.291696,25.230495 11.500037,31.436501 z"
     style="fill:#404040;"/>
  </a>
 </g>
</svg>

<style type='text/css'>
<![CDATA[
[data-mouse-over-selected='false'] { opacity: 0.7; }
[data-mouse-over-selected='true']  { opacity: 1.0; }
]]>
</style>
<script type="application/ecmascript"><![CDATA[
document.addEventListener('DOMContentLoaded', (event) => {
  highlightEdges();
  highlightAdjacentNodes();
});
]]></script>
</svg>
