<?xml version="1.0" encoding="UTF-8" standalone="no"?>
<!DOCTYPE svg PUBLIC "-//W3C//DTD SVG 1.1//EN"
 "http://www.w3.org/Graphics/SVG/1.1/DTD/svg11.dtd">
<!-- Generated by graphviz version 14.0.1 (20251006.0113)
 -->
<!-- Title: src/NetSphere/NetworkEntity.h Pages: 1 -->
<svg width="2003pt" height="208pt"
 viewBox="0.00 0.00 2003.00 208.00" xmlns="http://www.w3.org/2000/svg" xmlns:xlink="http://www.w3.org/1999/xlink">
<g id="graph0" class="graph" transform="scale(1 1) rotate(0) translate(4 204)">
<title>src/NetSphere/NetworkEntity.h</title>
<!-- Node1 -->
<g id="Node000001" class="node">
<title>Node1</title>
<g id="a_Node000001"><a xlink:title="Заголовочный файл базового класса NetworkEntity для всех сущностей сети.">
<polygon fill="#999999" stroke="#666666" points="994,-200 842.25,-200 842.25,-180 994,-180 994,-200"/>
<text xml:space="preserve" text-anchor="middle" x="918.12" y="-186.5" font-family="Helvetica,sans-Serif" font-size="10.00">src/NetSphere/NetworkEntity.h</text>
</a>
</g>
</g>
<!-- Node2 -->
<g id="Node000002" class="node">
<title>Node2</title>
<g id="a_Node000002"><a xlink:href="_device_8h.html" target="_top" xlink:title="Заголовочный файл базового класса Device для всех устройств сети.">
<polygon fill="white" stroke="#666666" points="1157.62,-144 1036.62,-144 1036.62,-124 1157.62,-124 1157.62,-144"/>
<text xml:space="preserve" text-anchor="middle" x="1097.12" y="-130.5" font-family="Helvetica,sans-Serif" font-size="10.00">src/NetSphere/Device.h</text>
</a>
</g>
</g>
<!-- Node1&#45;&gt;Node2 -->
<g id="edge1_Node000001_Node000002" class="edge">
<title>Node1&#45;&gt;Node2</title>
<g id="a_edge1_Node000001_Node000002"><a xlink:title=" ">
<path fill="none" stroke="#63b8ff" d="M960.21,-176.31C992.51,-166.56 1036.41,-153.32 1065.7,-144.48"/>
<polygon fill="#63b8ff" stroke="#63b8ff" points="959.32,-172.92 950.75,-179.16 961.34,-179.62 959.32,-172.92"/>
</a>
</g>
</g>
<!-- Node18 -->
<g id="Node000018" class="node">
<title>Node18</title>
<g id="a_Node000018"><a xlink:href="_domain_8h.html" target="_top" xlink:title="Заголовочный файл класса Domain &#45; домена корпоративной сети.">
<polygon fill="white" stroke="#666666" points="901.12,-144 777.12,-144 777.12,-124 901.12,-124 901.12,-144"/>
<text xml:space="preserve" text-anchor="middle" x="839.12" y="-130.5" font-family="Helvetica,sans-Serif" font-size="10.00">src/NetSphere/Domain.h</text>
</a>
</g>
</g>
<!-- Node1&#45;&gt;Node18 -->
<g id="edge28_Node000001_Node000018" class="edge">
<title>Node1&#45;&gt;Node18</title>
<g id="a_edge28_Node000001_Node000018"><a xlink:title=" ">
<path fill="none" stroke="#63b8ff" d="M895.11,-173.27C881.47,-163.94 864.62,-152.43 852.99,-144.48"/>
<polygon fill="#63b8ff" stroke="#63b8ff" points="892.88,-175.99 903.11,-178.74 896.83,-170.21 892.88,-175.99"/>
</a>
</g>
</g>
<!-- Node3 -->
<g id="Node000003" class="node">
<title>Node3</title>
<g id="a_Node000003"><a xlink:href="_data_storage_8h.html" target="_top" xlink:title="Заголовочный файл класса DataStorage &#45; хранилища данных в корпоративной сети.">
<polygon fill="white" stroke="#666666" points="1069.62,-88 924.62,-88 924.62,-68 1069.62,-68 1069.62,-88"/>
<text xml:space="preserve" text-anchor="middle" x="997.12" y="-74.5" font-family="Helvetica,sans-Serif" font-size="10.00">src/NetSphere/DataStorage.h</text>
</a>
</g>
</g>
<!-- Node2&#45;&gt;Node3 -->
<g id="edge2_Node000002_Node000003" class="edge">
<title>Node2&#45;&gt;Node3</title>
<g id="a_edge2_Node000002_Node000003"><a xlink:title=" ">
<path fill="none" stroke="#63b8ff" d="M1069.99,-118.35C1052.39,-108.84 1029.97,-96.74 1014.68,-88.48"/>
<polygon fill="#63b8ff" stroke="#63b8ff" points="1067.91,-121.2 1078.37,-122.87 1071.24,-115.04 1067.91,-121.2"/>
</a>
</g>
</g>
<!-- Node13 -->
<g id="Node000013" class="node">
<title>Node13</title>
<g id="a_Node000013"><a xlink:href="_printer_8h.html" target="_top" xlink:title="Заголовочный файл класса Printer &#45; сетевого принтера.">
<polygon fill="white" stroke="#666666" points="1404.5,-88 1285.75,-88 1285.75,-68 1404.5,-68 1404.5,-88"/>
<text xml:space="preserve" text-anchor="middle" x="1345.12" y="-74.5" font-family="Helvetica,sans-Serif" font-size="10.00">src/NetSphere/Printer.h</text>
</a>
</g>
</g>
<!-- Node2&#45;&gt;Node13 -->
<g id="edge12_Node000002_Node000013" class="edge">
<title>Node2&#45;&gt;Node13</title>
<g id="a_edge12_Node000002_Node000013"><a xlink:title=" ">
<path fill="none" stroke="#63b8ff" d="M1151.66,-121.13C1196.76,-111.31 1259.96,-97.54 1301.69,-88.46"/>
<polygon fill="#63b8ff" stroke="#63b8ff" points="1151.11,-117.66 1142.09,-123.21 1152.6,-124.5 1151.11,-117.66"/>
</a>
</g>
</g>
<!-- Node16 -->
<g id="Node000016" class="node">
<title>Node16</title>
<g id="a_Node000016"><a xlink:href="_workstation_8h.html" target="_top" xlink:title="Заголовочный файл класса Workstation &#45; рабочей станции пользователя.">
<polygon fill="white" stroke="#666666" points="1268.12,-88 1126.12,-88 1126.12,-68 1268.12,-68 1268.12,-88"/>
<text xml:space="preserve" text-anchor="middle" x="1197.12" y="-74.5" font-family="Helvetica,sans-Serif" font-size="10.00">src/NetSphere/Workstation.h</text>
</a>
</g>
</g>
<!-- Node2&#45;&gt;Node16 -->
<g id="edge19_Node000002_Node000016" class="edge">
<title>Node2&#45;&gt;Node16</title>
<g id="a_edge19_Node000002_Node000016"><a xlink:title=" ">
<path fill="none" stroke="#63b8ff" d="M1124.26,-118.35C1141.86,-108.84 1164.28,-96.74 1179.57,-88.48"/>
<polygon fill="#63b8ff" stroke="#63b8ff" points="1123.01,-115.04 1115.88,-122.87 1126.34,-121.2 1123.01,-115.04"/>
</a>
</g>
</g>
<!-- Node4 -->
<g id="Node000004" class="node">
<title>Node4</title>
<g id="a_Node000004"><a xlink:href="_data_storage_8cpp.html" target="_top" xlink:title="Реализация класса DataStorage &#45; хранилища данных в корпоративной сети.">
<polygon fill="white" stroke="#666666" points="961.88,-26 806.38,-26 806.38,-6 961.88,-6 961.88,-26"/>
<text xml:space="preserve" text-anchor="middle" x="884.12" y="-12.5" font-family="Helvetica,sans-Serif" font-size="10.00">src/NetSphere/DataStorage.cpp</text>
</a>
</g>
</g>
<!-- Node3&#45;&gt;Node4 -->
<g id="edge3_Node000003_Node000004" class="edge">
<title>Node3&#45;&gt;Node4</title>
<g id="a_edge3_Node000003_Node000004"><a xlink:title=" ">
<path fill="none" stroke="#63b8ff" d="M969.46,-62.31C948.3,-51.08 919.77,-35.93 901.66,-26.31"/>
<polygon fill="#63b8ff" stroke="#63b8ff" points="967.66,-65.32 978.13,-66.92 970.94,-59.13 967.66,-65.32"/>
</a>
</g>
</g>
<!-- Node5 -->
<g id="Node000005" class="node">
<title>Node5</title>
<g id="a_Node000005"><a xlink:href="main_8cpp.html" target="_top" xlink:title="Главная функция приложения NetSphere.">
<polygon fill="white" stroke="#666666" points="1258,-26 1136.25,-26 1136.25,-6 1258,-6 1258,-26"/>
<text xml:space="preserve" text-anchor="middle" x="1197.12" y="-12.5" font-family="Helvetica,sans-Serif" font-size="10.00">src/NetSphere/main.cpp</text>
</a>
</g>
</g>
<!-- Node3&#45;&gt;Node5 -->
<g id="edge4_Node000003_Node000005" class="edge">
<title>Node3&#45;&gt;Node5</title>
<g id="a_edge4_Node000003_Node000005"><a xlink:title=" ">
<path fill="none" stroke="#63b8ff" d="M1039.04,-64.43C1076.85,-53.08 1131.62,-36.65 1165.77,-26.41"/>
<polygon fill="#63b8ff" stroke="#63b8ff" points="1038.4,-60.96 1029.82,-67.19 1040.41,-67.67 1038.4,-60.96"/>
</a>
</g>
</g>
<!-- Node6 -->
<g id="Node000006" class="node">
<title>Node6</title>
<g id="a_Node000006"><a xlink:href="_corporate_network_error_tests_8cpp.html" target="_top" xlink:title="Тесты для обработки ошибок в классе CorporateNetwork.">
<polygon fill="white" stroke="#666666" points="629.25,-32 467,-32 467,0 629.25,0 629.25,-32"/>
<text xml:space="preserve" text-anchor="start" x="475" y="-18.5" font-family="Helvetica,sans-Serif" font-size="10.00">tests/NetSphereTests</text>
<text xml:space="preserve" text-anchor="middle" x="548.12" y="-6.5" font-family="Helvetica,sans-Serif" font-size="10.00">/CorporateNetworkErrorTests.cpp</text>
</a>
</g>
</g>
<!-- Node3&#45;&gt;Node6 -->
<g id="edge5_Node000003_Node000006" class="edge">
<title>Node3&#45;&gt;Node6</title>
<g id="a_edge5_Node000003_Node000006"><a xlink:title=" ">
<path fill="none" stroke="#63b8ff" d="M912.74,-67.4C839.91,-58.88 731.93,-45.69 638.12,-32 635.3,-31.59 632.43,-31.16 629.54,-30.72"/>
<polygon fill="#63b8ff" stroke="#63b8ff" points="912.28,-70.87 922.62,-68.55 913.09,-63.92 912.28,-70.87"/>
</a>
</g>
</g>
<!-- Node7 -->
<g id="Node000007" class="node">
<title>Node7</title>
<g id="a_Node000007"><a xlink:href="_corporate_network_tests_8cpp.html" target="_top" xlink:title="Тесты для класса CorporateNetwork проекта NetSphere.">
<polygon fill="white" stroke="#666666" points="788.75,-32 647.5,-32 647.5,0 788.75,0 788.75,-32"/>
<text xml:space="preserve" text-anchor="start" x="655.5" y="-18.5" font-family="Helvetica,sans-Serif" font-size="10.00">tests/NetSphereTests</text>
<text xml:space="preserve" text-anchor="middle" x="718.12" y="-6.5" font-family="Helvetica,sans-Serif" font-size="10.00">/CorporateNetworkTests.cpp</text>
</a>
</g>
</g>
<!-- Node3&#45;&gt;Node7 -->
<g id="edge6_Node000003_Node000007" class="edge">
<title>Node3&#45;&gt;Node7</title>
<g id="a_edge6_Node000003_Node000007"><a xlink:title=" ">
<path fill="none" stroke="#63b8ff" d="M942.21,-65.19C898.41,-55.77 836.74,-42.51 789.18,-32.28"/>
<polygon fill="#63b8ff" stroke="#63b8ff" points="941.23,-68.56 951.74,-67.24 942.7,-61.72 941.23,-68.56"/>
</a>
</g>
</g>
<!-- Node8 -->
<g id="Node000008" class="node">
<title>Node8</title>
<g id="a_Node000008"><a xlink:href="_data_storage_error_tests_8cpp.html" target="_top" xlink:title="Тесты для обработки ошибок в классе DataStorage.">
<polygon fill="white" stroke="#666666" points="1117.88,-32 980.38,-32 980.38,0 1117.88,0 1117.88,-32"/>
<text xml:space="preserve" text-anchor="start" x="988.38" y="-18.5" font-family="Helvetica,sans-Serif" font-size="10.00">tests/NetSphereTests</text>
<text xml:space="preserve" text-anchor="middle" x="1049.12" y="-6.5" font-family="Helvetica,sans-Serif" font-size="10.00">/DataStorageErrorTests.cpp</text>
</a>
</g>
</g>
<!-- Node3&#45;&gt;Node8 -->
<g id="edge7_Node000003_Node000008" class="edge">
<title>Node3&#45;&gt;Node8</title>
<g id="a_edge7_Node000003_Node000008"><a xlink:title=" ">
<path fill="none" stroke="#63b8ff" d="M1012.64,-59.1C1020.08,-50.51 1028.9,-40.34 1036,-32.14"/>
<polygon fill="#63b8ff" stroke="#63b8ff" points="1010.15,-56.63 1006.24,-66.48 1015.44,-61.22 1010.15,-56.63"/>
</a>
</g>
</g>
<!-- Node9 -->
<g id="Node000009" class="node">
<title>Node9</title>
<g id="a_Node000009"><a xlink:href="_data_storage_tests_8cpp.html" target="_top" xlink:title="Тесты для класса DataStorage проекта NetSphere.">
<polygon fill="white" stroke="#666666" points="314.38,-32 197.88,-32 197.88,0 314.38,0 314.38,-32"/>
<text xml:space="preserve" text-anchor="start" x="205.88" y="-18.5" font-family="Helvetica,sans-Serif" font-size="10.00">tests/NetSphereTests</text>
<text xml:space="preserve" text-anchor="middle" x="256.12" y="-6.5" font-family="Helvetica,sans-Serif" font-size="10.00">/DataStorageTests.cpp</text>
</a>
</g>
</g>
<!-- Node3&#45;&gt;Node9 -->
<g id="edge8_Node000003_Node000009" class="edge">
<title>Node3&#45;&gt;Node9</title>
<g id="a_edge8_Node000003_Node000009"><a xlink:title=" ">
<path fill="none" stroke="#63b8ff" d="M912.86,-67.86C650.95,-46.27 581.05,-67.94 324.12,-32 321.01,-31.56 317.83,-31.06 314.63,-30.51"/>
<polygon fill="#63b8ff" stroke="#63b8ff" points="912.5,-71.34 922.76,-68.69 913.08,-64.37 912.5,-71.34"/>
</a>
</g>
</g>
<!-- Node10 -->
<g id="Node000010" class="node">
<title>Node10</title>
<g id="a_Node000010"><a xlink:href="_device_tests_8cpp.html" target="_top" xlink:title="Тесты для базового класса Device и его наследников.">
<polygon fill="white" stroke="#666666" points="1387.75,-32 1276.5,-32 1276.5,0 1387.75,0 1387.75,-32"/>
<text xml:space="preserve" text-anchor="start" x="1284.5" y="-18.5" font-family="Helvetica,sans-Serif" font-size="10.00">tests/NetSphereTests</text>
<text xml:space="preserve" text-anchor="middle" x="1332.12" y="-6.5" font-family="Helvetica,sans-Serif" font-size="10.00">/DeviceTests.cpp</text>
</a>
</g>
</g>
<!-- Node3&#45;&gt;Node10 -->
<g id="edge9_Node000003_Node000010" class="edge">
<title>Node3&#45;&gt;Node10</title>
<g id="a_edge9_Node000003_Node000010"><a xlink:title=" ">
<path fill="none" stroke="#63b8ff" d="M1072.14,-65.77C1126.45,-57.33 1201.52,-45.02 1267.12,-32 1270.08,-31.41 1273.1,-30.79 1276.15,-30.15"/>
<polygon fill="#63b8ff" stroke="#63b8ff" points="1071.72,-62.29 1062.38,-67.28 1072.79,-69.21 1071.72,-62.29"/>
</a>
</g>
</g>
<!-- Node11 -->
<g id="Node000011" class="node">
<title>Node11</title>
<g id="a_Node000011"><a xlink:href="_domain_error_tests_8cpp.html" target="_top" xlink:title="Тесты для обработки ошибок в классе Domain.">
<polygon fill="white" stroke="#666666" points="449.38,-32 332.88,-32 332.88,0 449.38,0 449.38,-32"/>
<text xml:space="preserve" text-anchor="start" x="340.88" y="-18.5" font-family="Helvetica,sans-Serif" font-size="10.00">tests/NetSphereTests</text>
<text xml:space="preserve" text-anchor="middle" x="391.12" y="-6.5" font-family="Helvetica,sans-Serif" font-size="10.00">/DomainErrorTests.cpp</text>
</a>
</g>
</g>
<!-- Node3&#45;&gt;Node11 -->
<g id="edge10_Node000003_Node000011" class="edge">
<title>Node3&#45;&gt;Node11</title>
<g id="a_edge10_Node000003_Node000011"><a xlink:title=" ">
<path fill="none" stroke="#63b8ff" d="M912.92,-67.83C710.33,-49.36 655.96,-61.78 458.12,-32 455.41,-31.59 452.65,-31.14 449.86,-30.64"/>
<polygon fill="#63b8ff" stroke="#63b8ff" points="912.47,-71.31 922.75,-68.75 913.12,-64.34 912.47,-71.31"/>
</a>
</g>
</g>
<!-- Node12 -->
<g id="Node000012" class="node">
<title>Node12</title>
<g id="a_Node000012"><a xlink:href="_domain_tests_8cpp.html" target="_top" xlink:title="Тесты для класса Domain проекта NetSphere.">
<polygon fill="white" stroke="#666666" points="1847.75,-32 1736.5,-32 1736.5,0 1847.75,0 1847.75,-32"/>
<text xml:space="preserve" text-anchor="start" x="1744.5" y="-18.5" font-family="Helvetica,sans-Serif" font-size="10.00">tests/NetSphereTests</text>
<text xml:space="preserve" text-anchor="middle" x="1792.12" y="-6.5" font-family="Helvetica,sans-Serif" font-size="10.00">/DomainTests.cpp</text>
</a>
</g>
</g>
<!-- Node3&#45;&gt;Node12 -->
<g id="edge11_Node000003_Node000012" class="edge">
<title>Node3&#45;&gt;Node12</title>
<g id="a_edge11_Node000003_Node000012"><a xlink:title=" ">
<path fill="none" stroke="#63b8ff" d="M1081.48,-70.5C1093.44,-69.63 1105.59,-68.77 1117.12,-68 1388.1,-49.84 1458.31,-70.67 1727.12,-32 1730.11,-31.57 1733.15,-31.07 1736.22,-30.53"/>
<polygon fill="#63b8ff" stroke="#63b8ff" points="1081.32,-67.01 1071.6,-71.23 1081.83,-73.99 1081.32,-67.01"/>
</a>
</g>
</g>
<!-- Node13&#45;&gt;Node5 -->
<g id="edge14_Node000013_Node000005" class="edge">
<title>Node13&#45;&gt;Node5</title>
<g id="a_edge14_Node000013_Node000005"><a xlink:title=" ">
<path fill="none" stroke="#63b8ff" d="M1311.52,-63.38C1283.58,-52.05 1244.57,-36.23 1220.09,-26.31"/>
<polygon fill="#63b8ff" stroke="#63b8ff" points="1310.01,-66.54 1320.6,-67.06 1312.64,-60.06 1310.01,-66.54"/>
</a>
</g>
</g>
<!-- Node13&#45;&gt;Node7 -->
<g id="edge15_Node000013_Node000007" class="edge">
<title>Node13&#45;&gt;Node7</title>
<g id="a_edge15_Node000013_Node000007"><a xlink:title=" ">
<path fill="none" stroke="#63b8ff" d="M1274.25,-67.76C1062.4,-46.42 1005.59,-59.52 797.12,-32 794.5,-31.65 791.82,-31.27 789.12,-30.87"/>
<polygon fill="#63b8ff" stroke="#63b8ff" points="1273.63,-71.22 1283.94,-68.75 1274.35,-64.25 1273.63,-71.22"/>
</a>
</g>
</g>
<!-- Node13&#45;&gt;Node10 -->
<g id="edge16_Node000013_Node000010" class="edge">
<title>Node13&#45;&gt;Node10</title>
<g id="a_edge16_Node000013_Node000010"><a xlink:title=" ">
<path fill="none" stroke="#63b8ff" d="M1340.7,-56.59C1338.97,-48.58 1337.01,-39.55 1335.41,-32.14"/>
<polygon fill="#63b8ff" stroke="#63b8ff" points="1337.24,-57.11 1342.77,-66.15 1344.08,-55.63 1337.24,-57.11"/>
</a>
</g>
</g>
<!-- Node13&#45;&gt;Node12 -->
<g id="edge17_Node000013_Node000012" class="edge">
<title>Node13&#45;&gt;Node12</title>
<g id="a_edge17_Node000013_Node000012"><a xlink:title=" ">
<path fill="none" stroke="#63b8ff" d="M1416.43,-70.95C1493.41,-63.88 1619.49,-50.7 1727.12,-32 1730.09,-31.48 1733.13,-30.92 1736.18,-30.32"/>
<polygon fill="#63b8ff" stroke="#63b8ff" points="1416.12,-67.47 1406.48,-71.86 1416.75,-74.44 1416.12,-67.47"/>
</a>
</g>
</g>
<!-- Node14 -->
<g id="Node000014" class="node">
<title>Node14</title>
<g id="a_Node000014"><a xlink:href="_printer_8cpp.html" target="_top" xlink:title="Реализация класса Printer &#45; сетевого принтера.">
<polygon fill="white" stroke="#666666" points="1994.75,-26 1865.5,-26 1865.5,-6 1994.75,-6 1994.75,-26"/>
<text xml:space="preserve" text-anchor="middle" x="1930.12" y="-12.5" font-family="Helvetica,sans-Serif" font-size="10.00">src/NetSphere/Printer.cpp</text>
</a>
</g>
</g>
<!-- Node13&#45;&gt;Node14 -->
<g id="edge13_Node000013_Node000014" class="edge">
<title>Node13&#45;&gt;Node14</title>
<g id="a_edge13_Node000013_Node000014"><a xlink:title=" ">
<path fill="none" stroke="#63b8ff" d="M1416.27,-73.34C1515.43,-67.65 1700.64,-54.88 1857.12,-32 1867.24,-30.52 1878.06,-28.53 1888.19,-26.48"/>
<polygon fill="#63b8ff" stroke="#63b8ff" points="1416.2,-69.84 1406.41,-73.9 1416.59,-76.83 1416.2,-69.84"/>
</a>
</g>
</g>
<!-- Node15 -->
<g id="Node000015" class="node">
<title>Node15</title>
<g id="a_Node000015"><a xlink:href="_workstation_printer_tests_8cpp.html" target="_top" xlink:title="Тесты для классов Workstation и Printer.">
<polygon fill="white" stroke="#666666" points="1718.12,-32 1576.12,-32 1576.12,0 1718.12,0 1718.12,-32"/>
<text xml:space="preserve" text-anchor="start" x="1584.12" y="-18.5" font-family="Helvetica,sans-Serif" font-size="10.00">tests/NetSphereTests</text>
<text xml:space="preserve" text-anchor="middle" x="1647.12" y="-6.5" font-family="Helvetica,sans-Serif" font-size="10.00">/WorkstationPrinterTests.cpp</text>
</a>
</g>
</g>
<!-- Node13&#45;&gt;Node15 -->
<g id="edge18_Node000013_Node000015" class="edge">
<title>Node13&#45;&gt;Node15</title>
<g id="a_edge18_Node000013_Node000015"><a xlink:title=" ">
<path fill="none" stroke="#63b8ff" d="M1403.73,-65.36C1452.89,-55.59 1523.27,-41.61 1575.72,-31.19"/>
<polygon fill="#63b8ff" stroke="#63b8ff" points="1403.26,-61.88 1394.13,-67.26 1404.62,-68.75 1403.26,-61.88"/>
</a>
</g>
</g>
<!-- Node16&#45;&gt;Node5 -->
<g id="edge21_Node000016_Node000005" class="edge">
<title>Node16&#45;&gt;Node5</title>
<g id="a_edge21_Node000016_Node000005"><a xlink:title=" ">
<path fill="none" stroke="#63b8ff" d="M1197.12,-56.25C1197.12,-45.97 1197.12,-34.09 1197.12,-26.11"/>
<polygon fill="#63b8ff" stroke="#63b8ff" points="1193.63,-56.11 1197.13,-66.11 1200.63,-56.11 1193.63,-56.11"/>
</a>
</g>
</g>
<!-- Node16&#45;&gt;Node6 -->
<g id="edge22_Node000016_Node000006" class="edge">
<title>Node16&#45;&gt;Node6</title>
<g id="a_edge22_Node000016_Node000006"><a xlink:title=" ">
<path fill="none" stroke="#63b8ff" d="M1114.41,-70.53C964.54,-58.77 661.33,-34.86 638.12,-32 635.3,-31.65 632.42,-31.28 629.52,-30.88"/>
<polygon fill="#63b8ff" stroke="#63b8ff" points="1114.05,-74.01 1124.3,-71.3 1114.6,-67.03 1114.05,-74.01"/>
</a>
</g>
</g>
<!-- Node16&#45;&gt;Node7 -->
<g id="edge23_Node000016_Node000007" class="edge">
<title>Node16&#45;&gt;Node7</title>
<g id="a_edge23_Node000016_Node000007"><a xlink:title=" ">
<path fill="none" stroke="#63b8ff" d="M1114.62,-69.56C1033.57,-61.81 906.51,-48.51 797.12,-32 794.5,-31.6 791.83,-31.18 789.14,-30.75"/>
<polygon fill="#63b8ff" stroke="#63b8ff" points="1113.95,-73.01 1124.23,-70.47 1114.61,-66.04 1113.95,-73.01"/>
</a>
</g>
</g>
<!-- Node16&#45;&gt;Node10 -->
<g id="edge24_Node000016_Node000010" class="edge">
<title>Node16&#45;&gt;Node10</title>
<g id="a_edge24_Node000016_Node000010"><a xlink:title=" ">
<path fill="none" stroke="#63b8ff" d="M1228.63,-63C1249.19,-53.86 1276.06,-41.92 1297.27,-32.49"/>
<polygon fill="#63b8ff" stroke="#63b8ff" points="1227.32,-59.75 1219.6,-67.01 1230.16,-66.15 1227.32,-59.75"/>
</a>
</g>
</g>
<!-- Node16&#45;&gt;Node11 -->
<g id="edge25_Node000016_Node000011" class="edge">
<title>Node16&#45;&gt;Node11</title>
<g id="a_edge25_Node000016_Node000011"><a xlink:title=" ">
<path fill="none" stroke="#63b8ff" d="M1114.42,-70.5C1102.58,-69.63 1090.54,-68.77 1079.12,-68 803.28,-49.49 731.92,-70.33 458.12,-32 455.41,-31.62 452.64,-31.19 449.85,-30.71"/>
<polygon fill="#63b8ff" stroke="#63b8ff" points="1113.95,-73.97 1124.18,-71.23 1114.47,-66.99 1113.95,-73.97"/>
</a>
</g>
</g>
<!-- Node16&#45;&gt;Node12 -->
<g id="edge26_Node000016_Node000012" class="edge">
<title>Node16&#45;&gt;Node12</title>
<g id="a_edge26_Node000016_Node000012"><a xlink:title=" ">
<path fill="none" stroke="#63b8ff" d="M1279.67,-67.8C1478.82,-49.28 1532.52,-62.07 1727.12,-32 1730.1,-31.54 1733.14,-31.02 1736.21,-30.45"/>
<polygon fill="#63b8ff" stroke="#63b8ff" points="1279.34,-64.31 1269.72,-68.74 1280,-71.28 1279.34,-64.31"/>
</a>
</g>
</g>
<!-- Node16&#45;&gt;Node15 -->
<g id="edge27_Node000016_Node000015" class="edge">
<title>Node16&#45;&gt;Node15</title>
<g id="a_edge27_Node000016_Node000015"><a xlink:title=" ">
<path fill="none" stroke="#63b8ff" d="M1279.59,-67.6C1371.27,-57.03 1513.48,-40.28 1567.12,-32 1569.92,-31.57 1572.76,-31.11 1575.63,-30.64"/>
<polygon fill="#63b8ff" stroke="#63b8ff" points="1279.43,-64.09 1269.9,-68.71 1280.23,-71.05 1279.43,-64.09"/>
</a>
</g>
</g>
<!-- Node17 -->
<g id="Node000017" class="node">
<title>Node17</title>
<g id="a_Node000017"><a xlink:href="_workstation_8cpp.html" target="_top" xlink:title="Реализация класса Workstation &#45; рабочей станции пользователя.">
<polygon fill="white" stroke="#666666" points="1558.38,-26 1405.88,-26 1405.88,-6 1558.38,-6 1558.38,-26"/>
<text xml:space="preserve" text-anchor="middle" x="1482.12" y="-12.5" font-family="Helvetica,sans-Serif" font-size="10.00">src/NetSphere/Workstation.cpp</text>
</a>
</g>
</g>
<!-- Node16&#45;&gt;Node17 -->
<g id="edge20_Node000016_Node000017" class="edge">
<title>Node16&#45;&gt;Node17</title>
<g id="a_edge20_Node000016_Node000017"><a xlink:title=" ">
<path fill="none" stroke="#63b8ff" d="M1253.03,-65.23C1306.86,-53.9 1387.23,-36.98 1437.07,-26.48"/>
<polygon fill="#63b8ff" stroke="#63b8ff" points="1252.52,-61.76 1243.45,-67.25 1253.96,-68.61 1252.52,-61.76"/>
</a>
</g>
</g>
<!-- Node18&#45;&gt;Node5 -->
<g id="edge35_Node000018_Node000005" class="edge">
<title>Node18&#45;&gt;Node5</title>
<g id="a_edge35_Node000018_Node000005"><a xlink:title=" ">
<path fill="none" stroke="#63b8ff" d="M912.77,-126.07C961.22,-119.86 1025.39,-108.44 1079.12,-88 1100.69,-79.8 1156.81,-43.61 1183.12,-26.29"/>
<polygon fill="#63b8ff" stroke="#63b8ff" points="912.43,-122.58 902.93,-127.28 913.29,-129.53 912.43,-122.58"/>
</a>
</g>
</g>
<!-- Node18&#45;&gt;Node7 -->
<g id="edge36_Node000018_Node000007" class="edge">
<title>Node18&#45;&gt;Node7</title>
<g id="a_edge36_Node000018_Node000007"><a xlink:title=" ">
<path fill="none" stroke="#63b8ff" d="M807.2,-118.43C792.66,-110.76 775.88,-100.37 763.12,-88 746.26,-71.64 732.81,-47.78 725.15,-32.32"/>
<polygon fill="#63b8ff" stroke="#63b8ff" points="805.46,-121.47 815.96,-122.84 808.61,-115.22 805.46,-121.47"/>
</a>
</g>
</g>
<!-- Node18&#45;&gt;Node11 -->
<g id="edge37_Node000018_Node000011" class="edge">
<title>Node18&#45;&gt;Node11</title>
<g id="a_edge37_Node000018_Node000011"><a xlink:title=" ">
<path fill="none" stroke="#63b8ff" d="M765.64,-128.33C703.61,-122.91 613.04,-111.51 537.12,-88 492.83,-74.29 445.18,-48.88 416.77,-32.47"/>
<polygon fill="#63b8ff" stroke="#63b8ff" points="765.11,-131.8 775.37,-129.15 765.7,-124.82 765.11,-131.8"/>
</a>
</g>
</g>
<!-- Node18&#45;&gt;Node12 -->
<g id="edge38_Node000018_Node000012" class="edge">
<title>Node18&#45;&gt;Node12</title>
<g id="a_edge38_Node000018_Node000012"><a xlink:title=" ">
<path fill="none" stroke="#63b8ff" d="M912.56,-129.56C1021.95,-123.9 1234.05,-110.93 1413.12,-88 1553.73,-69.99 1588.24,-60.39 1727.12,-32 1730.08,-31.4 1733.1,-30.76 1736.14,-30.11"/>
<polygon fill="#63b8ff" stroke="#63b8ff" points="912.66,-126.05 902.85,-130.05 913.01,-133.04 912.66,-126.05"/>
</a>
</g>
</g>
<!-- Node19 -->
<g id="Node000019" class="node">
<title>Node19</title>
<g id="a_Node000019"><a xlink:href="_corporate_network_8h.html" target="_top" xlink:title="Заголовочный файл класса CorporateNetwork &#45; корпоративной сети.">
<polygon fill="white" stroke="#666666" points="716,-88 546.25,-88 546.25,-68 716,-68 716,-88"/>
<text xml:space="preserve" text-anchor="middle" x="631.12" y="-74.5" font-family="Helvetica,sans-Serif" font-size="10.00">src/NetSphere/CorporateNetwork.h</text>
</a>
</g>
</g>
<!-- Node18&#45;&gt;Node19 -->
<g id="edge29_Node000018_Node000019" class="edge">
<title>Node18&#45;&gt;Node19</title>
<g id="a_edge29_Node000018_Node000019"><a xlink:title=" ">
<path fill="none" stroke="#63b8ff" d="M792.18,-120.81C754.47,-111.02 702.27,-97.47 667.64,-88.48"/>
<polygon fill="#63b8ff" stroke="#63b8ff" points="790.87,-124.09 801.43,-123.21 792.63,-117.31 790.87,-124.09"/>
</a>
</g>
</g>
<!-- Node21 -->
<g id="Node000021" class="node">
<title>Node21</title>
<g id="a_Node000021"><a xlink:href="_domain_8cpp.html" target="_top" xlink:title="Реализация класса Domain &#45; домена корпоративной сети.">
<polygon fill="white" stroke="#666666" points="906.38,-88 771.88,-88 771.88,-68 906.38,-68 906.38,-88"/>
<text xml:space="preserve" text-anchor="middle" x="839.12" y="-74.5" font-family="Helvetica,sans-Serif" font-size="10.00">src/NetSphere/Domain.cpp</text>
</a>
</g>
</g>
<!-- Node18&#45;&gt;Node21 -->
<g id="edge34_Node000018_Node000021" class="edge">
<title>Node18&#45;&gt;Node21</title>
<g id="a_edge34_Node000018_Node000021"><a xlink:title=" ">
<path fill="none" stroke="#63b8ff" d="M839.12,-112.13C839.12,-103.9 839.12,-94.85 839.12,-88.3"/>
<polygon fill="#63b8ff" stroke="#63b8ff" points="835.63,-112.08 839.13,-122.08 842.63,-112.08 835.63,-112.08"/>
</a>
</g>
</g>
<!-- Node19&#45;&gt;Node5 -->
<g id="edge31_Node000019_Node000005" class="edge">
<title>Node19&#45;&gt;Node5</title>
<g id="a_edge31_Node000019_Node000005"><a xlink:title=" ">
<path fill="none" stroke="#63b8ff" d="M727.65,-69.64C849.62,-60.09 1052.62,-43.32 1127.12,-32 1136.83,-30.53 1147.21,-28.53 1156.93,-26.48"/>
<polygon fill="#63b8ff" stroke="#63b8ff" points="727.68,-66.12 717.98,-70.39 728.22,-73.1 727.68,-66.12"/>
</a>
</g>
</g>
<!-- Node19&#45;&gt;Node6 -->
<g id="edge32_Node000019_Node000006" class="edge">
<title>Node19&#45;&gt;Node6</title>
<g id="a_edge32_Node000019_Node000006"><a xlink:title=" ">
<path fill="none" stroke="#63b8ff" d="M609.05,-61.04C596.76,-52.16 581.54,-41.16 569.39,-32.37"/>
<polygon fill="#63b8ff" stroke="#63b8ff" points="606.77,-63.72 616.93,-66.74 610.88,-58.04 606.77,-63.72"/>
</a>
</g>
</g>
<!-- Node19&#45;&gt;Node7 -->
<g id="edge33_Node000019_Node000007" class="edge">
<title>Node19&#45;&gt;Node7</title>
<g id="a_edge33_Node000019_Node000007"><a xlink:title=" ">
<path fill="none" stroke="#63b8ff" d="M653.89,-61.3C666.83,-52.38 682.97,-41.25 695.83,-32.37"/>
<polygon fill="#63b8ff" stroke="#63b8ff" points="652.21,-58.21 645.96,-66.77 656.18,-63.97 652.21,-58.21"/>
</a>
</g>
</g>
<!-- Node20 -->
<g id="Node000020" class="node">
<title>Node20</title>
<g id="a_Node000020"><a xlink:href="_corporate_network_8cpp.html" target="_top" xlink:title="Реализация класса CorporateNetwork &#45; корпоративной сети.">
<polygon fill="white" stroke="#666666" points="180.25,-26 0,-26 0,-6 180.25,-6 180.25,-26"/>
<text xml:space="preserve" text-anchor="middle" x="90.12" y="-12.5" font-family="Helvetica,sans-Serif" font-size="10.00">src/NetSphere/CorporateNetwork.cpp</text>
</a>
</g>
</g>
<!-- Node19&#45;&gt;Node20 -->
<g id="edge30_Node000019_Node000020" class="edge">
<title>Node19&#45;&gt;Node20</title>
<g id="a_edge30_Node000019_Node000020"><a xlink:title=" ">
<path fill="none" stroke="#63b8ff" d="M534.6,-68.54C444.95,-60.36 307.82,-47.03 189.12,-32 176.28,-30.37 162.52,-28.42 149.48,-26.48"/>
<polygon fill="#63b8ff" stroke="#63b8ff" points="534.05,-72.01 544.33,-69.43 534.69,-65.04 534.05,-72.01"/>
</a>
</g>
</g>
</g>
</svg>
