<?xml version="1.0" encoding="UTF-8" standalone="no"?>
<!DOCTYPE svg PUBLIC "-//W3C//DTD SVG 1.1//EN"
 "http://www.w3.org/Graphics/SVG/1.1/DTD/svg11.dtd">
<!-- Generated by graphviz version 14.0.1 (20251006.0113)
 -->
<!-- Title: src/NetSphere/NetworkEntity.h Pages: 1 -->
<svg width="189pt" height="84pt"
 viewBox="0.00 0.00 189.00 84.00" xmlns="http://www.w3.org/2000/svg" xmlns:xlink="http://www.w3.org/1999/xlink">
<g id="graph0" class="graph" transform="scale(1 1) rotate(0) translate(4 80)">
<title>src/NetSphere/NetworkEntity.h</title>
<!-- Node1 -->
<g id="Node000001" class="node">
<title>Node1</title>
<g id="a_Node000001"><a xlink:title="Заголовочный файл базового класса NetworkEntity для всех сущностей сети.">
<polygon fill="#999999" stroke="#666666" points="167.62,-76 15.88,-76 15.88,-56 167.62,-56 167.62,-76"/>
<text xml:space="preserve" text-anchor="middle" x="91.75" y="-62.5" font-family="Helvetica,sans-Serif" font-size="10.00">src/NetSphere/NetworkEntity.h</text>
</a>
</g>
</g>
<!-- Node2 -->
<g id="Node000002" class="node">
<title>Node2</title>
<g id="a_Node000002"><a xlink:title=" ">
<polygon fill="#e0e0e0" stroke="#999999" points="53.5,-20 0,-20 0,0 53.5,0 53.5,-20"/>
<text xml:space="preserve" text-anchor="middle" x="26.75" y="-6.5" font-family="Helvetica,sans-Serif" font-size="10.00">iostream</text>
</a>
</g>
</g>
<!-- Node1&#45;&gt;Node2 -->
<g id="edge1_Node000001_Node000002" class="edge">
<title>Node1&#45;&gt;Node2</title>
<g id="a_edge1_Node000001_Node000002"><a xlink:title=" ">
<path fill="none" stroke="#63b8ff" d="M80.43,-55.59C71.11,-47.85 57.67,-36.69 46.57,-27.47"/>
<polygon fill="#63b8ff" stroke="#63b8ff" points="49.04,-24.96 39.11,-21.27 44.56,-30.35 49.04,-24.96"/>
</a>
</g>
</g>
<!-- Node3 -->
<g id="Node000003" class="node">
<title>Node3</title>
<g id="a_Node000003"><a xlink:title=" ">
<polygon fill="#e0e0e0" stroke="#999999" points="111.75,-20 71.75,-20 71.75,0 111.75,0 111.75,-20"/>
<text xml:space="preserve" text-anchor="middle" x="91.75" y="-6.5" font-family="Helvetica,sans-Serif" font-size="10.00">string</text>
</a>
</g>
</g>
<!-- Node1&#45;&gt;Node3 -->
<g id="edge2_Node000001_Node000003" class="edge">
<title>Node1&#45;&gt;Node3</title>
<g id="a_edge2_Node000001_Node000003"><a xlink:title=" ">
<path fill="none" stroke="#63b8ff" d="M91.75,-55.59C91.75,-49.01 91.75,-39.96 91.75,-31.73"/>
<polygon fill="#63b8ff" stroke="#63b8ff" points="95.25,-31.81 91.75,-21.81 88.25,-31.81 95.25,-31.81"/>
</a>
</g>
</g>
<!-- Node4 -->
<g id="Node000004" class="node">
<title>Node4</title>
<g id="a_Node000004"><a xlink:title=" ">
<polygon fill="#e0e0e0" stroke="#999999" points="181.38,-20 130.12,-20 130.12,0 181.38,0 181.38,-20"/>
<text xml:space="preserve" text-anchor="middle" x="155.75" y="-6.5" font-family="Helvetica,sans-Serif" font-size="10.00">memory</text>
</a>
</g>
</g>
<!-- Node1&#45;&gt;Node4 -->
<g id="edge3_Node000001_Node000004" class="edge">
<title>Node1&#45;&gt;Node4</title>
<g id="a_edge3_Node000001_Node000004"><a xlink:title=" ">
<path fill="none" stroke="#63b8ff" d="M102.9,-55.59C112.08,-47.85 125.3,-36.69 136.23,-27.47"/>
<polygon fill="#63b8ff" stroke="#63b8ff" points="138.19,-30.4 143.57,-21.27 133.67,-25.05 138.19,-30.4"/>
</a>
</g>
</g>
</g>
</svg>
