<?xml version="1.0" encoding="UTF-8" standalone="no"?>
<!DOCTYPE svg PUBLIC "-//W3C//DTD SVG 1.1//EN"
 "http://www.w3.org/Graphics/SVG/1.1/DTD/svg11.dtd">
<!-- Generated by graphviz version 14.0.1 (20251006.0113)
 -->
<!-- Title: src/NetSphere/Printer.cpp Pages: 1 -->
<svg width="372pt" height="252pt"
 viewBox="0.00 0.00 372.00 252.00" xmlns="http://www.w3.org/2000/svg" xmlns:xlink="http://www.w3.org/1999/xlink">

<svg id="main" version="1.1" xmlns="http://www.w3.org/2000/svg" xmlns:xlink="http://www.w3.org/1999/xlink" xml:space="preserve">

<style type="text/css"><![CDATA[
.node, .edge {opacity: 0.7;}
.node.selected, .edge.selected {opacity: 1;}
.edge:hover path { stroke: red; }
.edge:hover polygon { stroke: red; fill: red; }
]]></style>
<script type="application/ecmascript" xlink:href="svg.min.js"/>
<svg id="graph" class="graph">
<g id="graph0" class="graph" transform="scale(1 1) rotate(0) translate(4 248)">
<title>src/NetSphere/Printer.cpp</title>
<!-- Node1 -->
<g id="Node000001" class="node">
<title>Node1</title>
<g id="a_Node000001"><a xlink:title="Реализация класса Printer &#45; сетевого принтера.">
<polygon fill="#999999" stroke="#666666" points="326.5,-244 197.25,-244 197.25,-224 326.5,-224 326.5,-244"/>
<text xml:space="preserve" text-anchor="middle" x="261.88" y="-230.5" font-family="Helvetica,sans-Serif" font-size="10.00">src/NetSphere/Printer.cpp</text>
</a>
</g>
</g>
<!-- Node2 -->
<g id="Node000002" class="node">
<title>Node2</title>
<g id="a_Node000002"><a xlink:href="_printer_8h.html" target="_top" xlink:title="Заголовочный файл класса Printer &#45; сетевого принтера.">
<polygon fill="white" stroke="#666666" points="261.25,-188 208.5,-188 208.5,-168 261.25,-168 261.25,-188"/>
<text xml:space="preserve" text-anchor="middle" x="234.88" y="-174.5" font-family="Helvetica,sans-Serif" font-size="10.00">Printer.h</text>
</a>
</g>
</g>
<!-- Node1&#45;&gt;Node2 -->
<g id="edge1_Node000001_Node000002" class="edge">
<title>Node1&#45;&gt;Node2</title>
<g id="a_edge1_Node000001_Node000002"><a xlink:title=" ">
<path fill="none" stroke="#63b8ff" d="M257.17,-223.59C253.73,-216.7 248.93,-207.1 244.66,-198.57"/>
<polygon fill="#63b8ff" stroke="#63b8ff" points="247.8,-197.03 240.2,-189.65 241.54,-200.16 247.8,-197.03"/>
</a>
</g>
</g>
<!-- Node5 -->
<g id="Node000005" class="node">
<title>Node5</title>
<g id="a_Node000005"><a xlink:title=" ">
<polygon fill="#e0e0e0" stroke="#999999" points="363.62,-20 310.12,-20 310.12,0 363.62,0 363.62,-20"/>
<text xml:space="preserve" text-anchor="middle" x="336.88" y="-6.5" font-family="Helvetica,sans-Serif" font-size="10.00">iostream</text>
</a>
</g>
</g>
<!-- Node1&#45;&gt;Node5 -->
<g id="edge12_Node000001_Node000005" class="edge">
<title>Node1&#45;&gt;Node5</title>
<g id="a_edge12_Node000001_Node000005"><a xlink:title=" ">
<path fill="none" stroke="#63b8ff" d="M265.61,-223.53C275.12,-199.24 300.79,-132.63 318.88,-76 323.63,-61.12 328.31,-44.1 331.71,-31.21"/>
<polygon fill="#63b8ff" stroke="#63b8ff" points="335.03,-32.35 334.16,-21.79 328.26,-30.59 335.03,-32.35"/>
</a>
</g>
</g>
<!-- Node3 -->
<g id="Node000003" class="node">
<title>Node3</title>
<g id="a_Node000003"><a xlink:href="_device_8h.html" target="_top" xlink:title="Заголовочный файл базового класса Device для всех устройств сети.">
<polygon fill="white" stroke="#666666" points="213.38,-132 158.38,-132 158.38,-112 213.38,-112 213.38,-132"/>
<text xml:space="preserve" text-anchor="middle" x="185.88" y="-118.5" font-family="Helvetica,sans-Serif" font-size="10.00">Device.h</text>
</a>
</g>
</g>
<!-- Node2&#45;&gt;Node3 -->
<g id="edge2_Node000002_Node000003" class="edge">
<title>Node2&#45;&gt;Node3</title>
<g id="a_edge2_Node000002_Node000003"><a xlink:title=" ">
<path fill="none" stroke="#63b8ff" d="M226.34,-167.59C219.59,-160.16 209.99,-149.58 201.83,-140.58"/>
<polygon fill="#63b8ff" stroke="#63b8ff" points="204.64,-138.47 195.33,-133.42 199.46,-143.18 204.64,-138.47"/>
</a>
</g>
</g>
<!-- Node4 -->
<g id="Node000004" class="node">
<title>Node4</title>
<g id="a_Node000004"><a xlink:href="_network_entity_8h.html" target="_top" xlink:title="Заголовочный файл базового класса NetworkEntity для всех сущностей сети.">
<polygon fill="white" stroke="#666666" points="309.75,-76 224,-76 224,-56 309.75,-56 309.75,-76"/>
<text xml:space="preserve" text-anchor="middle" x="266.88" y="-62.5" font-family="Helvetica,sans-Serif" font-size="10.00">NetworkEntity.h</text>
</a>
</g>
</g>
<!-- Node3&#45;&gt;Node4 -->
<g id="edge3_Node000003_Node000004" class="edge">
<title>Node3&#45;&gt;Node4</title>
<g id="a_edge3_Node000003_Node000004"><a xlink:title=" ">
<path fill="none" stroke="#63b8ff" d="M199.98,-111.59C211.87,-103.67 229.14,-92.16 243.15,-82.82"/>
<polygon fill="#63b8ff" stroke="#63b8ff" points="245.02,-85.78 251.4,-77.32 241.13,-79.95 245.02,-85.78"/>
</a>
</g>
</g>
<!-- Node6 -->
<g id="Node000006" class="node">
<title>Node6</title>
<g id="a_Node000006"><a xlink:title=" ">
<polygon fill="#e0e0e0" stroke="#999999" points="157.88,-20 117.88,-20 117.88,0 157.88,0 157.88,-20"/>
<text xml:space="preserve" text-anchor="middle" x="137.88" y="-6.5" font-family="Helvetica,sans-Serif" font-size="10.00">string</text>
</a>
</g>
</g>
<!-- Node3&#45;&gt;Node6 -->
<g id="edge10_Node000003_Node000006" class="edge">
<title>Node3&#45;&gt;Node6</title>
<g id="a_edge10_Node000003_Node000006"><a xlink:title=" ">
<path fill="none" stroke="#63b8ff" d="M178.81,-111.8C172.35,-103.01 162.9,-89.19 156.88,-76 150.29,-61.57 145.37,-44.3 142.19,-31.19"/>
<polygon fill="#63b8ff" stroke="#63b8ff" points="145.63,-30.58 140.01,-21.6 138.81,-32.13 145.63,-30.58"/>
</a>
</g>
</g>
<!-- Node8 -->
<g id="Node000008" class="node">
<title>Node8</title>
<g id="a_Node000008"><a xlink:href="_network_exceptions_8h.html" target="_top" xlink:title="Заголовочный файл с классами исключений для корпоративной сети.">
<polygon fill="white" stroke="#666666" points="109.75,-76 0,-76 0,-56 109.75,-56 109.75,-76"/>
<text xml:space="preserve" text-anchor="middle" x="54.88" y="-62.5" font-family="Helvetica,sans-Serif" font-size="10.00">NetworkExceptions.h</text>
</a>
</g>
</g>
<!-- Node3&#45;&gt;Node8 -->
<g id="edge7_Node000003_Node000008" class="edge">
<title>Node3&#45;&gt;Node8</title>
<g id="a_edge7_Node000003_Node000008"><a xlink:title=" ">
<path fill="none" stroke="#63b8ff" d="M163.06,-111.59C142.43,-103.09 111.79,-90.46 88.38,-80.81"/>
<polygon fill="#63b8ff" stroke="#63b8ff" points="89.85,-77.63 79.27,-77.06 87.18,-84.1 89.85,-77.63"/>
</a>
</g>
</g>
<!-- Node10 -->
<g id="Node000010" class="node">
<title>Node10</title>
<g id="a_Node000010"><a xlink:title=" ">
<polygon fill="#e0e0e0" stroke="#999999" points="205.88,-76 165.88,-76 165.88,-56 205.88,-56 205.88,-76"/>
<text xml:space="preserve" text-anchor="middle" x="185.88" y="-62.5" font-family="Helvetica,sans-Serif" font-size="10.00">regex</text>
</a>
</g>
</g>
<!-- Node3&#45;&gt;Node10 -->
<g id="edge11_Node000003_Node000010" class="edge">
<title>Node3&#45;&gt;Node10</title>
<g id="a_edge11_Node000003_Node000010"><a xlink:title=" ">
<path fill="none" stroke="#63b8ff" d="M185.88,-111.59C185.88,-105.01 185.88,-95.96 185.88,-87.73"/>
<polygon fill="#63b8ff" stroke="#63b8ff" points="189.38,-87.81 185.88,-77.81 182.38,-87.81 189.38,-87.81"/>
</a>
</g>
</g>
<!-- Node4&#45;&gt;Node5 -->
<g id="edge4_Node000004_Node000005" class="edge">
<title>Node4&#45;&gt;Node5</title>
<g id="a_edge4_Node000004_Node000005"><a xlink:title=" ">
<path fill="none" stroke="#63b8ff" d="M279.07,-55.59C289.21,-47.77 303.87,-36.46 315.89,-27.19"/>
<polygon fill="#63b8ff" stroke="#63b8ff" points="317.84,-30.1 323.62,-21.22 313.57,-24.56 317.84,-30.1"/>
</a>
</g>
</g>
<!-- Node4&#45;&gt;Node6 -->
<g id="edge5_Node000004_Node000006" class="edge">
<title>Node4&#45;&gt;Node6</title>
<g id="a_edge5_Node000004_Node000006"><a xlink:title=" ">
<path fill="none" stroke="#63b8ff" d="M244.4,-55.59C223.34,-46.78 191.69,-33.53 168.35,-23.76"/>
<polygon fill="#63b8ff" stroke="#63b8ff" points="169.94,-20.63 159.37,-20 167.24,-27.09 169.94,-20.63"/>
</a>
</g>
</g>
<!-- Node7 -->
<g id="Node000007" class="node">
<title>Node7</title>
<g id="a_Node000007"><a xlink:title=" ">
<polygon fill="#e0e0e0" stroke="#999999" points="292.5,-20 241.25,-20 241.25,0 292.5,0 292.5,-20"/>
<text xml:space="preserve" text-anchor="middle" x="266.88" y="-6.5" font-family="Helvetica,sans-Serif" font-size="10.00">memory</text>
</a>
</g>
</g>
<!-- Node4&#45;&gt;Node7 -->
<g id="edge6_Node000004_Node000007" class="edge">
<title>Node4&#45;&gt;Node7</title>
<g id="a_edge6_Node000004_Node000007"><a xlink:title=" ">
<path fill="none" stroke="#63b8ff" d="M266.88,-55.59C266.88,-49.01 266.88,-39.96 266.88,-31.73"/>
<polygon fill="#63b8ff" stroke="#63b8ff" points="270.38,-31.81 266.88,-21.81 263.38,-31.81 270.38,-31.81"/>
</a>
</g>
</g>
<!-- Node8&#45;&gt;Node6 -->
<g id="edge9_Node000008_Node000006" class="edge">
<title>Node8&#45;&gt;Node6</title>
<g id="a_edge9_Node000008_Node000006"><a xlink:title=" ">
<path fill="none" stroke="#63b8ff" d="M69.33,-55.59C81.63,-47.59 99.55,-35.93 113.98,-26.54"/>
<polygon fill="#63b8ff" stroke="#63b8ff" points="115.56,-29.69 122.04,-21.3 111.75,-23.82 115.56,-29.69"/>
</a>
</g>
</g>
<!-- Node9 -->
<g id="Node000009" class="node">
<title>Node9</title>
<g id="a_Node000009"><a xlink:title=" ">
<polygon fill="#e0e0e0" stroke="#999999" points="84.25,-20 25.5,-20 25.5,0 84.25,0 84.25,-20"/>
<text xml:space="preserve" text-anchor="middle" x="54.88" y="-6.5" font-family="Helvetica,sans-Serif" font-size="10.00">stdexcept</text>
</a>
</g>
</g>
<!-- Node8&#45;&gt;Node9 -->
<g id="edge8_Node000008_Node000009" class="edge">
<title>Node8&#45;&gt;Node9</title>
<g id="a_edge8_Node000008_Node000009"><a xlink:title=" ">
<path fill="none" stroke="#63b8ff" d="M54.88,-55.59C54.88,-49.01 54.88,-39.96 54.88,-31.73"/>
<polygon fill="#63b8ff" stroke="#63b8ff" points="58.38,-31.81 54.88,-21.81 51.38,-31.81 58.38,-31.81"/>
</a>
</g>
</g>
</g>
</svg>
</svg>

<style type='text/css'>
<![CDATA[
[data-mouse-over-selected='false'] { opacity: 0.7; }
[data-mouse-over-selected='true']  { opacity: 1.0; }
]]>
</style>
<script type="application/ecmascript"><![CDATA[
document.addEventListener('DOMContentLoaded', (event) => {
  highlightEdges();
  highlightAdjacentNodes();
});
]]></script>
</svg>
