<?xml version="1.0" encoding="UTF-8" standalone="no"?>
<!DOCTYPE svg PUBLIC "-//W3C//DTD SVG 1.1//EN"
 "http://www.w3.org/Graphics/SVG/1.1/DTD/svg11.dtd">
<!-- Generated by graphviz version 14.0.1 (20251006.0113)
 -->
<!-- Title: src/NetSphere/Printer.h Pages: 1 -->
<svg width="856pt" height="96pt"
 viewBox="0.00 0.00 856.00 96.00" xmlns="http://www.w3.org/2000/svg" xmlns:xlink="http://www.w3.org/1999/xlink">
<g id="graph0" class="graph" transform="scale(1 1) rotate(0) translate(4 92)">
<title>src/NetSphere/Printer.h</title>
<!-- Node1 -->
<g id="Node000001" class="node">
<title>Node1</title>
<g id="a_Node000001"><a xlink:title="Заголовочный файл класса Printer &#45; сетевого принтера.">
<polygon fill="#999999" stroke="#666666" points="490,-88 371.25,-88 371.25,-68 490,-68 490,-88"/>
<text xml:space="preserve" text-anchor="middle" x="430.62" y="-74.5" font-family="Helvetica,sans-Serif" font-size="10.00">src/NetSphere/Printer.h</text>
</a>
</g>
</g>
<!-- Node2 -->
<g id="Node000002" class="node">
<title>Node2</title>
<g id="a_Node000002"><a xlink:href="_printer_8cpp.html" target="_top" xlink:title="Реализация класса Printer &#45; сетевого принтера.">
<polygon fill="white" stroke="#666666" points="129.25,-26 0,-26 0,-6 129.25,-6 129.25,-26"/>
<text xml:space="preserve" text-anchor="middle" x="64.62" y="-12.5" font-family="Helvetica,sans-Serif" font-size="10.00">src/NetSphere/Printer.cpp</text>
</a>
</g>
</g>
<!-- Node1&#45;&gt;Node2 -->
<g id="edge1_Node000001_Node000002" class="edge">
<title>Node1&#45;&gt;Node2</title>
<g id="a_edge1_Node000001_Node000002"><a xlink:title=" ">
<path fill="none" stroke="#63b8ff" d="M359.83,-67.04C300.6,-58.48 213.93,-45.43 138.62,-32 129.2,-30.32 119.14,-28.38 109.56,-26.46"/>
<polygon fill="#63b8ff" stroke="#63b8ff" points="359.03,-70.46 369.43,-68.42 360.03,-63.54 359.03,-70.46"/>
</a>
</g>
</g>
<!-- Node3 -->
<g id="Node000003" class="node">
<title>Node3</title>
<g id="a_Node000003"><a xlink:href="main_8cpp.html" target="_top" xlink:title="Главная функция приложения NetSphere.">
<polygon fill="white" stroke="#666666" points="269.5,-26 147.75,-26 147.75,-6 269.5,-6 269.5,-26"/>
<text xml:space="preserve" text-anchor="middle" x="208.62" y="-12.5" font-family="Helvetica,sans-Serif" font-size="10.00">src/NetSphere/main.cpp</text>
</a>
</g>
</g>
<!-- Node1&#45;&gt;Node3 -->
<g id="edge2_Node000001_Node000003" class="edge">
<title>Node1&#45;&gt;Node3</title>
<g id="a_edge2_Node000001_Node000003"><a xlink:title=" ">
<path fill="none" stroke="#63b8ff" d="M384.91,-64.64C342.91,-53.29 281.58,-36.72 243.43,-26.41"/>
<polygon fill="#63b8ff" stroke="#63b8ff" points="383.91,-68 394.48,-67.23 385.74,-61.24 383.91,-68"/>
</a>
</g>
</g>
<!-- Node4 -->
<g id="Node000004" class="node">
<title>Node4</title>
<g id="a_Node000004"><a xlink:href="_corporate_network_tests_8cpp.html" target="_top" xlink:title="Тесты для класса CorporateNetwork проекта NetSphere.">
<polygon fill="white" stroke="#666666" points="429.25,-32 288,-32 288,0 429.25,0 429.25,-32"/>
<text xml:space="preserve" text-anchor="start" x="296" y="-18.5" font-family="Helvetica,sans-Serif" font-size="10.00">tests/NetSphereTests</text>
<text xml:space="preserve" text-anchor="middle" x="358.62" y="-6.5" font-family="Helvetica,sans-Serif" font-size="10.00">/CorporateNetworkTests.cpp</text>
</a>
</g>
</g>
<!-- Node1&#45;&gt;Node4 -->
<g id="edge3_Node000001_Node000004" class="edge">
<title>Node1&#45;&gt;Node4</title>
<g id="a_edge3_Node000001_Node000004"><a xlink:title=" ">
<path fill="none" stroke="#63b8ff" d="M410.84,-60.51C400.29,-51.72 387.41,-40.98 377.07,-32.37"/>
<polygon fill="#63b8ff" stroke="#63b8ff" points="408.29,-62.94 418.21,-66.66 412.77,-57.57 408.29,-62.94"/>
</a>
</g>
</g>
<!-- Node5 -->
<g id="Node000005" class="node">
<title>Node5</title>
<g id="a_Node000005"><a xlink:href="_device_tests_8cpp.html" target="_top" xlink:title="Тесты для базового класса Device и его наследников.">
<polygon fill="white" stroke="#666666" points="558.25,-32 447,-32 447,0 558.25,0 558.25,-32"/>
<text xml:space="preserve" text-anchor="start" x="455" y="-18.5" font-family="Helvetica,sans-Serif" font-size="10.00">tests/NetSphereTests</text>
<text xml:space="preserve" text-anchor="middle" x="502.62" y="-6.5" font-family="Helvetica,sans-Serif" font-size="10.00">/DeviceTests.cpp</text>
</a>
</g>
</g>
<!-- Node1&#45;&gt;Node5 -->
<g id="edge4_Node000001_Node000005" class="edge">
<title>Node1&#45;&gt;Node5</title>
<g id="a_edge4_Node000001_Node000005"><a xlink:title=" ">
<path fill="none" stroke="#63b8ff" d="M450.41,-60.51C460.96,-51.72 473.84,-40.98 484.18,-32.37"/>
<polygon fill="#63b8ff" stroke="#63b8ff" points="448.48,-57.57 443.04,-66.66 452.96,-62.94 448.48,-57.57"/>
</a>
</g>
</g>
<!-- Node6 -->
<g id="Node000006" class="node">
<title>Node6</title>
<g id="a_Node000006"><a xlink:href="_domain_tests_8cpp.html" target="_top" xlink:title="Тесты для класса Domain проекта NetSphere.">
<polygon fill="white" stroke="#666666" points="687.25,-32 576,-32 576,0 687.25,0 687.25,-32"/>
<text xml:space="preserve" text-anchor="start" x="584" y="-18.5" font-family="Helvetica,sans-Serif" font-size="10.00">tests/NetSphereTests</text>
<text xml:space="preserve" text-anchor="middle" x="631.62" y="-6.5" font-family="Helvetica,sans-Serif" font-size="10.00">/DomainTests.cpp</text>
</a>
</g>
</g>
<!-- Node1&#45;&gt;Node6 -->
<g id="edge5_Node000001_Node000006" class="edge">
<title>Node1&#45;&gt;Node6</title>
<g id="a_edge5_Node000001_Node000006"><a xlink:title=" ">
<path fill="none" stroke="#63b8ff" d="M472.95,-64.37C504.07,-55.08 546.56,-42.39 579.73,-32.49"/>
<polygon fill="#63b8ff" stroke="#63b8ff" points="472.06,-60.98 463.48,-67.19 474.06,-67.69 472.06,-60.98"/>
</a>
</g>
</g>
<!-- Node7 -->
<g id="Node000007" class="node">
<title>Node7</title>
<g id="a_Node000007"><a xlink:href="_workstation_printer_tests_8cpp.html" target="_top" xlink:title="Тесты для классов Workstation и Printer.">
<polygon fill="white" stroke="#666666" points="847.62,-32 705.62,-32 705.62,0 847.62,0 847.62,-32"/>
<text xml:space="preserve" text-anchor="start" x="713.62" y="-18.5" font-family="Helvetica,sans-Serif" font-size="10.00">tests/NetSphereTests</text>
<text xml:space="preserve" text-anchor="middle" x="776.62" y="-6.5" font-family="Helvetica,sans-Serif" font-size="10.00">/WorkstationPrinterTests.cpp</text>
</a>
</g>
</g>
<!-- Node1&#45;&gt;Node7 -->
<g id="edge6_Node000001_Node000007" class="edge">
<title>Node1&#45;&gt;Node7</title>
<g id="a_edge6_Node000001_Node000007"><a xlink:title=" ">
<path fill="none" stroke="#63b8ff" d="M499.64,-65.67C553.37,-56.77 629.79,-43.92 696.62,-32 699.55,-31.48 702.53,-30.94 705.54,-30.4"/>
<polygon fill="#63b8ff" stroke="#63b8ff" points="499.32,-62.17 490.03,-67.26 500.46,-69.08 499.32,-62.17"/>
</a>
</g>
</g>
</g>
</svg>
