<?xml version="1.0" encoding="UTF-8" standalone="no"?>
<!DOCTYPE svg PUBLIC "-//W3C//DTD SVG 1.1//EN"
 "http://www.w3.org/Graphics/SVG/1.1/DTD/svg11.dtd">
<!-- Generated by graphviz version 14.0.1 (20251006.0113)
 -->
<!-- Title: src/NetSphere/Workstation.h Pages: 1 -->
<!--zoomable 96 -->

<svg id="main" version="1.1" xmlns="http://www.w3.org/2000/svg" xmlns:xlink="http://www.w3.org/1999/xlink" xml:space="preserve" onload="init(evt)">

<style type="text/css"><![CDATA[
.node, .edge {opacity: 0.7;}
.node.selected, .edge.selected {opacity: 1;}
.edge:hover path { stroke: red; }
.edge:hover polygon { stroke: red; fill: red; }
]]></style>

<defs>
  <circle id="rim" cx="0" cy="0" r="7"/>
  <circle id="rim2" cx="0" cy="0" r="3.5"/>
  <g id="zoomPlus">
    <use xlink:href="#rim" fill="#404040"><set attributeName="fill" to="#808080" begin="zoomplus.mouseover" end="zoomplus.mouseout"/></use>
    <path d="M-4,0h8M0,-4v8" fill="none" stroke="white" stroke-width="1.5" pointer-events="none"/>
  </g>
  <g id="zoomMin">
    <use xlink:href="#rim" fill="#404040"><set attributeName="fill" to="#808080" begin="zoomminus.mouseover" end="zoomminus.mouseout"/></use>
    <path d="M-4,0h8" fill="none" stroke="white" stroke-width="1.5" pointer-events="none"/>
  </g>
  <g id="arrowUp" transform="translate(30 24)">
    <use xlink:href="#rim"/>
    <path pointer-events="none" fill="none" stroke="white" stroke-width="1.5" d="M0,-3.0v7 M-2.5,-0.5L0,-3.0L2.5,-0.5"/>
  </g>
  <g id="arrowRight" transform="rotate(90) translate(36 -43)">
    <use xlink:href="#rim"/>
    <path pointer-events="none" fill="none" stroke="white" stroke-width="1.5" d="M0,-3.0v7 M-2.5,-0.5L0,-3.0L2.5,-0.5"/>
  </g>
  <g id="arrowDown" transform="rotate(180) translate(-30 -48)">
    <use xlink:href="#rim"/>
    <path pointer-events="none" fill="none" stroke="white" stroke-width="1.5" d="M0,-3.0v7 M-2.5,-0.5L0,-3.0L2.5,-0.5"/>
  </g>
  <g id="arrowLeft" transform="rotate(270) translate(-36 17)">
    <use xlink:href="#rim"/>
    <path pointer-events="none" fill="none" stroke="white" stroke-width="1.5" d="M0,-3.0v7 M-2.5,-0.5L0,-3.0L2.5,-0.5"/>
  </g>
  <g id="resetDef">
    <use xlink:href="#rim2" fill="#404040"><set attributeName="fill" to="#808080" begin="reset.mouseover" end="reset.mouseout"/></use>
  </g>
</defs>
<script type="application/ecmascript">
var viewWidth = 1193;
var viewHeight = 96;
var sectionId = 'dynsection-1';
</script>
<script type="application/ecmascript" xlink:href="svg.min.js"/>
<svg id="graph" class="graph">
<g id="viewport">
<title>src/NetSphere/Workstation.h</title>
<!-- Node1 -->
<g id="Node000001" class="node">
<title>Node1</title>
<g id="a_Node000001"><a xlink:title="Заголовочный файл класса Workstation &#45; рабочей станции пользователя.">
<polygon fill="#999999" stroke="#666666" points="704.25,-88 562.25,-88 562.25,-68 704.25,-68 704.25,-88"/>
<text xml:space="preserve" text-anchor="middle" x="633.25" y="-74.5" font-family="Helvetica,sans-Serif" font-size="10.00">src/NetSphere/Workstation.h</text>
</a>
</g>
</g>
<!-- Node2 -->
<g id="Node000002" class="node">
<title>Node2</title>
<g id="a_Node000002"><a xlink:href="_workstation_8cpp.html" target="_top" xlink:title="Реализация класса Workstation &#45; рабочей станции пользователя.">
<polygon fill="white" stroke="#666666" points="152.5,-26 0,-26 0,-6 152.5,-6 152.5,-26"/>
<text xml:space="preserve" text-anchor="middle" x="76.25" y="-12.5" font-family="Helvetica,sans-Serif" font-size="10.00">src/NetSphere/Workstation.cpp</text>
</a>
</g>
</g>
<!-- Node1&#45;&gt;Node2 -->
<g id="edge1_Node000001_Node000002" class="edge">
<title>Node1&#45;&gt;Node2</title>
<g id="a_edge1_Node000001_Node000002"><a xlink:title=" ">
<path fill="none" stroke="#63b8ff" d="M550.41,-71.11C455.97,-63.93 297.11,-50.43 161.25,-32 149.82,-30.45 137.57,-28.47 126.04,-26.47"/>
<polygon fill="#63b8ff" stroke="#63b8ff" points="550.13,-74.6 560.37,-71.86 550.66,-67.62 550.13,-74.6"/>
</a>
</g>
</g>
<!-- Node3 -->
<g id="Node000003" class="node">
<title>Node3</title>
<g id="a_Node000003"><a xlink:href="main_8cpp.html" target="_top" xlink:title="Главная функция приложения NetSphere.">
<polygon fill="white" stroke="#666666" points="292.12,-26 170.38,-26 170.38,-6 292.12,-6 292.12,-26"/>
<text xml:space="preserve" text-anchor="middle" x="231.25" y="-12.5" font-family="Helvetica,sans-Serif" font-size="10.00">src/NetSphere/main.cpp</text>
</a>
</g>
</g>
<!-- Node1&#45;&gt;Node3 -->
<g id="edge2_Node000001_Node000003" class="edge">
<title>Node1&#45;&gt;Node3</title>
<g id="a_edge2_Node000001_Node000003"><a xlink:title=" ">
<path fill="none" stroke="#63b8ff" d="M550.39,-67.55C483.06,-59.45 385.75,-46.76 301.25,-32 292.07,-30.4 282.26,-28.44 272.98,-26.49"/>
<polygon fill="#63b8ff" stroke="#63b8ff" points="549.92,-71.02 560.26,-68.73 550.75,-64.07 549.92,-71.02"/>
</a>
</g>
</g>
<!-- Node4 -->
<g id="Node000004" class="node">
<title>Node4</title>
<g id="a_Node000004"><a xlink:href="_corporate_network_error_tests_8cpp.html" target="_top" xlink:title="Тесты для обработки ошибок в классе CorporateNetwork.">
<polygon fill="white" stroke="#666666" points="472.38,-32 310.12,-32 310.12,0 472.38,0 472.38,-32"/>
<text xml:space="preserve" text-anchor="start" x="318.12" y="-18.5" font-family="Helvetica,sans-Serif" font-size="10.00">tests/NetSphereTests</text>
<text xml:space="preserve" text-anchor="middle" x="391.25" y="-6.5" font-family="Helvetica,sans-Serif" font-size="10.00">/CorporateNetworkErrorTests.cpp</text>
</a>
</g>
</g>
<!-- Node1&#45;&gt;Node4 -->
<g id="edge3_Node000001_Node000004" class="edge">
<title>Node1&#45;&gt;Node4</title>
<g id="a_edge3_Node000001_Node000004"><a xlink:title=" ">
<path fill="none" stroke="#63b8ff" d="M584.46,-64.9C546.77,-55.56 494.33,-42.56 453.59,-32.46"/>
<polygon fill="#63b8ff" stroke="#63b8ff" points="583.15,-68.19 593.7,-67.19 584.84,-61.39 583.15,-68.19"/>
</a>
</g>
</g>
<!-- Node5 -->
<g id="Node000005" class="node">
<title>Node5</title>
<g id="a_Node000005"><a xlink:href="_corporate_network_tests_8cpp.html" target="_top" xlink:title="Тесты для класса CorporateNetwork проекта NetSphere.">
<polygon fill="white" stroke="#666666" points="631.88,-32 490.62,-32 490.62,0 631.88,0 631.88,-32"/>
<text xml:space="preserve" text-anchor="start" x="498.62" y="-18.5" font-family="Helvetica,sans-Serif" font-size="10.00">tests/NetSphereTests</text>
<text xml:space="preserve" text-anchor="middle" x="561.25" y="-6.5" font-family="Helvetica,sans-Serif" font-size="10.00">/CorporateNetworkTests.cpp</text>
</a>
</g>
</g>
<!-- Node1&#45;&gt;Node5 -->
<g id="edge4_Node000001_Node000005" class="edge">
<title>Node1&#45;&gt;Node5</title>
<g id="a_edge4_Node000001_Node000005"><a xlink:title=" ">
<path fill="none" stroke="#63b8ff" d="M613.46,-60.51C602.92,-51.72 590.03,-40.98 579.7,-32.37"/>
<polygon fill="#63b8ff" stroke="#63b8ff" points="610.91,-62.94 620.84,-66.66 615.4,-57.57 610.91,-62.94"/>
</a>
</g>
</g>
<!-- Node6 -->
<g id="Node000006" class="node">
<title>Node6</title>
<g id="a_Node000006"><a xlink:href="_device_tests_8cpp.html" target="_top" xlink:title="Тесты для базового класса Device и его наследников.">
<polygon fill="white" stroke="#666666" points="760.88,-32 649.62,-32 649.62,0 760.88,0 760.88,-32"/>
<text xml:space="preserve" text-anchor="start" x="657.62" y="-18.5" font-family="Helvetica,sans-Serif" font-size="10.00">tests/NetSphereTests</text>
<text xml:space="preserve" text-anchor="middle" x="705.25" y="-6.5" font-family="Helvetica,sans-Serif" font-size="10.00">/DeviceTests.cpp</text>
</a>
</g>
</g>
<!-- Node1&#45;&gt;Node6 -->
<g id="edge5_Node000001_Node000006" class="edge">
<title>Node1&#45;&gt;Node6</title>
<g id="a_edge5_Node000001_Node000006"><a xlink:title=" ">
<path fill="none" stroke="#63b8ff" d="M653.04,-60.51C663.58,-51.72 676.47,-40.98 686.8,-32.37"/>
<polygon fill="#63b8ff" stroke="#63b8ff" points="651.1,-57.57 645.66,-66.66 655.59,-62.94 651.1,-57.57"/>
</a>
</g>
</g>
<!-- Node7 -->
<g id="Node000007" class="node">
<title>Node7</title>
<g id="a_Node000007"><a xlink:href="_domain_error_tests_8cpp.html" target="_top" xlink:title="Тесты для обработки ошибок в классе Domain.">
<polygon fill="white" stroke="#666666" points="895.5,-32 779,-32 779,0 895.5,0 895.5,-32"/>
<text xml:space="preserve" text-anchor="start" x="787" y="-18.5" font-family="Helvetica,sans-Serif" font-size="10.00">tests/NetSphereTests</text>
<text xml:space="preserve" text-anchor="middle" x="837.25" y="-6.5" font-family="Helvetica,sans-Serif" font-size="10.00">/DomainErrorTests.cpp</text>
</a>
</g>
</g>
<!-- Node1&#45;&gt;Node7 -->
<g id="edge6_Node000001_Node000007" class="edge">
<title>Node1&#45;&gt;Node7</title>
<g id="a_edge6_Node000001_Node000007"><a xlink:title=" ">
<path fill="none" stroke="#63b8ff" d="M675.79,-64.49C707.42,-55.19 750.76,-42.44 784.58,-32.49"/>
<polygon fill="#63b8ff" stroke="#63b8ff" points="675.18,-61.02 666.58,-67.2 677.16,-67.73 675.18,-61.02"/>
</a>
</g>
</g>
<!-- Node8 -->
<g id="Node000008" class="node">
<title>Node8</title>
<g id="a_Node000008"><a xlink:href="_domain_tests_8cpp.html" target="_top" xlink:title="Тесты для класса Domain проекта NetSphere.">
<polygon fill="white" stroke="#666666" points="1024.88,-32 913.62,-32 913.62,0 1024.88,0 1024.88,-32"/>
<text xml:space="preserve" text-anchor="start" x="921.62" y="-18.5" font-family="Helvetica,sans-Serif" font-size="10.00">tests/NetSphereTests</text>
<text xml:space="preserve" text-anchor="middle" x="969.25" y="-6.5" font-family="Helvetica,sans-Serif" font-size="10.00">/DomainTests.cpp</text>
</a>
</g>
</g>
<!-- Node1&#45;&gt;Node8 -->
<g id="edge7_Node000001_Node000008" class="edge">
<title>Node1&#45;&gt;Node8</title>
<g id="a_edge7_Node000001_Node000008"><a xlink:title=" ">
<path fill="none" stroke="#63b8ff" d="M708.55,-65.78C763.05,-57.35 838.41,-45.05 904.25,-32 907.2,-31.41 910.23,-30.79 913.28,-30.15"/>
<polygon fill="#63b8ff" stroke="#63b8ff" points="708.09,-62.31 698.74,-67.29 709.16,-69.23 708.09,-62.31"/>
</a>
</g>
</g>
<!-- Node9 -->
<g id="Node000009" class="node">
<title>Node9</title>
<g id="a_Node000009"><a xlink:href="_workstation_printer_tests_8cpp.html" target="_top" xlink:title="Тесты для классов Workstation и Printer.">
<polygon fill="white" stroke="#666666" points="1185.25,-32 1043.25,-32 1043.25,0 1185.25,0 1185.25,-32"/>
<text xml:space="preserve" text-anchor="start" x="1051.25" y="-18.5" font-family="Helvetica,sans-Serif" font-size="10.00">tests/NetSphereTests</text>
<text xml:space="preserve" text-anchor="middle" x="1114.25" y="-6.5" font-family="Helvetica,sans-Serif" font-size="10.00">/WorkstationPrinterTests.cpp</text>
</a>
</g>
</g>
<!-- Node1&#45;&gt;Node9 -->
<g id="edge8_Node000001_Node000009" class="edge">
<title>Node1&#45;&gt;Node9</title>
<g id="a_edge8_Node000001_Node000009"><a xlink:title=" ">
<path fill="none" stroke="#63b8ff" d="M715.59,-69.55C796.82,-61.78 924.41,-48.44 1034.25,-32 1037.05,-31.58 1039.89,-31.14 1042.76,-30.67"/>
<polygon fill="#63b8ff" stroke="#63b8ff" points="715.57,-66.03 705.95,-70.46 716.24,-73 715.57,-66.03"/>
</a>
</g>
</g>
</g>
</svg>

<g id="navigator" transform="translate(0 0)" fill="#404254">
  <rect fill="#f2f5e9" fill-opacity="0.5" stroke="#606060" stroke-width=".5" x="0" y="0" width="60" height="60"/>
  <use id="zoomplus" xlink:href="#zoomPlus" x="17" y="9" onmousedown="handleZoom(evt,'in')"/>
  <use id="zoomminus" xlink:href="#zoomMin" x="42" y="9" onmousedown="handleZoom(evt,'out')"/>
  <use id="reset" xlink:href="#resetDef" x="30" y="36" onmousedown="handleReset()"/>
   <use id="arrowup" xlink:href="#arrowUp" x="0" y="0" onmousedown="handlePan(0,-1)"/>
  <use id="arrowright" xlink:href="#arrowRight" x="0" y="0" onmousedown="handlePan(1,0)"/>
  <use id="arrowdown" xlink:href="#arrowDown" x="0" y="0" onmousedown="handlePan(0,1)"/>
  <use id="arrowleft" xlink:href="#arrowLeft" x="0" y="0" onmousedown="handlePan(-1,0)"/>
</g>
<svg viewBox="0 0 15 15" width="100%" height="30px" preserveAspectRatio="xMaxYMin meet">
 <g id="arrow_out" transform="scale(0.3 0.3)">
  <a xlink:href="_workstation_8h__dep__incl_org.svg" target="_base">
   <rect id="button" ry="5" rx="5" y="6" x="6" height="38" width="38"
        fill="#f2f5e9" fill-opacity="0.5" stroke="#606060" stroke-width="1.0"/>
   <path id="arrow"
     d="M 11.500037,31.436501 C 11.940474,20.09759 22.043105,11.32322 32.158766,21.979434 L 37.068811,17.246167 C 37.068811,17.246167 37.088388,32 37.088388,32 L 22.160133,31.978069 C 22.160133,31.978069 26.997745,27.140456 26.997745,27.140456 C 18.528582,18.264221 13.291696,25.230495 11.500037,31.436501 z"
     style="fill:#404040;"/>
  </a>
 </g>
</svg>

<style type='text/css'>
<![CDATA[
[data-mouse-over-selected='false'] { opacity: 0.7; }
[data-mouse-over-selected='true']  { opacity: 1.0; }
]]>
</style>
<script type="application/ecmascript"><![CDATA[
document.addEventListener('DOMContentLoaded', (event) => {
  highlightEdges();
  highlightAdjacentNodes();
});
]]></script>
</svg>
