<?xml version="1.0" encoding="UTF-8" standalone="no"?>
<!DOCTYPE svg PUBLIC "-//W3C//DTD SVG 1.1//EN"
 "http://www.w3.org/Graphics/SVG/1.1/DTD/svg11.dtd">
<!-- Generated by graphviz version 14.0.1 (20251006.0113)
 -->
<!-- Title: src/NetSphere/Workstation.cpp Pages: 1 -->
<svg width="547pt" height="252pt"
 viewBox="0.00 0.00 547.00 252.00" xmlns="http://www.w3.org/2000/svg" xmlns:xlink="http://www.w3.org/1999/xlink">
<g id="graph0" class="graph" transform="scale(1 1) rotate(0) translate(4 248)">
<title>src/NetSphere/Workstation.cpp</title>
<!-- Node1 -->
<g id="Node000001" class="node">
<title>Node1</title>
<g id="a_Node000001"><a xlink:title="Реализация класса Workstation &#45; рабочей станции пользователя.">
<polygon fill="#999999" stroke="#666666" points="468,-244 315.5,-244 315.5,-224 468,-224 468,-244"/>
<text xml:space="preserve" text-anchor="middle" x="391.75" y="-230.5" font-family="Helvetica,sans-Serif" font-size="10.00">src/NetSphere/Workstation.cpp</text>
</a>
</g>
</g>
<!-- Node2 -->
<g id="Node000002" class="node">
<title>Node2</title>
<g id="a_Node000002"><a xlink:href="_workstation_8h.html" target="_top" xlink:title="Заголовочный файл класса Workstation &#45; рабочей станции пользователя.">
<polygon fill="white" stroke="#666666" points="359.75,-188 283.75,-188 283.75,-168 359.75,-168 359.75,-188"/>
<text xml:space="preserve" text-anchor="middle" x="321.75" y="-174.5" font-family="Helvetica,sans-Serif" font-size="10.00">Workstation.h</text>
</a>
</g>
</g>
<!-- Node1&#45;&gt;Node2 -->
<g id="edge1_Node000001_Node000002" class="edge">
<title>Node1&#45;&gt;Node2</title>
<g id="a_edge1_Node000001_Node000002"><a xlink:title=" ">
<path fill="none" stroke="#63b8ff" d="M379.56,-223.59C369.42,-215.77 354.76,-204.46 342.74,-195.19"/>
<polygon fill="#63b8ff" stroke="#63b8ff" points="345.06,-192.56 335,-189.22 340.78,-198.1 345.06,-192.56"/>
</a>
</g>
</g>
<!-- Node5 -->
<g id="Node000005" class="node">
<title>Node5</title>
<g id="a_Node000005"><a xlink:title=" ">
<polygon fill="#e0e0e0" stroke="#999999" points="53.5,-20 0,-20 0,0 53.5,0 53.5,-20"/>
<text xml:space="preserve" text-anchor="middle" x="26.75" y="-6.5" font-family="Helvetica,sans-Serif" font-size="10.00">iostream</text>
</a>
</g>
</g>
<!-- Node1&#45;&gt;Node5 -->
<g id="edge13_Node000001_Node000005" class="edge">
<title>Node1&#45;&gt;Node5</title>
<g id="a_edge13_Node000001_Node000005"><a xlink:title=" ">
<path fill="none" stroke="#63b8ff" d="M336.68,-223.56C259.55,-207.38 120.34,-166.86 44.75,-76 34.32,-63.46 29.91,-45.31 28.06,-31.38"/>
<polygon fill="#63b8ff" stroke="#63b8ff" points="31.55,-31.18 27.12,-21.55 24.58,-31.84 31.55,-31.18"/>
</a>
</g>
</g>
<!-- Node9 -->
<g id="Node000009" class="node">
<title>Node9</title>
<g id="a_Node000009"><a xlink:title=" ">
<polygon fill="#e0e0e0" stroke="#999999" points="350.12,-20 291.38,-20 291.38,0 350.12,0 350.12,-20"/>
<text xml:space="preserve" text-anchor="middle" x="320.75" y="-6.5" font-family="Helvetica,sans-Serif" font-size="10.00">stdexcept</text>
</a>
</g>
</g>
<!-- Node1&#45;&gt;Node9 -->
<g id="edge16_Node000001_Node000009" class="edge">
<title>Node1&#45;&gt;Node9</title>
<g id="a_edge16_Node000001_Node000009"><a xlink:title=" ">
<path fill="none" stroke="#63b8ff" d="M393,-223.87C396.29,-196.55 402.99,-113.78 372.75,-56 366.62,-44.3 356.08,-34.3 346.08,-26.73"/>
<polygon fill="#63b8ff" stroke="#63b8ff" points="348.26,-23.98 338.06,-21.1 344.24,-29.71 348.26,-23.98"/>
</a>
</g>
</g>
<!-- Node12 -->
<g id="Node000012" class="node">
<title>Node12</title>
<g id="a_Node000012"><a xlink:title=" ">
<polygon fill="#e0e0e0" stroke="#999999" points="469.62,-188 419.88,-188 419.88,-168 469.62,-168 469.62,-188"/>
<text xml:space="preserve" text-anchor="middle" x="444.75" y="-174.5" font-family="Helvetica,sans-Serif" font-size="10.00">iomanip</text>
</a>
</g>
</g>
<!-- Node1&#45;&gt;Node12 -->
<g id="edge14_Node000001_Node000012" class="edge">
<title>Node1&#45;&gt;Node12</title>
<g id="a_edge14_Node000001_Node000012"><a xlink:title=" ">
<path fill="none" stroke="#63b8ff" d="M400.98,-223.59C408.35,-216.08 418.88,-205.35 427.77,-196.3"/>
<polygon fill="#63b8ff" stroke="#63b8ff" points="430.06,-198.97 434.56,-189.38 425.06,-194.06 430.06,-198.97"/>
</a>
</g>
</g>
<!-- Node13 -->
<g id="Node000013" class="node">
<title>Node13</title>
<g id="a_Node000013"><a xlink:title=" ">
<polygon fill="#e0e0e0" stroke="#999999" points="539.38,-188 488.12,-188 488.12,-168 539.38,-168 539.38,-188"/>
<text xml:space="preserve" text-anchor="middle" x="513.75" y="-174.5" font-family="Helvetica,sans-Serif" font-size="10.00">sstream</text>
</a>
</g>
</g>
<!-- Node1&#45;&gt;Node13 -->
<g id="edge15_Node000001_Node000013" class="edge">
<title>Node1&#45;&gt;Node13</title>
<g id="a_edge15_Node000001_Node000013"><a xlink:title=" ">
<path fill="none" stroke="#63b8ff" d="M413,-223.59C432.04,-215.17 460.23,-202.69 481.95,-193.07"/>
<polygon fill="#63b8ff" stroke="#63b8ff" points="483.22,-196.34 490.95,-189.09 480.39,-189.94 483.22,-196.34"/>
</a>
</g>
</g>
<!-- Node3 -->
<g id="Node000003" class="node">
<title>Node3</title>
<g id="a_Node000003"><a xlink:href="_device_8h.html" target="_top" xlink:title="Заголовочный файл базового класса Device для всех устройств сети.">
<polygon fill="white" stroke="#666666" points="278.25,-132 223.25,-132 223.25,-112 278.25,-112 278.25,-132"/>
<text xml:space="preserve" text-anchor="middle" x="250.75" y="-118.5" font-family="Helvetica,sans-Serif" font-size="10.00">Device.h</text>
</a>
</g>
</g>
<!-- Node2&#45;&gt;Node3 -->
<g id="edge2_Node000002_Node000003" class="edge">
<title>Node2&#45;&gt;Node3</title>
<g id="a_edge2_Node000002_Node000003"><a xlink:title=" ">
<path fill="none" stroke="#63b8ff" d="M309.38,-167.59C299.1,-159.77 284.23,-148.46 272.04,-139.19"/>
<polygon fill="#63b8ff" stroke="#63b8ff" points="274.26,-136.48 264.18,-133.21 270.02,-142.05 274.26,-136.48"/>
</a>
</g>
</g>
<!-- Node11 -->
<g id="Node000011" class="node">
<title>Node11</title>
<g id="a_Node000011"><a xlink:title=" ">
<polygon fill="#e0e0e0" stroke="#999999" points="341.75,-132 301.75,-132 301.75,-112 341.75,-112 341.75,-132"/>
<text xml:space="preserve" text-anchor="middle" x="321.75" y="-118.5" font-family="Helvetica,sans-Serif" font-size="10.00">ctime</text>
</a>
</g>
</g>
<!-- Node2&#45;&gt;Node11 -->
<g id="edge12_Node000002_Node000011" class="edge">
<title>Node2&#45;&gt;Node11</title>
<g id="a_edge12_Node000002_Node000011"><a xlink:title=" ">
<path fill="none" stroke="#63b8ff" d="M321.75,-167.59C321.75,-161.01 321.75,-151.96 321.75,-143.73"/>
<polygon fill="#63b8ff" stroke="#63b8ff" points="325.25,-143.81 321.75,-133.81 318.25,-143.81 325.25,-143.81"/>
</a>
</g>
</g>
<!-- Node4 -->
<g id="Node000004" class="node">
<title>Node4</title>
<g id="a_Node000004"><a xlink:href="_network_entity_8h.html" target="_top" xlink:title="Заголовочный файл базового класса NetworkEntity для всех сущностей сети.">
<polygon fill="white" stroke="#666666" points="139.62,-76 53.88,-76 53.88,-56 139.62,-56 139.62,-76"/>
<text xml:space="preserve" text-anchor="middle" x="96.75" y="-62.5" font-family="Helvetica,sans-Serif" font-size="10.00">NetworkEntity.h</text>
</a>
</g>
</g>
<!-- Node3&#45;&gt;Node4 -->
<g id="edge3_Node000003_Node000004" class="edge">
<title>Node3&#45;&gt;Node4</title>
<g id="a_edge3_Node000003_Node000004"><a xlink:title=" ">
<path fill="none" stroke="#63b8ff" d="M223.93,-111.59C199.12,-102.9 162.02,-89.89 134.28,-80.16"/>
<polygon fill="#63b8ff" stroke="#63b8ff" points="135.81,-76.99 125.21,-76.98 133.49,-83.59 135.81,-76.99"/>
</a>
</g>
</g>
<!-- Node6 -->
<g id="Node000006" class="node">
<title>Node6</title>
<g id="a_Node000006"><a xlink:title=" ">
<polygon fill="#e0e0e0" stroke="#999999" points="187.75,-20 147.75,-20 147.75,0 187.75,0 187.75,-20"/>
<text xml:space="preserve" text-anchor="middle" x="167.75" y="-6.5" font-family="Helvetica,sans-Serif" font-size="10.00">string</text>
</a>
</g>
</g>
<!-- Node3&#45;&gt;Node6 -->
<g id="edge10_Node000003_Node000006" class="edge">
<title>Node3&#45;&gt;Node6</title>
<g id="a_edge10_Node000003_Node000006"><a xlink:title=" ">
<path fill="none" stroke="#63b8ff" d="M230.66,-111.51C216.44,-103.81 197.98,-91.68 186.75,-76 177.32,-62.82 172.54,-45 170.13,-31.35"/>
<polygon fill="#63b8ff" stroke="#63b8ff" points="173.64,-31.13 168.74,-21.73 166.71,-32.13 173.64,-31.13"/>
</a>
</g>
</g>
<!-- Node8 -->
<g id="Node000008" class="node">
<title>Node8</title>
<g id="a_Node000008"><a xlink:href="_network_exceptions_8h.html" target="_top" xlink:title="Заголовочный файл с классами исключений для корпоративной сети.">
<polygon fill="white" stroke="#666666" points="305.62,-76 195.88,-76 195.88,-56 305.62,-56 305.62,-76"/>
<text xml:space="preserve" text-anchor="middle" x="250.75" y="-62.5" font-family="Helvetica,sans-Serif" font-size="10.00">NetworkExceptions.h</text>
</a>
</g>
</g>
<!-- Node3&#45;&gt;Node8 -->
<g id="edge7_Node000003_Node000008" class="edge">
<title>Node3&#45;&gt;Node8</title>
<g id="a_edge7_Node000003_Node000008"><a xlink:title=" ">
<path fill="none" stroke="#63b8ff" d="M250.75,-111.59C250.75,-105.01 250.75,-95.96 250.75,-87.73"/>
<polygon fill="#63b8ff" stroke="#63b8ff" points="254.25,-87.81 250.75,-77.81 247.25,-87.81 254.25,-87.81"/>
</a>
</g>
</g>
<!-- Node10 -->
<g id="Node000010" class="node">
<title>Node10</title>
<g id="a_Node000010"><a xlink:title=" ">
<polygon fill="#e0e0e0" stroke="#999999" points="363.75,-76 323.75,-76 323.75,-56 363.75,-56 363.75,-76"/>
<text xml:space="preserve" text-anchor="middle" x="343.75" y="-62.5" font-family="Helvetica,sans-Serif" font-size="10.00">regex</text>
</a>
</g>
</g>
<!-- Node3&#45;&gt;Node10 -->
<g id="edge11_Node000003_Node000010" class="edge">
<title>Node3&#45;&gt;Node10</title>
<g id="a_edge11_Node000003_Node000010"><a xlink:title=" ">
<path fill="none" stroke="#63b8ff" d="M266.95,-111.59C281,-103.44 301.58,-91.48 317.91,-82"/>
<polygon fill="#63b8ff" stroke="#63b8ff" points="319.22,-85.29 326.12,-77.24 315.71,-79.23 319.22,-85.29"/>
</a>
</g>
</g>
<!-- Node4&#45;&gt;Node5 -->
<g id="edge4_Node000004_Node000005" class="edge">
<title>Node4&#45;&gt;Node5</title>
<g id="a_edge4_Node000004_Node000005"><a xlink:title=" ">
<path fill="none" stroke="#63b8ff" d="M84.56,-55.59C74.42,-47.77 59.76,-36.46 47.74,-27.19"/>
<polygon fill="#63b8ff" stroke="#63b8ff" points="50.06,-24.56 40,-21.22 45.78,-30.1 50.06,-24.56"/>
</a>
</g>
</g>
<!-- Node4&#45;&gt;Node6 -->
<g id="edge5_Node000004_Node000006" class="edge">
<title>Node4&#45;&gt;Node6</title>
<g id="a_edge5_Node000004_Node000006"><a xlink:title=" ">
<path fill="none" stroke="#63b8ff" d="M109.12,-55.59C119.4,-47.77 134.27,-36.46 146.46,-27.19"/>
<polygon fill="#63b8ff" stroke="#63b8ff" points="148.48,-30.05 154.32,-21.21 144.24,-24.48 148.48,-30.05"/>
</a>
</g>
</g>
<!-- Node7 -->
<g id="Node000007" class="node">
<title>Node7</title>
<g id="a_Node000007"><a xlink:title=" ">
<polygon fill="#e0e0e0" stroke="#999999" points="122.38,-20 71.12,-20 71.12,0 122.38,0 122.38,-20"/>
<text xml:space="preserve" text-anchor="middle" x="96.75" y="-6.5" font-family="Helvetica,sans-Serif" font-size="10.00">memory</text>
</a>
</g>
</g>
<!-- Node4&#45;&gt;Node7 -->
<g id="edge6_Node000004_Node000007" class="edge">
<title>Node4&#45;&gt;Node7</title>
<g id="a_edge6_Node000004_Node000007"><a xlink:title=" ">
<path fill="none" stroke="#63b8ff" d="M96.75,-55.59C96.75,-49.01 96.75,-39.96 96.75,-31.73"/>
<polygon fill="#63b8ff" stroke="#63b8ff" points="100.25,-31.81 96.75,-21.81 93.25,-31.81 100.25,-31.81"/>
</a>
</g>
</g>
<!-- Node8&#45;&gt;Node6 -->
<g id="edge9_Node000008_Node000006" class="edge">
<title>Node8&#45;&gt;Node6</title>
<g id="a_edge9_Node000008_Node000006"><a xlink:title=" ">
<path fill="none" stroke="#63b8ff" d="M236.29,-55.59C223.99,-47.59 206.07,-35.93 191.64,-26.54"/>
<polygon fill="#63b8ff" stroke="#63b8ff" points="193.88,-23.82 183.59,-21.3 190.06,-29.69 193.88,-23.82"/>
</a>
</g>
</g>
<!-- Node8&#45;&gt;Node9 -->
<g id="edge8_Node000008_Node000009" class="edge">
<title>Node8&#45;&gt;Node9</title>
<g id="a_edge8_Node000008_Node000009"><a xlink:title=" ">
<path fill="none" stroke="#63b8ff" d="M262.94,-55.59C273.08,-47.77 287.74,-36.46 299.76,-27.19"/>
<polygon fill="#63b8ff" stroke="#63b8ff" points="301.72,-30.1 307.5,-21.22 297.44,-24.56 301.72,-30.1"/>
</a>
</g>
</g>
</g>
</svg>
