<?xml version="1.0" encoding="UTF-8" standalone="no"?>
<!DOCTYPE svg PUBLIC "-//W3C//DTD SVG 1.1//EN"
 "http://www.w3.org/Graphics/SVG/1.1/DTD/svg11.dtd">
<!-- Generated by graphviz version 14.0.1 (20251006.0113)
 -->
<!-- Title: Device Pages: 1 -->
<svg width="332pt" height="572pt"
 viewBox="0.00 0.00 332.00 572.00" xmlns="http://www.w3.org/2000/svg" xmlns:xlink="http://www.w3.org/1999/xlink">
<g id="graph0" class="graph" transform="scale(1 1) rotate(0) translate(4 568)">
<title>Device</title>
<!-- Node1 -->
<g id="Node000001" class="node">
<title>Node1</title>
<g id="a_Node000001"><a xlink:title="Абстрактный базовый класс для всех устройств корпоративной сети.">
<polygon fill="#999999" stroke="none" points="211.75,-412 104.5,-412 104.5,-296 211.75,-296 211.75,-412"/>
<text xml:space="preserve" text-anchor="start" x="142.75" y="-398.5" font-family="Helvetica,sans-Serif" font-size="10.00">Device</text>
<text xml:space="preserve" text-anchor="start" x="108.88" y="-382.5" font-family="Helvetica,sans-Serif" font-size="10.00">#</text>
<text xml:space="preserve" text-anchor="start" x="118.5" y="-382.5" font-family="Helvetica,sans-Serif" font-size="10.00">macAddress</text>
<text xml:space="preserve" text-anchor="start" x="108.5" y="-366.5" font-family="Helvetica,sans-Serif" font-size="10.00">+</text>
<text xml:space="preserve" text-anchor="start" x="118.5" y="-366.5" font-family="Helvetica,sans-Serif" font-size="10.00">Device()</text>
<text xml:space="preserve" text-anchor="start" x="108.5" y="-350.5" font-family="Helvetica,sans-Serif" font-size="10.00">+</text>
<text xml:space="preserve" text-anchor="start" x="118.5" y="-350.5" font-family="Helvetica,sans-Serif" font-size="10.00">getMacAddress()</text>
<text xml:space="preserve" text-anchor="start" x="108.5" y="-334.5" font-family="Helvetica,sans-Serif" font-size="10.00">+</text>
<text xml:space="preserve" text-anchor="start" x="118.5" y="-334.5" font-family="Helvetica,sans-Serif" font-size="10.00">getType()</text>
<text xml:space="preserve" text-anchor="start" x="108.88" y="-318.5" font-family="Helvetica,sans-Serif" font-size="10.00">#</text>
<text xml:space="preserve" text-anchor="start" x="118.5" y="-318.5" font-family="Helvetica,sans-Serif" font-size="10.00">isValidMacAddress()</text>
<text xml:space="preserve" text-anchor="start" x="108.88" y="-302.5" font-family="Helvetica,sans-Serif" font-size="10.00">#</text>
<text xml:space="preserve" text-anchor="start" x="118.5" y="-302.5" font-family="Helvetica,sans-Serif" font-size="10.00">validateId()</text>
<polygon fill="#666666" stroke="#666666" points="104.5,-394 104.5,-394 211.75,-394 211.75,-394 104.5,-394"/>
<polygon fill="#666666" stroke="#666666" points="104.5,-378 104.5,-378 116.5,-378 116.5,-378 104.5,-378"/>
<polygon fill="#666666" stroke="#666666" points="116.5,-378 116.5,-378 211.75,-378 211.75,-378 116.5,-378"/>
<polygon fill="none" stroke="#666666" points="104.5,-296 104.5,-412 211.75,-412 211.75,-296 104.5,-296"/>
</a>
</g>
</g>
<!-- Node3 -->
<g id="Node000003" class="node">
<title>Node3</title>
<g id="a_Node000003"><a xlink:href="class_data_storage.html" target="_top" xlink:title="Класс, представляющий хранилище данных в корпоративной сети компании NetSphere.">
<polygon fill="white" stroke="none" points="110.25,-260 0,-260 0,0 110.25,0 110.25,-260"/>
<text xml:space="preserve" text-anchor="start" x="27.75" y="-246.5" font-family="Helvetica,sans-Serif" font-size="10.00">DataStorage</text>
<text xml:space="preserve" text-anchor="start" x="5.5" y="-230.5" font-family="Helvetica,sans-Serif" font-size="10.00">&#45;</text>
<text xml:space="preserve" text-anchor="start" x="14" y="-230.5" font-family="Helvetica,sans-Serif" font-size="10.00">totalSizeMB</text>
<text xml:space="preserve" text-anchor="start" x="5.5" y="-214.5" font-family="Helvetica,sans-Serif" font-size="10.00">&#45;</text>
<text xml:space="preserve" text-anchor="start" x="14" y="-214.5" font-family="Helvetica,sans-Serif" font-size="10.00">usedSizeMB</text>
<text xml:space="preserve" text-anchor="start" x="5.5" y="-198.5" font-family="Helvetica,sans-Serif" font-size="10.00">&#45;</text>
<text xml:space="preserve" text-anchor="start" x="14" y="-198.5" font-family="Helvetica,sans-Serif" font-size="10.00">trustedUsers</text>
<text xml:space="preserve" text-anchor="start" x="4" y="-182.5" font-family="Helvetica,sans-Serif" font-size="10.00">+</text>
<text xml:space="preserve" text-anchor="start" x="14" y="-182.5" font-family="Helvetica,sans-Serif" font-size="10.00">DataStorage()</text>
<text xml:space="preserve" text-anchor="start" x="4" y="-166.5" font-family="Helvetica,sans-Serif" font-size="10.00">+</text>
<text xml:space="preserve" text-anchor="start" x="14" y="-166.5" font-family="Helvetica,sans-Serif" font-size="10.00">operator+=()</text>
<text xml:space="preserve" text-anchor="start" x="4" y="-150.5" font-family="Helvetica,sans-Serif" font-size="10.00">+</text>
<text xml:space="preserve" text-anchor="start" x="14" y="-150.5" font-family="Helvetica,sans-Serif" font-size="10.00">operator&#45;=()</text>
<text xml:space="preserve" text-anchor="start" x="4" y="-134.5" font-family="Helvetica,sans-Serif" font-size="10.00">+</text>
<text xml:space="preserve" text-anchor="start" x="14" y="-134.5" font-family="Helvetica,sans-Serif" font-size="10.00">operator=()</text>
<text xml:space="preserve" text-anchor="start" x="4" y="-118.5" font-family="Helvetica,sans-Serif" font-size="10.00">+</text>
<text xml:space="preserve" text-anchor="start" x="14" y="-118.5" font-family="Helvetica,sans-Serif" font-size="10.00">operator&lt;()</text>
<text xml:space="preserve" text-anchor="start" x="4" y="-102.5" font-family="Helvetica,sans-Serif" font-size="10.00">+</text>
<text xml:space="preserve" text-anchor="start" x="14" y="-102.5" font-family="Helvetica,sans-Serif" font-size="10.00">operator==()</text>
<text xml:space="preserve" text-anchor="start" x="4" y="-86.5" font-family="Helvetica,sans-Serif" font-size="10.00">+</text>
<text xml:space="preserve" text-anchor="start" x="14" y="-86.5" font-family="Helvetica,sans-Serif" font-size="10.00">operator!=()</text>
<text xml:space="preserve" text-anchor="start" x="4" y="-70.5" font-family="Helvetica,sans-Serif" font-size="10.00">+</text>
<text xml:space="preserve" text-anchor="start" x="14" y="-70.5" font-family="Helvetica,sans-Serif" font-size="10.00">addTrustedUser()</text>
<text xml:space="preserve" text-anchor="start" x="4" y="-54.5" font-family="Helvetica,sans-Serif" font-size="10.00">+</text>
<text xml:space="preserve" text-anchor="start" x="14" y="-54.5" font-family="Helvetica,sans-Serif" font-size="10.00">removeTrustedUser()</text>
<text xml:space="preserve" text-anchor="start" x="4" y="-38.5" font-family="Helvetica,sans-Serif" font-size="10.00">+</text>
<text xml:space="preserve" text-anchor="start" x="14" y="-38.5" font-family="Helvetica,sans-Serif" font-size="10.00">isUserTrusted()</text>
<text xml:space="preserve" text-anchor="start" x="14" y="-22.5" font-family="Helvetica,sans-Serif" font-size="10.00">и 6 больше...</text>
<text xml:space="preserve" text-anchor="start" x="5.5" y="-6.5" font-family="Helvetica,sans-Serif" font-size="10.00">&#45;</text>
<text xml:space="preserve" text-anchor="start" x="14" y="-6.5" font-family="Helvetica,sans-Serif" font-size="10.00">validateSize()</text>
<polygon fill="#666666" stroke="#666666" points="0,-242 0,-242 110.25,-242 110.25,-242 0,-242"/>
<polygon fill="#666666" stroke="#666666" points="0,-194 0,-194 12,-194 12,-194 0,-194"/>
<polygon fill="#666666" stroke="#666666" points="12,-194 12,-194 110.25,-194 110.25,-194 12,-194"/>
<polygon fill="none" stroke="#666666" points="0,0 0,-260 110.25,-260 110.25,0 0,0"/>
</a>
</g>
</g>
<!-- Node1&#45;&gt;Node3 -->
<g id="edge2_Node000001_Node000003" class="edge">
<title>Node1&#45;&gt;Node3</title>
<g id="a_edge2_Node000001_Node000003"><a xlink:title=" ">
<path fill="none" stroke="#63b8ff" d="M126.93,-285.75C121.57,-274.22 115.87,-261.94 110.12,-249.53"/>
<polygon fill="none" stroke="#63b8ff" points="123.71,-287.15 131.1,-294.74 130.06,-284.2 123.71,-287.15"/>
</a>
</g>
</g>
<!-- Node4 -->
<g id="Node000004" class="node">
<title>Node4</title>
<g id="a_Node000004"><a xlink:href="class_printer.html" target="_top" xlink:title="Класс, представляющий сетевой принтер в корпоративной сети.">
<polygon fill="white" stroke="none" points="187.75,-172 128.5,-172 128.5,-88 187.75,-88 187.75,-172"/>
<text xml:space="preserve" text-anchor="start" x="143.88" y="-158.5" font-family="Helvetica,sans-Serif" font-size="10.00">Printer</text>
<text xml:space="preserve" text-anchor="start" x="156.62" y="-142.5" font-family="Helvetica,sans-Serif" font-size="10.00"> </text>
<text xml:space="preserve" text-anchor="start" x="132.5" y="-126.5" font-family="Helvetica,sans-Serif" font-size="10.00">+</text>
<text xml:space="preserve" text-anchor="start" x="142.5" y="-126.5" font-family="Helvetica,sans-Serif" font-size="10.00">Printer()</text>
<text xml:space="preserve" text-anchor="start" x="132.5" y="-110.5" font-family="Helvetica,sans-Serif" font-size="10.00">+</text>
<text xml:space="preserve" text-anchor="start" x="142.5" y="-110.5" font-family="Helvetica,sans-Serif" font-size="10.00">printInfo()</text>
<text xml:space="preserve" text-anchor="start" x="132.5" y="-94.5" font-family="Helvetica,sans-Serif" font-size="10.00">+</text>
<text xml:space="preserve" text-anchor="start" x="142.5" y="-94.5" font-family="Helvetica,sans-Serif" font-size="10.00">getType()</text>
<polygon fill="#666666" stroke="#666666" points="128.5,-154 128.5,-154 187.75,-154 187.75,-154 128.5,-154"/>
<polygon fill="#666666" stroke="#666666" points="128.5,-138 128.5,-138 187.75,-138 187.75,-138 128.5,-138"/>
<polygon fill="none" stroke="#666666" points="128.5,-88 128.5,-172 187.75,-172 187.75,-88 128.5,-88"/>
</a>
</g>
</g>
<!-- Node1&#45;&gt;Node4 -->
<g id="edge3_Node000001_Node000004" class="edge">
<title>Node1&#45;&gt;Node4</title>
<g id="a_edge3_Node000001_Node000004"><a xlink:title=" ">
<path fill="none" stroke="#63b8ff" d="M158.12,-284.92C158.12,-247.99 158.12,-203.57 158.12,-171.97"/>
<polygon fill="none" stroke="#63b8ff" points="154.63,-284.6 158.13,-294.6 161.63,-284.6 154.63,-284.6"/>
</a>
</g>
</g>
<!-- Node5 -->
<g id="Node000005" class="node">
<title>Node5</title>
<g id="a_Node000005"><a xlink:href="class_workstation.html" target="_top" xlink:title="Класс, представляющий рабочую станцию пользователя в корпоративной сети.">
<polygon fill="white" stroke="none" points="324.38,-212 205.88,-212 205.88,-48 324.38,-48 324.38,-212"/>
<text xml:space="preserve" text-anchor="start" x="239.25" y="-198.5" font-family="Helvetica,sans-Serif" font-size="10.00">Workstation</text>
<text xml:space="preserve" text-anchor="start" x="211.38" y="-182.5" font-family="Helvetica,sans-Serif" font-size="10.00">&#45;</text>
<text xml:space="preserve" text-anchor="start" x="219.88" y="-182.5" font-family="Helvetica,sans-Serif" font-size="10.00">userId</text>
<text xml:space="preserve" text-anchor="start" x="211.38" y="-166.5" font-family="Helvetica,sans-Serif" font-size="10.00">&#45;</text>
<text xml:space="preserve" text-anchor="start" x="219.88" y="-166.5" font-family="Helvetica,sans-Serif" font-size="10.00">lastPowerOnTime</text>
<text xml:space="preserve" text-anchor="start" x="209.88" y="-150.5" font-family="Helvetica,sans-Serif" font-size="10.00">+</text>
<text xml:space="preserve" text-anchor="start" x="219.88" y="-150.5" font-family="Helvetica,sans-Serif" font-size="10.00">Workstation()</text>
<text xml:space="preserve" text-anchor="start" x="209.88" y="-134.5" font-family="Helvetica,sans-Serif" font-size="10.00">+</text>
<text xml:space="preserve" text-anchor="start" x="219.88" y="-134.5" font-family="Helvetica,sans-Serif" font-size="10.00">getUserId()</text>
<text xml:space="preserve" text-anchor="start" x="209.88" y="-118.5" font-family="Helvetica,sans-Serif" font-size="10.00">+</text>
<text xml:space="preserve" text-anchor="start" x="219.88" y="-118.5" font-family="Helvetica,sans-Serif" font-size="10.00">getLastPowerOnTime()</text>
<text xml:space="preserve" text-anchor="start" x="209.88" y="-102.5" font-family="Helvetica,sans-Serif" font-size="10.00">+</text>
<text xml:space="preserve" text-anchor="start" x="219.88" y="-102.5" font-family="Helvetica,sans-Serif" font-size="10.00">updatePowerOnTime()</text>
<text xml:space="preserve" text-anchor="start" x="209.88" y="-86.5" font-family="Helvetica,sans-Serif" font-size="10.00">+</text>
<text xml:space="preserve" text-anchor="start" x="219.88" y="-86.5" font-family="Helvetica,sans-Serif" font-size="10.00">printInfo()</text>
<text xml:space="preserve" text-anchor="start" x="209.88" y="-70.5" font-family="Helvetica,sans-Serif" font-size="10.00">+</text>
<text xml:space="preserve" text-anchor="start" x="219.88" y="-70.5" font-family="Helvetica,sans-Serif" font-size="10.00">getType()</text>
<text xml:space="preserve" text-anchor="start" x="211.38" y="-54.5" font-family="Helvetica,sans-Serif" font-size="10.00">&#45;</text>
<text xml:space="preserve" text-anchor="start" x="219.88" y="-54.5" font-family="Helvetica,sans-Serif" font-size="10.00">validateUserId()</text>
<polygon fill="#666666" stroke="#666666" points="205.88,-194 205.88,-194 324.38,-194 324.38,-194 205.88,-194"/>
<polygon fill="#666666" stroke="#666666" points="205.88,-162 205.88,-162 217.88,-162 217.88,-162 205.88,-162"/>
<polygon fill="#666666" stroke="#666666" points="217.88,-162 217.88,-162 324.38,-162 324.38,-162 217.88,-162"/>
<polygon fill="none" stroke="#666666" points="205.88,-48 205.88,-212 324.38,-212 324.38,-48 205.88,-48"/>
</a>
</g>
</g>
<!-- Node1&#45;&gt;Node5 -->
<g id="edge4_Node000001_Node000005" class="edge">
<title>Node1&#45;&gt;Node5</title>
<g id="a_edge4_Node000001_Node000005"><a xlink:title=" ">
<path fill="none" stroke="#63b8ff" d="M190.45,-285.94C201.73,-262.53 214.52,-236 226.28,-211.59"/>
<polygon fill="none" stroke="#63b8ff" points="187.39,-284.23 186.2,-294.75 193.69,-287.27 187.39,-284.23"/>
</a>
</g>
</g>
<!-- Node2 -->
<g id="Node000002" class="node">
<title>Node2</title>
<g id="a_Node000002"><a xlink:href="class_network_entity.html" target="_top" xlink:title="Абстрактный базовый класс для всех сущностей корпоративной сети.">
<polygon fill="white" stroke="none" points="204.25,-564 112,-564 112,-448 204.25,-448 204.25,-564"/>
<text xml:space="preserve" text-anchor="start" x="127" y="-550.5" font-family="Helvetica,sans-Serif" font-size="10.00">NetworkEntity</text>
<text xml:space="preserve" text-anchor="start" x="116.38" y="-534.5" font-family="Helvetica,sans-Serif" font-size="10.00">#</text>
<text xml:space="preserve" text-anchor="start" x="126" y="-534.5" font-family="Helvetica,sans-Serif" font-size="10.00">id</text>
<text xml:space="preserve" text-anchor="start" x="116" y="-518.5" font-family="Helvetica,sans-Serif" font-size="10.00">+</text>
<text xml:space="preserve" text-anchor="start" x="126" y="-518.5" font-family="Helvetica,sans-Serif" font-size="10.00">NetworkEntity()</text>
<text xml:space="preserve" text-anchor="start" x="116" y="-502.5" font-family="Helvetica,sans-Serif" font-size="10.00">+</text>
<text xml:space="preserve" text-anchor="start" x="126" y="-502.5" font-family="Helvetica,sans-Serif" font-size="10.00">~NetworkEntity()</text>
<text xml:space="preserve" text-anchor="start" x="116" y="-486.5" font-family="Helvetica,sans-Serif" font-size="10.00">+</text>
<text xml:space="preserve" text-anchor="start" x="126" y="-486.5" font-family="Helvetica,sans-Serif" font-size="10.00">getId()</text>
<text xml:space="preserve" text-anchor="start" x="116" y="-470.5" font-family="Helvetica,sans-Serif" font-size="10.00">+</text>
<text xml:space="preserve" text-anchor="start" x="126" y="-470.5" font-family="Helvetica,sans-Serif" font-size="10.00">printInfo()</text>
<text xml:space="preserve" text-anchor="start" x="116" y="-454.5" font-family="Helvetica,sans-Serif" font-size="10.00">+</text>
<text xml:space="preserve" text-anchor="start" x="126" y="-454.5" font-family="Helvetica,sans-Serif" font-size="10.00">getType()</text>
<polygon fill="#666666" stroke="#666666" points="112,-546 112,-546 204.25,-546 204.25,-546 112,-546"/>
<polygon fill="#666666" stroke="#666666" points="112,-530 112,-530 124,-530 124,-530 112,-530"/>
<polygon fill="#666666" stroke="#666666" points="124,-530 124,-530 204.25,-530 204.25,-530 124,-530"/>
<polygon fill="none" stroke="#666666" points="112,-448 112,-564 204.25,-564 204.25,-448 112,-448"/>
</a>
</g>
</g>
<!-- Node2&#45;&gt;Node1 -->
<g id="edge1_Node000001_Node000002" class="edge">
<title>Node2&#45;&gt;Node1</title>
<g id="a_edge1_Node000001_Node000002"><a xlink:title=" ">
<path fill="none" stroke="#63b8ff" d="M158.12,-436.94C158.12,-428.53 158.12,-420 158.12,-411.79"/>
<polygon fill="none" stroke="#63b8ff" points="154.63,-436.78 158.13,-446.78 161.63,-436.78 154.63,-436.78"/>
</a>
</g>
</g>
</g>
</svg>
