<?xml version="1.0" encoding="UTF-8" standalone="no"?>
<!DOCTYPE svg PUBLIC "-//W3C//DTD SVG 1.1//EN"
 "http://www.w3.org/Graphics/SVG/1.1/DTD/svg11.dtd">
<!-- Generated by graphviz version 14.0.1 (20251006.0113)
 -->
<!-- Title: NetworkEntity Pages: 1 -->
<svg width="344pt" height="700pt"
 viewBox="0.00 0.00 344.00 700.00" xmlns="http://www.w3.org/2000/svg" xmlns:xlink="http://www.w3.org/1999/xlink">
<g id="graph0" class="graph" transform="scale(1 1) rotate(0) translate(4 696)">
<title>NetworkEntity</title>
<!-- Node1 -->
<g id="Node000001" class="node">
<title>Node1</title>
<g id="a_Node000001"><a xlink:title="Абстрактный базовый класс для всех сущностей корпоративной сети.">
<polygon fill="#999999" stroke="none" points="266.25,-692 174,-692 174,-576 266.25,-576 266.25,-692"/>
<text xml:space="preserve" text-anchor="start" x="189" y="-678.5" font-family="Helvetica,sans-Serif" font-size="10.00">NetworkEntity</text>
<text xml:space="preserve" text-anchor="start" x="178.38" y="-662.5" font-family="Helvetica,sans-Serif" font-size="10.00">#</text>
<text xml:space="preserve" text-anchor="start" x="188" y="-662.5" font-family="Helvetica,sans-Serif" font-size="10.00">id</text>
<text xml:space="preserve" text-anchor="start" x="178" y="-646.5" font-family="Helvetica,sans-Serif" font-size="10.00">+</text>
<text xml:space="preserve" text-anchor="start" x="188" y="-646.5" font-family="Helvetica,sans-Serif" font-size="10.00">NetworkEntity()</text>
<text xml:space="preserve" text-anchor="start" x="178" y="-630.5" font-family="Helvetica,sans-Serif" font-size="10.00">+</text>
<text xml:space="preserve" text-anchor="start" x="188" y="-630.5" font-family="Helvetica,sans-Serif" font-size="10.00">~NetworkEntity()</text>
<text xml:space="preserve" text-anchor="start" x="178" y="-614.5" font-family="Helvetica,sans-Serif" font-size="10.00">+</text>
<text xml:space="preserve" text-anchor="start" x="188" y="-614.5" font-family="Helvetica,sans-Serif" font-size="10.00">getId()</text>
<text xml:space="preserve" text-anchor="start" x="178" y="-598.5" font-family="Helvetica,sans-Serif" font-size="10.00">+</text>
<text xml:space="preserve" text-anchor="start" x="188" y="-598.5" font-family="Helvetica,sans-Serif" font-size="10.00">printInfo()</text>
<text xml:space="preserve" text-anchor="start" x="178" y="-582.5" font-family="Helvetica,sans-Serif" font-size="10.00">+</text>
<text xml:space="preserve" text-anchor="start" x="188" y="-582.5" font-family="Helvetica,sans-Serif" font-size="10.00">getType()</text>
<polygon fill="#666666" stroke="#666666" points="174,-674 174,-674 266.25,-674 266.25,-674 174,-674"/>
<polygon fill="#666666" stroke="#666666" points="174,-658 174,-658 186,-658 186,-658 174,-658"/>
<polygon fill="#666666" stroke="#666666" points="186,-658 186,-658 266.25,-658 266.25,-658 186,-658"/>
<polygon fill="none" stroke="#666666" points="174,-576 174,-692 266.25,-692 266.25,-576 174,-576"/>
</a>
</g>
</g>
<!-- Node2 -->
<g id="Node000002" class="node">
<title>Node2</title>
<g id="a_Node000002"><a xlink:href="class_device.html" target="_top" xlink:title="Абстрактный базовый класс для всех устройств корпоративной сети.">
<polygon fill="white" stroke="none" points="211.75,-476 104.5,-476 104.5,-360 211.75,-360 211.75,-476"/>
<text xml:space="preserve" text-anchor="start" x="142.75" y="-462.5" font-family="Helvetica,sans-Serif" font-size="10.00">Device</text>
<text xml:space="preserve" text-anchor="start" x="108.88" y="-446.5" font-family="Helvetica,sans-Serif" font-size="10.00">#</text>
<text xml:space="preserve" text-anchor="start" x="118.5" y="-446.5" font-family="Helvetica,sans-Serif" font-size="10.00">macAddress</text>
<text xml:space="preserve" text-anchor="start" x="108.5" y="-430.5" font-family="Helvetica,sans-Serif" font-size="10.00">+</text>
<text xml:space="preserve" text-anchor="start" x="118.5" y="-430.5" font-family="Helvetica,sans-Serif" font-size="10.00">Device()</text>
<text xml:space="preserve" text-anchor="start" x="108.5" y="-414.5" font-family="Helvetica,sans-Serif" font-size="10.00">+</text>
<text xml:space="preserve" text-anchor="start" x="118.5" y="-414.5" font-family="Helvetica,sans-Serif" font-size="10.00">getMacAddress()</text>
<text xml:space="preserve" text-anchor="start" x="108.5" y="-398.5" font-family="Helvetica,sans-Serif" font-size="10.00">+</text>
<text xml:space="preserve" text-anchor="start" x="118.5" y="-398.5" font-family="Helvetica,sans-Serif" font-size="10.00">getType()</text>
<text xml:space="preserve" text-anchor="start" x="108.88" y="-382.5" font-family="Helvetica,sans-Serif" font-size="10.00">#</text>
<text xml:space="preserve" text-anchor="start" x="118.5" y="-382.5" font-family="Helvetica,sans-Serif" font-size="10.00">isValidMacAddress()</text>
<text xml:space="preserve" text-anchor="start" x="108.88" y="-366.5" font-family="Helvetica,sans-Serif" font-size="10.00">#</text>
<text xml:space="preserve" text-anchor="start" x="118.5" y="-366.5" font-family="Helvetica,sans-Serif" font-size="10.00">validateId()</text>
<polygon fill="#666666" stroke="#666666" points="104.5,-458 104.5,-458 211.75,-458 211.75,-458 104.5,-458"/>
<polygon fill="#666666" stroke="#666666" points="104.5,-442 104.5,-442 116.5,-442 116.5,-442 104.5,-442"/>
<polygon fill="#666666" stroke="#666666" points="116.5,-442 116.5,-442 211.75,-442 211.75,-442 116.5,-442"/>
<polygon fill="none" stroke="#666666" points="104.5,-360 104.5,-476 211.75,-476 211.75,-360 104.5,-360"/>
</a>
</g>
</g>
<!-- Node1&#45;&gt;Node2 -->
<g id="edge1_Node000001_Node000002" class="edge">
<title>Node1&#45;&gt;Node2</title>
<g id="a_edge1_Node000001_Node000002"><a xlink:title=" ">
<path fill="none" stroke="#63b8ff" d="M200.54,-565.39C192.18,-536.53 182.53,-503.22 174.55,-475.68"/>
<polygon fill="none" stroke="#63b8ff" points="197.11,-566.13 203.25,-574.76 203.83,-564.18 197.11,-566.13"/>
</a>
</g>
</g>
<!-- Node6 -->
<g id="Node000006" class="node">
<title>Node6</title>
<g id="a_Node000006"><a xlink:href="class_domain.html" target="_top" xlink:title="Класс, представляющий домен в корпоративной сети.">
<polygon fill="white" stroke="none" points="336.38,-540 229.88,-540 229.88,-296 336.38,-296 336.38,-540"/>
<text xml:space="preserve" text-anchor="start" x="266.25" y="-526.5" font-family="Helvetica,sans-Serif" font-size="10.00">Domain</text>
<text xml:space="preserve" text-anchor="start" x="235.38" y="-510.5" font-family="Helvetica,sans-Serif" font-size="10.00">&#45;</text>
<text xml:space="preserve" text-anchor="start" x="243.88" y="-510.5" font-family="Helvetica,sans-Serif" font-size="10.00">adminId</text>
<text xml:space="preserve" text-anchor="start" x="235.38" y="-494.5" font-family="Helvetica,sans-Serif" font-size="10.00">&#45;</text>
<text xml:space="preserve" text-anchor="start" x="243.88" y="-494.5" font-family="Helvetica,sans-Serif" font-size="10.00">entities</text>
<text xml:space="preserve" text-anchor="start" x="233.88" y="-478.5" font-family="Helvetica,sans-Serif" font-size="10.00">+</text>
<text xml:space="preserve" text-anchor="start" x="243.88" y="-478.5" font-family="Helvetica,sans-Serif" font-size="10.00">Domain()</text>
<text xml:space="preserve" text-anchor="start" x="233.88" y="-462.5" font-family="Helvetica,sans-Serif" font-size="10.00">+</text>
<text xml:space="preserve" text-anchor="start" x="243.88" y="-462.5" font-family="Helvetica,sans-Serif" font-size="10.00">addEntity()</text>
<text xml:space="preserve" text-anchor="start" x="233.88" y="-446.5" font-family="Helvetica,sans-Serif" font-size="10.00">+</text>
<text xml:space="preserve" text-anchor="start" x="243.88" y="-446.5" font-family="Helvetica,sans-Serif" font-size="10.00">removeEntity()</text>
<text xml:space="preserve" text-anchor="start" x="233.88" y="-430.5" font-family="Helvetica,sans-Serif" font-size="10.00">+</text>
<text xml:space="preserve" text-anchor="start" x="243.88" y="-430.5" font-family="Helvetica,sans-Serif" font-size="10.00">findEntity()</text>
<text xml:space="preserve" text-anchor="start" x="233.88" y="-414.5" font-family="Helvetica,sans-Serif" font-size="10.00">+</text>
<text xml:space="preserve" text-anchor="start" x="243.88" y="-414.5" font-family="Helvetica,sans-Serif" font-size="10.00">getAdminId()</text>
<text xml:space="preserve" text-anchor="start" x="233.88" y="-398.5" font-family="Helvetica,sans-Serif" font-size="10.00">+</text>
<text xml:space="preserve" text-anchor="start" x="243.88" y="-398.5" font-family="Helvetica,sans-Serif" font-size="10.00">getEntityCount()</text>
<text xml:space="preserve" text-anchor="start" x="233.88" y="-382.5" font-family="Helvetica,sans-Serif" font-size="10.00">+</text>
<text xml:space="preserve" text-anchor="start" x="243.88" y="-382.5" font-family="Helvetica,sans-Serif" font-size="10.00">getAllEntities()</text>
<text xml:space="preserve" text-anchor="start" x="233.88" y="-366.5" font-family="Helvetica,sans-Serif" font-size="10.00">+</text>
<text xml:space="preserve" text-anchor="start" x="243.88" y="-366.5" font-family="Helvetica,sans-Serif" font-size="10.00">printInfo()</text>
<text xml:space="preserve" text-anchor="start" x="233.88" y="-350.5" font-family="Helvetica,sans-Serif" font-size="10.00">+</text>
<text xml:space="preserve" text-anchor="start" x="243.88" y="-350.5" font-family="Helvetica,sans-Serif" font-size="10.00">getType()</text>
<text xml:space="preserve" text-anchor="start" x="233.88" y="-334.5" font-family="Helvetica,sans-Serif" font-size="10.00">+</text>
<text xml:space="preserve" text-anchor="start" x="243.88" y="-334.5" font-family="Helvetica,sans-Serif" font-size="10.00">printDetailedInfo()</text>
<text xml:space="preserve" text-anchor="start" x="235.38" y="-318.5" font-family="Helvetica,sans-Serif" font-size="10.00">&#45;</text>
<text xml:space="preserve" text-anchor="start" x="243.88" y="-318.5" font-family="Helvetica,sans-Serif" font-size="10.00">checkAdminRights()</text>
<text xml:space="preserve" text-anchor="start" x="235.38" y="-302.5" font-family="Helvetica,sans-Serif" font-size="10.00">&#45;</text>
<text xml:space="preserve" text-anchor="start" x="243.88" y="-302.5" font-family="Helvetica,sans-Serif" font-size="10.00">validateEntity()</text>
<polygon fill="#666666" stroke="#666666" points="229.88,-522 229.88,-522 336.38,-522 336.38,-522 229.88,-522"/>
<polygon fill="#666666" stroke="#666666" points="229.88,-490 229.88,-490 241.88,-490 241.88,-490 229.88,-490"/>
<polygon fill="#666666" stroke="#666666" points="241.88,-490 241.88,-490 336.38,-490 336.38,-490 241.88,-490"/>
<polygon fill="none" stroke="#666666" points="229.88,-296 229.88,-540 336.38,-540 336.38,-296 229.88,-296"/>
</a>
</g>
</g>
<!-- Node1&#45;&gt;Node6 -->
<g id="edge5_Node000001_Node000006" class="edge">
<title>Node1&#45;&gt;Node6</title>
<g id="a_edge5_Node000001_Node000006"><a xlink:title=" ">
<path fill="none" stroke="#63b8ff" d="M240.06,-565.27C242.48,-557.06 245,-548.5 247.56,-539.81"/>
<polygon fill="none" stroke="#63b8ff" points="236.74,-564.18 237.27,-574.76 243.45,-566.16 236.74,-564.18"/>
</a>
</g>
</g>
<!-- Node3 -->
<g id="Node000003" class="node">
<title>Node3</title>
<g id="a_Node000003"><a xlink:href="class_data_storage.html" target="_top" xlink:title="Класс, представляющий хранилище данных в корпоративной сети компании NetSphere.">
<polygon fill="white" stroke="none" points="110.25,-260 0,-260 0,0 110.25,0 110.25,-260"/>
<text xml:space="preserve" text-anchor="start" x="27.75" y="-246.5" font-family="Helvetica,sans-Serif" font-size="10.00">DataStorage</text>
<text xml:space="preserve" text-anchor="start" x="5.5" y="-230.5" font-family="Helvetica,sans-Serif" font-size="10.00">&#45;</text>
<text xml:space="preserve" text-anchor="start" x="14" y="-230.5" font-family="Helvetica,sans-Serif" font-size="10.00">totalSizeMB</text>
<text xml:space="preserve" text-anchor="start" x="5.5" y="-214.5" font-family="Helvetica,sans-Serif" font-size="10.00">&#45;</text>
<text xml:space="preserve" text-anchor="start" x="14" y="-214.5" font-family="Helvetica,sans-Serif" font-size="10.00">usedSizeMB</text>
<text xml:space="preserve" text-anchor="start" x="5.5" y="-198.5" font-family="Helvetica,sans-Serif" font-size="10.00">&#45;</text>
<text xml:space="preserve" text-anchor="start" x="14" y="-198.5" font-family="Helvetica,sans-Serif" font-size="10.00">trustedUsers</text>
<text xml:space="preserve" text-anchor="start" x="4" y="-182.5" font-family="Helvetica,sans-Serif" font-size="10.00">+</text>
<text xml:space="preserve" text-anchor="start" x="14" y="-182.5" font-family="Helvetica,sans-Serif" font-size="10.00">DataStorage()</text>
<text xml:space="preserve" text-anchor="start" x="4" y="-166.5" font-family="Helvetica,sans-Serif" font-size="10.00">+</text>
<text xml:space="preserve" text-anchor="start" x="14" y="-166.5" font-family="Helvetica,sans-Serif" font-size="10.00">operator+=()</text>
<text xml:space="preserve" text-anchor="start" x="4" y="-150.5" font-family="Helvetica,sans-Serif" font-size="10.00">+</text>
<text xml:space="preserve" text-anchor="start" x="14" y="-150.5" font-family="Helvetica,sans-Serif" font-size="10.00">operator&#45;=()</text>
<text xml:space="preserve" text-anchor="start" x="4" y="-134.5" font-family="Helvetica,sans-Serif" font-size="10.00">+</text>
<text xml:space="preserve" text-anchor="start" x="14" y="-134.5" font-family="Helvetica,sans-Serif" font-size="10.00">operator=()</text>
<text xml:space="preserve" text-anchor="start" x="4" y="-118.5" font-family="Helvetica,sans-Serif" font-size="10.00">+</text>
<text xml:space="preserve" text-anchor="start" x="14" y="-118.5" font-family="Helvetica,sans-Serif" font-size="10.00">operator&lt;()</text>
<text xml:space="preserve" text-anchor="start" x="4" y="-102.5" font-family="Helvetica,sans-Serif" font-size="10.00">+</text>
<text xml:space="preserve" text-anchor="start" x="14" y="-102.5" font-family="Helvetica,sans-Serif" font-size="10.00">operator==()</text>
<text xml:space="preserve" text-anchor="start" x="4" y="-86.5" font-family="Helvetica,sans-Serif" font-size="10.00">+</text>
<text xml:space="preserve" text-anchor="start" x="14" y="-86.5" font-family="Helvetica,sans-Serif" font-size="10.00">operator!=()</text>
<text xml:space="preserve" text-anchor="start" x="4" y="-70.5" font-family="Helvetica,sans-Serif" font-size="10.00">+</text>
<text xml:space="preserve" text-anchor="start" x="14" y="-70.5" font-family="Helvetica,sans-Serif" font-size="10.00">addTrustedUser()</text>
<text xml:space="preserve" text-anchor="start" x="4" y="-54.5" font-family="Helvetica,sans-Serif" font-size="10.00">+</text>
<text xml:space="preserve" text-anchor="start" x="14" y="-54.5" font-family="Helvetica,sans-Serif" font-size="10.00">removeTrustedUser()</text>
<text xml:space="preserve" text-anchor="start" x="4" y="-38.5" font-family="Helvetica,sans-Serif" font-size="10.00">+</text>
<text xml:space="preserve" text-anchor="start" x="14" y="-38.5" font-family="Helvetica,sans-Serif" font-size="10.00">isUserTrusted()</text>
<text xml:space="preserve" text-anchor="start" x="14" y="-22.5" font-family="Helvetica,sans-Serif" font-size="10.00">и 6 больше...</text>
<text xml:space="preserve" text-anchor="start" x="5.5" y="-6.5" font-family="Helvetica,sans-Serif" font-size="10.00">&#45;</text>
<text xml:space="preserve" text-anchor="start" x="14" y="-6.5" font-family="Helvetica,sans-Serif" font-size="10.00">validateSize()</text>
<polygon fill="#666666" stroke="#666666" points="0,-242 0,-242 110.25,-242 110.25,-242 0,-242"/>
<polygon fill="#666666" stroke="#666666" points="0,-194 0,-194 12,-194 12,-194 0,-194"/>
<polygon fill="#666666" stroke="#666666" points="12,-194 12,-194 110.25,-194 110.25,-194 12,-194"/>
<polygon fill="none" stroke="#666666" points="0,0 0,-260 110.25,-260 110.25,0 0,0"/>
</a>
</g>
</g>
<!-- Node2&#45;&gt;Node3 -->
<g id="edge2_Node000002_Node000003" class="edge">
<title>Node2&#45;&gt;Node3</title>
<g id="a_edge2_Node000002_Node000003"><a xlink:title=" ">
<path fill="none" stroke="#63b8ff" d="M133.77,-349.37C124.11,-322.55 112.67,-290.78 101.55,-259.9"/>
<polygon fill="none" stroke="#63b8ff" points="130.46,-350.51 137.14,-358.73 137.04,-348.14 130.46,-350.51"/>
</a>
</g>
</g>
<!-- Node4 -->
<g id="Node000004" class="node">
<title>Node4</title>
<g id="a_Node000004"><a xlink:href="class_printer.html" target="_top" xlink:title="Класс, представляющий сетевой принтер в корпоративной сети.">
<polygon fill="white" stroke="none" points="187.75,-172 128.5,-172 128.5,-88 187.75,-88 187.75,-172"/>
<text xml:space="preserve" text-anchor="start" x="143.88" y="-158.5" font-family="Helvetica,sans-Serif" font-size="10.00">Printer</text>
<text xml:space="preserve" text-anchor="start" x="156.62" y="-142.5" font-family="Helvetica,sans-Serif" font-size="10.00"> </text>
<text xml:space="preserve" text-anchor="start" x="132.5" y="-126.5" font-family="Helvetica,sans-Serif" font-size="10.00">+</text>
<text xml:space="preserve" text-anchor="start" x="142.5" y="-126.5" font-family="Helvetica,sans-Serif" font-size="10.00">Printer()</text>
<text xml:space="preserve" text-anchor="start" x="132.5" y="-110.5" font-family="Helvetica,sans-Serif" font-size="10.00">+</text>
<text xml:space="preserve" text-anchor="start" x="142.5" y="-110.5" font-family="Helvetica,sans-Serif" font-size="10.00">printInfo()</text>
<text xml:space="preserve" text-anchor="start" x="132.5" y="-94.5" font-family="Helvetica,sans-Serif" font-size="10.00">+</text>
<text xml:space="preserve" text-anchor="start" x="142.5" y="-94.5" font-family="Helvetica,sans-Serif" font-size="10.00">getType()</text>
<polygon fill="#666666" stroke="#666666" points="128.5,-154 128.5,-154 187.75,-154 187.75,-154 128.5,-154"/>
<polygon fill="#666666" stroke="#666666" points="128.5,-138 128.5,-138 187.75,-138 187.75,-138 128.5,-138"/>
<polygon fill="none" stroke="#666666" points="128.5,-88 128.5,-172 187.75,-172 187.75,-88 128.5,-88"/>
</a>
</g>
</g>
<!-- Node2&#45;&gt;Node4 -->
<g id="edge3_Node000002_Node000004" class="edge">
<title>Node2&#45;&gt;Node4</title>
<g id="a_edge3_Node000002_Node000004"><a xlink:title=" ">
<path fill="none" stroke="#63b8ff" d="M158.12,-348.7C158.12,-293.5 158.12,-217.64 158.12,-171.59"/>
<polygon fill="none" stroke="#63b8ff" points="154.63,-348.64 158.13,-358.64 161.63,-348.64 154.63,-348.64"/>
</a>
</g>
</g>
<!-- Node5 -->
<g id="Node000005" class="node">
<title>Node5</title>
<g id="a_Node000005"><a xlink:href="class_workstation.html" target="_top" xlink:title="Класс, представляющий рабочую станцию пользователя в корпоративной сети.">
<polygon fill="white" stroke="none" points="324.38,-212 205.88,-212 205.88,-48 324.38,-48 324.38,-212"/>
<text xml:space="preserve" text-anchor="start" x="239.25" y="-198.5" font-family="Helvetica,sans-Serif" font-size="10.00">Workstation</text>
<text xml:space="preserve" text-anchor="start" x="211.38" y="-182.5" font-family="Helvetica,sans-Serif" font-size="10.00">&#45;</text>
<text xml:space="preserve" text-anchor="start" x="219.88" y="-182.5" font-family="Helvetica,sans-Serif" font-size="10.00">userId</text>
<text xml:space="preserve" text-anchor="start" x="211.38" y="-166.5" font-family="Helvetica,sans-Serif" font-size="10.00">&#45;</text>
<text xml:space="preserve" text-anchor="start" x="219.88" y="-166.5" font-family="Helvetica,sans-Serif" font-size="10.00">lastPowerOnTime</text>
<text xml:space="preserve" text-anchor="start" x="209.88" y="-150.5" font-family="Helvetica,sans-Serif" font-size="10.00">+</text>
<text xml:space="preserve" text-anchor="start" x="219.88" y="-150.5" font-family="Helvetica,sans-Serif" font-size="10.00">Workstation()</text>
<text xml:space="preserve" text-anchor="start" x="209.88" y="-134.5" font-family="Helvetica,sans-Serif" font-size="10.00">+</text>
<text xml:space="preserve" text-anchor="start" x="219.88" y="-134.5" font-family="Helvetica,sans-Serif" font-size="10.00">getUserId()</text>
<text xml:space="preserve" text-anchor="start" x="209.88" y="-118.5" font-family="Helvetica,sans-Serif" font-size="10.00">+</text>
<text xml:space="preserve" text-anchor="start" x="219.88" y="-118.5" font-family="Helvetica,sans-Serif" font-size="10.00">getLastPowerOnTime()</text>
<text xml:space="preserve" text-anchor="start" x="209.88" y="-102.5" font-family="Helvetica,sans-Serif" font-size="10.00">+</text>
<text xml:space="preserve" text-anchor="start" x="219.88" y="-102.5" font-family="Helvetica,sans-Serif" font-size="10.00">updatePowerOnTime()</text>
<text xml:space="preserve" text-anchor="start" x="209.88" y="-86.5" font-family="Helvetica,sans-Serif" font-size="10.00">+</text>
<text xml:space="preserve" text-anchor="start" x="219.88" y="-86.5" font-family="Helvetica,sans-Serif" font-size="10.00">printInfo()</text>
<text xml:space="preserve" text-anchor="start" x="209.88" y="-70.5" font-family="Helvetica,sans-Serif" font-size="10.00">+</text>
<text xml:space="preserve" text-anchor="start" x="219.88" y="-70.5" font-family="Helvetica,sans-Serif" font-size="10.00">getType()</text>
<text xml:space="preserve" text-anchor="start" x="211.38" y="-54.5" font-family="Helvetica,sans-Serif" font-size="10.00">&#45;</text>
<text xml:space="preserve" text-anchor="start" x="219.88" y="-54.5" font-family="Helvetica,sans-Serif" font-size="10.00">validateUserId()</text>
<polygon fill="#666666" stroke="#666666" points="205.88,-194 205.88,-194 324.38,-194 324.38,-194 205.88,-194"/>
<polygon fill="#666666" stroke="#666666" points="205.88,-162 205.88,-162 217.88,-162 217.88,-162 205.88,-162"/>
<polygon fill="#666666" stroke="#666666" points="217.88,-162 217.88,-162 324.38,-162 324.38,-162 217.88,-162"/>
<polygon fill="none" stroke="#666666" points="205.88,-48 205.88,-212 324.38,-212 324.38,-48 205.88,-48"/>
</a>
</g>
</g>
<!-- Node2&#45;&gt;Node5 -->
<g id="edge4_Node000002_Node000005" class="edge">
<title>Node2&#45;&gt;Node5</title>
<g id="a_edge4_Node000002_Node000005"><a xlink:title=" ">
<path fill="none" stroke="#63b8ff" d="M183.42,-349.4C198.84,-308.18 218.64,-255.26 234.88,-211.84"/>
<polygon fill="none" stroke="#63b8ff" points="180.15,-348.14 179.92,-358.74 186.71,-350.6 180.15,-348.14"/>
</a>
</g>
</g>
</g>
</svg>
