<?xml version="1.0" encoding="UTF-8" standalone="no"?>
<!DOCTYPE svg PUBLIC "-//W3C//DTD SVG 1.1//EN"
 "http://www.w3.org/Graphics/SVG/1.1/DTD/svg11.dtd">
<!-- Generated by graphviz version 14.0.1 (20251006.0113)
 -->
<!-- Title: DeviceOperationException Pages: 1 -->
<svg width="148pt" height="236pt"
 viewBox="0.00 0.00 148.00 236.00" xmlns="http://www.w3.org/2000/svg" xmlns:xlink="http://www.w3.org/1999/xlink">
<g id="graph0" class="graph" transform="scale(1 1) rotate(0) translate(4 232)">
<title>DeviceOperationException</title>
<!-- Node1 -->
<g id="Node000001" class="node">
<title>Node1</title>
<g id="a_Node000001"><a xlink:title="Исключение для ошибок при операциях с устройствами.">
<polygon fill="#999999" stroke="none" points="140.25,-52 0,-52 0,0 140.25,0 140.25,-52"/>
<text xml:space="preserve" text-anchor="start" x="12" y="-38.5" font-family="Helvetica,sans-Serif" font-size="10.00">DeviceOperationException</text>
<text xml:space="preserve" text-anchor="start" x="68.62" y="-22.5" font-family="Helvetica,sans-Serif" font-size="10.00"> </text>
<text xml:space="preserve" text-anchor="start" x="4" y="-6.5" font-family="Helvetica,sans-Serif" font-size="10.00">+</text>
<text xml:space="preserve" text-anchor="start" x="14" y="-6.5" font-family="Helvetica,sans-Serif" font-size="10.00">DeviceOperationException()</text>
<polygon fill="#666666" stroke="#666666" points="0,-34 0,-34 140.25,-34 140.25,-34 0,-34"/>
<polygon fill="#666666" stroke="#666666" points="0,-18 0,-18 140.25,-18 140.25,-18 0,-18"/>
<polygon fill="none" stroke="#666666" points="0,0 0,-52 140.25,-52 140.25,0 0,0"/>
</a>
</g>
</g>
<!-- Node2 -->
<g id="Node000002" class="node">
<title>Node2</title>
<g id="a_Node000002"><a xlink:href="class_network_exception.html" target="_top" xlink:title="Базовый класс исключений для сетевых операций.">
<polygon fill="white" stroke="none" points="122.25,-140 18,-140 18,-88 122.25,-88 122.25,-140"/>
<text xml:space="preserve" text-anchor="start" x="30" y="-126.5" font-family="Helvetica,sans-Serif" font-size="10.00">NetworkException</text>
<text xml:space="preserve" text-anchor="start" x="68.62" y="-110.5" font-family="Helvetica,sans-Serif" font-size="10.00"> </text>
<text xml:space="preserve" text-anchor="start" x="22" y="-94.5" font-family="Helvetica,sans-Serif" font-size="10.00">+</text>
<text xml:space="preserve" text-anchor="start" x="32" y="-94.5" font-family="Helvetica,sans-Serif" font-size="10.00">NetworkException()</text>
<polygon fill="#666666" stroke="#666666" points="18,-122 18,-122 122.25,-122 122.25,-122 18,-122"/>
<polygon fill="#666666" stroke="#666666" points="18,-106 18,-106 122.25,-106 122.25,-106 18,-106"/>
<polygon fill="none" stroke="#666666" points="18,-88 18,-140 122.25,-140 122.25,-88 18,-88"/>
</a>
</g>
</g>
<!-- Node2&#45;&gt;Node1 -->
<g id="edge1_Node000001_Node000002" class="edge">
<title>Node2&#45;&gt;Node1</title>
<g id="a_edge1_Node000001_Node000002"><a xlink:title=" ">
<path fill="none" stroke="#63b8ff" d="M70.12,-76.66C70.12,-68.29 70.12,-59.57 70.12,-51.82"/>
<polygon fill="none" stroke="#63b8ff" points="66.63,-76.61 70.13,-86.61 73.63,-76.61 66.63,-76.61"/>
</a>
</g>
</g>
<!-- Node3 -->
<g id="Node000003" class="node">
<title>Node3</title>
<g id="a_Node000003"><a xlink:title=" ">
<polygon fill="white" stroke="none" points="112.38,-228 27.88,-228 27.88,-176 112.38,-176 112.38,-228"/>
<text xml:space="preserve" text-anchor="start" x="31.88" y="-214.5" font-family="Helvetica,sans-Serif" font-size="10.00">std::runtime_error</text>
<text xml:space="preserve" text-anchor="start" x="68.62" y="-198.5" font-family="Helvetica,sans-Serif" font-size="10.00"> </text>
<text xml:space="preserve" text-anchor="start" x="68.62" y="-182.5" font-family="Helvetica,sans-Serif" font-size="10.00"> </text>
<polygon fill="#666666" stroke="#666666" points="27.88,-210 27.88,-210 112.38,-210 112.38,-210 27.88,-210"/>
<polygon fill="#666666" stroke="#666666" points="27.88,-194 27.88,-194 112.38,-194 112.38,-194 27.88,-194"/>
<polygon fill="none" stroke="#666666" points="27.88,-176 27.88,-228 112.38,-228 112.38,-176 27.88,-176"/>
</a>
</g>
</g>
<!-- Node3&#45;&gt;Node2 -->
<g id="edge2_Node000002_Node000003" class="edge">
<title>Node3&#45;&gt;Node2</title>
<g id="a_edge2_Node000002_Node000003"><a xlink:title=" ">
<path fill="none" stroke="#63b8ff" d="M70.12,-164.66C70.12,-156.29 70.12,-147.57 70.12,-139.82"/>
<polygon fill="none" stroke="#63b8ff" points="66.63,-164.61 70.13,-174.61 73.63,-164.61 66.63,-164.61"/>
</a>
</g>
</g>
</g>
</svg>
