<?xml version="1.0" encoding="UTF-8" standalone="no"?>
<!DOCTYPE svg PUBLIC "-//W3C//DTD SVG 1.1//EN"
 "http://www.w3.org/Graphics/SVG/1.1/DTD/svg11.dtd">
<!-- Generated by graphviz version 14.0.1 (20251006.0113)
 -->
<!-- Title: AccessDeniedException Pages: 1 -->
<svg width="139pt" height="236pt"
 viewBox="0.00 0.00 139.00 236.00" xmlns="http://www.w3.org/2000/svg" xmlns:xlink="http://www.w3.org/1999/xlink">
<g id="graph0" class="graph" transform="scale(1 1) rotate(0) translate(4 232)">
<title>AccessDeniedException</title>
<!-- Node1 -->
<g id="Node000001" class="node">
<title>Node1</title>
<g id="a_Node000001"><a xlink:title="Исключение для ошибок аутентификации и прав доступа.">
<polygon fill="#999999" stroke="none" points="131.25,-52 0,-52 0,0 131.25,0 131.25,-52"/>
<text xml:space="preserve" text-anchor="start" x="12" y="-38.5" font-family="Helvetica,sans-Serif" font-size="10.00">AccessDeniedException</text>
<text xml:space="preserve" text-anchor="start" x="64.12" y="-22.5" font-family="Helvetica,sans-Serif" font-size="10.00"> </text>
<text xml:space="preserve" text-anchor="start" x="4" y="-6.5" font-family="Helvetica,sans-Serif" font-size="10.00">+</text>
<text xml:space="preserve" text-anchor="start" x="14" y="-6.5" font-family="Helvetica,sans-Serif" font-size="10.00">AccessDeniedException()</text>
<polygon fill="#666666" stroke="#666666" points="0,-34 0,-34 131.25,-34 131.25,-34 0,-34"/>
<polygon fill="#666666" stroke="#666666" points="0,-18 0,-18 131.25,-18 131.25,-18 0,-18"/>
<polygon fill="none" stroke="#666666" points="0,0 0,-52 131.25,-52 131.25,0 0,0"/>
</a>
</g>
</g>
<!-- Node2 -->
<g id="Node000002" class="node">
<title>Node2</title>
<g id="a_Node000002"><a xlink:href="class_network_exception.html" target="_top" xlink:title="Базовый класс исключений для сетевых операций.">
<polygon fill="white" stroke="none" points="117.75,-140 13.5,-140 13.5,-88 117.75,-88 117.75,-140"/>
<text xml:space="preserve" text-anchor="start" x="25.5" y="-126.5" font-family="Helvetica,sans-Serif" font-size="10.00">NetworkException</text>
<text xml:space="preserve" text-anchor="start" x="64.12" y="-110.5" font-family="Helvetica,sans-Serif" font-size="10.00"> </text>
<text xml:space="preserve" text-anchor="start" x="17.5" y="-94.5" font-family="Helvetica,sans-Serif" font-size="10.00">+</text>
<text xml:space="preserve" text-anchor="start" x="27.5" y="-94.5" font-family="Helvetica,sans-Serif" font-size="10.00">NetworkException()</text>
<polygon fill="#666666" stroke="#666666" points="13.5,-122 13.5,-122 117.75,-122 117.75,-122 13.5,-122"/>
<polygon fill="#666666" stroke="#666666" points="13.5,-106 13.5,-106 117.75,-106 117.75,-106 13.5,-106"/>
<polygon fill="none" stroke="#666666" points="13.5,-88 13.5,-140 117.75,-140 117.75,-88 13.5,-88"/>
</a>
</g>
</g>
<!-- Node2&#45;&gt;Node1 -->
<g id="edge1_Node000001_Node000002" class="edge">
<title>Node2&#45;&gt;Node1</title>
<g id="a_edge1_Node000001_Node000002"><a xlink:title=" ">
<path fill="none" stroke="#63b8ff" d="M65.62,-76.66C65.62,-68.29 65.62,-59.57 65.62,-51.82"/>
<polygon fill="none" stroke="#63b8ff" points="62.13,-76.61 65.63,-86.61 69.13,-76.61 62.13,-76.61"/>
</a>
</g>
</g>
<!-- Node3 -->
<g id="Node000003" class="node">
<title>Node3</title>
<g id="a_Node000003"><a xlink:title=" ">
<polygon fill="white" stroke="none" points="107.88,-228 23.38,-228 23.38,-176 107.88,-176 107.88,-228"/>
<text xml:space="preserve" text-anchor="start" x="27.38" y="-214.5" font-family="Helvetica,sans-Serif" font-size="10.00">std::runtime_error</text>
<text xml:space="preserve" text-anchor="start" x="64.12" y="-198.5" font-family="Helvetica,sans-Serif" font-size="10.00"> </text>
<text xml:space="preserve" text-anchor="start" x="64.12" y="-182.5" font-family="Helvetica,sans-Serif" font-size="10.00"> </text>
<polygon fill="#666666" stroke="#666666" points="23.38,-210 23.38,-210 107.88,-210 107.88,-210 23.38,-210"/>
<polygon fill="#666666" stroke="#666666" points="23.38,-194 23.38,-194 107.88,-194 107.88,-194 23.38,-194"/>
<polygon fill="none" stroke="#666666" points="23.38,-176 23.38,-228 107.88,-228 107.88,-176 23.38,-176"/>
</a>
</g>
</g>
<!-- Node3&#45;&gt;Node2 -->
<g id="edge2_Node000002_Node000003" class="edge">
<title>Node3&#45;&gt;Node2</title>
<g id="a_edge2_Node000002_Node000003"><a xlink:title=" ">
<path fill="none" stroke="#63b8ff" d="M65.62,-164.66C65.62,-156.29 65.62,-147.57 65.62,-139.82"/>
<polygon fill="none" stroke="#63b8ff" points="62.13,-164.61 65.63,-174.61 69.13,-164.61 62.13,-164.61"/>
</a>
</g>
</g>
</g>
</svg>
