<?xml version="1.0" encoding="UTF-8" standalone="no"?>
<!DOCTYPE svg PUBLIC "-//W3C//DTD SVG 1.1//EN"
 "http://www.w3.org/Graphics/SVG/1.1/DTD/svg11.dtd">
<!-- Generated by graphviz version 14.0.1 (20251006.0113)
 -->
<!-- Title: NetworkException Pages: 1 -->
<svg width="586pt" height="236pt"
 viewBox="0.00 0.00 586.00 236.00" xmlns="http://www.w3.org/2000/svg" xmlns:xlink="http://www.w3.org/1999/xlink">
<g id="graph0" class="graph" transform="scale(1 1) rotate(0) translate(4 232)">
<title>NetworkException</title>
<!-- Node1 -->
<g id="Node000001" class="node">
<title>Node1</title>
<g id="a_Node000001"><a xlink:title="Базовый класс исключений для сетевых операций.">
<polygon fill="#999999" stroke="none" points="351.75,-140 247.5,-140 247.5,-88 351.75,-88 351.75,-140"/>
<text xml:space="preserve" text-anchor="start" x="259.5" y="-126.5" font-family="Helvetica,sans-Serif" font-size="10.00">NetworkException</text>
<text xml:space="preserve" text-anchor="start" x="298.12" y="-110.5" font-family="Helvetica,sans-Serif" font-size="10.00"> </text>
<text xml:space="preserve" text-anchor="start" x="251.5" y="-94.5" font-family="Helvetica,sans-Serif" font-size="10.00">+</text>
<text xml:space="preserve" text-anchor="start" x="261.5" y="-94.5" font-family="Helvetica,sans-Serif" font-size="10.00">NetworkException()</text>
<polygon fill="#666666" stroke="#666666" points="247.5,-122 247.5,-122 351.75,-122 351.75,-122 247.5,-122"/>
<polygon fill="#666666" stroke="#666666" points="247.5,-106 247.5,-106 351.75,-106 351.75,-106 247.5,-106"/>
<polygon fill="none" stroke="#666666" points="247.5,-88 247.5,-140 351.75,-140 351.75,-88 247.5,-88"/>
</a>
</g>
</g>
<!-- Node3 -->
<g id="Node000003" class="node">
<title>Node3</title>
<g id="a_Node000003"><a xlink:href="class_access_denied_exception.html" target="_top" xlink:title="Исключение для ошибок аутентификации и прав доступа.">
<polygon fill="white" stroke="none" points="131.25,-52 0,-52 0,0 131.25,0 131.25,-52"/>
<text xml:space="preserve" text-anchor="start" x="12" y="-38.5" font-family="Helvetica,sans-Serif" font-size="10.00">AccessDeniedException</text>
<text xml:space="preserve" text-anchor="start" x="64.12" y="-22.5" font-family="Helvetica,sans-Serif" font-size="10.00"> </text>
<text xml:space="preserve" text-anchor="start" x="4" y="-6.5" font-family="Helvetica,sans-Serif" font-size="10.00">+</text>
<text xml:space="preserve" text-anchor="start" x="14" y="-6.5" font-family="Helvetica,sans-Serif" font-size="10.00">AccessDeniedException()</text>
<polygon fill="#666666" stroke="#666666" points="0,-34 0,-34 131.25,-34 131.25,-34 0,-34"/>
<polygon fill="#666666" stroke="#666666" points="0,-18 0,-18 131.25,-18 131.25,-18 0,-18"/>
<polygon fill="none" stroke="#666666" points="0,0 0,-52 131.25,-52 131.25,0 0,0"/>
</a>
</g>
</g>
<!-- Node1&#45;&gt;Node3 -->
<g id="edge2_Node000001_Node000003" class="edge">
<title>Node1&#45;&gt;Node3</title>
<g id="a_edge2_Node000001_Node000003"><a xlink:title=" ">
<path fill="none" stroke="#63b8ff" d="M236.91,-89.95C204.24,-77.95 164.32,-63.27 131.24,-51.11"/>
<polygon fill="none" stroke="#63b8ff" points="235.68,-93.23 246.27,-93.39 238.09,-86.66 235.68,-93.23"/>
</a>
</g>
</g>
<!-- Node4 -->
<g id="Node000004" class="node">
<title>Node4</title>
<g id="a_Node000004"><a xlink:href="class_device_operation_exception.html" target="_top" xlink:title="Исключение для ошибок при операциях с устройствами.">
<polygon fill="white" stroke="none" points="289.75,-52 149.5,-52 149.5,0 289.75,0 289.75,-52"/>
<text xml:space="preserve" text-anchor="start" x="161.5" y="-38.5" font-family="Helvetica,sans-Serif" font-size="10.00">DeviceOperationException</text>
<text xml:space="preserve" text-anchor="start" x="218.12" y="-22.5" font-family="Helvetica,sans-Serif" font-size="10.00"> </text>
<text xml:space="preserve" text-anchor="start" x="153.5" y="-6.5" font-family="Helvetica,sans-Serif" font-size="10.00">+</text>
<text xml:space="preserve" text-anchor="start" x="163.5" y="-6.5" font-family="Helvetica,sans-Serif" font-size="10.00">DeviceOperationException()</text>
<polygon fill="#666666" stroke="#666666" points="149.5,-34 149.5,-34 289.75,-34 289.75,-34 149.5,-34"/>
<polygon fill="#666666" stroke="#666666" points="149.5,-18 149.5,-18 289.75,-18 289.75,-18 149.5,-18"/>
<polygon fill="none" stroke="#666666" points="149.5,0 149.5,-52 289.75,-52 289.75,0 149.5,0"/>
</a>
</g>
</g>
<!-- Node1&#45;&gt;Node4 -->
<g id="edge3_Node000001_Node000004" class="edge">
<title>Node1&#45;&gt;Node4</title>
<g id="a_edge3_Node000001_Node000004"><a xlink:title=" ">
<path fill="none" stroke="#63b8ff" d="M268.75,-79.81C260.09,-70.51 250.83,-60.55 242.71,-51.82"/>
<polygon fill="none" stroke="#63b8ff" points="266.08,-82.08 275.45,-87.02 271.21,-77.31 266.08,-82.08"/>
</a>
</g>
</g>
<!-- Node5 -->
<g id="Node000005" class="node">
<title>Node5</title>
<g id="a_Node000005"><a xlink:href="class_domain_operation_exception.html" target="_top" xlink:title="Исключение для ошибок при операциях с доменами.">
<polygon fill="white" stroke="none" points="451.25,-52 308,-52 308,0 451.25,0 451.25,-52"/>
<text xml:space="preserve" text-anchor="start" x="320" y="-38.5" font-family="Helvetica,sans-Serif" font-size="10.00">DomainOperationException</text>
<text xml:space="preserve" text-anchor="start" x="378.12" y="-22.5" font-family="Helvetica,sans-Serif" font-size="10.00"> </text>
<text xml:space="preserve" text-anchor="start" x="312" y="-6.5" font-family="Helvetica,sans-Serif" font-size="10.00">+</text>
<text xml:space="preserve" text-anchor="start" x="322" y="-6.5" font-family="Helvetica,sans-Serif" font-size="10.00">DomainOperationException()</text>
<polygon fill="#666666" stroke="#666666" points="308,-34 308,-34 451.25,-34 451.25,-34 308,-34"/>
<polygon fill="#666666" stroke="#666666" points="308,-18 308,-18 451.25,-18 451.25,-18 308,-18"/>
<polygon fill="none" stroke="#666666" points="308,0 308,-52 451.25,-52 451.25,0 308,0"/>
</a>
</g>
</g>
<!-- Node1&#45;&gt;Node5 -->
<g id="edge4_Node000001_Node000005" class="edge">
<title>Node1&#45;&gt;Node5</title>
<g id="a_edge4_Node000001_Node000005"><a xlink:title=" ">
<path fill="none" stroke="#63b8ff" d="M330.5,-79.81C339.16,-70.51 348.42,-60.55 356.54,-51.82"/>
<polygon fill="none" stroke="#63b8ff" points="328.04,-77.31 323.8,-87.02 333.17,-82.08 328.04,-77.31"/>
</a>
</g>
</g>
<!-- Node6 -->
<g id="Node000006" class="node">
<title>Node6</title>
<g id="a_Node000006"><a xlink:href="class_validation_exception.html" target="_top" xlink:title="Исключение для ошибок валидации данных.">
<polygon fill="white" stroke="none" points="578.38,-52 468.88,-52 468.88,0 578.38,0 578.38,-52"/>
<text xml:space="preserve" text-anchor="start" x="480.88" y="-38.5" font-family="Helvetica,sans-Serif" font-size="10.00">ValidationException</text>
<text xml:space="preserve" text-anchor="start" x="522.12" y="-22.5" font-family="Helvetica,sans-Serif" font-size="10.00"> </text>
<text xml:space="preserve" text-anchor="start" x="472.88" y="-6.5" font-family="Helvetica,sans-Serif" font-size="10.00">+</text>
<text xml:space="preserve" text-anchor="start" x="482.88" y="-6.5" font-family="Helvetica,sans-Serif" font-size="10.00">ValidationException()</text>
<polygon fill="#666666" stroke="#666666" points="468.88,-34 468.88,-34 578.38,-34 578.38,-34 468.88,-34"/>
<polygon fill="#666666" stroke="#666666" points="468.88,-18 468.88,-18 578.38,-18 578.38,-18 468.88,-18"/>
<polygon fill="none" stroke="#666666" points="468.88,0 468.88,-52 578.38,-52 578.38,0 468.88,0"/>
</a>
</g>
</g>
<!-- Node1&#45;&gt;Node6 -->
<g id="edge5_Node000001_Node000006" class="edge">
<title>Node1&#45;&gt;Node6</title>
<g id="a_edge5_Node000001_Node000006"><a xlink:title=" ">
<path fill="none" stroke="#63b8ff" d="M362.23,-89.54C392.07,-78.29 428.24,-64.56 460.62,-52 463.37,-50.94 466.18,-49.84 469.01,-48.73"/>
<polygon fill="none" stroke="#63b8ff" points="361.09,-86.23 352.96,-93.03 363.55,-92.78 361.09,-86.23"/>
</a>
</g>
</g>
<!-- Node2 -->
<g id="Node000002" class="node">
<title>Node2</title>
<g id="a_Node000002"><a xlink:title=" ">
<polygon fill="white" stroke="none" points="341.88,-228 257.38,-228 257.38,-176 341.88,-176 341.88,-228"/>
<text xml:space="preserve" text-anchor="start" x="261.38" y="-214.5" font-family="Helvetica,sans-Serif" font-size="10.00">std::runtime_error</text>
<text xml:space="preserve" text-anchor="start" x="298.12" y="-198.5" font-family="Helvetica,sans-Serif" font-size="10.00"> </text>
<text xml:space="preserve" text-anchor="start" x="298.12" y="-182.5" font-family="Helvetica,sans-Serif" font-size="10.00"> </text>
<polygon fill="#666666" stroke="#666666" points="257.38,-210 257.38,-210 341.88,-210 341.88,-210 257.38,-210"/>
<polygon fill="#666666" stroke="#666666" points="257.38,-194 257.38,-194 341.88,-194 341.88,-194 257.38,-194"/>
<polygon fill="none" stroke="#666666" points="257.38,-176 257.38,-228 341.88,-228 341.88,-176 257.38,-176"/>
</a>
</g>
</g>
<!-- Node2&#45;&gt;Node1 -->
<g id="edge1_Node000001_Node000002" class="edge">
<title>Node2&#45;&gt;Node1</title>
<g id="a_edge1_Node000001_Node000002"><a xlink:title=" ">
<path fill="none" stroke="#63b8ff" d="M299.62,-164.66C299.62,-156.29 299.62,-147.57 299.62,-139.82"/>
<polygon fill="none" stroke="#63b8ff" points="296.13,-164.61 299.63,-174.61 303.13,-164.61 296.13,-164.61"/>
</a>
</g>
</g>
</g>
</svg>
