<?xml version="1.0" encoding="UTF-8" standalone="no"?>
<!DOCTYPE svg PUBLIC "-//W3C//DTD SVG 1.1//EN"
 "http://www.w3.org/Graphics/SVG/1.1/DTD/svg11.dtd">
<!-- Generated by graphviz version 14.0.1 (20251006.0113)
 -->
<!-- Title: Workstation Pages: 1 -->
<svg width="127pt" height="476pt"
 viewBox="0.00 0.00 127.00 476.00" xmlns="http://www.w3.org/2000/svg" xmlns:xlink="http://www.w3.org/1999/xlink">
<g id="graph0" class="graph" transform="scale(1 1) rotate(0) translate(4 472)">
<title>Workstation</title>
<!-- Node1 -->
<g id="Node000001" class="node">
<title>Node1</title>
<g id="a_Node000001"><a xlink:title="Класс, представляющий рабочую станцию пользователя в корпоративной сети.">
<polygon fill="#999999" stroke="none" points="118.5,-164 0,-164 0,0 118.5,0 118.5,-164"/>
<text xml:space="preserve" text-anchor="start" x="33.38" y="-150.5" font-family="Helvetica,sans-Serif" font-size="10.00">Workstation</text>
<text xml:space="preserve" text-anchor="start" x="5.5" y="-134.5" font-family="Helvetica,sans-Serif" font-size="10.00">&#45;</text>
<text xml:space="preserve" text-anchor="start" x="14" y="-134.5" font-family="Helvetica,sans-Serif" font-size="10.00">userId</text>
<text xml:space="preserve" text-anchor="start" x="5.5" y="-118.5" font-family="Helvetica,sans-Serif" font-size="10.00">&#45;</text>
<text xml:space="preserve" text-anchor="start" x="14" y="-118.5" font-family="Helvetica,sans-Serif" font-size="10.00">lastPowerOnTime</text>
<text xml:space="preserve" text-anchor="start" x="4" y="-102.5" font-family="Helvetica,sans-Serif" font-size="10.00">+</text>
<text xml:space="preserve" text-anchor="start" x="14" y="-102.5" font-family="Helvetica,sans-Serif" font-size="10.00">Workstation()</text>
<text xml:space="preserve" text-anchor="start" x="4" y="-86.5" font-family="Helvetica,sans-Serif" font-size="10.00">+</text>
<text xml:space="preserve" text-anchor="start" x="14" y="-86.5" font-family="Helvetica,sans-Serif" font-size="10.00">getUserId()</text>
<text xml:space="preserve" text-anchor="start" x="4" y="-70.5" font-family="Helvetica,sans-Serif" font-size="10.00">+</text>
<text xml:space="preserve" text-anchor="start" x="14" y="-70.5" font-family="Helvetica,sans-Serif" font-size="10.00">getLastPowerOnTime()</text>
<text xml:space="preserve" text-anchor="start" x="4" y="-54.5" font-family="Helvetica,sans-Serif" font-size="10.00">+</text>
<text xml:space="preserve" text-anchor="start" x="14" y="-54.5" font-family="Helvetica,sans-Serif" font-size="10.00">updatePowerOnTime()</text>
<text xml:space="preserve" text-anchor="start" x="4" y="-38.5" font-family="Helvetica,sans-Serif" font-size="10.00">+</text>
<text xml:space="preserve" text-anchor="start" x="14" y="-38.5" font-family="Helvetica,sans-Serif" font-size="10.00">printInfo()</text>
<text xml:space="preserve" text-anchor="start" x="4" y="-22.5" font-family="Helvetica,sans-Serif" font-size="10.00">+</text>
<text xml:space="preserve" text-anchor="start" x="14" y="-22.5" font-family="Helvetica,sans-Serif" font-size="10.00">getType()</text>
<text xml:space="preserve" text-anchor="start" x="5.5" y="-6.5" font-family="Helvetica,sans-Serif" font-size="10.00">&#45;</text>
<text xml:space="preserve" text-anchor="start" x="14" y="-6.5" font-family="Helvetica,sans-Serif" font-size="10.00">validateUserId()</text>
<polygon fill="#666666" stroke="#666666" points="0,-146 0,-146 118.5,-146 118.5,-146 0,-146"/>
<polygon fill="#666666" stroke="#666666" points="0,-114 0,-114 12,-114 12,-114 0,-114"/>
<polygon fill="#666666" stroke="#666666" points="12,-114 12,-114 118.5,-114 118.5,-114 12,-114"/>
<polygon fill="none" stroke="#666666" points="0,0 0,-164 118.5,-164 118.5,0 0,0"/>
</a>
</g>
</g>
<!-- Node2 -->
<g id="Node000002" class="node">
<title>Node2</title>
<g id="a_Node000002"><a xlink:href="class_device.html" target="_top" xlink:title="Абстрактный базовый класс для всех устройств корпоративной сети.">
<polygon fill="white" stroke="none" points="112.88,-316 5.62,-316 5.62,-200 112.88,-200 112.88,-316"/>
<text xml:space="preserve" text-anchor="start" x="43.88" y="-302.5" font-family="Helvetica,sans-Serif" font-size="10.00">Device</text>
<text xml:space="preserve" text-anchor="start" x="10" y="-286.5" font-family="Helvetica,sans-Serif" font-size="10.00">#</text>
<text xml:space="preserve" text-anchor="start" x="19.62" y="-286.5" font-family="Helvetica,sans-Serif" font-size="10.00">macAddress</text>
<text xml:space="preserve" text-anchor="start" x="9.62" y="-270.5" font-family="Helvetica,sans-Serif" font-size="10.00">+</text>
<text xml:space="preserve" text-anchor="start" x="19.62" y="-270.5" font-family="Helvetica,sans-Serif" font-size="10.00">Device()</text>
<text xml:space="preserve" text-anchor="start" x="9.62" y="-254.5" font-family="Helvetica,sans-Serif" font-size="10.00">+</text>
<text xml:space="preserve" text-anchor="start" x="19.62" y="-254.5" font-family="Helvetica,sans-Serif" font-size="10.00">getMacAddress()</text>
<text xml:space="preserve" text-anchor="start" x="9.62" y="-238.5" font-family="Helvetica,sans-Serif" font-size="10.00">+</text>
<text xml:space="preserve" text-anchor="start" x="19.62" y="-238.5" font-family="Helvetica,sans-Serif" font-size="10.00">getType()</text>
<text xml:space="preserve" text-anchor="start" x="10" y="-222.5" font-family="Helvetica,sans-Serif" font-size="10.00">#</text>
<text xml:space="preserve" text-anchor="start" x="19.62" y="-222.5" font-family="Helvetica,sans-Serif" font-size="10.00">isValidMacAddress()</text>
<text xml:space="preserve" text-anchor="start" x="10" y="-206.5" font-family="Helvetica,sans-Serif" font-size="10.00">#</text>
<text xml:space="preserve" text-anchor="start" x="19.62" y="-206.5" font-family="Helvetica,sans-Serif" font-size="10.00">validateId()</text>
<polygon fill="#666666" stroke="#666666" points="5.62,-298 5.62,-298 112.88,-298 112.88,-298 5.62,-298"/>
<polygon fill="#666666" stroke="#666666" points="5.62,-282 5.62,-282 17.62,-282 17.62,-282 5.62,-282"/>
<polygon fill="#666666" stroke="#666666" points="17.62,-282 17.62,-282 112.88,-282 112.88,-282 17.62,-282"/>
<polygon fill="none" stroke="#666666" points="5.62,-200 5.62,-316 112.88,-316 112.88,-200 5.62,-200"/>
</a>
</g>
</g>
<!-- Node2&#45;&gt;Node1 -->
<g id="edge1_Node000001_Node000002" class="edge">
<title>Node2&#45;&gt;Node1</title>
<g id="a_edge1_Node000001_Node000002"><a xlink:title=" ">
<path fill="none" stroke="#63b8ff" d="M59.25,-188.67C59.25,-180.5 59.25,-172.1 59.25,-163.78"/>
<polygon fill="none" stroke="#63b8ff" points="55.75,-188.51 59.25,-198.51 62.75,-188.51 55.75,-188.51"/>
</a>
</g>
</g>
<!-- Node3 -->
<g id="Node000003" class="node">
<title>Node3</title>
<g id="a_Node000003"><a xlink:href="class_network_entity.html" target="_top" xlink:title="Абстрактный базовый класс для всех сущностей корпоративной сети.">
<polygon fill="white" stroke="none" points="105.38,-468 13.12,-468 13.12,-352 105.38,-352 105.38,-468"/>
<text xml:space="preserve" text-anchor="start" x="28.12" y="-454.5" font-family="Helvetica,sans-Serif" font-size="10.00">NetworkEntity</text>
<text xml:space="preserve" text-anchor="start" x="17.5" y="-438.5" font-family="Helvetica,sans-Serif" font-size="10.00">#</text>
<text xml:space="preserve" text-anchor="start" x="27.12" y="-438.5" font-family="Helvetica,sans-Serif" font-size="10.00">id</text>
<text xml:space="preserve" text-anchor="start" x="17.12" y="-422.5" font-family="Helvetica,sans-Serif" font-size="10.00">+</text>
<text xml:space="preserve" text-anchor="start" x="27.12" y="-422.5" font-family="Helvetica,sans-Serif" font-size="10.00">NetworkEntity()</text>
<text xml:space="preserve" text-anchor="start" x="17.12" y="-406.5" font-family="Helvetica,sans-Serif" font-size="10.00">+</text>
<text xml:space="preserve" text-anchor="start" x="27.12" y="-406.5" font-family="Helvetica,sans-Serif" font-size="10.00">~NetworkEntity()</text>
<text xml:space="preserve" text-anchor="start" x="17.12" y="-390.5" font-family="Helvetica,sans-Serif" font-size="10.00">+</text>
<text xml:space="preserve" text-anchor="start" x="27.12" y="-390.5" font-family="Helvetica,sans-Serif" font-size="10.00">getId()</text>
<text xml:space="preserve" text-anchor="start" x="17.12" y="-374.5" font-family="Helvetica,sans-Serif" font-size="10.00">+</text>
<text xml:space="preserve" text-anchor="start" x="27.12" y="-374.5" font-family="Helvetica,sans-Serif" font-size="10.00">printInfo()</text>
<text xml:space="preserve" text-anchor="start" x="17.12" y="-358.5" font-family="Helvetica,sans-Serif" font-size="10.00">+</text>
<text xml:space="preserve" text-anchor="start" x="27.12" y="-358.5" font-family="Helvetica,sans-Serif" font-size="10.00">getType()</text>
<polygon fill="#666666" stroke="#666666" points="13.12,-450 13.12,-450 105.38,-450 105.38,-450 13.12,-450"/>
<polygon fill="#666666" stroke="#666666" points="13.12,-434 13.12,-434 25.12,-434 25.12,-434 13.12,-434"/>
<polygon fill="#666666" stroke="#666666" points="25.12,-434 25.12,-434 105.38,-434 105.38,-434 25.12,-434"/>
<polygon fill="none" stroke="#666666" points="13.12,-352 13.12,-468 105.38,-468 105.38,-352 13.12,-352"/>
</a>
</g>
</g>
<!-- Node3&#45;&gt;Node2 -->
<g id="edge2_Node000002_Node000003" class="edge">
<title>Node3&#45;&gt;Node2</title>
<g id="a_edge2_Node000002_Node000003"><a xlink:title=" ">
<path fill="none" stroke="#63b8ff" d="M59.25,-340.94C59.25,-332.53 59.25,-324 59.25,-315.79"/>
<polygon fill="none" stroke="#63b8ff" points="55.75,-340.78 59.25,-350.78 62.75,-340.78 55.75,-340.78"/>
</a>
</g>
</g>
</g>
</svg>
