<?xml version="1.0" encoding="UTF-8" standalone="no"?>
<!DOCTYPE svg PUBLIC "-//W3C//DTD SVG 1.1//EN"
 "http://www.w3.org/Graphics/SVG/1.1/DTD/svg11.dtd">
<!-- Generated by graphviz version 14.0.1 (20251006.0113)
 -->
<!-- Title: DomainOperationException Pages: 1 -->
<svg width="151pt" height="236pt"
 viewBox="0.00 0.00 151.00 236.00" xmlns="http://www.w3.org/2000/svg" xmlns:xlink="http://www.w3.org/1999/xlink">
<g id="graph0" class="graph" transform="scale(1 1) rotate(0) translate(4 232)">
<title>DomainOperationException</title>
<!-- Node1 -->
<g id="Node000001" class="node">
<title>Node1</title>
<g id="a_Node000001"><a xlink:title="Исключение для ошибок при операциях с доменами.">
<polygon fill="#999999" stroke="none" points="143.25,-52 0,-52 0,0 143.25,0 143.25,-52"/>
<text xml:space="preserve" text-anchor="start" x="12" y="-38.5" font-family="Helvetica,sans-Serif" font-size="10.00">DomainOperationException</text>
<text xml:space="preserve" text-anchor="start" x="70.12" y="-22.5" font-family="Helvetica,sans-Serif" font-size="10.00"> </text>
<text xml:space="preserve" text-anchor="start" x="4" y="-6.5" font-family="Helvetica,sans-Serif" font-size="10.00">+</text>
<text xml:space="preserve" text-anchor="start" x="14" y="-6.5" font-family="Helvetica,sans-Serif" font-size="10.00">DomainOperationException()</text>
<polygon fill="#666666" stroke="#666666" points="0,-34 0,-34 143.25,-34 143.25,-34 0,-34"/>
<polygon fill="#666666" stroke="#666666" points="0,-18 0,-18 143.25,-18 143.25,-18 0,-18"/>
<polygon fill="none" stroke="#666666" points="0,0 0,-52 143.25,-52 143.25,0 0,0"/>
</a>
</g>
</g>
<!-- Node2 -->
<g id="Node000002" class="node">
<title>Node2</title>
<g id="a_Node000002"><a xlink:href="class_network_exception.html" target="_top" xlink:title="Базовый класс исключений для сетевых операций.">
<polygon fill="white" stroke="none" points="123.75,-140 19.5,-140 19.5,-88 123.75,-88 123.75,-140"/>
<text xml:space="preserve" text-anchor="start" x="31.5" y="-126.5" font-family="Helvetica,sans-Serif" font-size="10.00">NetworkException</text>
<text xml:space="preserve" text-anchor="start" x="70.12" y="-110.5" font-family="Helvetica,sans-Serif" font-size="10.00"> </text>
<text xml:space="preserve" text-anchor="start" x="23.5" y="-94.5" font-family="Helvetica,sans-Serif" font-size="10.00">+</text>
<text xml:space="preserve" text-anchor="start" x="33.5" y="-94.5" font-family="Helvetica,sans-Serif" font-size="10.00">NetworkException()</text>
<polygon fill="#666666" stroke="#666666" points="19.5,-122 19.5,-122 123.75,-122 123.75,-122 19.5,-122"/>
<polygon fill="#666666" stroke="#666666" points="19.5,-106 19.5,-106 123.75,-106 123.75,-106 19.5,-106"/>
<polygon fill="none" stroke="#666666" points="19.5,-88 19.5,-140 123.75,-140 123.75,-88 19.5,-88"/>
</a>
</g>
</g>
<!-- Node2&#45;&gt;Node1 -->
<g id="edge1_Node000001_Node000002" class="edge">
<title>Node2&#45;&gt;Node1</title>
<g id="a_edge1_Node000001_Node000002"><a xlink:title=" ">
<path fill="none" stroke="#63b8ff" d="M71.62,-76.66C71.62,-68.29 71.62,-59.57 71.62,-51.82"/>
<polygon fill="none" stroke="#63b8ff" points="68.13,-76.61 71.63,-86.61 75.13,-76.61 68.13,-76.61"/>
</a>
</g>
</g>
<!-- Node3 -->
<g id="Node000003" class="node">
<title>Node3</title>
<g id="a_Node000003"><a xlink:title=" ">
<polygon fill="white" stroke="none" points="113.88,-228 29.38,-228 29.38,-176 113.88,-176 113.88,-228"/>
<text xml:space="preserve" text-anchor="start" x="33.38" y="-214.5" font-family="Helvetica,sans-Serif" font-size="10.00">std::runtime_error</text>
<text xml:space="preserve" text-anchor="start" x="70.12" y="-198.5" font-family="Helvetica,sans-Serif" font-size="10.00"> </text>
<text xml:space="preserve" text-anchor="start" x="70.12" y="-182.5" font-family="Helvetica,sans-Serif" font-size="10.00"> </text>
<polygon fill="#666666" stroke="#666666" points="29.38,-210 29.38,-210 113.88,-210 113.88,-210 29.38,-210"/>
<polygon fill="#666666" stroke="#666666" points="29.38,-194 29.38,-194 113.88,-194 113.88,-194 29.38,-194"/>
<polygon fill="none" stroke="#666666" points="29.38,-176 29.38,-228 113.88,-228 113.88,-176 29.38,-176"/>
</a>
</g>
</g>
<!-- Node3&#45;&gt;Node2 -->
<g id="edge2_Node000002_Node000003" class="edge">
<title>Node3&#45;&gt;Node2</title>
<g id="a_edge2_Node000002_Node000003"><a xlink:title=" ">
<path fill="none" stroke="#63b8ff" d="M71.62,-164.66C71.62,-156.29 71.62,-147.57 71.62,-139.82"/>
<polygon fill="none" stroke="#63b8ff" points="68.13,-164.61 71.63,-174.61 75.13,-164.61 68.13,-164.61"/>
</a>
</g>
</g>
</g>
</svg>
