<?xml version="1.0" encoding="UTF-8" standalone="no"?>
<!DOCTYPE svg PUBLIC "-//W3C//DTD SVG 1.1//EN"
 "http://www.w3.org/Graphics/SVG/1.1/DTD/svg11.dtd">
<!-- Generated by graphviz version 14.0.1 (20251006.0113)
 -->
<!-- Title: G Pages: 1 -->
<svg width="393pt" height="216pt"
 viewBox="0.00 0.00 393.00 216.00" xmlns="http://www.w3.org/2000/svg" xmlns:xlink="http://www.w3.org/1999/xlink">
<g id="graph0" class="graph" transform="scale(1 1) rotate(0) translate(4 212)">
<title>G</title>
<polygon fill="white" stroke="none" points="-4,4 -4,-212 388.5,-212 388.5,4 -4,4"/>
<!-- NetworkEntity -->
<g id="node1" class="node">
<title>NetworkEntity</title>
<polygon fill="lightgray" stroke="black" points="172.62,-171 172.62,-207.5 262.88,-207.5 262.88,-171 172.62,-171"/>
<text xml:space="preserve" text-anchor="middle" x="217.75" y="-192.1" font-family="Helvetica,sans-Serif" font-size="12.00">NetworkEntity</text>
<text xml:space="preserve" text-anchor="middle" x="217.75" y="-177.85" font-family="Helvetica,sans-Serif" font-size="12.00">«abstract»</text>
</g>
<!-- Device -->
<g id="node2" class="node">
<title>Device</title>
<polygon fill="lightgray" stroke="black" points="148,-85.5 148,-122 219.5,-122 219.5,-85.5 148,-85.5"/>
<text xml:space="preserve" text-anchor="middle" x="183.75" y="-106.6" font-family="Helvetica,sans-Serif" font-size="12.00">Device</text>
<text xml:space="preserve" text-anchor="middle" x="183.75" y="-92.35" font-family="Helvetica,sans-Serif" font-size="12.00">«abstract»</text>
</g>
<!-- Device&#45;&gt;NetworkEntity -->
<g id="edge1" class="edge">
<title>Device&#45;&gt;NetworkEntity</title>
<path fill="none" stroke="black" d="M190.96,-122.46C195.42,-133.42 201.25,-147.73 206.33,-160.21"/>
<polygon fill="none" stroke="black" points="202.97,-161.22 209.98,-169.17 209.45,-158.58 202.97,-161.22"/>
</g>
<!-- DataStorage -->
<g id="node3" class="node">
<title>DataStorage</title>
<polygon fill="lightgray" stroke="black" points="0,-0.5 0,-36.5 83.5,-36.5 83.5,-0.5 0,-0.5"/>
<text xml:space="preserve" text-anchor="middle" x="41.75" y="-14.22" font-family="Helvetica,sans-Serif" font-size="12.00">DataStorage</text>
</g>
<!-- DataStorage&#45;&gt;Device -->
<g id="edge3" class="edge">
<title>DataStorage&#45;&gt;Device</title>
<path fill="none" stroke="black" d="M71.52,-36.95C92.49,-49.25 120.8,-65.84 143.74,-79.29"/>
<polygon fill="none" stroke="black" points="141.83,-82.23 152.23,-84.27 145.37,-76.19 141.83,-82.23"/>
</g>
<!-- Workstation -->
<g id="node4" class="node">
<title>Workstation</title>
<polygon fill="lightgray" stroke="black" points="101.25,-0.5 101.25,-36.5 180.25,-36.5 180.25,-0.5 101.25,-0.5"/>
<text xml:space="preserve" text-anchor="middle" x="140.75" y="-14.22" font-family="Helvetica,sans-Serif" font-size="12.00">Workstation</text>
</g>
<!-- Workstation&#45;&gt;Device -->
<g id="edge4" class="edge">
<title>Workstation&#45;&gt;Device</title>
<path fill="none" stroke="black" d="M149.66,-36.75C155.39,-47.84 162.95,-62.49 169.5,-75.17"/>
<polygon fill="none" stroke="black" points="166.31,-76.61 174.01,-83.89 172.53,-73.4 166.31,-76.61"/>
</g>
<!-- Printer -->
<g id="node5" class="node">
<title>Printer</title>
<polygon fill="lightgray" stroke="black" points="198.75,-0.5 198.75,-36.5 252.75,-36.5 252.75,-0.5 198.75,-0.5"/>
<text xml:space="preserve" text-anchor="middle" x="225.38" y="-14.22" font-family="Helvetica,sans-Serif" font-size="12.00">Printer</text>
</g>
<!-- Printer&#45;&gt;Device -->
<g id="edge5" class="edge">
<title>Printer&#45;&gt;Device</title>
<path fill="none" stroke="black" d="M217.05,-36.75C211.45,-47.84 204.06,-62.49 197.66,-75.17"/>
<polygon fill="none" stroke="black" points="194.65,-73.38 193.27,-83.88 200.9,-76.53 194.65,-73.38"/>
</g>
<!-- Domain -->
<g id="node6" class="node">
<title>Domain</title>
<polygon fill="lightgray" stroke="black" points="290.75,-85.75 290.75,-121.75 348.75,-121.75 348.75,-85.75 290.75,-85.75"/>
<text xml:space="preserve" text-anchor="middle" x="319.75" y="-99.47" font-family="Helvetica,sans-Serif" font-size="12.00">Domain</text>
</g>
<!-- Domain&#45;&gt;NetworkEntity -->
<g id="edge2" class="edge">
<title>Domain&#45;&gt;NetworkEntity</title>
<path fill="none" stroke="black" d="M298.62,-122.05C283.94,-134.06 264.18,-150.24 247.86,-163.6"/>
<polygon fill="none" stroke="black" points="245.9,-160.68 240.38,-169.72 250.33,-166.1 245.9,-160.68"/>
</g>
<!-- Domain&#45;&gt;NetworkEntity -->
<g id="edge7" class="edge">
<title>Domain&#45;&gt;NetworkEntity</title>
<path fill="none" stroke="black" d="M308.9,-122.08C302.2,-131.84 292.95,-143.78 282.75,-152.5 277.86,-156.68 272.4,-160.59 266.78,-164.18"/>
<polygon fill="black" stroke="black" points="266.97,-164.06 263.87,-170.57 256.66,-170.2 259.77,-163.7 266.97,-164.06"/>
<text xml:space="preserve" text-anchor="middle" x="316.19" y="-143" font-family="Helvetica,sans-Serif" font-size="10.00"> владеет </text>
</g>
<!-- CorporateNetwork -->
<g id="node7" class="node">
<title>CorporateNetwork</title>
<polygon fill="lightgray" stroke="black" points="271,-0.5 271,-36.5 384.5,-36.5 384.5,-0.5 271,-0.5"/>
<text xml:space="preserve" text-anchor="middle" x="327.75" y="-14.22" font-family="Helvetica,sans-Serif" font-size="12.00">CorporateNetwork</text>
</g>
<!-- CorporateNetwork&#45;&gt;Domain -->
<g id="edge6" class="edge">
<title>CorporateNetwork&#45;&gt;Domain</title>
<path fill="none" stroke="black" stroke-dasharray="5,2" d="M326.09,-36.75C325.09,-47.13 323.8,-60.63 322.64,-72.72"/>
<polygon fill="none" stroke="black" points="322.64,-72.68 326.05,-79.04 321.49,-84.63 318.08,-78.27 322.64,-72.68"/>
<text xml:space="preserve" text-anchor="middle" x="348.98" y="-57.5" font-family="Helvetica,sans-Serif" font-size="10.00"> содержит </text>
</g>
</g>
</svg>
