<?xml version="1.0" encoding="UTF-8" standalone="no"?>
<!DOCTYPE svg PUBLIC "-//W3C//DTD SVG 1.1//EN"
 "http://www.w3.org/Graphics/SVG/1.1/DTD/svg11.dtd">
<!-- Generated by graphviz version 14.0.1 (20251006.0113)
 -->
<!-- Title: Иерархия классов. Графический вид. Pages: 1 -->
<svg width="279pt" height="104pt"
 viewBox="0.00 0.00 279.00 104.00" xmlns="http://www.w3.org/2000/svg" xmlns:xlink="http://www.w3.org/1999/xlink">
<g id="graph0" class="graph" transform="scale(1 1) rotate(0) translate(4 100)">
<title>Иерархия классов. Графический вид.</title>
<!-- Node0 -->
<g id="Node000000" class="node">
<title>Node0</title>
<g id="a_Node000000"><a xlink:href="class_network_entity.html" target="_top" xlink:title="Абстрактный базовый класс для всех сущностей корпоративной сети.">
<polygon fill="white" stroke="#666666" points="78.25,-39 0,-39 0,-19 78.25,-19 78.25,-39"/>
<text xml:space="preserve" text-anchor="middle" x="39.12" y="-25.5" font-family="Helvetica,sans-Serif" font-size="10.00">NetworkEntity</text>
</a>
</g>
</g>
<!-- Node1 -->
<g id="Node000001" class="node">
<title>Node1</title>
<g id="a_Node000001"><a xlink:href="class_device.html" target="_top" xlink:title="Абстрактный базовый класс для всех устройств корпоративной сети.">
<polygon fill="white" stroke="#666666" points="162.5,-58 115.75,-58 115.75,-38 162.5,-38 162.5,-58"/>
<text xml:space="preserve" text-anchor="middle" x="139.12" y="-44.5" font-family="Helvetica,sans-Serif" font-size="10.00">Device</text>
</a>
</g>
</g>
<!-- Node0&#45;&gt;Node1 -->
<g id="edge1_Node000000_Node000001" class="edge">
<title>Node0&#45;&gt;Node1</title>
<g id="a_edge1_Node000000_Node000001"><a xlink:title=" ">
<path fill="none" stroke="#63b8ff" d="M89.82,-38.63C98.75,-40.37 107.65,-42.09 115.34,-43.58"/>
<polygon fill="#63b8ff" stroke="#63b8ff" points="90.55,-35.21 80.06,-36.74 89.21,-42.08 90.55,-35.21"/>
</a>
</g>
</g>
<!-- Node5 -->
<g id="Node000005" class="node">
<title>Node5</title>
<g id="a_Node000005"><a xlink:href="class_domain.html" target="_top" xlink:title="Класс, представляющий домен в корпоративной сети.">
<polygon fill="white" stroke="#666666" points="164,-20 114.25,-20 114.25,0 164,0 164,-20"/>
<text xml:space="preserve" text-anchor="middle" x="139.12" y="-6.5" font-family="Helvetica,sans-Serif" font-size="10.00">Domain</text>
</a>
</g>
</g>
<!-- Node0&#45;&gt;Node5 -->
<g id="edge5_Node000000_Node000005" class="edge">
<title>Node0&#45;&gt;Node5</title>
<g id="a_edge5_Node000000_Node000005"><a xlink:title=" ">
<path fill="none" stroke="#63b8ff" d="M89.62,-19.4C98.07,-17.77 106.5,-16.13 113.91,-14.69"/>
<polygon fill="#63b8ff" stroke="#63b8ff" points="89.21,-15.92 80.06,-21.26 90.55,-22.79 89.21,-15.92"/>
</a>
</g>
</g>
<!-- Node2 -->
<g id="Node000002" class="node">
<title>Node2</title>
<g id="a_Node000002"><a xlink:href="class_data_storage.html" target="_top" xlink:title="Класс, представляющий хранилище данных в корпоративной сети компании NetSphere.">
<polygon fill="white" stroke="#666666" points="270.75,-96 200,-96 200,-76 270.75,-76 270.75,-96"/>
<text xml:space="preserve" text-anchor="middle" x="235.38" y="-82.5" font-family="Helvetica,sans-Serif" font-size="10.00">DataStorage</text>
</a>
</g>
</g>
<!-- Node1&#45;&gt;Node2 -->
<g id="edge2_Node000001_Node000002" class="edge">
<title>Node1&#45;&gt;Node2</title>
<g id="a_edge2_Node000001_Node000002"><a xlink:title=" ">
<path fill="none" stroke="#63b8ff" d="M173.48,-61.45C184.96,-66.08 197.64,-71.19 208.44,-75.54"/>
<polygon fill="#63b8ff" stroke="#63b8ff" points="174.93,-58.26 164.34,-57.76 172.31,-64.75 174.93,-58.26"/>
</a>
</g>
</g>
<!-- Node3 -->
<g id="Node000003" class="node">
<title>Node3</title>
<g id="a_Node000003"><a xlink:href="class_printer.html" target="_top" xlink:title="Класс, представляющий сетевой принтер в корпоративной сети.">
<polygon fill="white" stroke="#666666" points="257.62,-58 213.12,-58 213.12,-38 257.62,-38 257.62,-58"/>
<text xml:space="preserve" text-anchor="middle" x="235.38" y="-44.5" font-family="Helvetica,sans-Serif" font-size="10.00">Printer</text>
</a>
</g>
</g>
<!-- Node1&#45;&gt;Node3 -->
<g id="edge3_Node000001_Node000003" class="edge">
<title>Node1&#45;&gt;Node3</title>
<g id="a_edge3_Node000001_Node000003"><a xlink:title=" ">
<path fill="none" stroke="#63b8ff" d="M174.23,-48C187.08,-48 201.34,-48 212.74,-48"/>
<polygon fill="#63b8ff" stroke="#63b8ff" points="174.45,-44.5 164.45,-48 174.45,-51.5 174.45,-44.5"/>
</a>
</g>
</g>
<!-- Node4 -->
<g id="Node000004" class="node">
<title>Node4</title>
<g id="a_Node000004"><a xlink:href="class_workstation.html" target="_top" xlink:title="Класс, представляющий рабочую станцию пользователя в корпоративной сети.">
<polygon fill="white" stroke="#666666" points="269.25,-20 201.5,-20 201.5,0 269.25,0 269.25,-20"/>
<text xml:space="preserve" text-anchor="middle" x="235.38" y="-6.5" font-family="Helvetica,sans-Serif" font-size="10.00">Workstation</text>
</a>
</g>
</g>
<!-- Node1&#45;&gt;Node4 -->
<g id="edge4_Node000001_Node000004" class="edge">
<title>Node1&#45;&gt;Node4</title>
<g id="a_edge4_Node000001_Node000004"><a xlink:title=" ">
<path fill="none" stroke="#63b8ff" d="M173.48,-34.55C184.96,-29.92 197.64,-24.81 208.44,-20.46"/>
<polygon fill="#63b8ff" stroke="#63b8ff" points="172.31,-31.25 164.34,-38.24 174.93,-37.74 172.31,-31.25"/>
</a>
</g>
</g>
</g>
</svg>
