<?xml version="1.0" encoding="UTF-8" standalone="no"?>
<!DOCTYPE svg PUBLIC "-//W3C//DTD SVG 1.1//EN"
 "http://www.w3.org/Graphics/SVG/1.1/DTD/svg11.dtd">
<!-- Generated by graphviz version 14.0.1 (20251006.0113)
 -->
<!-- Title: Иерархия классов. Графический вид. Pages: 1 -->
<svg width="404pt" height="142pt"
 viewBox="0.00 0.00 404.00 142.00" xmlns="http://www.w3.org/2000/svg" xmlns:xlink="http://www.w3.org/1999/xlink">
<g id="graph0" class="graph" transform="scale(1 1) rotate(0) translate(4 138)">
<title>Иерархия классов. Графический вид.</title>
<!-- Node0 -->
<g id="Node000000" class="node">
<title>Node0</title>
<g id="a_Node000000"><a xlink:title=" ">
<polygon fill="#e0e0e0" stroke="#999999" points="92.5,-77 0,-77 0,-57 92.5,-57 92.5,-77"/>
<text xml:space="preserve" text-anchor="middle" x="46.25" y="-63.5" font-family="Helvetica,sans-Serif" font-size="10.00">std::runtime_error</text>
</a>
</g>
</g>
<!-- Node1 -->
<g id="Node000001" class="node">
<title>Node1</title>
<g id="a_Node000001"><a xlink:href="class_network_exception.html" target="_top" xlink:title="Базовый класс исключений для сетевых операций.">
<polygon fill="white" stroke="#666666" points="224.75,-77 128.5,-77 128.5,-57 224.75,-57 224.75,-77"/>
<text xml:space="preserve" text-anchor="middle" x="176.62" y="-63.5" font-family="Helvetica,sans-Serif" font-size="10.00">NetworkException</text>
</a>
</g>
</g>
<!-- Node0&#45;&gt;Node1 -->
<g id="edge6_Node000000_Node000001" class="edge">
<title>Node0&#45;&gt;Node1</title>
<g id="a_edge6_Node000000_Node000001"><a xlink:title=" ">
<path fill="none" stroke="#63b8ff" d="M104.17,-67C112.27,-67 120.53,-67 128.42,-67"/>
<polygon fill="#63b8ff" stroke="#63b8ff" points="104.39,-63.5 94.39,-67 104.39,-70.5 104.39,-63.5"/>
</a>
</g>
</g>
<!-- Node2 -->
<g id="Node000002" class="node">
<title>Node2</title>
<g id="a_Node000002"><a xlink:href="class_access_denied_exception.html" target="_top" xlink:title="Исключение для ошибок аутентификации и прав доступа.">
<polygon fill="white" stroke="#666666" points="390,-134 266.75,-134 266.75,-114 390,-114 390,-134"/>
<text xml:space="preserve" text-anchor="middle" x="328.38" y="-120.5" font-family="Helvetica,sans-Serif" font-size="10.00">AccessDeniedException</text>
</a>
</g>
</g>
<!-- Node1&#45;&gt;Node2 -->
<g id="edge7_Node000001_Node000002" class="edge">
<title>Node1&#45;&gt;Node2</title>
<g id="a_edge7_Node000001_Node000002"><a xlink:title=" ">
<path fill="none" stroke="#63b8ff" d="M208.17,-82.31C223.68,-89.73 242.97,-98.44 260.75,-105 269.1,-108.08 278.19,-110.97 286.9,-113.51"/>
<polygon fill="#63b8ff" stroke="#63b8ff" points="209.98,-79.3 199.46,-78.07 206.92,-85.59 209.98,-79.3"/>
</a>
</g>
</g>
<!-- Node3 -->
<g id="Node000003" class="node">
<title>Node3</title>
<g id="a_Node000003"><a xlink:href="class_device_operation_exception.html" target="_top" xlink:title="Исключение для ошибок при операциях с устройствами.">
<polygon fill="white" stroke="#666666" points="394.5,-96 262.25,-96 262.25,-76 394.5,-76 394.5,-96"/>
<text xml:space="preserve" text-anchor="middle" x="328.38" y="-82.5" font-family="Helvetica,sans-Serif" font-size="10.00">DeviceOperationException</text>
</a>
</g>
</g>
<!-- Node1&#45;&gt;Node3 -->
<g id="edge8_Node000001_Node000003" class="edge">
<title>Node1&#45;&gt;Node3</title>
<g id="a_edge8_Node000001_Node000003"><a xlink:title=" ">
<path fill="none" stroke="#63b8ff" d="M236.28,-74.44C244.7,-75.51 253.42,-76.62 261.96,-77.7"/>
<polygon fill="#63b8ff" stroke="#63b8ff" points="236.87,-70.99 226.51,-73.2 235.99,-77.93 236.87,-70.99"/>
</a>
</g>
</g>
<!-- Node4 -->
<g id="Node000004" class="node">
<title>Node4</title>
<g id="a_Node000004"><a xlink:href="class_domain_operation_exception.html" target="_top" xlink:title="Исключение для ошибок при операциях с доменами.">
<polygon fill="white" stroke="#666666" points="396,-58 260.75,-58 260.75,-38 396,-38 396,-58"/>
<text xml:space="preserve" text-anchor="middle" x="328.38" y="-44.5" font-family="Helvetica,sans-Serif" font-size="10.00">DomainOperationException</text>
</a>
</g>
</g>
<!-- Node1&#45;&gt;Node4 -->
<g id="edge9_Node000001_Node000004" class="edge">
<title>Node1&#45;&gt;Node4</title>
<g id="a_edge9_Node000001_Node000004"><a xlink:title=" ">
<path fill="none" stroke="#63b8ff" d="M236.32,-59.55C244.2,-58.55 252.32,-57.52 260.33,-56.51"/>
<polygon fill="#63b8ff" stroke="#63b8ff" points="235.99,-56.07 226.51,-60.8 236.87,-63.01 235.99,-56.07"/>
</a>
</g>
</g>
<!-- Node5 -->
<g id="Node000005" class="node">
<title>Node5</title>
<g id="a_Node000005"><a xlink:href="class_validation_exception.html" target="_top" xlink:title="Исключение для ошибок валидации данных.">
<polygon fill="white" stroke="#666666" points="379.12,-20 277.62,-20 277.62,0 379.12,0 379.12,-20"/>
<text xml:space="preserve" text-anchor="middle" x="328.38" y="-6.5" font-family="Helvetica,sans-Serif" font-size="10.00">ValidationException</text>
</a>
</g>
</g>
<!-- Node1&#45;&gt;Node5 -->
<g id="edge10_Node000001_Node000005" class="edge">
<title>Node1&#45;&gt;Node5</title>
<g id="a_edge10_Node000001_Node000005"><a xlink:title=" ">
<path fill="none" stroke="#63b8ff" d="M208.17,-51.69C223.68,-44.27 242.97,-35.56 260.75,-29 269.1,-25.92 278.19,-23.03 286.9,-20.49"/>
<polygon fill="#63b8ff" stroke="#63b8ff" points="206.92,-48.41 199.46,-55.93 209.98,-54.7 206.92,-48.41"/>
</a>
</g>
</g>
</g>
</svg>
