<?xml version="1.0" encoding="UTF-8" standalone="no"?>
<!DOCTYPE svg PUBLIC "-//W3C//DTD SVG 1.1//EN"
 "http://www.w3.org/Graphics/SVG/1.1/DTD/svg11.dtd">
<!-- Generated by graphviz version 14.0.1 (20251006.0113)
 -->
<!-- Title: src/NetSphere/main.cpp Pages: 1 -->
<!--zoomable 252 -->

<svg id="main" version="1.1" xmlns="http://www.w3.org/2000/svg" xmlns:xlink="http://www.w3.org/1999/xlink" xml:space="preserve" onload="init(evt)">

<style type="text/css"><![CDATA[
.node, .edge {opacity: 0.7;}
.node.selected, .edge.selected {opacity: 1;}
.edge:hover path { stroke: red; }
.edge:hover polygon { stroke: red; fill: red; }
]]></style>

<defs>
  <circle id="rim" cx="0" cy="0" r="7"/>
  <circle id="rim2" cx="0" cy="0" r="3.5"/>
  <g id="zoomPlus">
    <use xlink:href="#rim" fill="#404040"><set attributeName="fill" to="#808080" begin="zoomplus.mouseover" end="zoomplus.mouseout"/></use>
    <path d="M-4,0h8M0,-4v8" fill="none" stroke="white" stroke-width="1.5" pointer-events="none"/>
  </g>
  <g id="zoomMin">
    <use xlink:href="#rim" fill="#404040"><set attributeName="fill" to="#808080" begin="zoomminus.mouseover" end="zoomminus.mouseout"/></use>
    <path d="M-4,0h8" fill="none" stroke="white" stroke-width="1.5" pointer-events="none"/>
  </g>
  <g id="arrowUp" transform="translate(30 24)">
    <use xlink:href="#rim"/>
    <path pointer-events="none" fill="none" stroke="white" stroke-width="1.5" d="M0,-3.0v7 M-2.5,-0.5L0,-3.0L2.5,-0.5"/>
  </g>
  <g id="arrowRight" transform="rotate(90) translate(36 -43)">
    <use xlink:href="#rim"/>
    <path pointer-events="none" fill="none" stroke="white" stroke-width="1.5" d="M0,-3.0v7 M-2.5,-0.5L0,-3.0L2.5,-0.5"/>
  </g>
  <g id="arrowDown" transform="rotate(180) translate(-30 -48)">
    <use xlink:href="#rim"/>
    <path pointer-events="none" fill="none" stroke="white" stroke-width="1.5" d="M0,-3.0v7 M-2.5,-0.5L0,-3.0L2.5,-0.5"/>
  </g>
  <g id="arrowLeft" transform="rotate(270) translate(-36 17)">
    <use xlink:href="#rim"/>
    <path pointer-events="none" fill="none" stroke="white" stroke-width="1.5" d="M0,-3.0v7 M-2.5,-0.5L0,-3.0L2.5,-0.5"/>
  </g>
  <g id="resetDef">
    <use xlink:href="#rim2" fill="#404040"><set attributeName="fill" to="#808080" begin="reset.mouseover" end="reset.mouseout"/></use>
  </g>
</defs>
<script type="application/ecmascript">
var viewWidth = 640;
var viewHeight = 252;
var sectionId = 'dynsection-0';
</script>
<script type="application/ecmascript" xlink:href="svg.min.js"/>
<svg id="graph" class="graph">
<g id="viewport">
<title>src/NetSphere/main.cpp</title>
<!-- Node1 -->
<g id="Node000001" class="node">
<title>Node1</title>
<g id="a_Node000001"><a xlink:title="Главная функция приложения NetSphere.">
<polygon fill="#999999" stroke="#666666" points="362.57,-244 240.82,-244 240.82,-224 362.57,-224 362.57,-244"/>
<text xml:space="preserve" text-anchor="middle" x="301.69" y="-230.5" font-family="Helvetica,sans-Serif" font-size="10.00">src/NetSphere/main.cpp</text>
</a>
</g>
</g>
<!-- Node2 -->
<g id="Node000002" class="node">
<title>Node2</title>
<g id="a_Node000002"><a xlink:title=" ">
<polygon fill="#e0e0e0" stroke="#999999" points="84.44,-20 30.94,-20 30.94,0 84.44,0 84.44,-20"/>
<text xml:space="preserve" text-anchor="middle" x="57.69" y="-6.5" font-family="Helvetica,sans-Serif" font-size="10.00">iostream</text>
</a>
</g>
</g>
<!-- Node1&#45;&gt;Node2 -->
<g id="edge1_Node000001_Node000002" class="edge">
<title>Node1&#45;&gt;Node2</title>
<g id="a_edge1_Node000001_Node000002"><a xlink:title=" ">
<path fill="none" stroke="#63b8ff" d="M240.32,-233.1C187.22,-230.69 110.03,-221.02 51.69,-188 16.71,-168.2 -6.82,-151.05 2.69,-112 10.3,-80.76 30.1,-48.85 43.75,-29.48"/>
<polygon fill="#63b8ff" stroke="#63b8ff" points="46.46,-31.7 49.51,-21.55 40.8,-27.58 46.46,-31.7"/>
</a>
</g>
</g>
<!-- Node3 -->
<g id="Node000003" class="node">
<title>Node3</title>
<g id="a_Node000003"><a xlink:title=" ">
<polygon fill="#e0e0e0" stroke="#999999" points="632.44,-188 590.94,-188 590.94,-168 632.44,-168 632.44,-188"/>
<text xml:space="preserve" text-anchor="middle" x="611.69" y="-174.5" font-family="Helvetica,sans-Serif" font-size="10.00">locale</text>
</a>
</g>
</g>
<!-- Node1&#45;&gt;Node3 -->
<g id="edge2_Node000001_Node000003" class="edge">
<title>Node1&#45;&gt;Node3</title>
<g id="a_edge2_Node000001_Node000003"><a xlink:title=" ">
<path fill="none" stroke="#63b8ff" d="M362.87,-224.59C418.8,-216.53 503.66,-203.33 576.69,-188 577.68,-187.79 578.69,-187.57 579.71,-187.35"/>
<polygon fill="#63b8ff" stroke="#63b8ff" points="580.28,-190.81 589.19,-185.08 578.65,-184 580.28,-190.81"/>
</a>
</g>
</g>
<!-- Node4 -->
<g id="Node000004" class="node">
<title>Node4</title>
<g id="a_Node000004"><a xlink:title=" ">
<polygon fill="#e0e0e0" stroke="#999999" points="462.32,-20 411.07,-20 411.07,0 462.32,0 462.32,-20"/>
<text xml:space="preserve" text-anchor="middle" x="436.69" y="-6.5" font-family="Helvetica,sans-Serif" font-size="10.00">memory</text>
</a>
</g>
</g>
<!-- Node1&#45;&gt;Node4 -->
<g id="edge3_Node000001_Node000004" class="edge">
<title>Node1&#45;&gt;Node4</title>
<g id="a_edge3_Node000001_Node000004"><a xlink:title=" ">
<path fill="none" stroke="#63b8ff" d="M362.8,-227.02C398.08,-221.28 442,-210.02 475.69,-188 502.18,-170.68 509.34,-161.91 519.69,-132 524.66,-117.63 531.12,-76.58 518.69,-56 508.7,-39.47 490.29,-28.58 473.45,-21.67"/>
<polygon fill="#63b8ff" stroke="#63b8ff" points="474.72,-18.4 464.12,-18.2 472.28,-24.97 474.72,-18.4"/>
</a>
</g>
</g>
<!-- Node5 -->
<g id="Node000005" class="node">
<title>Node5</title>
<g id="a_Node000005"><a xlink:href="_data_storage_8h.html" target="_top" xlink:title="Заголовочный файл класса DataStorage &#45; хранилища данных в корпоративной сети.">
<polygon fill="white" stroke="#666666" points="139.19,-188 60.19,-188 60.19,-168 139.19,-168 139.19,-188"/>
<text xml:space="preserve" text-anchor="middle" x="99.69" y="-174.5" font-family="Helvetica,sans-Serif" font-size="10.00">DataStorage.h</text>
</a>
</g>
</g>
<!-- Node1&#45;&gt;Node5 -->
<g id="edge4_Node000001_Node000005" class="edge">
<title>Node1&#45;&gt;Node5</title>
<g id="a_edge4_Node000001_Node000005"><a xlink:title=" ">
<path fill="none" stroke="#63b8ff" d="M266.5,-223.59C233.11,-214.67 182.71,-201.19 146.05,-191.39"/>
<polygon fill="#63b8ff" stroke="#63b8ff" points="147.18,-188.07 136.61,-188.87 145.37,-194.83 147.18,-188.07"/>
</a>
</g>
</g>
<!-- Node14 -->
<g id="Node000014" class="node">
<title>Node14</title>
<g id="a_Node000014"><a xlink:href="_workstation_8h.html" target="_top" xlink:title="Заголовочный файл класса Workstation &#45; рабочей станции пользователя.">
<polygon fill="white" stroke="#666666" points="303.69,-188 227.69,-188 227.69,-168 303.69,-168 303.69,-188"/>
<text xml:space="preserve" text-anchor="middle" x="265.69" y="-174.5" font-family="Helvetica,sans-Serif" font-size="10.00">Workstation.h</text>
</a>
</g>
</g>
<!-- Node1&#45;&gt;Node14 -->
<g id="edge17_Node000001_Node000014" class="edge">
<title>Node1&#45;&gt;Node14</title>
<g id="a_edge17_Node000001_Node000014"><a xlink:title=" ">
<path fill="none" stroke="#63b8ff" d="M295.42,-223.59C290.67,-216.47 283.99,-206.45 278.17,-197.72"/>
<polygon fill="#63b8ff" stroke="#63b8ff" points="281.19,-195.94 272.73,-189.56 275.36,-199.82 281.19,-195.94"/>
</a>
</g>
</g>
<!-- Node16 -->
<g id="Node000016" class="node">
<title>Node16</title>
<g id="a_Node000016"><a xlink:href="_printer_8h.html" target="_top" xlink:title="Заголовочный файл класса Printer &#45; сетевого принтера.">
<polygon fill="white" stroke="#666666" points="210.07,-188 157.32,-188 157.32,-168 210.07,-168 210.07,-188"/>
<text xml:space="preserve" text-anchor="middle" x="183.69" y="-174.5" font-family="Helvetica,sans-Serif" font-size="10.00">Printer.h</text>
</a>
</g>
</g>
<!-- Node1&#45;&gt;Node16 -->
<g id="edge20_Node000001_Node000016" class="edge">
<title>Node1&#45;&gt;Node16</title>
<g id="a_edge20_Node000001_Node000016"><a xlink:title=" ">
<path fill="none" stroke="#63b8ff" d="M281.14,-223.59C262.81,-215.21 235.7,-202.8 214.73,-193.21"/>
<polygon fill="#63b8ff" stroke="#63b8ff" points="216.33,-190.09 205.78,-189.11 213.42,-196.45 216.33,-190.09"/>
</a>
</g>
</g>
<!-- Node17 -->
<g id="Node000017" class="node">
<title>Node17</title>
<g id="a_Node000017"><a xlink:href="_domain_8h.html" target="_top" xlink:title="Заголовочный файл класса Domain &#45; домена корпоративной сети.">
<polygon fill="white" stroke="#666666" points="377.69,-132 319.69,-132 319.69,-112 377.69,-112 377.69,-132"/>
<text xml:space="preserve" text-anchor="middle" x="348.69" y="-118.5" font-family="Helvetica,sans-Serif" font-size="10.00">Domain.h</text>
</a>
</g>
</g>
<!-- Node1&#45;&gt;Node17 -->
<g id="edge22_Node000001_Node000017" class="edge">
<title>Node1&#45;&gt;Node17</title>
<g id="a_edge22_Node000001_Node000017"><a xlink:title=" ">
<path fill="none" stroke="#63b8ff" d="M305.7,-223.62C313.33,-205.76 330.09,-166.53 340.29,-142.67"/>
<polygon fill="#63b8ff" stroke="#63b8ff" points="343.39,-144.32 344.1,-133.75 336.95,-141.57 343.39,-144.32"/>
</a>
</g>
</g>
<!-- Node19 -->
<g id="Node000019" class="node">
<title>Node19</title>
<g id="a_Node000019"><a xlink:href="_corporate_network_8h.html" target="_top" xlink:title="Заголовочный файл класса CorporateNetwork &#45; корпоративной сети.">
<polygon fill="white" stroke="#666666" points="466.57,-188 362.82,-188 362.82,-168 466.57,-168 466.57,-188"/>
<text xml:space="preserve" text-anchor="middle" x="414.69" y="-174.5" font-family="Helvetica,sans-Serif" font-size="10.00">CorporateNetwork.h</text>
</a>
</g>
</g>
<!-- Node1&#45;&gt;Node19 -->
<g id="edge27_Node000001_Node000019" class="edge">
<title>Node1&#45;&gt;Node19</title>
<g id="a_edge27_Node000001_Node000019"><a xlink:title=" ">
<path fill="none" stroke="#63b8ff" d="M321.37,-223.59C338.85,-215.24 364.64,-202.92 384.69,-193.34"/>
<polygon fill="#63b8ff" stroke="#63b8ff" points="385.97,-196.6 393.49,-189.13 382.96,-190.29 385.97,-196.6"/>
</a>
</g>
</g>
<!-- Node6 -->
<g id="Node000006" class="node">
<title>Node6</title>
<g id="a_Node000006"><a xlink:href="_device_8h.html" target="_top" xlink:title="Заголовочный файл базового класса Device для всех устройств сети.">
<polygon fill="white" stroke="#666666" points="199.19,-132 144.19,-132 144.19,-112 199.19,-112 199.19,-132"/>
<text xml:space="preserve" text-anchor="middle" x="171.69" y="-118.5" font-family="Helvetica,sans-Serif" font-size="10.00">Device.h</text>
</a>
</g>
</g>
<!-- Node5&#45;&gt;Node6 -->
<g id="edge5_Node000005_Node000006" class="edge">
<title>Node5&#45;&gt;Node6</title>
<g id="a_edge5_Node000005_Node000006"><a xlink:title=" ">
<path fill="none" stroke="#63b8ff" d="M112.23,-167.59C122.66,-159.77 137.74,-148.46 150.1,-139.19"/>
<polygon fill="#63b8ff" stroke="#63b8ff" points="152.18,-142.01 158.08,-133.21 147.98,-136.41 152.18,-142.01"/>
</a>
</g>
</g>
<!-- Node12 -->
<g id="Node000012" class="node">
<title>Node12</title>
<g id="a_Node000012"><a xlink:title=" ">
<polygon fill="#e0e0e0" stroke="#999999" points="55.19,-132 12.19,-132 12.19,-112 55.19,-112 55.19,-132"/>
<text xml:space="preserve" text-anchor="middle" x="33.69" y="-118.5" font-family="Helvetica,sans-Serif" font-size="10.00">vector</text>
</a>
</g>
</g>
<!-- Node5&#45;&gt;Node12 -->
<g id="edge15_Node000005_Node000012" class="edge">
<title>Node5&#45;&gt;Node12</title>
<g id="a_edge15_Node000005_Node000012"><a xlink:title=" ">
<path fill="none" stroke="#63b8ff" d="M88.19,-167.59C78.73,-159.85 65.09,-148.69 53.82,-139.47"/>
<polygon fill="#63b8ff" stroke="#63b8ff" points="56.18,-136.88 46.23,-133.26 51.75,-142.3 56.18,-136.88"/>
</a>
</g>
</g>
<!-- Node13 -->
<g id="Node000013" class="node">
<title>Node13</title>
<g id="a_Node000013"><a xlink:title=" ">
<polygon fill="#e0e0e0" stroke="#999999" points="126.44,-132 72.94,-132 72.94,-112 126.44,-112 126.44,-132"/>
<text xml:space="preserve" text-anchor="middle" x="99.69" y="-118.5" font-family="Helvetica,sans-Serif" font-size="10.00">compare</text>
</a>
</g>
</g>
<!-- Node5&#45;&gt;Node13 -->
<g id="edge16_Node000005_Node000013" class="edge">
<title>Node5&#45;&gt;Node13</title>
<g id="a_edge16_Node000005_Node000013"><a xlink:title=" ">
<path fill="none" stroke="#63b8ff" d="M99.69,-167.59C99.69,-161.01 99.69,-151.96 99.69,-143.73"/>
<polygon fill="#63b8ff" stroke="#63b8ff" points="103.19,-143.81 99.69,-133.81 96.19,-143.81 103.19,-143.81"/>
</a>
</g>
</g>
<!-- Node7 -->
<g id="Node000007" class="node">
<title>Node7</title>
<g id="a_Node000007"><a xlink:href="_network_entity_8h.html" target="_top" xlink:title="Заголовочный файл базового класса NetworkEntity для всех сущностей сети.">
<polygon fill="white" stroke="#666666" points="192.57,-76 106.82,-76 106.82,-56 192.57,-56 192.57,-76"/>
<text xml:space="preserve" text-anchor="middle" x="149.69" y="-62.5" font-family="Helvetica,sans-Serif" font-size="10.00">NetworkEntity.h</text>
</a>
</g>
</g>
<!-- Node6&#45;&gt;Node7 -->
<g id="edge6_Node000006_Node000007" class="edge">
<title>Node6&#45;&gt;Node7</title>
<g id="a_edge6_Node000006_Node000007"><a xlink:title=" ">
<path fill="none" stroke="#63b8ff" d="M167.86,-111.59C165.08,-104.78 161.23,-95.32 157.78,-86.86"/>
<polygon fill="#63b8ff" stroke="#63b8ff" points="161.06,-85.64 154.05,-77.7 154.58,-88.28 161.06,-85.64"/>
</a>
</g>
</g>
<!-- Node8 -->
<g id="Node000008" class="node">
<title>Node8</title>
<g id="a_Node000008"><a xlink:title=" ">
<polygon fill="#e0e0e0" stroke="#999999" points="193.69,-20 153.69,-20 153.69,0 193.69,0 193.69,-20"/>
<text xml:space="preserve" text-anchor="middle" x="173.69" y="-6.5" font-family="Helvetica,sans-Serif" font-size="10.00">string</text>
</a>
</g>
</g>
<!-- Node6&#45;&gt;Node8 -->
<g id="edge13_Node000006_Node000008" class="edge">
<title>Node6&#45;&gt;Node8</title>
<g id="a_edge13_Node000006_Node000008"><a xlink:title=" ">
<path fill="none" stroke="#63b8ff" d="M143.83,-113.37C106.98,-102.99 45.94,-84.74 39.69,-76 34.52,-68.77 34.5,-63.22 39.69,-56 62.87,-23.76 110.29,-14.3 142.04,-11.7"/>
<polygon fill="#63b8ff" stroke="#63b8ff" points="142.08,-15.2 151.85,-11.1 141.66,-8.22 142.08,-15.2"/>
</a>
</g>
</g>
<!-- Node9 -->
<g id="Node000009" class="node">
<title>Node9</title>
<g id="a_Node000009"><a xlink:href="_network_exceptions_8h.html" target="_top" xlink:title="Заголовочный файл с классами исключений для корпоративной сети.">
<polygon fill="white" stroke="#666666" points="320.57,-76 210.82,-76 210.82,-56 320.57,-56 320.57,-76"/>
<text xml:space="preserve" text-anchor="middle" x="265.69" y="-62.5" font-family="Helvetica,sans-Serif" font-size="10.00">NetworkExceptions.h</text>
</a>
</g>
</g>
<!-- Node6&#45;&gt;Node9 -->
<g id="edge10_Node000006_Node000009" class="edge">
<title>Node6&#45;&gt;Node9</title>
<g id="a_edge10_Node000006_Node000009"><a xlink:title=" ">
<path fill="none" stroke="#63b8ff" d="M188.06,-111.59C202.26,-103.44 223.07,-91.48 239.57,-82"/>
<polygon fill="#63b8ff" stroke="#63b8ff" points="240.95,-85.25 247.88,-77.23 237.46,-79.18 240.95,-85.25"/>
</a>
</g>
</g>
<!-- Node11 -->
<g id="Node000011" class="node">
<title>Node11</title>
<g id="a_Node000011"><a xlink:title=" ">
<polygon fill="#e0e0e0" stroke="#999999" points="88.69,-76 48.69,-76 48.69,-56 88.69,-56 88.69,-76"/>
<text xml:space="preserve" text-anchor="middle" x="68.69" y="-62.5" font-family="Helvetica,sans-Serif" font-size="10.00">regex</text>
</a>
</g>
</g>
<!-- Node6&#45;&gt;Node11 -->
<g id="edge14_Node000006_Node000011" class="edge">
<title>Node6&#45;&gt;Node11</title>
<g id="a_edge14_Node000006_Node000011"><a xlink:title=" ">
<path fill="none" stroke="#63b8ff" d="M153.75,-111.59C138.04,-103.36 114.96,-91.26 96.8,-81.74"/>
<polygon fill="#63b8ff" stroke="#63b8ff" points="98.59,-78.73 88.11,-77.18 95.34,-84.93 98.59,-78.73"/>
</a>
</g>
</g>
<!-- Node7&#45;&gt;Node2 -->
<g id="edge7_Node000007_Node000002" class="edge">
<title>Node7&#45;&gt;Node2</title>
<g id="a_edge7_Node000007_Node000002"><a xlink:title=" ">
<path fill="none" stroke="#63b8ff" d="M133.66,-55.59C119.9,-47.51 99.79,-35.71 83.71,-26.27"/>
<polygon fill="#63b8ff" stroke="#63b8ff" points="85.54,-23.29 75.15,-21.25 82,-29.33 85.54,-23.29"/>
</a>
</g>
</g>
<!-- Node7&#45;&gt;Node4 -->
<g id="edge9_Node000007_Node000004" class="edge">
<title>Node7&#45;&gt;Node4</title>
<g id="a_edge9_Node000007_Node000004"><a xlink:title=" ">
<path fill="none" stroke="#63b8ff" d="M192.97,-56.86C249.16,-46.28 346.31,-28 399.4,-18.02"/>
<polygon fill="#63b8ff" stroke="#63b8ff" points="399.99,-21.47 409.17,-16.18 398.69,-14.59 399.99,-21.47"/>
</a>
</g>
</g>
<!-- Node7&#45;&gt;Node8 -->
<g id="edge8_Node000007_Node000008" class="edge">
<title>Node7&#45;&gt;Node8</title>
<g id="a_edge8_Node000007_Node000008"><a xlink:title=" ">
<path fill="none" stroke="#63b8ff" d="M153.87,-55.59C156.93,-48.7 161.2,-39.1 164.99,-30.57"/>
<polygon fill="#63b8ff" stroke="#63b8ff" points="168.08,-32.24 168.94,-21.68 161.68,-29.4 168.08,-32.24"/>
</a>
</g>
</g>
<!-- Node9&#45;&gt;Node8 -->
<g id="edge12_Node000009_Node000008" class="edge">
<title>Node9&#45;&gt;Node8</title>
<g id="a_edge12_Node000009_Node000008"><a xlink:title=" ">
<path fill="none" stroke="#63b8ff" d="M249.66,-55.59C235.9,-47.51 215.79,-35.71 199.71,-26.27"/>
<polygon fill="#63b8ff" stroke="#63b8ff" points="201.54,-23.29 191.15,-21.25 198,-29.33 201.54,-23.29"/>
</a>
</g>
</g>
<!-- Node10 -->
<g id="Node000010" class="node">
<title>Node10</title>
<g id="a_Node000010"><a xlink:title=" ">
<polygon fill="#e0e0e0" stroke="#999999" points="295.07,-20 236.32,-20 236.32,0 295.07,0 295.07,-20"/>
<text xml:space="preserve" text-anchor="middle" x="265.69" y="-6.5" font-family="Helvetica,sans-Serif" font-size="10.00">stdexcept</text>
</a>
</g>
</g>
<!-- Node9&#45;&gt;Node10 -->
<g id="edge11_Node000009_Node000010" class="edge">
<title>Node9&#45;&gt;Node10</title>
<g id="a_edge11_Node000009_Node000010"><a xlink:title=" ">
<path fill="none" stroke="#63b8ff" d="M265.69,-55.59C265.69,-49.01 265.69,-39.96 265.69,-31.73"/>
<polygon fill="#63b8ff" stroke="#63b8ff" points="269.19,-31.81 265.69,-21.81 262.19,-31.81 269.19,-31.81"/>
</a>
</g>
</g>
<!-- Node14&#45;&gt;Node6 -->
<g id="edge18_Node000014_Node000006" class="edge">
<title>Node14&#45;&gt;Node6</title>
<g id="a_edge18_Node000014_Node000006"><a xlink:title=" ">
<path fill="none" stroke="#63b8ff" d="M249.32,-167.59C235.12,-159.44 214.31,-147.48 197.81,-138"/>
<polygon fill="#63b8ff" stroke="#63b8ff" points="199.92,-135.18 189.5,-133.23 196.43,-141.25 199.92,-135.18"/>
</a>
</g>
</g>
<!-- Node15 -->
<g id="Node000015" class="node">
<title>Node15</title>
<g id="a_Node000015"><a xlink:title=" ">
<polygon fill="#e0e0e0" stroke="#999999" points="263.69,-132 223.69,-132 223.69,-112 263.69,-112 263.69,-132"/>
<text xml:space="preserve" text-anchor="middle" x="243.69" y="-118.5" font-family="Helvetica,sans-Serif" font-size="10.00">ctime</text>
</a>
</g>
</g>
<!-- Node14&#45;&gt;Node15 -->
<g id="edge19_Node000014_Node000015" class="edge">
<title>Node14&#45;&gt;Node15</title>
<g id="a_edge19_Node000014_Node000015"><a xlink:title=" ">
<path fill="none" stroke="#63b8ff" d="M261.86,-167.59C259.08,-160.78 255.23,-151.32 251.78,-142.86"/>
<polygon fill="#63b8ff" stroke="#63b8ff" points="255.06,-141.64 248.05,-133.7 248.58,-144.28 255.06,-141.64"/>
</a>
</g>
</g>
<!-- Node16&#45;&gt;Node6 -->
<g id="edge21_Node000016_Node000006" class="edge">
<title>Node16&#45;&gt;Node6</title>
<g id="a_edge21_Node000016_Node000006"><a xlink:title=" ">
<path fill="none" stroke="#63b8ff" d="M181.6,-167.59C180.12,-160.93 178.08,-151.75 176.23,-143.44"/>
<polygon fill="#63b8ff" stroke="#63b8ff" points="179.67,-142.78 174.08,-133.78 172.84,-144.3 179.67,-142.78"/>
</a>
</g>
</g>
<!-- Node17&#45;&gt;Node4 -->
<g id="edge26_Node000017_Node000004" class="edge">
<title>Node17&#45;&gt;Node4</title>
<g id="a_edge26_Node000017_Node000004"><a xlink:title=" ">
<path fill="none" stroke="#63b8ff" d="M349.38,-111.71C350.81,-98.22 355.08,-72.99 367.69,-56 377.11,-43.32 391.25,-33.2 404.28,-25.8"/>
<polygon fill="#63b8ff" stroke="#63b8ff" points="405.84,-28.93 413.04,-21.15 402.57,-22.74 405.84,-28.93"/>
</a>
</g>
</g>
<!-- Node17&#45;&gt;Node7 -->
<g id="edge23_Node000017_Node000007" class="edge">
<title>Node17&#45;&gt;Node7</title>
<g id="a_edge23_Node000017_Node000007"><a xlink:title=" ">
<path fill="none" stroke="#63b8ff" d="M319.33,-113.03C286.66,-104.17 233.46,-89.73 195.35,-79.39"/>
<polygon fill="#63b8ff" stroke="#63b8ff" points="196.57,-76.09 186,-76.85 194.73,-82.85 196.57,-76.09"/>
</a>
</g>
</g>
<!-- Node17&#45;&gt;Node9 -->
<g id="edge24_Node000017_Node000009" class="edge">
<title>Node17&#45;&gt;Node9</title>
<g id="a_edge24_Node000017_Node000009"><a xlink:title=" ">
<path fill="none" stroke="#63b8ff" d="M334.23,-111.59C321.93,-103.59 304.01,-91.93 289.58,-82.54"/>
<polygon fill="#63b8ff" stroke="#63b8ff" points="291.82,-79.82 281.53,-77.3 288,-85.69 291.82,-79.82"/>
</a>
</g>
</g>
<!-- Node18 -->
<g id="Node000018" class="node">
<title>Node18</title>
<g id="a_Node000018"><a xlink:title=" ">
<polygon fill="#e0e0e0" stroke="#999999" points="459.07,-76 376.32,-76 376.32,-56 459.07,-56 459.07,-76"/>
<text xml:space="preserve" text-anchor="middle" x="417.69" y="-62.5" font-family="Helvetica,sans-Serif" font-size="10.00">unordered_map</text>
</a>
</g>
</g>
<!-- Node17&#45;&gt;Node18 -->
<g id="edge25_Node000017_Node000018" class="edge">
<title>Node17&#45;&gt;Node18</title>
<g id="a_edge25_Node000017_Node000018"><a xlink:title=" ">
<path fill="none" stroke="#63b8ff" d="M360.71,-111.59C370.7,-103.77 385.15,-92.46 397,-83.19"/>
<polygon fill="#63b8ff" stroke="#63b8ff" points="398.9,-86.15 404.62,-77.23 394.58,-80.64 398.9,-86.15"/>
</a>
</g>
</g>
<!-- Node19&#45;&gt;Node4 -->
<g id="edge31_Node000019_Node000004" class="edge">
<title>Node19&#45;&gt;Node4</title>
<g id="a_edge31_Node000019_Node000004"><a xlink:title=" ">
<path fill="none" stroke="#63b8ff" d="M451.52,-167.54C469.68,-160.81 489.96,-149.73 500.69,-132 518.18,-103.1 516.26,-85.98 500.69,-56 493.99,-43.1 481.71,-33.12 469.68,-25.87"/>
<polygon fill="#63b8ff" stroke="#63b8ff" points="471.54,-22.9 461.09,-21.15 468.17,-29.04 471.54,-22.9"/>
</a>
</g>
</g>
<!-- Node19&#45;&gt;Node8 -->
<g id="edge32_Node000019_Node000008" class="edge">
<title>Node19&#45;&gt;Node8</title>
<g id="a_edge32_Node000019_Node000008"><a xlink:title=" ">
<path fill="none" stroke="#63b8ff" d="M424.81,-167.81C447.44,-146.15 497.92,-91.1 467.69,-56 432.5,-15.14 280.96,-28.43 227.69,-20 220.36,-18.84 212.48,-17.55 205.06,-16.32"/>
<polygon fill="#63b8ff" stroke="#63b8ff" points="205.87,-12.9 195.43,-14.7 204.71,-19.81 205.87,-12.9"/>
</a>
</g>
</g>
<!-- Node19&#45;&gt;Node9 -->
<g id="edge29_Node000019_Node000009" class="edge">
<title>Node19&#45;&gt;Node9</title>
<g id="a_edge29_Node000019_Node000009"><a xlink:title=" ">
<path fill="none" stroke="#63b8ff" d="M380.72,-167.63C359.03,-160.43 331.23,-148.84 310.69,-132 295.45,-119.5 283.15,-100.57 275.28,-86.36"/>
<polygon fill="#63b8ff" stroke="#63b8ff" points="278.4,-84.76 270.66,-77.52 272.19,-88.01 278.4,-84.76"/>
</a>
</g>
</g>
<!-- Node19&#45;&gt;Node17 -->
<g id="edge28_Node000019_Node000017" class="edge">
<title>Node19&#45;&gt;Node17</title>
<g id="a_edge28_Node000019_Node000017"><a xlink:title=" ">
<path fill="none" stroke="#63b8ff" d="M403.19,-167.59C393.73,-159.85 380.09,-148.69 368.82,-139.47"/>
<polygon fill="#63b8ff" stroke="#63b8ff" points="371.18,-136.88 361.23,-133.26 366.75,-142.3 371.18,-136.88"/>
</a>
</g>
</g>
<!-- Node19&#45;&gt;Node18 -->
<g id="edge30_Node000019_Node000018" class="edge">
<title>Node19&#45;&gt;Node18</title>
<g id="a_edge30_Node000019_Node000018"><a xlink:title=" ">
<path fill="none" stroke="#63b8ff" d="M414.95,-167.62C415.43,-150.01 416.47,-111.59 417.13,-87.65"/>
<polygon fill="#63b8ff" stroke="#63b8ff" points="420.62,-87.96 417.39,-77.87 413.62,-87.77 420.62,-87.96"/>
</a>
</g>
</g>
</g>
</svg>

<g id="navigator" transform="translate(0 0)" fill="#404254">
  <rect fill="#f2f5e9" fill-opacity="0.5" stroke="#606060" stroke-width=".5" x="0" y="0" width="60" height="60"/>
  <use id="zoomplus" xlink:href="#zoomPlus" x="17" y="9" onmousedown="handleZoom(evt,'in')"/>
  <use id="zoomminus" xlink:href="#zoomMin" x="42" y="9" onmousedown="handleZoom(evt,'out')"/>
  <use id="reset" xlink:href="#resetDef" x="30" y="36" onmousedown="handleReset()"/>
   <use id="arrowup" xlink:href="#arrowUp" x="0" y="0" onmousedown="handlePan(0,-1)"/>
  <use id="arrowright" xlink:href="#arrowRight" x="0" y="0" onmousedown="handlePan(1,0)"/>
  <use id="arrowdown" xlink:href="#arrowDown" x="0" y="0" onmousedown="handlePan(0,1)"/>
  <use id="arrowleft" xlink:href="#arrowLeft" x="0" y="0" onmousedown="handlePan(-1,0)"/>
</g>
<svg viewBox="0 0 15 15" width="100%" height="30px" preserveAspectRatio="xMaxYMin meet">
 <g id="arrow_out" transform="scale(0.3 0.3)">
  <a xlink:href="main_8cpp__incl_org.svg" target="_base">
   <rect id="button" ry="5" rx="5" y="6" x="6" height="38" width="38"
        fill="#f2f5e9" fill-opacity="0.5" stroke="#606060" stroke-width="1.0"/>
   <path id="arrow"
     d="M 11.500037,31.436501 C 11.940474,20.09759 22.043105,11.32322 32.158766,21.979434 L 37.068811,17.246167 C 37.068811,17.246167 37.088388,32 37.088388,32 L 22.160133,31.978069 C 22.160133,31.978069 26.997745,27.140456 26.997745,27.140456 C 18.528582,18.264221 13.291696,25.230495 11.500037,31.436501 z"
     style="fill:#404040;"/>
  </a>
 </g>
</svg>

<style type='text/css'>
<![CDATA[
[data-mouse-over-selected='false'] { opacity: 0.7; }
[data-mouse-over-selected='true']  { opacity: 1.0; }
]]>
</style>
<script type="application/ecmascript"><![CDATA[
document.addEventListener('DOMContentLoaded', (event) => {
  highlightEdges();
  highlightAdjacentNodes();
});
]]></script>
</svg>
